<?xml version="1.0" encoding="UTF-8" standalone="no"?>
<!DOCTYPE svg PUBLIC "-//W3C//DTD SVG 1.1//EN" "http://www.w3.org/Graphics/SVG/1.1/DTD/svg11.dtd">
<svg width="100%" height="100%" viewBox="0 0 1280 720" version="1.1" xmlns="http://www.w3.org/2000/svg" xmlns:xlink="http://www.w3.org/1999/xlink" xml:space="preserve" xmlns:serif="http://www.serif.com/" style="fill-rule:evenodd;clip-rule:evenodd;stroke-linecap:round;stroke-linejoin:round;stroke-miterlimit:1.5;">
    <g transform="matrix(8.71638e-17,-1.42349,1.42349,8.71638e-17,264.929,1033.61)">
        <path d="M488.756,505.11L488.756,445.106L515.843,429.178L470.05,418.857L516.39,406.382L470.431,391.689L516.903,380.258L471.117,364.727L517.979,353.261L469.951,339.211L518.026,327.794L488.824,313.037L488.724,259.552" style="fill:none;stroke:black;stroke-width:5.62px;"/>
    </g>
    <g transform="matrix(1.42349,0,0,1.42349,-104.958,-228.382)">
        <g transform="matrix(30,0,0,30,613.963,352.471)">
            <path d="M0.096,-0.495L0.096,-0.563C0.159,-0.569 0.203,-0.579 0.229,-0.594C0.254,-0.608 0.272,-0.642 0.285,-0.696L0.354,-0.696L0.354,0L0.26,0L0.26,-0.495L0.096,-0.495Z" style="fill-rule:nonzero;"/>
        </g>
        <g transform="matrix(30,0,0,30,630.647,352.471)">
            <path d="M0.063,-0.717L0.147,-0.717L0.147,-0.301L0.373,-0.523L0.485,-0.523L0.285,-0.327L0.496,0L0.384,0L0.221,-0.264L0.147,-0.196L0.147,0L0.063,0L0.063,-0.717Z" style="fill-rule:nonzero;"/>
        </g>
        <g transform="matrix(30,0,0,30,645.647,352.471)">
            <path d="M0.049,-0.084L0.218,-0.084L0.218,-0.086C0.107,-0.154 0.053,-0.255 0.055,-0.388C0.06,-0.607 0.172,-0.719 0.389,-0.724C0.606,-0.719 0.718,-0.607 0.723,-0.388C0.725,-0.255 0.671,-0.154 0.56,-0.086L0.56,-0.084L0.729,-0.084L0.729,0L0.452,0L0.452,-0.084C0.57,-0.149 0.628,-0.25 0.627,-0.387C0.627,-0.46 0.607,-0.52 0.567,-0.568C0.527,-0.615 0.468,-0.639 0.389,-0.64C0.311,-0.639 0.252,-0.615 0.212,-0.568C0.171,-0.52 0.151,-0.46 0.151,-0.387C0.15,-0.25 0.208,-0.149 0.326,-0.084L0.326,0L0.049,0L0.049,-0.084Z" style="fill-rule:nonzero;"/>
        </g>
    </g>
    <g transform="matrix(1.42349,0,0,1.42349,69.3582,-222.499)">
        <g transform="matrix(24,0,0,24,653.937,399.627)">
            <path d="M0.272,-0.057C0.33,-0.057 0.37,-0.079 0.392,-0.123C0.413,-0.167 0.424,-0.216 0.424,-0.27C0.424,-0.319 0.417,-0.359 0.401,-0.389C0.376,-0.437 0.333,-0.461 0.273,-0.461C0.219,-0.461 0.18,-0.441 0.156,-0.4C0.131,-0.359 0.119,-0.309 0.119,-0.251C0.119,-0.196 0.131,-0.149 0.156,-0.112C0.18,-0.075 0.219,-0.057 0.272,-0.057ZM0.275,-0.538C0.343,-0.538 0.4,-0.516 0.446,-0.471C0.493,-0.426 0.516,-0.36 0.516,-0.272C0.516,-0.188 0.496,-0.118 0.455,-0.063C0.414,-0.008 0.35,0.019 0.264,0.019C0.192,0.019 0.135,-0.005 0.092,-0.054C0.05,-0.103 0.029,-0.168 0.029,-0.25C0.029,-0.338 0.051,-0.408 0.096,-0.46C0.14,-0.512 0.2,-0.538 0.275,-0.538Z" style="fill-rule:nonzero;"/>
        </g>
        <g transform="matrix(24,0,0,24,667.285,399.627)">
            <path d="M0.152,-0.523L0.152,-0.176C0.152,-0.149 0.157,-0.127 0.165,-0.11C0.181,-0.079 0.21,-0.063 0.252,-0.063C0.314,-0.063 0.355,-0.091 0.377,-0.146C0.389,-0.175 0.396,-0.215 0.396,-0.266L0.396,-0.523L0.483,-0.523L0.483,0L0.4,0L0.401,-0.077C0.39,-0.057 0.376,-0.041 0.359,-0.027C0.325,0 0.285,0.014 0.237,0.014C0.162,0.014 0.111,-0.011 0.084,-0.061C0.07,-0.087 0.063,-0.123 0.063,-0.167L0.063,-0.523L0.152,-0.523Z" style="fill-rule:nonzero;"/>
        </g>
        <g transform="matrix(24,0,0,24,680.633,399.627)">
            <path d="M0.082,-0.669L0.171,-0.669L0.171,-0.523L0.254,-0.523L0.254,-0.451L0.171,-0.451L0.171,-0.11C0.171,-0.092 0.177,-0.079 0.189,-0.073C0.196,-0.07 0.208,-0.068 0.224,-0.068C0.228,-0.068 0.232,-0.068 0.237,-0.068C0.242,-0.068 0.248,-0.069 0.254,-0.069L0.254,0C0.244,0.003 0.234,0.005 0.223,0.006C0.212,0.008 0.2,0.008 0.188,0.008C0.146,0.008 0.119,-0.002 0.104,-0.023C0.089,-0.044 0.082,-0.071 0.082,-0.105L0.082,-0.451L0.011,-0.451L0.011,-0.523L0.082,-0.523L0.082,-0.669Z" style="fill-rule:nonzero;"/>
        </g>
    </g>
    <g transform="matrix(1,0,0,1,38.4637,-38.855)">
        <path d="M595.936,376.473L408.607,256.535L408.607,478.937L595.936,376.473Z" style="fill:none;stroke:black;stroke-width:8px;"/>
    </g>
    <g transform="matrix(1,0,0,1,38.4637,-38.855)">
        <path d="M623.086,376.785L623.086,541.175L359.19,541.175L359.19,428.609L408.607,428.609" style="fill:none;stroke:black;stroke-width:8px;"/>
    </g>
    <g transform="matrix(1,0,0,1,38.4637,-38.855)">
        <path d="M408.607,312.212L233.536,312.212" style="fill:none;stroke:black;stroke-width:8px;"/>
    </g>
    <g transform="matrix(1,0,0,1,38.4637,-38.855)">
        <path d="M424.462,428.475L443.365,428.475" style="fill:none;stroke:black;stroke-width:8px;"/>
    </g>
    <g transform="matrix(1,0,0,1,38.4637,-155.118)">
        <path d="M424.462,428.475L443.365,428.475" style="fill:none;stroke:black;stroke-width:8px;"/>
    </g>
    <g transform="matrix(6.12323e-17,1,-1,6.12323e-17,900.852,-160.556)">
        <path d="M424.462,428.475L443.365,428.475" style="fill:none;stroke:black;stroke-width:8px;"/>
    </g>
    <g transform="matrix(1.42349,0,0,1.42349,-700.003,-286.058)">
        <g transform="matrix(24,0,0,24,653.937,399.627)">
            <path d="M0.064,-0.521L0.154,-0.521L0.154,0L0.064,0L0.064,-0.521ZM0.064,-0.717L0.154,-0.717L0.154,-0.618L0.064,-0.618L0.064,-0.717Z" style="fill-rule:nonzero;"/>
        </g>
        <g transform="matrix(24,0,0,24,659.269,399.627)">
            <path d="M0.064,-0.523L0.148,-0.523L0.148,-0.449C0.173,-0.479 0.199,-0.501 0.227,-0.515C0.254,-0.528 0.285,-0.535 0.319,-0.535C0.393,-0.535 0.443,-0.509 0.469,-0.457C0.484,-0.429 0.491,-0.388 0.491,-0.335L0.491,0L0.401,0L0.401,-0.33C0.401,-0.361 0.397,-0.387 0.387,-0.407C0.372,-0.439 0.343,-0.456 0.302,-0.456C0.281,-0.456 0.264,-0.453 0.251,-0.449C0.227,-0.442 0.206,-0.428 0.188,-0.406C0.173,-0.389 0.163,-0.371 0.159,-0.353C0.155,-0.334 0.152,-0.308 0.152,-0.274L0.152,0L0.064,0L0.064,-0.523Z" style="fill-rule:nonzero;"/>
        </g>
    </g>
</svg>
