<svg version="1.1" viewBox="0.0 0.0 1127.0 697.0" fill="none" stroke="none" stroke-linecap="square" stroke-miterlimit="10" width="1127" height="697" xmlns:xlink="http://www.w3.org/1999/xlink" xmlns="http://www.w3.org/2000/svg"><path fill="#ffffff" d="M0 0L1127.0 0L1127.0 697.0L0 697.0L0 0Z" fill-rule="nonzero"/><path stroke="#333333" stroke-width="1.0" stroke-linecap="butt" d="M93.5 89.5L93.5 610.5" fill-rule="nonzero"/><path stroke="#cccccc" stroke-width="1.0" stroke-linecap="butt" d="M399.5 89.5L399.5 610.5" fill-rule="nonzero"/><path stroke="#cccccc" stroke-width="1.0" stroke-linecap="butt" d="M704.5 89.5L704.5 610.5" fill-rule="nonzero"/><path stroke="#cccccc" stroke-width="1.0" stroke-linecap="butt" d="M1010.5 89.5L1010.5 610.5" fill-rule="nonzero"/><path stroke="#cccccc" stroke-width="1.0" stroke-linecap="butt" d="M93.5 610.5L1092.5 610.5" fill-rule="nonzero"/><path stroke="#cccccc" stroke-width="1.0" stroke-linecap="butt" d="M93.5 545.5L1092.5 545.5" fill-rule="nonzero"/><path stroke="#cccccc" stroke-width="1.0" stroke-linecap="butt" d="M93.5 479.5L1092.5 479.5" fill-rule="nonzero"/><path stroke="#cccccc" stroke-width="1.0" stroke-linecap="butt" d="M93.5 414.5L1092.5 414.5" fill-rule="nonzero"/><path stroke="#333333" stroke-width="1.0" stroke-linecap="butt" d="M93.5 349.5L1092.5 349.5" fill-rule="nonzero"/><path stroke="#cccccc" stroke-width="1.0" stroke-linecap="butt" d="M93.5 284.5L1092.5 284.5" fill-rule="nonzero"/><path stroke="#cccccc" stroke-width="1.0" stroke-linecap="butt" d="M93.5 219.5L1092.5 219.5" fill-rule="nonzero"/><path stroke="#cccccc" stroke-width="1.0" stroke-linecap="butt" d="M93.5 154.5L1092.5 154.5" fill-rule="nonzero"/><path stroke="#cccccc" stroke-width="1.0" stroke-linecap="butt" d="M93.5 89.5L1092.5 89.5" fill-rule="nonzero"/><path stroke="#e6e6e6" stroke-width="1.0" stroke-linecap="butt" d="M93.5 588.5L1092.5 588.5" fill-rule="nonzero"/><path stroke="#e6e6e6" stroke-width="1.0" stroke-linecap="butt" d="M93.5 566.5L1092.5 566.5" fill-rule="nonzero"/><path stroke="#e6e6e6" stroke-width="1.0" stroke-linecap="butt" d="M93.5 523.5L1092.5 523.5" fill-rule="nonzero"/><path stroke="#e6e6e6" stroke-width="1.0" stroke-linecap="butt" d="M93.5 501.5L1092.5 501.5" fill-rule="nonzero"/><path stroke="#e6e6e6" stroke-width="1.0" stroke-linecap="butt" d="M93.5 458.5L1092.5 458.5" fill-rule="nonzero"/><path stroke="#e6e6e6" stroke-width="1.0" stroke-linecap="butt" d="M93.5 436.5L1092.5 436.5" fill-rule="nonzero"/><path stroke="#e6e6e6" stroke-width="1.0" stroke-linecap="butt" d="M93.5 393.5L1092.5 393.5" fill-rule="nonzero"/><path stroke="#e6e6e6" stroke-width="1.0" stroke-linecap="butt" d="M93.5 371.5L1092.5 371.5" fill-rule="nonzero"/><path stroke="#e6e6e6" stroke-width="1.0" stroke-linecap="butt" d="M93.5 327.5L1092.5 327.5" fill-rule="nonzero"/><path stroke="#e6e6e6" stroke-width="1.0" stroke-linecap="butt" d="M93.5 306.5L1092.5 306.5" fill-rule="nonzero"/><path stroke="#e6e6e6" stroke-width="1.0" stroke-linecap="butt" d="M93.5 262.5L1092.5 262.5" fill-rule="nonzero"/><path stroke="#e6e6e6" stroke-width="1.0" stroke-linecap="butt" d="M93.5 241.5L1092.5 241.5" fill-rule="nonzero"/><path stroke="#e6e6e6" stroke-width="1.0" stroke-linecap="butt" d="M93.5 197.5L1092.5 197.5" fill-rule="nonzero"/><path stroke="#e6e6e6" stroke-width="1.0" stroke-linecap="butt" d="M93.5 175.5L1092.5 175.5" fill-rule="nonzero"/><path stroke="#e6e6e6" stroke-width="1.0" stroke-linecap="butt" d="M93.5 132.5L1092.5 132.5" fill-rule="nonzero"/><path stroke="#e6e6e6" stroke-width="1.0" stroke-linecap="butt" d="M93.5 110.5L1092.5 110.5" fill-rule="nonzero"/><clipPath id="id_0"><path d="M93.85 89.083336L1092.15 89.083336L1092.15 610.15L93.85 610.15L93.85 89.083336Z" clip-rule="nonzero"/></clipPath><path stroke="#cc0000" stroke-width="2.0" stroke-linecap="butt" clip-path="url(#id_0)" d="M93.85 211.01294L103.93384 232.01192L114.01768 236.18045L124.10149 236.18045L134.18535 240.4011L144.2692 244.62173L154.35303 248.79027L164.43687 248.79027L174.5207 253.01091L184.60454 253.01091L194.68839 253.01091L204.77222 253.01091L214.85606 257.17944L224.9399 257.17944L235.02374 257.17944L245.10757 261.4001L255.19142 257.17944L265.27524 257.17944L275.3591 261.4001L285.44293 261.4001L295.52676 265.62073L305.6106 269.78925L315.69446 274.0099L325.7783 278.23053L335.86212 282.39908L345.94595 286.61972L356.0298 290.78824L366.11365 290.78824L376.19748 290.78824L386.2813 290.78824L396.36514 290.78824L406.449 286.61972L416.53284 290.78824L426.61667 290.78824L436.7005 295.00888L446.78433 290.78824L456.8682 290.78824L466.95203 290.78824L477.03586 286.61972L487.1197 286.61972L497.20352 286.61972L507.28738 282.39908L517.3712 286.61972L527.4551 286.61972L537.5389 286.61972L547.62274 286.61972L557.70654 286.61972L567.7904 282.39908L577.87427 282.39908L587.95807 282.39908L598.04193 286.61972L608.12573 286.61972L618.2096 286.61972L628.29346 286.61972L638.37726 286.61972L648.4611 286.61972L658.5449 290.78824L668.6288 286.61972L678.71265 290.78824L688.79645 290.78824L698.8803 290.78824L708.9641 290.78824L719.048 282.39908L729.13184 278.23053L739.21564 278.23053L749.2995 278.23053L759.38336 278.23053L769.46716 278.23053L779.551 278.23053L789.6348 282.39908L799.7187 278.23053L809.80255 282.39908L819.88635 282.39908L829.9702 282.39908L840.054 282.39908L850.1379 282.39908L860.22174 286.61972L870.30554 286.61972L880.3894 282.39908L890.4732 282.39908L900.55707 282.39908L910.6409 282.39908L920.72473 282.39908L930.8086 282.39908L940.8924 282.39908L950.97626 286.61972L961.0601 286.61972L971.1439 286.61972L981.2278 290.78824L991.31165 290.78824L1001.39545 290.78824L1011.4793 290.78824L1021.5631 290.78824L1031.647 286.61972L1041.7308 290.78824L1051.8147 290.78824L1061.8984 290.78824L1071.9823 295.00888L1082.0662 299.22952L1092.15 366.39502" fill-rule="nonzero"/><path fill="#000000" fill-opacity="0.0" clip-path="url(#id_0)" d="M96.85 211.01294C96.85 212.66978 95.50685 214.01294 93.85 214.01294C92.193146 214.01294 90.85 212.66978 90.85 211.01294C90.85 209.35608 92.193146 208.01294 93.85 208.01294C95.50685 208.01294 96.85 209.35608 96.85 211.01294Z" fill-rule="nonzero"/><path fill="#000000" fill-opacity="0.0" clip-path="url(#id_0)" d="M106.93384 232.01192C106.93384 233.66878 105.59069 235.01192 103.93384 235.01192C102.276985 235.01192 100.93384 233.66878 100.93384 232.01192C100.93384 230.35507 102.276985 229.01192 103.93384 229.01192C105.59069 229.01192 106.93384 230.35507 106.93384 232.01192Z" fill-rule="nonzero"/><path fill="#000000" fill-opacity="0.0" clip-path="url(#id_0)" d="M117.01768 236.18045C117.01768 237.83731 115.67453 239.18045 114.01768 239.18045C112.360825 239.18045 111.01768 237.83731 111.01768 236.18045C111.01768 234.5236 112.360825 233.18045 114.01768 233.18045C115.67453 233.18045 117.01768 234.5236 117.01768 236.18045Z" fill-rule="nonzero"/><path fill="#000000" fill-opacity="0.0" clip-path="url(#id_0)" d="M127.10149 236.18045C127.10149 237.83731 125.75834 239.18045 124.10149 239.18045C122.44463 239.18045 121.10149 237.83731 121.10149 236.18045C121.10149 234.5236 122.44463 233.18045 124.10149 233.18045C125.75834 233.18045 127.10149 234.5236 127.10149 236.18045Z" fill-rule="nonzero"/><path fill="#000000" fill-opacity="0.0" clip-path="url(#id_0)" d="M137.18535 240.4011C137.18535 242.05795 135.84221 243.4011 134.18535 243.4011C132.5285 243.4011 131.18535 242.05795 131.18535 240.4011C131.18535 238.74423 132.5285 237.4011 134.18535 237.4011C135.84221 237.4011 137.18535 238.74423 137.18535 240.4011Z" fill-rule="nonzero"/><path fill="#000000" fill-opacity="0.0" clip-path="url(#id_0)" d="M147.2692 244.62173C147.2692 246.2786 145.92604 247.62173 144.2692 247.62173C142.61234 247.62173 141.2692 246.2786 141.2692 244.62173C141.2692 242.96487 142.61234 241.62173 144.2692 241.62173C145.92604 241.62173 147.2692 242.96487 147.2692 244.62173Z" fill-rule="nonzero"/><path fill="#000000" fill-opacity="0.0" clip-path="url(#id_0)" d="M157.35303 248.79027C157.35303 250.44713 156.00989 251.79027 154.35303 251.79027C152.69618 251.79027 151.35303 250.44713 151.35303 248.79027C151.35303 247.1334 152.69618 245.79027 154.35303 245.79027C156.00989 245.79027 157.35303 247.1334 157.35303 248.79027Z" fill-rule="nonzero"/><path fill="#000000" fill-opacity="0.0" clip-path="url(#id_0)" d="M167.43687 248.79027C167.43687 250.44713 166.09372 251.79027 164.43687 251.79027C162.78001 251.79027 161.43687 250.44713 161.43687 248.79027C161.43687 247.1334 162.78001 245.79027 164.43687 245.79027C166.09372 245.79027 167.43687 247.1334 167.43687 248.79027Z" fill-rule="nonzero"/><path fill="#000000" fill-opacity="0.0" clip-path="url(#id_0)" d="M177.5207 253.01091C177.5207 254.66776 176.17757 256.0109 174.5207 256.0109C172.86385 256.0109 171.5207 254.66776 171.5207 253.01091C171.5207 251.35405 172.86385 250.01091 174.5207 250.01091C176.17757 250.01091 177.5207 251.35405 177.5207 253.01091Z" fill-rule="nonzero"/><path fill="#000000" fill-opacity="0.0" clip-path="url(#id_0)" d="M187.60454 253.01091C187.60454 254.66776 186.2614 256.0109 184.60454 256.0109C182.9477 256.0109 181.60454 254.66776 181.60454 253.01091C181.60454 251.35405 182.9477 250.01091 184.60454 250.01091C186.2614 250.01091 187.60454 251.35405 187.60454 253.01091Z" fill-rule="nonzero"/><path fill="#000000" fill-opacity="0.0" clip-path="url(#id_0)" d="M197.68839 253.01091C197.68839 254.66776 196.34525 256.0109 194.68839 256.0109C193.03152 256.0109 191.68839 254.66776 191.68839 253.01091C191.68839 251.35405 193.03152 250.01091 194.68839 250.01091C196.34525 250.01091 197.68839 251.35405 197.68839 253.01091Z" fill-rule="nonzero"/><path fill="#000000" fill-opacity="0.0" clip-path="url(#id_0)" d="M207.77222 253.01091C207.77222 254.66776 206.42908 256.0109 204.77222 256.0109C203.11537 256.0109 201.77222 254.66776 201.77222 253.01091C201.77222 251.35405 203.11537 250.01091 204.77222 250.01091C206.42908 250.01091 207.77222 251.35405 207.77222 253.01091Z" fill-rule="nonzero"/><path fill="#000000" fill-opacity="0.0" clip-path="url(#id_0)" d="M217.85606 257.17944C217.85606 258.8363 216.51291 260.17944 214.85606 260.17944C213.1992 260.17944 211.85606 258.8363 211.85606 257.17944C211.85606 255.52258 213.1992 254.17944 214.85606 254.17944C216.51291 254.17944 217.85606 255.52258 217.85606 257.17944Z" fill-rule="nonzero"/><path fill="#000000" fill-opacity="0.0" clip-path="url(#id_0)" d="M227.9399 257.17944C227.9399 258.8363 226.59676 260.17944 224.9399 260.17944C223.28305 260.17944 221.9399 258.8363 221.9399 257.17944C221.9399 255.52258 223.28305 254.17944 224.9399 254.17944C226.59676 254.17944 227.9399 255.52258 227.9399 257.17944Z" fill-rule="nonzero"/><path fill="#000000" fill-opacity="0.0" clip-path="url(#id_0)" d="M238.02374 257.17944C238.02374 258.8363 236.68059 260.17944 235.02374 260.17944C233.36688 260.17944 232.02374 258.8363 232.02374 257.17944C232.02374 255.52258 233.36688 254.17944 235.02374 254.17944C236.68059 254.17944 238.02374 255.52258 238.02374 257.17944Z" fill-rule="nonzero"/><path fill="#000000" fill-opacity="0.0" clip-path="url(#id_0)" d="M248.10757 261.4001C248.10757 263.05695 246.76443 264.4001 245.10757 264.4001C243.45071 264.4001 242.10757 263.05695 242.10757 261.4001C242.10757 259.74323 243.45071 258.4001 245.10757 258.4001C246.76443 258.4001 248.10757 259.74323 248.10757 261.4001Z" fill-rule="nonzero"/><path fill="#000000" fill-opacity="0.0" clip-path="url(#id_0)" d="M258.1914 257.17944C258.1914 258.8363 256.84827 260.17944 255.19142 260.17944C253.53456 260.17944 252.19142 258.8363 252.19142 257.17944C252.19142 255.52258 253.53456 254.17944 255.19142 254.17944C256.84827 254.17944 258.1914 255.52258 258.1914 257.17944Z" fill-rule="nonzero"/><path fill="#000000" fill-opacity="0.0" clip-path="url(#id_0)" d="M268.27524 257.17944C268.27524 258.8363 266.9321 260.17944 265.27524 260.17944C263.6184 260.17944 262.27524 258.8363 262.27524 257.17944C262.27524 255.52258 263.6184 254.17944 265.27524 254.17944C266.9321 254.17944 268.27524 255.52258 268.27524 257.17944Z" fill-rule="nonzero"/><path fill="#000000" fill-opacity="0.0" clip-path="url(#id_0)" d="M278.3591 261.4001C278.3591 263.05695 277.01593 264.4001 275.3591 264.4001C273.70224 264.4001 272.3591 263.05695 272.3591 261.4001C272.3591 259.74323 273.70224 258.4001 275.3591 258.4001C277.01593 258.4001 278.3591 259.74323 278.3591 261.4001Z" fill-rule="nonzero"/><path fill="#000000" fill-opacity="0.0" clip-path="url(#id_0)" d="M288.44293 261.4001C288.44293 263.05695 287.0998 264.4001 285.44293 264.4001C283.78607 264.4001 282.44293 263.05695 282.44293 261.4001C282.44293 259.74323 283.78607 258.4001 285.44293 258.4001C287.0998 258.4001 288.44293 259.74323 288.44293 261.4001Z" fill-rule="nonzero"/><path fill="#000000" fill-opacity="0.0" clip-path="url(#id_0)" d="M298.52676 265.62073C298.52676 267.2776 297.18362 268.62073 295.52676 268.62073C293.8699 268.62073 292.52676 267.2776 292.52676 265.62073C292.52676 263.96387 293.8699 262.62073 295.52676 262.62073C297.18362 262.62073 298.52676 263.96387 298.52676 265.62073Z" fill-rule="nonzero"/><path fill="#000000" fill-opacity="0.0" clip-path="url(#id_0)" d="M308.6106 269.78925C308.6106 271.4461 307.26746 272.78925 305.6106 272.78925C303.95377 272.78925 302.6106 271.4461 302.6106 269.78925C302.6106 268.1324 303.95377 266.78925 305.6106 266.78925C307.26746 266.78925 308.6106 268.1324 308.6106 269.78925Z" fill-rule="nonzero"/><path fill="#000000" fill-opacity="0.0" clip-path="url(#id_0)" d="M318.69446 274.0099C318.69446 275.66675 317.3513 277.0099 315.69446 277.0099C314.0376 277.0099 312.69446 275.66675 312.69446 274.0099C312.69446 272.35303 314.0376 271.0099 315.69446 271.0099C317.3513 271.0099 318.69446 272.35303 318.69446 274.0099Z" fill-rule="nonzero"/><path fill="#000000" fill-opacity="0.0" clip-path="url(#id_0)" d="M328.7783 278.23053C328.7783 279.8874 327.43515 281.23053 325.7783 281.23053C324.12143 281.23053 322.7783 279.8874 322.7783 278.23053C322.7783 276.57367 324.12143 275.23053 325.7783 275.23053C327.43515 275.23053 328.7783 276.57367 328.7783 278.23053Z" fill-rule="nonzero"/><path fill="#000000" fill-opacity="0.0" clip-path="url(#id_0)" d="M338.86212 282.39908C338.86212 284.0559 337.51898 285.39908 335.86212 285.39908C334.20526 285.39908 332.86212 284.0559 332.86212 282.39908C332.86212 280.74222 334.20526 279.39908 335.86212 279.39908C337.51898 279.39908 338.86212 280.74222 338.86212 282.39908Z" fill-rule="nonzero"/><path fill="#000000" fill-opacity="0.0" clip-path="url(#id_0)" d="M348.94595 286.61972C348.94595 288.27655 347.6028 289.61972 345.94595 289.61972C344.2891 289.61972 342.94595 288.27655 342.94595 286.61972C342.94595 284.96286 344.2891 283.61972 345.94595 283.61972C347.6028 283.61972 348.94595 284.96286 348.94595 286.61972Z" fill-rule="nonzero"/><path fill="#000000" fill-opacity="0.0" clip-path="url(#id_0)" d="M359.0298 290.78824C359.0298 292.4451 357.68665 293.78824 356.0298 293.78824C354.37296 293.78824 353.0298 292.4451 353.0298 290.78824C353.0298 289.13138 354.37296 287.78824 356.0298 287.78824C357.68665 287.78824 359.0298 289.13138 359.0298 290.78824Z" fill-rule="nonzero"/><path fill="#000000" fill-opacity="0.0" clip-path="url(#id_0)" d="M369.11365 290.78824C369.11365 292.4451 367.77048 293.78824 366.11365 293.78824C364.4568 293.78824 363.11365 292.4451 363.11365 290.78824C363.11365 289.13138 364.4568 287.78824 366.11365 287.78824C367.77048 287.78824 369.11365 289.13138 369.11365 290.78824Z" fill-rule="nonzero"/><path fill="#000000" fill-opacity="0.0" clip-path="url(#id_0)" d="M379.19748 290.78824C379.19748 292.4451 377.85434 293.78824 376.19748 293.78824C374.54062 293.78824 373.19748 292.4451 373.19748 290.78824C373.19748 289.13138 374.54062 287.78824 376.19748 287.78824C377.85434 287.78824 379.19748 289.13138 379.19748 290.78824Z" fill-rule="nonzero"/><path fill="#000000" fill-opacity="0.0" clip-path="url(#id_0)" d="M389.2813 290.78824C389.2813 292.4451 387.93817 293.78824 386.2813 293.78824C384.62445 293.78824 383.2813 292.4451 383.2813 290.78824C383.2813 289.13138 384.62445 287.78824 386.2813 287.78824C387.93817 287.78824 389.2813 289.13138 389.2813 290.78824Z" fill-rule="nonzero"/><path fill="#000000" fill-opacity="0.0" clip-path="url(#id_0)" d="M399.36514 290.78824C399.36514 292.4451 398.022 293.78824 396.36514 293.78824C394.70828 293.78824 393.36514 292.4451 393.36514 290.78824C393.36514 289.13138 394.70828 287.78824 396.36514 287.78824C398.022 287.78824 399.36514 289.13138 399.36514 290.78824Z" fill-rule="nonzero"/><path fill="#000000" fill-opacity="0.0" clip-path="url(#id_0)" d="M409.449 286.61972C409.449 288.27655 408.10583 289.61972 406.449 289.61972C404.79214 289.61972 403.449 288.27655 403.449 286.61972C403.449 284.96286 404.79214 283.61972 406.449 283.61972C408.10583 283.61972 409.449 284.96286 409.449 286.61972Z" fill-rule="nonzero"/><path fill="#000000" fill-opacity="0.0" clip-path="url(#id_0)" d="M419.53284 290.78824C419.53284 292.4451 418.1897 293.78824 416.53284 293.78824C414.87598 293.78824 413.53284 292.4451 413.53284 290.78824C413.53284 289.13138 414.87598 287.78824 416.53284 287.78824C418.1897 287.78824 419.53284 289.13138 419.53284 290.78824Z" fill-rule="nonzero"/><path fill="#000000" fill-opacity="0.0" clip-path="url(#id_0)" d="M429.61667 290.78824C429.61667 292.4451 428.27353 293.78824 426.61667 293.78824C424.9598 293.78824 423.61667 292.4451 423.61667 290.78824C423.61667 289.13138 424.9598 287.78824 426.61667 287.78824C428.27353 287.78824 429.61667 289.13138 429.61667 290.78824Z" fill-rule="nonzero"/><path fill="#000000" fill-opacity="0.0" clip-path="url(#id_0)" d="M439.7005 295.00888C439.7005 296.66574 438.35736 298.00888 436.7005 298.00888C435.04364 298.00888 433.7005 296.66574 433.7005 295.00888C433.7005 293.35202 435.04364 292.00888 436.7005 292.00888C438.35736 292.00888 439.7005 293.35202 439.7005 295.00888Z" fill-rule="nonzero"/><path fill="#000000" fill-opacity="0.0" clip-path="url(#id_0)" d="M449.78433 290.78824C449.78433 292.4451 448.4412 293.78824 446.78433 293.78824C445.1275 293.78824 443.78433 292.4451 443.78433 290.78824C443.78433 289.13138 445.1275 287.78824 446.78433 287.78824C448.4412 287.78824 449.78433 289.13138 449.78433 290.78824Z" fill-rule="nonzero"/><path fill="#000000" fill-opacity="0.0" clip-path="url(#id_0)" d="M459.8682 290.78824C459.8682 292.4451 458.52502 293.78824 456.8682 293.78824C455.21133 293.78824 453.8682 292.4451 453.8682 290.78824C453.8682 289.13138 455.21133 287.78824 456.8682 287.78824C458.52502 287.78824 459.8682 289.13138 459.8682 290.78824Z" fill-rule="nonzero"/><path fill="#000000" fill-opacity="0.0" clip-path="url(#id_0)" d="M469.95203 290.78824C469.95203 292.4451 468.6089 293.78824 466.95203 293.78824C465.29517 293.78824 463.95203 292.4451 463.95203 290.78824C463.95203 289.13138 465.29517 287.78824 466.95203 287.78824C468.6089 287.78824 469.95203 289.13138 469.95203 290.78824Z" fill-rule="nonzero"/><path fill="#000000" fill-opacity="0.0" clip-path="url(#id_0)" d="M480.03586 286.61972C480.03586 288.27655 478.69272 289.61972 477.03586 289.61972C475.379 289.61972 474.03586 288.27655 474.03586 286.61972C474.03586 284.96286 475.379 283.61972 477.03586 283.61972C478.69272 283.61972 480.03586 284.96286 480.03586 286.61972Z" fill-rule="nonzero"/><path fill="#000000" fill-opacity="0.0" clip-path="url(#id_0)" d="M490.1197 286.61972C490.1197 288.27655 488.77655 289.61972 487.1197 289.61972C485.46283 289.61972 484.1197 288.27655 484.1197 286.61972C484.1197 284.96286 485.46283 283.61972 487.1197 283.61972C488.77655 283.61972 490.1197 284.96286 490.1197 286.61972Z" fill-rule="nonzero"/><path fill="#000000" fill-opacity="0.0" clip-path="url(#id_0)" d="M500.20352 286.61972C500.20352 288.27655 498.86038 289.61972 497.20352 289.61972C495.5467 289.61972 494.20352 288.27655 494.20352 286.61972C494.20352 284.96286 495.5467 283.61972 497.20352 283.61972C498.86038 283.61972 500.20352 284.96286 500.20352 286.61972Z" fill-rule="nonzero"/><path fill="#000000" fill-opacity="0.0" clip-path="url(#id_0)" d="M510.28738 282.39908C510.28738 284.0559 508.9442 285.39908 507.28738 285.39908C505.63052 285.39908 504.28738 284.0559 504.28738 282.39908C504.28738 280.74222 505.63052 279.39908 507.28738 279.39908C508.9442 279.39908 510.28738 280.74222 510.28738 282.39908Z" fill-rule="nonzero"/><path fill="#000000" fill-opacity="0.0" clip-path="url(#id_0)" d="M520.3712 286.61972C520.3712 288.27655 519.0281 289.61972 517.3712 289.61972C515.71436 289.61972 514.3712 288.27655 514.3712 286.61972C514.3712 284.96286 515.71436 283.61972 517.3712 283.61972C519.0281 283.61972 520.3712 284.96286 520.3712 286.61972Z" fill-rule="nonzero"/><path fill="#000000" fill-opacity="0.0" clip-path="url(#id_0)" d="M530.4551 286.61972C530.4551 288.27655 529.1119 289.61972 527.4551 289.61972C525.7982 289.61972 524.4551 288.27655 524.4551 286.61972C524.4551 284.96286 525.7982 283.61972 527.4551 283.61972C529.1119 283.61972 530.4551 284.96286 530.4551 286.61972Z" fill-rule="nonzero"/><path fill="#000000" fill-opacity="0.0" clip-path="url(#id_0)" d="M540.5389 286.61972C540.5389 288.27655 539.19574 289.61972 537.5389 289.61972C535.882 289.61972 534.5389 288.27655 534.5389 286.61972C534.5389 284.96286 535.882 283.61972 537.5389 283.61972C539.19574 283.61972 540.5389 284.96286 540.5389 286.61972Z" fill-rule="nonzero"/><path fill="#000000" fill-opacity="0.0" clip-path="url(#id_0)" d="M550.62274 286.61972C550.62274 288.27655 549.2796 289.61972 547.62274 289.61972C545.9659 289.61972 544.62274 288.27655 544.62274 286.61972C544.62274 284.96286 545.9659 283.61972 547.62274 283.61972C549.2796 283.61972 550.62274 284.96286 550.62274 286.61972Z" fill-rule="nonzero"/><path fill="#000000" fill-opacity="0.0" clip-path="url(#id_0)" d="M560.70654 286.61972C560.70654 288.27655 559.3634 289.61972 557.70654 289.61972C556.0497 289.61972 554.70654 288.27655 554.70654 286.61972C554.70654 284.96286 556.0497 283.61972 557.70654 283.61972C559.3634 283.61972 560.70654 284.96286 560.70654 286.61972Z" fill-rule="nonzero"/><path fill="#000000" fill-opacity="0.0" clip-path="url(#id_0)" d="M570.7904 282.39908C570.7904 284.0559 569.44727 285.39908 567.7904 285.39908C566.13354 285.39908 564.7904 284.0559 564.7904 282.39908C564.7904 280.74222 566.13354 279.39908 567.7904 279.39908C569.44727 279.39908 570.7904 280.74222 570.7904 282.39908Z" fill-rule="nonzero"/><path fill="#000000" fill-opacity="0.0" clip-path="url(#id_0)" d="M580.87427 282.39908C580.87427 284.0559 579.53107 285.39908 577.87427 285.39908C576.2174 285.39908 574.87427 284.0559 574.87427 282.39908C574.87427 280.74222 576.2174 279.39908 577.87427 279.39908C579.53107 279.39908 580.87427 280.74222 580.87427 282.39908Z" fill-rule="nonzero"/><path fill="#000000" fill-opacity="0.0" clip-path="url(#id_0)" d="M590.95807 282.39908C590.95807 284.0559 589.6149 285.39908 587.95807 285.39908C586.3012 285.39908 584.95807 284.0559 584.95807 282.39908C584.95807 280.74222 586.3012 279.39908 587.95807 279.39908C589.6149 279.39908 590.95807 280.74222 590.95807 282.39908Z" fill-rule="nonzero"/><path fill="#000000" fill-opacity="0.0" clip-path="url(#id_0)" d="M601.04193 286.61972C601.04193 288.27655 599.6988 289.61972 598.04193 289.61972C596.3851 289.61972 595.04193 288.27655 595.04193 286.61972C595.04193 284.96286 596.3851 283.61972 598.04193 283.61972C599.6988 283.61972 601.04193 284.96286 601.04193 286.61972Z" fill-rule="nonzero"/><path fill="#000000" fill-opacity="0.0" clip-path="url(#id_0)" d="M611.12573 286.61972C611.12573 288.27655 609.7826 289.61972 608.12573 289.61972C606.46893 289.61972 605.12573 288.27655 605.12573 286.61972C605.12573 284.96286 606.46893 283.61972 608.12573 283.61972C609.7826 283.61972 611.12573 284.96286 611.12573 286.61972Z" fill-rule="nonzero"/><path fill="#000000" fill-opacity="0.0" clip-path="url(#id_0)" d="M621.2096 286.61972C621.2096 288.27655 619.86646 289.61972 618.2096 289.61972C616.55273 289.61972 615.2096 288.27655 615.2096 286.61972C615.2096 284.96286 616.55273 283.61972 618.2096 283.61972C619.86646 283.61972 621.2096 284.96286 621.2096 286.61972Z" fill-rule="nonzero"/><path fill="#000000" fill-opacity="0.0" clip-path="url(#id_0)" d="M631.29346 286.61972C631.29346 288.27655 629.9503 289.61972 628.29346 289.61972C626.6366 289.61972 625.29346 288.27655 625.29346 286.61972C625.29346 284.96286 626.6366 283.61972 628.29346 283.61972C629.9503 283.61972 631.29346 284.96286 631.29346 286.61972Z" fill-rule="nonzero"/><path fill="#000000" fill-opacity="0.0" clip-path="url(#id_0)" d="M641.37726 286.61972C641.37726 288.27655 640.0341 289.61972 638.37726 289.61972C636.7204 289.61972 635.37726 288.27655 635.37726 286.61972C635.37726 284.96286 636.7204 283.61972 638.37726 283.61972C640.0341 283.61972 641.37726 284.96286 641.37726 286.61972Z" fill-rule="nonzero"/><path fill="#000000" fill-opacity="0.0" clip-path="url(#id_0)" d="M651.4611 286.61972C651.4611 288.27655 650.118 289.61972 648.4611 289.61972C646.80426 289.61972 645.4611 288.27655 645.4611 286.61972C645.4611 284.96286 646.80426 283.61972 648.4611 283.61972C650.118 283.61972 651.4611 284.96286 651.4611 286.61972Z" fill-rule="nonzero"/><path fill="#000000" fill-opacity="0.0" clip-path="url(#id_0)" d="M661.5449 290.78824C661.5449 292.4451 660.2018 293.78824 658.5449 293.78824C656.8881 293.78824 655.5449 292.4451 655.5449 290.78824C655.5449 289.13138 656.8881 287.78824 658.5449 287.78824C660.2018 287.78824 661.5449 289.13138 661.5449 290.78824Z" fill-rule="nonzero"/><path fill="#000000" fill-opacity="0.0" clip-path="url(#id_0)" d="M671.6288 286.61972C671.6288 288.27655 670.28564 289.61972 668.6288 289.61972C666.9719 289.61972 665.6288 288.27655 665.6288 286.61972C665.6288 284.96286 666.9719 283.61972 668.6288 283.61972C670.28564 283.61972 671.6288 284.96286 671.6288 286.61972Z" fill-rule="nonzero"/><path fill="#000000" fill-opacity="0.0" clip-path="url(#id_0)" d="M681.71265 290.78824C681.71265 292.4451 680.3695 293.78824 678.71265 293.78824C677.0558 293.78824 675.71265 292.4451 675.71265 290.78824C675.71265 289.13138 677.0558 287.78824 678.71265 287.78824C680.3695 287.78824 681.71265 289.13138 681.71265 290.78824Z" fill-rule="nonzero"/><path fill="#000000" fill-opacity="0.0" clip-path="url(#id_0)" d="M691.79645 290.78824C691.79645 292.4451 690.4533 293.78824 688.79645 293.78824C687.1396 293.78824 685.79645 292.4451 685.79645 290.78824C685.79645 289.13138 687.1396 287.78824 688.79645 287.78824C690.4533 287.78824 691.79645 289.13138 691.79645 290.78824Z" fill-rule="nonzero"/><path fill="#000000" fill-opacity="0.0" clip-path="url(#id_0)" d="M701.8803 290.78824C701.8803 292.4451 700.5372 293.78824 698.8803 293.78824C697.22345 293.78824 695.8803 292.4451 695.8803 290.78824C695.8803 289.13138 697.22345 287.78824 698.8803 287.78824C700.5372 287.78824 701.8803 289.13138 701.8803 290.78824Z" fill-rule="nonzero"/><path fill="#000000" fill-opacity="0.0" clip-path="url(#id_0)" d="M711.9641 290.78824C711.9641 292.4451 710.621 293.78824 708.9641 293.78824C707.3073 293.78824 705.9641 292.4451 705.9641 290.78824C705.9641 289.13138 707.3073 287.78824 708.9641 287.78824C710.621 287.78824 711.9641 289.13138 711.9641 290.78824Z" fill-rule="nonzero"/><path fill="#000000" fill-opacity="0.0" clip-path="url(#id_0)" d="M722.048 282.39908C722.048 284.0559 720.70483 285.39908 719.048 285.39908C717.3911 285.39908 716.048 284.0559 716.048 282.39908C716.048 280.74222 717.3911 279.39908 719.048 279.39908C720.70483 279.39908 722.048 280.74222 722.048 282.39908Z" fill-rule="nonzero"/><path fill="#000000" fill-opacity="0.0" clip-path="url(#id_0)" d="M732.13184 278.23053C732.13184 279.8874 730.7887 281.23053 729.13184 281.23053C727.475 281.23053 726.13184 279.8874 726.13184 278.23053C726.13184 276.57367 727.475 275.23053 729.13184 275.23053C730.7887 275.23053 732.13184 276.57367 732.13184 278.23053Z" fill-rule="nonzero"/><path fill="#000000" fill-opacity="0.0" clip-path="url(#id_0)" d="M742.21564 278.23053C742.21564 279.8874 740.8725 281.23053 739.21564 281.23053C737.5588 281.23053 736.21564 279.8874 736.21564 278.23053C736.21564 276.57367 737.5588 275.23053 739.21564 275.23053C740.8725 275.23053 742.21564 276.57367 742.21564 278.23053Z" fill-rule="nonzero"/><path fill="#000000" fill-opacity="0.0" clip-path="url(#id_0)" d="M752.2995 278.23053C752.2995 279.8874 750.95636 281.23053 749.2995 281.23053C747.64264 281.23053 746.2995 279.8874 746.2995 278.23053C746.2995 276.57367 747.64264 275.23053 749.2995 275.23053C750.95636 275.23053 752.2995 276.57367 752.2995 278.23053Z" fill-rule="nonzero"/><path fill="#000000" fill-opacity="0.0" clip-path="url(#id_0)" d="M762.38336 278.23053C762.38336 279.8874 761.04016 281.23053 759.38336 281.23053C757.7265 281.23053 756.38336 279.8874 756.38336 278.23053C756.38336 276.57367 757.7265 275.23053 759.38336 275.23053C761.04016 275.23053 762.38336 276.57367 762.38336 278.23053Z" fill-rule="nonzero"/><path fill="#000000" fill-opacity="0.0" clip-path="url(#id_0)" d="M772.46716 278.23053C772.46716 279.8874 771.124 281.23053 769.46716 281.23053C767.8103 281.23053 766.46716 279.8874 766.46716 278.23053C766.46716 276.57367 767.8103 275.23053 769.46716 275.23053C771.124 275.23053 772.46716 276.57367 772.46716 278.23053Z" fill-rule="nonzero"/><path fill="#000000" fill-opacity="0.0" clip-path="url(#id_0)" d="M782.551 278.23053C782.551 279.8874 781.2079 281.23053 779.551 281.23053C777.89417 281.23053 776.551 279.8874 776.551 278.23053C776.551 276.57367 777.89417 275.23053 779.551 275.23053C781.2079 275.23053 782.551 276.57367 782.551 278.23053Z" fill-rule="nonzero"/><path fill="#000000" fill-opacity="0.0" clip-path="url(#id_0)" d="M792.6348 282.39908C792.6348 284.0559 791.2917 285.39908 789.6348 285.39908C787.97797 285.39908 786.6348 284.0559 786.6348 282.39908C786.6348 280.74222 787.97797 279.39908 789.6348 279.39908C791.2917 279.39908 792.6348 280.74222 792.6348 282.39908Z" fill-rule="nonzero"/><path fill="#000000" fill-opacity="0.0" clip-path="url(#id_0)" d="M802.7187 278.23053C802.7187 279.8874 801.37555 281.23053 799.7187 281.23053C798.0618 281.23053 796.7187 279.8874 796.7187 278.23053C796.7187 276.57367 798.0618 275.23053 799.7187 275.23053C801.37555 275.23053 802.7187 276.57367 802.7187 278.23053Z" fill-rule="nonzero"/><path fill="#000000" fill-opacity="0.0" clip-path="url(#id_0)" d="M812.80255 282.39908C812.80255 284.0559 811.45935 285.39908 809.80255 285.39908C808.1457 285.39908 806.80255 284.0559 806.80255 282.39908C806.80255 280.74222 808.1457 279.39908 809.80255 279.39908C811.45935 279.39908 812.80255 280.74222 812.80255 282.39908Z" fill-rule="nonzero"/><path fill="#000000" fill-opacity="0.0" clip-path="url(#id_0)" d="M822.88635 282.39908C822.88635 284.0559 821.5432 285.39908 819.88635 285.39908C818.2295 285.39908 816.88635 284.0559 816.88635 282.39908C816.88635 280.74222 818.2295 279.39908 819.88635 279.39908C821.5432 279.39908 822.88635 280.74222 822.88635 282.39908Z" fill-rule="nonzero"/><path fill="#000000" fill-opacity="0.0" clip-path="url(#id_0)" d="M832.9702 282.39908C832.9702 284.0559 831.6271 285.39908 829.9702 285.39908C828.31335 285.39908 826.9702 284.0559 826.9702 282.39908C826.9702 280.74222 828.31335 279.39908 829.9702 279.39908C831.6271 279.39908 832.9702 280.74222 832.9702 282.39908Z" fill-rule="nonzero"/><path fill="#000000" fill-opacity="0.0" clip-path="url(#id_0)" d="M843.054 282.39908C843.054 284.0559 841.7109 285.39908 840.054 285.39908C838.39716 285.39908 837.054 284.0559 837.054 282.39908C837.054 280.74222 838.39716 279.39908 840.054 279.39908C841.7109 279.39908 843.054 280.74222 843.054 282.39908Z" fill-rule="nonzero"/><path fill="#000000" fill-opacity="0.0" clip-path="url(#id_0)" d="M853.1379 282.39908C853.1379 284.0559 851.79474 285.39908 850.1379 285.39908C848.481 285.39908 847.1379 284.0559 847.1379 282.39908C847.1379 280.74222 848.481 279.39908 850.1379 279.39908C851.79474 279.39908 853.1379 280.74222 853.1379 282.39908Z" fill-rule="nonzero"/><path fill="#000000" fill-opacity="0.0" clip-path="url(#id_0)" d="M863.22174 286.61972C863.22174 288.27655 861.8786 289.61972 860.22174 289.61972C858.5649 289.61972 857.22174 288.27655 857.22174 286.61972C857.22174 284.96286 858.5649 283.61972 860.22174 283.61972C861.8786 283.61972 863.22174 284.96286 863.22174 286.61972Z" fill-rule="nonzero"/><path fill="#000000" fill-opacity="0.0" clip-path="url(#id_0)" d="M873.30554 286.61972C873.30554 288.27655 871.9624 289.61972 870.30554 289.61972C868.6487 289.61972 867.30554 288.27655 867.30554 286.61972C867.30554 284.96286 868.6487 283.61972 870.30554 283.61972C871.9624 283.61972 873.30554 284.96286 873.30554 286.61972Z" fill-rule="nonzero"/><path fill="#000000" fill-opacity="0.0" clip-path="url(#id_0)" d="M883.3894 282.39908C883.3894 284.0559 882.04626 285.39908 880.3894 285.39908C878.73254 285.39908 877.3894 284.0559 877.3894 282.39908C877.3894 280.74222 878.73254 279.39908 880.3894 279.39908C882.04626 279.39908 883.3894 280.74222 883.3894 282.39908Z" fill-rule="nonzero"/><path fill="#000000" fill-opacity="0.0" clip-path="url(#id_0)" d="M893.4732 282.39908C893.4732 284.0559 892.13007 285.39908 890.4732 285.39908C888.8164 285.39908 887.4732 284.0559 887.4732 282.39908C887.4732 280.74222 888.8164 279.39908 890.4732 279.39908C892.13007 279.39908 893.4732 280.74222 893.4732 282.39908Z" fill-rule="nonzero"/><path fill="#000000" fill-opacity="0.0" clip-path="url(#id_0)" d="M903.55707 282.39908C903.55707 284.0559 902.2139 285.39908 900.55707 285.39908C898.9002 285.39908 897.55707 284.0559 897.55707 282.39908C897.55707 280.74222 898.9002 279.39908 900.55707 279.39908C902.2139 279.39908 903.55707 280.74222 903.55707 282.39908Z" fill-rule="nonzero"/><path fill="#000000" fill-opacity="0.0" clip-path="url(#id_0)" d="M913.6409 282.39908C913.6409 284.0559 912.2978 285.39908 910.6409 285.39908C908.9841 285.39908 907.6409 284.0559 907.6409 282.39908C907.6409 280.74222 908.9841 279.39908 910.6409 279.39908C912.2978 279.39908 913.6409 280.74222 913.6409 282.39908Z" fill-rule="nonzero"/><path fill="#000000" fill-opacity="0.0" clip-path="url(#id_0)" d="M923.72473 282.39908C923.72473 284.0559 922.3816 285.39908 920.72473 285.39908C919.0679 285.39908 917.72473 284.0559 917.72473 282.39908C917.72473 280.74222 919.0679 279.39908 920.72473 279.39908C922.3816 279.39908 923.72473 280.74222 923.72473 282.39908Z" fill-rule="nonzero"/><path fill="#000000" fill-opacity="0.0" clip-path="url(#id_0)" d="M933.8086 282.39908C933.8086 284.0559 932.46545 285.39908 930.8086 285.39908C929.15173 285.39908 927.8086 284.0559 927.8086 282.39908C927.8086 280.74222 929.15173 279.39908 930.8086 279.39908C932.46545 279.39908 933.8086 280.74222 933.8086 282.39908Z" fill-rule="nonzero"/><path fill="#000000" fill-opacity="0.0" clip-path="url(#id_0)" d="M943.8924 282.39908C943.8924 284.0559 942.54926 285.39908 940.8924 285.39908C939.2356 285.39908 937.8924 284.0559 937.8924 282.39908C937.8924 280.74222 939.2356 279.39908 940.8924 279.39908C942.54926 279.39908 943.8924 280.74222 943.8924 282.39908Z" fill-rule="nonzero"/><path fill="#000000" fill-opacity="0.0" clip-path="url(#id_0)" d="M953.97626 286.61972C953.97626 288.27655 952.6331 289.61972 950.97626 289.61972C949.3194 289.61972 947.97626 288.27655 947.97626 286.61972C947.97626 284.96286 949.3194 283.61972 950.97626 283.61972C952.6331 283.61972 953.97626 284.96286 953.97626 286.61972Z" fill-rule="nonzero"/><path fill="#000000" fill-opacity="0.0" clip-path="url(#id_0)" d="M964.0601 286.61972C964.0601 288.27655 962.717 289.61972 961.0601 289.61972C959.40326 289.61972 958.0601 288.27655 958.0601 286.61972C958.0601 284.96286 959.40326 283.61972 961.0601 283.61972C962.717 283.61972 964.0601 284.96286 964.0601 286.61972Z" fill-rule="nonzero"/><path fill="#000000" fill-opacity="0.0" clip-path="url(#id_0)" d="M974.1439 286.61972C974.1439 288.27655 972.8008 289.61972 971.1439 289.61972C969.48706 289.61972 968.1439 288.27655 968.1439 286.61972C968.1439 284.96286 969.48706 283.61972 971.1439 283.61972C972.8008 283.61972 974.1439 284.96286 974.1439 286.61972Z" fill-rule="nonzero"/><path fill="#000000" fill-opacity="0.0" clip-path="url(#id_0)" d="M984.2278 290.78824C984.2278 292.4451 982.88464 293.78824 981.2278 293.78824C979.5709 293.78824 978.2278 292.4451 978.2278 290.78824C978.2278 289.13138 979.5709 287.78824 981.2278 287.78824C982.88464 287.78824 984.2278 289.13138 984.2278 290.78824Z" fill-rule="nonzero"/><path fill="#000000" fill-opacity="0.0" clip-path="url(#id_0)" d="M994.31165 290.78824C994.31165 292.4451 992.96844 293.78824 991.31165 293.78824C989.6548 293.78824 988.31165 292.4451 988.31165 290.78824C988.31165 289.13138 989.6548 287.78824 991.31165 287.78824C992.96844 287.78824 994.31165 289.13138 994.31165 290.78824Z" fill-rule="nonzero"/><path fill="#000000" fill-opacity="0.0" clip-path="url(#id_0)" d="M1004.39545 290.78824C1004.39545 292.4451 1003.0523 293.78824 1001.39545 293.78824C999.7386 293.78824 998.39545 292.4451 998.39545 290.78824C998.39545 289.13138 999.7386 287.78824 1001.39545 287.78824C1003.0523 287.78824 1004.39545 289.13138 1004.39545 290.78824Z" fill-rule="nonzero"/><path fill="#000000" fill-opacity="0.0" clip-path="url(#id_0)" d="M1014.4793 290.78824C1014.4793 292.4451 1013.13617 293.78824 1011.4793 293.78824C1009.82245 293.78824 1008.4793 292.4451 1008.4793 290.78824C1008.4793 289.13138 1009.82245 287.78824 1011.4793 287.78824C1013.13617 287.78824 1014.4793 289.13138 1014.4793 290.78824Z" fill-rule="nonzero"/><path fill="#000000" fill-opacity="0.0" clip-path="url(#id_0)" d="M1024.5631 290.78824C1024.5631 292.4451 1023.22 293.78824 1021.5631 293.78824C1019.90625 293.78824 1018.5631 292.4451 1018.5631 290.78824C1018.5631 289.13138 1019.90625 287.78824 1021.5631 287.78824C1023.22 287.78824 1024.5631 289.13138 1024.5631 290.78824Z" fill-rule="nonzero"/><path fill="#000000" fill-opacity="0.0" clip-path="url(#id_0)" d="M1034.647 286.61972C1034.647 288.27655 1033.3038 289.61972 1031.647 289.61972C1029.9901 289.61972 1028.647 288.27655 1028.647 286.61972C1028.647 284.96286 1029.9901 283.61972 1031.647 283.61972C1033.3038 283.61972 1034.647 284.96286 1034.647 286.61972Z" fill-rule="nonzero"/><path fill="#000000" fill-opacity="0.0" clip-path="url(#id_0)" d="M1044.7308 290.78824C1044.7308 292.4451 1043.3877 293.78824 1041.7308 293.78824C1040.074 293.78824 1038.7308 292.4451 1038.7308 290.78824C1038.7308 289.13138 1040.074 287.78824 1041.7308 287.78824C1043.3877 287.78824 1044.7308 289.13138 1044.7308 290.78824Z" fill-rule="nonzero"/><path fill="#000000" fill-opacity="0.0" clip-path="url(#id_0)" d="M1054.8147 290.78824C1054.8147 292.4451 1053.4716 293.78824 1051.8147 293.78824C1050.1578 293.78824 1048.8147 292.4451 1048.8147 290.78824C1048.8147 289.13138 1050.1578 287.78824 1051.8147 287.78824C1053.4716 287.78824 1054.8147 289.13138 1054.8147 290.78824Z" fill-rule="nonzero"/><path fill="#000000" fill-opacity="0.0" clip-path="url(#id_0)" d="M1064.8984 290.78824C1064.8984 292.4451 1063.5553 293.78824 1061.8984 293.78824C1060.2416 293.78824 1058.8984 292.4451 1058.8984 290.78824C1058.8984 289.13138 1060.2416 287.78824 1061.8984 287.78824C1063.5553 287.78824 1064.8984 289.13138 1064.8984 290.78824Z" fill-rule="nonzero"/><path fill="#000000" fill-opacity="0.0" clip-path="url(#id_0)" d="M1074.9823 295.00888C1074.9823 296.66574 1073.6392 298.00888 1071.9823 298.00888C1070.3254 298.00888 1068.9823 296.66574 1068.9823 295.00888C1068.9823 293.35202 1070.3254 292.00888 1071.9823 292.00888C1073.6392 292.00888 1074.9823 293.35202 1074.9823 295.00888Z" fill-rule="nonzero"/><path fill="#000000" fill-opacity="0.0" clip-path="url(#id_0)" d="M1085.0662 299.22952C1085.0662 300.88638 1083.723 302.22952 1082.0662 302.22952C1080.4093 302.22952 1079.0662 300.88638 1079.0662 299.22952C1079.0662 297.57266 1080.4093 296.22952 1082.0662 296.22952C1083.723 296.22952 1085.0662 297.57266 1085.0662 299.22952Z" fill-rule="nonzero"/><path fill="#000000" fill-opacity="0.0" clip-path="url(#id_0)" d="M1095.15 366.39502C1095.15 368.05188 1093.8069 369.39502 1092.15 369.39502C1090.4932 369.39502 1089.15 368.05188 1089.15 366.39502C1089.15 364.73816 1090.4932 363.39502 1092.15 363.39502C1093.8069 363.39502 1095.15 364.73816 1095.15 366.39502Z" fill-rule="nonzero"/><path fill="#000000" d="M575.375 659.15L572.0469 650.5563L573.28125 650.5563L575.5156 656.8063Q575.78125 657.5563 575.96875 658.2125Q576.1719 657.5094 576.4375 656.8063L578.75 650.5563L579.90625 650.5563L576.5469 659.15L575.375 659.15ZM580.40625 656.04065Q580.40625 654.3063 581.3594 653.47815Q582.15625 652.79065 583.3125 652.79065Q584.59375 652.79065 585.40625 653.6344Q586.2344 654.4625 586.2344 655.9469Q586.2344 657.15 585.875 657.8375Q585.5156 658.525 584.8125 658.91565Q584.125 659.29065 583.3125 659.29065Q582.0156 659.29065 581.2031 658.4625Q580.40625 657.6188 580.40625 656.04065ZM581.4844 656.04065Q581.4844 657.22815 582.0 657.8219Q582.53125 658.41565 583.3125 658.41565Q584.1094 658.41565 584.625 657.8219Q585.1406 657.22815 585.1406 656.0094Q585.1406 654.85315 584.6094 654.2594Q584.09375 653.66565 583.3125 653.66565Q582.53125 653.66565 582.0 654.2594Q581.4844 654.8375 581.4844 656.04065ZM587.7656 659.15L587.7656 650.5563L588.8281 650.5563L588.8281 659.15L587.7656 659.15ZM593.09375 658.2125L593.25 659.1344Q592.7969 659.22815 592.4531 659.22815Q591.875 659.22815 591.5625 659.0563Q591.25 658.8688 591.1094 658.5719Q590.9844 658.275 590.9844 657.3219L590.9844 653.7438L590.21875 653.7438L590.21875 652.9313L590.9844 652.9313L590.9844 651.3844L592.03125 650.7594L592.03125 652.9313L593.09375 652.9313L593.09375 653.7438L592.03125 653.7438L592.03125 657.3844Q592.03125 657.8375 592.0781 657.9625Q592.1406 658.0875 592.2656 658.16565Q592.3906 658.2438 592.625 658.2438Q592.8125 658.2438 593.09375 658.2125ZM597.8594 658.3844Q597.2656 658.8844 596.71875 659.0875Q596.1875 659.29065 595.5625 659.29065Q594.53125 659.29065 593.9844 658.79065Q593.4375 658.29065 593.4375 657.5094Q593.4375 657.0563 593.6406 656.6813Q593.84375 656.29065 594.1875 656.0719Q594.53125 655.8375 594.9531 655.72815Q595.25 655.6344 595.8906 655.5563Q597.15625 655.41565 597.7656 655.1969Q597.7656 654.97815 597.7656 654.9313Q597.7656 654.275 597.46875 654.0094Q597.0625 653.66565 596.2656 653.66565Q595.53125 653.66565 595.1719 653.9313Q594.8125 654.1813 594.6406 654.8375L593.6094 654.6969Q593.75 654.04065 594.0781 653.6344Q594.40625 653.22815 595.0156 653.0094Q595.625 652.79065 596.4219 652.79065Q597.21875 652.79065 597.71875 652.97815Q598.21875 653.16565 598.4531 653.4469Q598.6875 653.72815 598.78125 654.16565Q598.8281 654.4313 598.8281 655.1344L598.8281 656.54065Q598.8281 658.0094 598.8906 658.4Q598.96875 658.79065 599.1719 659.15L598.0625 659.15Q597.90625 658.8219 597.8594 658.3844ZM597.7656 656.025Q597.1875 656.2594 596.0469 656.4313Q595.3906 656.525 595.125 656.65Q594.8594 656.7594 594.7031 656.97815Q594.5625 657.1969 594.5625 657.47815Q594.5625 657.9 594.875 658.1813Q595.2031 658.4625 595.8125 658.4625Q596.4219 658.4625 596.8906 658.1969Q597.375 657.9313 597.59375 657.4625Q597.7656 657.10315 597.7656 656.41565L597.7656 656.025ZM600.59375 659.66565L601.625 659.8219Q601.6875 660.29065 601.9844 660.5094Q602.375 660.8063 603.0469 660.8063Q603.78125 660.8063 604.1719 660.5094Q604.5781 660.2125 604.71875 659.6969Q604.8125 659.3688 604.7969 658.3375Q604.1094 659.15 603.0781 659.15Q601.7969 659.15 601.09375 658.22815Q600.3906 657.29065 600.3906 656.0094Q600.3906 655.1188 600.7031 654.3688Q601.03125 653.60315 601.6406 653.1969Q602.25 652.79065 603.0781 652.79065Q604.1875 652.79065 604.90625 653.6813L604.90625 652.9313L605.875 652.9313L605.875 658.3063Q605.875 659.7594 605.5781 660.3688Q605.28125 660.97815 604.6406 661.3219Q604.0 661.6813 603.0625 661.6813Q601.9531 661.6813 601.2656 661.1813Q600.5781 660.6813 600.59375 659.66565ZM601.46875 655.9313Q601.46875 657.15 601.9531 657.7125Q602.4375 658.275 603.1719 658.275Q603.90625 658.275 604.3906 657.7125Q604.8906 657.15 604.8906 655.9625Q604.8906 654.8219 604.375 654.2438Q603.875 653.66565 603.15625 653.66565Q602.4531 653.66565 601.9531 654.2438Q601.46875 654.8063 601.46875 655.9313ZM612.0469 657.15L613.1406 657.275Q612.8906 658.22815 612.1875 658.7594Q611.4844 659.29065 610.40625 659.29065Q609.0469 659.29065 608.2344 658.4469Q607.4375 657.60315 607.4375 656.0875Q607.4375 654.525 608.25 653.66565Q609.0625 652.79065 610.34375 652.79065Q611.59375 652.79065 612.375 653.6344Q613.1719 654.47815 613.1719 656.025Q613.1719 656.1188 613.1719 656.3063L608.53125 656.3063Q608.59375 657.3375 609.1094 657.8844Q609.625 658.41565 610.40625 658.41565Q610.9844 658.41565 611.3906 658.1188Q611.8125 657.8063 612.0469 657.15ZM608.59375 655.4469L612.0625 655.4469Q612.0 654.65 611.6719 654.2594Q611.15625 653.65 610.3594 653.65Q609.625 653.65 609.125 654.1344Q608.6406 654.6188 608.59375 655.4469Z" fill-rule="nonzero"/><path fill="#000000" d="M45.850025 364.3198L39.631275 364.3198L39.631275 363.3823L40.506275 363.3823Q40.037525 363.08542 39.7719 362.60104Q39.49065 362.11667 39.49065 361.49167Q39.49065 360.80417 39.7719 360.36667Q40.05315 359.91354 40.568775 359.74167Q39.49065 358.99167 39.49065 357.8198Q39.49065 356.8823 40.006275 356.39792Q40.506275 355.89792 41.5844 355.89792L45.850025 355.89792L45.850025 356.9448L41.92815 356.9448Q41.30315 356.9448 41.0219 357.05417Q40.74065 357.14792 40.568775 357.41354Q40.3969 357.67917 40.3969 358.05417Q40.3969 358.71042 40.8344 359.14792Q41.2719 359.5698 42.24065 359.5698L45.850025 359.5698L45.850025 360.6323L41.80315 360.6323Q41.100025 360.6323 40.756275 360.89792Q40.3969 361.14792 40.3969 361.72604Q40.3969 362.17917 40.631275 362.55417Q40.86565 362.92917 41.318775 363.10104Q41.7719 363.27292 42.61565 363.27292L45.850025 363.27292L45.850025 364.3198ZM45.850025 351.74167L37.256275 355.0698L37.256275 353.83542L43.506275 351.60104Q44.256275 351.33542 44.912525 351.14792Q44.2094 350.9448 43.506275 350.67917L37.256275 348.36667L37.256275 347.21042L45.850025 350.5698L45.850025 351.74167Z" fill-rule="nonzero"/><path fill="#000000" d="M70.225 611.5719L70.225 610.5094L73.475 610.5094L73.475 611.5719L70.225 611.5719ZM74.35 611.9L75.45937 611.8063Q75.58437 612.6188 76.02187 613.025Q76.475 613.4313 77.11562 613.4313Q77.86562 613.4313 78.39687 612.85315Q78.92812 612.275 78.92812 611.3375Q78.92812 610.4313 78.4125 609.91565Q77.9125 609.3844 77.08437 609.3844Q76.58437 609.3844 76.1625 609.6188Q75.75625 609.85315 75.52187 610.2125L74.5375 610.0875L75.36562 605.6813L79.64687 605.6813L79.64687 606.6813L76.20937 606.6813L75.75625 608.9938Q76.52187 608.4469 77.36562 608.4469Q78.49062 608.4469 79.25625 609.22815Q80.0375 610.0094 80.0375 611.2438Q80.0375 612.4 79.36562 613.2594Q78.5375 614.29065 77.11562 614.29065Q75.94375 614.29065 75.19375 613.6344Q74.45937 612.97815 74.35 611.9ZM81.35 609.91565Q81.35 608.3844 81.6625 607.4625Q81.975 606.525 82.58437 606.025Q83.20937 605.525 84.14687 605.525Q84.83437 605.525 85.35 605.8063Q85.88125 606.0875 86.225 606.6188Q86.56875 607.1344 86.75625 607.8844Q86.94375 608.6344 86.94375 609.91565Q86.94375 611.4313 86.63125 612.35315Q86.33437 613.275 85.70937 613.79065Q85.1 614.29065 84.14687 614.29065Q82.9125 614.29065 82.19375 613.4Q81.35 612.3375 81.35 609.91565ZM82.42812 609.91565Q82.42812 612.025 82.92812 612.72815Q83.42812 613.4313 84.14687 613.4313Q84.88125 613.4313 85.36562 612.72815Q85.86562 612.025 85.86562 609.91565Q85.86562 607.79065 85.36562 607.10315Q84.88125 606.4 84.13125 606.4Q83.4125 606.4 82.975 607.0094Q82.42812 607.79065 82.42812 609.91565Z" fill-rule="nonzero"/><path fill="#000000" d="M70.225 546.43854L70.225 545.37604L73.475 545.37604L73.475 546.43854L70.225 546.43854ZM74.35 546.75104L75.4125 546.6104Q75.58437 547.50104 76.02187 547.9073Q76.45937 548.2979 77.08437 548.2979Q77.83437 548.2979 78.35 547.7823Q78.86562 547.26666 78.86562 546.50104Q78.86562 545.7823 78.38125 545.31354Q77.9125 544.82916 77.17812 544.82916Q76.88125 544.82916 76.42812 544.95416L76.55312 544.01666Q76.6625 544.0323 76.725 544.0323Q77.39687 544.0323 77.92812 543.68854Q78.475 543.32916 78.475 542.5948Q78.475 542.01666 78.08437 541.64166Q77.69375 541.25104 77.06875 541.25104Q76.45937 541.25104 76.0375 541.64166Q75.63125 542.0323 75.52187 542.7979L74.45937 542.6104Q74.64687 541.56354 75.33437 540.9854Q76.02187 540.39166 77.0375 540.39166Q77.74062 540.39166 78.33437 540.70416Q78.92812 541.00104 79.24062 541.51666Q79.55312 542.0323 79.55312 542.62604Q79.55312 543.1729 79.25625 543.64166Q78.95937 544.0948 78.38125 544.3604Q79.13125 544.5323 79.55312 545.0948Q79.975 545.64166 79.975 546.4854Q79.975 547.6104 79.14687 548.39166Q78.33437 549.1729 77.08437 549.1729Q75.95937 549.1729 75.20937 548.50104Q74.45937 547.81354 74.35 546.75104ZM82.975 544.3604Q82.31875 544.1104 81.99062 543.6729Q81.67812 543.2198 81.67812 542.6104Q81.67812 541.6729 82.35 541.0323Q83.0375 540.39166 84.14687 540.39166Q85.27187 540.39166 85.95937 541.0479Q86.64687 541.70416 86.64687 542.64166Q86.64687 543.2354 86.33437 543.6729Q86.02187 544.1104 85.38125 544.3604Q86.17812 544.6104 86.58437 545.18854Q86.99062 545.76666 86.99062 546.56354Q86.99062 547.6573 86.20937 548.4073Q85.44375 549.1573 84.1625 549.1573Q82.89687 549.1573 82.11562 548.4073Q81.33437 547.6573 81.33437 546.5323Q81.33437 545.68854 81.75625 545.12604Q82.19375 544.56354 82.975 544.3604ZM82.75625 542.56354Q82.75625 543.1729 83.14687 543.56354Q83.55312 543.95416 84.17812 543.95416Q84.7875 543.95416 85.17812 543.57916Q85.56875 543.18854 85.56875 542.62604Q85.56875 542.0479 85.1625 541.6573Q84.75625 541.25104 84.1625 541.25104Q83.55312 541.25104 83.14687 541.64166Q82.75625 542.0323 82.75625 542.56354ZM82.42812 546.5323Q82.42812 546.9854 82.63125 547.4073Q82.85 547.82916 83.27187 548.06354Q83.69375 548.2979 84.17812 548.2979Q84.92812 548.2979 85.4125 547.81354Q85.9125 547.32916 85.9125 546.57916Q85.9125 545.81354 85.4125 545.31354Q84.9125 544.81354 84.14687 544.81354Q83.39687 544.81354 82.9125 545.31354Q82.42812 545.7979 82.42812 546.5323Z" fill-rule="nonzero"/><path fill="#000000" d="M70.225 481.3052L70.225 480.2427L73.475 480.2427L73.475 481.3052L70.225 481.3052ZM79.89687 482.8677L79.89687 483.88333L74.20937 483.88333Q74.20937 483.50833 74.33437 483.14896Q74.55312 482.57083 75.02187 482.00833Q75.50625 481.44583 76.4125 480.71146Q77.81875 479.5552 78.30312 478.88333Q78.80312 478.21146 78.80312 477.6177Q78.80312 476.9927 78.35 476.57083Q77.89687 476.13333 77.17812 476.13333Q76.4125 476.13333 75.95937 476.58646Q75.50625 477.03958 75.49062 477.85208L74.4125 477.7427Q74.52187 476.52396 75.24062 475.89896Q75.975 475.25833 77.20937 475.25833Q78.44375 475.25833 79.1625 475.94583Q79.88125 476.63333 79.88125 477.64896Q79.88125 478.16458 79.6625 478.66458Q79.45937 479.14896 78.95937 479.71146Q78.475 480.25833 77.35 481.21146Q76.39687 482.00833 76.11562 482.3052Q75.85 482.58646 75.67812 482.8677L79.89687 482.8677ZM81.35 481.63333L82.45937 481.53958Q82.58437 482.35208 83.02187 482.75833Q83.475 483.16458 84.11562 483.16458Q84.86562 483.16458 85.39687 482.58646Q85.92812 482.00833 85.92812 481.07083Q85.92812 480.16458 85.4125 479.64896Q84.9125 479.1177 84.08437 479.1177Q83.58437 479.1177 83.1625 479.35208Q82.75625 479.58646 82.52187 479.94583L81.5375 479.82083L82.36562 475.41458L86.64687 475.41458L86.64687 476.41458L83.20937 476.41458L82.75625 478.72708Q83.52187 478.1802 84.36562 478.1802Q85.49062 478.1802 86.25625 478.96146Q87.0375 479.7427 87.0375 480.97708Q87.0375 482.13333 86.36562 482.9927Q85.5375 484.02396 84.11562 484.02396Q82.94375 484.02396 82.19375 483.3677Q81.45937 482.71146 81.35 481.63333Z" fill-rule="nonzero"/><path fill="#000000" d="M70.225 416.17188L70.225 415.10938L73.475 415.10938L73.475 416.17188L70.225 416.17188ZM78.31875 418.75L77.27187 418.75L77.27187 412.03125Q76.88125 412.39062 76.25625 412.76562Q75.64687 413.125 75.1625 413.29688L75.1625 412.28125Q76.0375 411.85938 76.69375 411.28125Q77.36562 410.6875 77.64687 410.125L78.31875 410.125L78.31875 418.75ZM81.35 416.48438L82.4125 416.34375Q82.58437 417.23438 83.02187 417.64062Q83.45937 418.03125 84.08437 418.03125Q84.83437 418.03125 85.35 417.51562Q85.86562 417.0 85.86562 416.23438Q85.86562 415.51562 85.38125 415.04688Q84.9125 414.5625 84.17812 414.5625Q83.88125 414.5625 83.42812 414.6875L83.55312 413.75Q83.6625 413.76562 83.725 413.76562Q84.39687 413.76562 84.92812 413.42188Q85.475 413.0625 85.475 412.32812Q85.475 411.75 85.08437 411.375Q84.69375 410.98438 84.06875 410.98438Q83.45937 410.98438 83.0375 411.375Q82.63125 411.76562 82.52187 412.53125L81.45937 412.34375Q81.64687 411.29688 82.33437 410.71875Q83.02187 410.125 84.0375 410.125Q84.74062 410.125 85.33437 410.4375Q85.92812 410.73438 86.24062 411.25Q86.55312 411.76562 86.55312 412.35938Q86.55312 412.90625 86.25625 413.375Q85.95937 413.82812 85.38125 414.09375Q86.13125 414.26562 86.55312 414.82812Q86.975 415.375 86.975 416.21875Q86.975 417.34375 86.14687 418.125Q85.33437 418.90625 84.08437 418.90625Q82.95937 418.90625 82.20937 418.23438Q81.45937 417.54688 81.35 416.48438Z" fill-rule="nonzero"/><path fill="#000000" d="M81.35 349.3823Q81.35 347.85104 81.6625 346.92917Q81.975 345.99167 82.58437 345.49167Q83.20937 344.99167 84.14687 344.99167Q84.83437 344.99167 85.35 345.27292Q85.88125 345.55417 86.225 346.08542Q86.56875 346.60104 86.75625 347.35104Q86.94375 348.10104 86.94375 349.3823Q86.94375 350.89792 86.63125 351.8198Q86.33437 352.74167 85.70937 353.2573Q85.1 353.7573 84.14687 353.7573Q82.9125 353.7573 82.19375 352.86667Q81.35 351.80417 81.35 349.3823ZM82.42812 349.3823Q82.42812 351.49167 82.92812 352.1948Q83.42812 352.89792 84.14687 352.89792Q84.88125 352.89792 85.36562 352.1948Q85.86562 351.49167 85.86562 349.3823Q85.86562 347.2573 85.36562 346.5698Q84.88125 345.86667 84.13125 345.86667Q83.4125 345.86667 82.975 346.47604Q82.42812 347.2573 82.42812 349.3823Z" fill-rule="nonzero"/><path fill="#000000" d="M78.31875 288.48334L77.27187 288.48334L77.27187 281.7646Q76.88125 282.12396 76.25625 282.49896Q75.64687 282.85834 75.1625 283.0302L75.1625 282.0146Q76.0375 281.5927 76.69375 281.0146Q77.36562 280.42084 77.64687 279.85834L78.31875 279.85834L78.31875 288.48334ZM81.35 286.2177L82.4125 286.0771Q82.58437 286.9677 83.02187 287.37396Q83.45937 287.7646 84.08437 287.7646Q84.83437 287.7646 85.35 287.24896Q85.86562 286.73334 85.86562 285.9677Q85.86562 285.24896 85.38125 284.7802Q84.9125 284.29584 84.17812 284.29584Q83.88125 284.29584 83.42812 284.42084L83.55312 283.48334Q83.6625 283.49896 83.725 283.49896Q84.39687 283.49896 84.92812 283.1552Q85.475 282.79584 85.475 282.06146Q85.475 281.48334 85.08437 281.10834Q84.69375 280.7177 84.06875 280.7177Q83.45937 280.7177 83.0375 281.10834Q82.63125 281.49896 82.52187 282.2646L81.45937 282.0771Q81.64687 281.0302 82.33437 280.4521Q83.02187 279.85834 84.0375 279.85834Q84.74062 279.85834 85.33437 280.17084Q85.92812 280.4677 86.24062 280.98334Q86.55312 281.49896 86.55312 282.0927Q86.55312 282.6396 86.25625 283.10834Q85.95937 283.56146 85.38125 283.8271Q86.13125 283.99896 86.55312 284.56146Q86.975 285.10834 86.975 285.9521Q86.975 287.0771 86.14687 287.85834Q85.33437 288.6396 84.08437 288.6396Q82.95937 288.6396 82.20937 287.9677Q81.45937 287.2802 81.35 286.2177Z" fill-rule="nonzero"/><path fill="#000000" d="M79.89687 222.33438L79.89687 223.35L74.20937 223.35Q74.20937 222.975 74.33437 222.61563Q74.55312 222.0375 75.02187 221.475Q75.50625 220.9125 76.4125 220.17813Q77.81875 219.02188 78.30312 218.35Q78.80312 217.67813 78.80312 217.08438Q78.80312 216.45938 78.35 216.0375Q77.89687 215.6 77.17812 215.6Q76.4125 215.6 75.95937 216.05313Q75.50625 216.50626 75.49062 217.31876L74.4125 217.20938Q74.52187 215.99063 75.24062 215.36563Q75.975 214.725 77.20937 214.725Q78.44375 214.725 79.1625 215.4125Q79.88125 216.1 79.88125 217.11563Q79.88125 217.63126 79.6625 218.13126Q79.45937 218.61563 78.95937 219.17813Q78.475 219.725 77.35 220.67813Q76.39687 221.475 76.11562 221.77188Q75.85 222.05313 75.67812 222.33438L79.89687 222.33438ZM81.35 221.1L82.45937 221.00626Q82.58437 221.81876 83.02187 222.225Q83.475 222.63126 84.11562 222.63126Q84.86562 222.63126 85.39687 222.05313Q85.92812 221.475 85.92812 220.5375Q85.92812 219.63126 85.4125 219.11563Q84.9125 218.58438 84.08437 218.58438Q83.58437 218.58438 83.1625 218.81876Q82.75625 219.05313 82.52187 219.4125L81.5375 219.2875L82.36562 214.88126L86.64687 214.88126L86.64687 215.88126L83.20937 215.88126L82.75625 218.19376Q83.52187 217.64688 84.36562 217.64688Q85.49062 217.64688 86.25625 218.42813Q87.0375 219.20938 87.0375 220.44376Q87.0375 221.6 86.36562 222.45938Q85.5375 223.49063 84.11562 223.49063Q82.94375 223.49063 82.19375 222.83438Q81.45937 222.17813 81.35 221.1Z" fill-rule="nonzero"/><path fill="#000000" d="M74.35 155.95103L75.4125 155.81041Q75.58437 156.70103 76.02187 157.10728Q76.45937 157.49791 77.08437 157.49791Q77.83437 157.49791 78.35 156.98228Q78.86562 156.46666 78.86562 155.70103Q78.86562 154.98228 78.38125 154.51353Q77.9125 154.02916 77.17812 154.02916Q76.88125 154.02916 76.42812 154.15416L76.55312 153.21666Q76.6625 153.23228 76.725 153.23228Q77.39687 153.23228 77.92812 152.88853Q78.475 152.52916 78.475 151.79478Q78.475 151.21666 78.08437 150.84166Q77.69375 150.45103 77.06875 150.45103Q76.45937 150.45103 76.0375 150.84166Q75.63125 151.23228 75.52187 151.99791L74.45937 151.81041Q74.64687 150.76353 75.33437 150.18541Q76.02187 149.59166 77.0375 149.59166Q77.74062 149.59166 78.33437 149.90416Q78.92812 150.20103 79.24062 150.71666Q79.55312 151.23228 79.55312 151.82603Q79.55312 152.37291 79.25625 152.84166Q78.95937 153.29478 78.38125 153.56041Q79.13125 153.73228 79.55312 154.29478Q79.975 154.84166 79.975 155.68541Q79.975 156.81041 79.14687 157.59166Q78.33437 158.37291 77.08437 158.37291Q75.95937 158.37291 75.20937 157.70103Q74.45937 157.01353 74.35 155.95103ZM82.975 153.56041Q82.31875 153.31041 81.99062 152.87291Q81.67812 152.41978 81.67812 151.81041Q81.67812 150.87291 82.35 150.23228Q83.0375 149.59166 84.14687 149.59166Q85.27187 149.59166 85.95937 150.24791Q86.64687 150.90416 86.64687 151.84166Q86.64687 152.43541 86.33437 152.87291Q86.02187 153.31041 85.38125 153.56041Q86.17812 153.81041 86.58437 154.38853Q86.99062 154.96666 86.99062 155.76353Q86.99062 156.85728 86.20937 157.60728Q85.44375 158.35728 84.1625 158.35728Q82.89687 158.35728 82.11562 157.60728Q81.33437 156.85728 81.33437 155.73228Q81.33437 154.88853 81.75625 154.32603Q82.19375 153.76353 82.975 153.56041ZM82.75625 151.76353Q82.75625 152.37291 83.14687 152.76353Q83.55312 153.15416 84.17812 153.15416Q84.7875 153.15416 85.17812 152.77916Q85.56875 152.38853 85.56875 151.82603Q85.56875 151.24791 85.1625 150.85728Q84.75625 150.45103 84.1625 150.45103Q83.55312 150.45103 83.14687 150.84166Q82.75625 151.23228 82.75625 151.76353ZM82.42812 155.73228Q82.42812 156.18541 82.63125 156.60728Q82.85 157.02916 83.27187 157.26353Q83.69375 157.49791 84.17812 157.49791Q84.92812 157.49791 85.4125 157.01353Q85.9125 156.52916 85.9125 155.77916Q85.9125 155.01353 85.4125 154.51353Q84.9125 154.01353 84.14687 154.01353Q83.39687 154.01353 82.9125 154.51353Q82.42812 154.99791 82.42812 155.73228Z" fill-rule="nonzero"/><path fill="#000000" d="M74.35 90.833336L75.45937 90.739586Q75.58437 91.552086 76.02187 91.958336Q76.475 92.364586 77.11562 92.364586Q77.86562 92.364586 78.39687 91.78646Q78.92812 91.208336 78.92812 90.270836Q78.92812 89.364586 78.4125 88.84896Q77.9125 88.31771 77.08437 88.31771Q76.58437 88.31771 76.1625 88.552086Q75.75625 88.78646 75.52187 89.145836L74.5375 89.020836L75.36562 84.614586L79.64687 84.614586L79.64687 85.614586L76.20937 85.614586L75.75625 87.927086Q76.52187 87.38021 77.36562 87.38021Q78.49062 87.38021 79.25625 88.16146Q80.0375 88.94271 80.0375 90.177086Q80.0375 91.333336 79.36562 92.19271Q78.5375 93.22396 77.11562 93.22396Q75.94375 93.22396 75.19375 92.56771Q74.45937 91.91146 74.35 90.833336ZM81.35 88.84896Q81.35 87.31771 81.6625 86.395836Q81.975 85.458336 82.58437 84.958336Q83.20937 84.458336 84.14687 84.458336Q84.83437 84.458336 85.35 84.739586Q85.88125 85.020836 86.225 85.552086Q86.56875 86.06771 86.75625 86.81771Q86.94375 87.56771 86.94375 88.84896Q86.94375 90.364586 86.63125 91.28646Q86.33437 92.208336 85.70937 92.72396Q85.1 93.22396 84.14687 93.22396Q82.9125 93.22396 82.19375 92.333336Q81.35 91.270836 81.35 88.84896ZM82.42812 88.84896Q82.42812 90.958336 82.92812 91.66146Q83.42812 92.364586 84.14687 92.364586Q84.88125 92.364586 85.36562 91.66146Q85.86562 90.958336 85.86562 88.84896Q85.86562 86.72396 85.36562 86.03646Q84.88125 85.333336 84.13125 85.333336Q83.4125 85.333336 82.975 85.94271Q82.42812 86.72396 82.42812 88.84896Z" fill-rule="nonzero"/><path fill="#000000" d="M90.85 622.91565Q90.85 621.3844 91.1625 620.4625Q91.475 619.525 92.08437 619.025Q92.70937 618.525 93.64687 618.525Q94.33437 618.525 94.85 618.8063Q95.38125 619.0875 95.725 619.6188Q96.06875 620.1344 96.25625 620.8844Q96.44375 621.6344 96.44375 622.91565Q96.44375 624.4313 96.13125 625.35315Q95.83437 626.275 95.20937 626.79065Q94.6 627.29065 93.64687 627.29065Q92.4125 627.29065 91.69375 626.4Q90.85 625.3375 90.85 622.91565ZM91.92812 622.91565Q91.92812 625.025 92.42812 625.72815Q92.92812 626.4313 93.64687 626.4313Q94.38125 626.4313 94.86562 625.72815Q95.36562 625.025 95.36562 622.91565Q95.36562 620.79065 94.86562 620.10315Q94.38125 619.4 93.63125 619.4Q92.9125 619.4 92.475 620.0094Q91.92812 620.79065 91.92812 622.91565Z" fill-rule="nonzero"/><path fill="#000000" d="M400.38962 627.15L399.34274 627.15L399.34274 620.4313Q398.95212 620.79065 398.32712 621.16565Q397.71774 621.525 397.23337 621.6969L397.23337 620.6813Q398.10837 620.2594 398.76462 619.6813Q399.4365 619.0875 399.71774 618.525L400.38962 618.525L400.38962 627.15Z" fill-rule="nonzero"/><path fill="#000000" d="M707.5386 626.1344L707.5386 627.15L701.8511 627.15Q701.8511 626.775 701.9761 626.41565Q702.1948 625.8375 702.6636 625.275Q703.14795 624.7125 704.0542 623.97815Q705.46045 622.8219 705.9448 622.15Q706.4448 621.47815 706.4448 620.8844Q706.4448 620.2594 705.9917 619.8375Q705.5386 619.4 704.8198 619.4Q704.0542 619.4 703.6011 619.85315Q703.14795 620.3063 703.1323 621.1188L702.0542 621.0094Q702.1636 619.79065 702.8823 619.16565Q703.6167 618.525 704.8511 618.525Q706.08545 618.525 706.8042 619.2125Q707.52295 619.9 707.52295 620.91565Q707.52295 621.4313 707.3042 621.9313Q707.1011 622.41565 706.6011 622.97815Q706.1167 623.525 704.9917 624.47815Q704.0386 625.275 703.7573 625.5719Q703.4917 625.85315 703.3198 626.1344L707.5386 626.1344Z" fill-rule="nonzero"/><path fill="#000000" d="M1007.56256 624.8844L1008.62506 624.7438Q1008.79694 625.6344 1009.23444 626.04065Q1009.67194 626.4313 1010.29694 626.4313Q1011.04694 626.4313 1011.56256 625.91565Q1012.0782 625.4 1012.0782 624.6344Q1012.0782 623.91565 1011.5938 623.4469Q1011.12506 622.9625 1010.3907 622.9625Q1010.0938 622.9625 1009.6407 623.0875L1009.7657 622.15Q1009.87506 622.16565 1009.93756 622.16565Q1010.60944 622.16565 1011.1407 621.8219Q1011.68756 621.4625 1011.68756 620.72815Q1011.68756 620.15 1011.29694 619.775Q1010.9063 619.3844 1010.2813 619.3844Q1009.67194 619.3844 1009.25006 619.775Q1008.8438 620.16565 1008.73444 620.9313L1007.67194 620.7438Q1007.85944 619.6969 1008.54694 619.1188Q1009.23444 618.525 1010.25006 618.525Q1010.9532 618.525 1011.54694 618.8375Q1012.1407 619.1344 1012.4532 619.65Q1012.7657 620.16565 1012.7657 620.7594Q1012.7657 621.3063 1012.4688 621.775Q1012.17194 622.22815 1011.5938 622.4938Q1012.3438 622.66565 1012.7657 623.22815Q1013.18756 623.775 1013.18756 624.6188Q1013.18756 625.7438 1012.35944 626.525Q1011.54694 627.3063 1010.29694 627.3063Q1009.17194 627.3063 1008.42194 626.6344Q1007.67194 625.9469 1007.56256 624.8844Z" fill-rule="nonzero"/><path fill="#757575" d="M36.428123 53.85L36.428123 39.5375L46.7875 39.5375L46.7875 41.225L38.334373 41.225L38.334373 45.6L46.240623 45.6L46.240623 47.2875L38.334373 47.2875L38.334373 52.1625L47.115623 52.1625L47.115623 53.85L36.428123 53.85ZM49.146873 53.85L49.146873 43.475L50.725 43.475L50.725 45.053123Q51.334373 43.94375 51.85 43.6Q52.365623 43.240623 52.975 43.240623Q53.865623 43.240623 54.7875 43.803123L54.178123 45.44375Q53.5375 45.053123 52.896873 45.053123Q52.31875 45.053123 51.85 45.4125Q51.396873 45.75625 51.19375 46.365623Q50.9125 47.303123 50.9125 48.4125L50.9125 53.85L49.146873 53.85ZM56.146873 53.85L56.146873 43.475L57.725 43.475L57.725 45.053123Q58.334373 43.94375 58.85 43.6Q59.365623 43.240623 59.975 43.240623Q60.865623 43.240623 61.7875 43.803123L61.178123 45.44375Q60.5375 45.053123 59.896873 45.053123Q59.31875 45.053123 58.85 45.4125Q58.396873 45.75625 58.19375 46.365623Q57.9125 47.303123 57.9125 48.4125L57.9125 53.85L56.146873 53.85ZM62.521873 48.6625Q62.521873 45.7875 64.11562 44.396873Q65.45937 43.240623 67.38125 43.240623Q69.52187 43.240623 70.86562 44.646873Q72.225 46.053123 72.225 48.521873Q72.225 50.521873 71.63125 51.678123Q71.0375 52.81875 69.88125 53.459373Q68.74062 54.084373 67.38125 54.084373Q65.19375 54.084373 63.85 52.69375Q62.521873 51.2875 62.521873 48.6625ZM64.31875 48.6625Q64.31875 50.6625 65.17812 51.646873Q66.05312 52.63125 67.38125 52.63125Q68.69375 52.63125 69.55312 51.646873Q70.42812 50.646873 70.42812 48.6Q70.42812 46.678123 69.55312 45.69375Q68.67812 44.69375 67.38125 44.69375Q66.05312 44.69375 65.17812 45.69375Q64.31875 46.678123 64.31875 48.6625ZM74.14687 53.85L74.14687 43.475L75.725 43.475L75.725 45.053123Q76.33437 43.94375 76.85 43.6Q77.36562 43.240623 77.975 43.240623Q78.86562 43.240623 79.7875 43.803123L79.17812 45.44375Q78.5375 45.053123 77.89687 45.053123Q77.31875 45.053123 76.85 45.4125Q76.39687 45.75625 76.19375 46.365623Q75.9125 47.303123 75.9125 48.4125L75.9125 53.85L74.14687 53.85Z" fill-rule="nonzero"/></svg>