<svg version="1.1" viewBox="0.0 0.0 1127.0 697.0" fill="none" stroke="none" stroke-linecap="square" stroke-miterlimit="10" width="1127" height="697" xmlns:xlink="http://www.w3.org/1999/xlink" xmlns="http://www.w3.org/2000/svg"><path fill="#ffffff" d="M0 0L1127.0 0L1127.0 697.0L0 697.0L0 0Z" fill-rule="nonzero"/><path stroke="#333333" stroke-width="1.0" stroke-linecap="butt" d="M93.5 89.5L93.5 610.5" fill-rule="nonzero"/><path stroke="#cccccc" stroke-width="1.0" stroke-linecap="butt" d="M399.5 89.5L399.5 610.5" fill-rule="nonzero"/><path stroke="#cccccc" stroke-width="1.0" stroke-linecap="butt" d="M704.5 89.5L704.5 610.5" fill-rule="nonzero"/><path stroke="#cccccc" stroke-width="1.0" stroke-linecap="butt" d="M1010.5 89.5L1010.5 610.5" fill-rule="nonzero"/><path stroke="#cccccc" stroke-width="1.0" stroke-linecap="butt" d="M93.5 610.5L1092.5 610.5" fill-rule="nonzero"/><path stroke="#cccccc" stroke-width="1.0" stroke-linecap="butt" d="M93.5 545.5L1092.5 545.5" fill-rule="nonzero"/><path stroke="#cccccc" stroke-width="1.0" stroke-linecap="butt" d="M93.5 479.5L1092.5 479.5" fill-rule="nonzero"/><path stroke="#cccccc" stroke-width="1.0" stroke-linecap="butt" d="M93.5 414.5L1092.5 414.5" fill-rule="nonzero"/><path stroke="#333333" stroke-width="1.0" stroke-linecap="butt" d="M93.5 349.5L1092.5 349.5" fill-rule="nonzero"/><path stroke="#cccccc" stroke-width="1.0" stroke-linecap="butt" d="M93.5 284.5L1092.5 284.5" fill-rule="nonzero"/><path stroke="#cccccc" stroke-width="1.0" stroke-linecap="butt" d="M93.5 219.5L1092.5 219.5" fill-rule="nonzero"/><path stroke="#cccccc" stroke-width="1.0" stroke-linecap="butt" d="M93.5 154.5L1092.5 154.5" fill-rule="nonzero"/><path stroke="#cccccc" stroke-width="1.0" stroke-linecap="butt" d="M93.5 89.5L1092.5 89.5" fill-rule="nonzero"/><path stroke="#e6e6e6" stroke-width="1.0" stroke-linecap="butt" d="M93.5 588.5L1092.5 588.5" fill-rule="nonzero"/><path stroke="#e6e6e6" stroke-width="1.0" stroke-linecap="butt" d="M93.5 566.5L1092.5 566.5" fill-rule="nonzero"/><path stroke="#e6e6e6" stroke-width="1.0" stroke-linecap="butt" d="M93.5 523.5L1092.5 523.5" fill-rule="nonzero"/><path stroke="#e6e6e6" stroke-width="1.0" stroke-linecap="butt" d="M93.5 501.5L1092.5 501.5" fill-rule="nonzero"/><path stroke="#e6e6e6" stroke-width="1.0" stroke-linecap="butt" d="M93.5 458.5L1092.5 458.5" fill-rule="nonzero"/><path stroke="#e6e6e6" stroke-width="1.0" stroke-linecap="butt" d="M93.5 436.5L1092.5 436.5" fill-rule="nonzero"/><path stroke="#e6e6e6" stroke-width="1.0" stroke-linecap="butt" d="M93.5 393.5L1092.5 393.5" fill-rule="nonzero"/><path stroke="#e6e6e6" stroke-width="1.0" stroke-linecap="butt" d="M93.5 371.5L1092.5 371.5" fill-rule="nonzero"/><path stroke="#e6e6e6" stroke-width="1.0" stroke-linecap="butt" d="M93.5 327.5L1092.5 327.5" fill-rule="nonzero"/><path stroke="#e6e6e6" stroke-width="1.0" stroke-linecap="butt" d="M93.5 306.5L1092.5 306.5" fill-rule="nonzero"/><path stroke="#e6e6e6" stroke-width="1.0" stroke-linecap="butt" d="M93.5 262.5L1092.5 262.5" fill-rule="nonzero"/><path stroke="#e6e6e6" stroke-width="1.0" stroke-linecap="butt" d="M93.5 241.5L1092.5 241.5" fill-rule="nonzero"/><path stroke="#e6e6e6" stroke-width="1.0" stroke-linecap="butt" d="M93.5 197.5L1092.5 197.5" fill-rule="nonzero"/><path stroke="#e6e6e6" stroke-width="1.0" stroke-linecap="butt" d="M93.5 175.5L1092.5 175.5" fill-rule="nonzero"/><path stroke="#e6e6e6" stroke-width="1.0" stroke-linecap="butt" d="M93.5 132.5L1092.5 132.5" fill-rule="nonzero"/><path stroke="#e6e6e6" stroke-width="1.0" stroke-linecap="butt" d="M93.5 110.5L1092.5 110.5" fill-rule="nonzero"/><clipPath id="id_0"><path d="M93.85 89.083336L1092.15 89.083336L1092.15 610.15L93.85 610.15L93.85 89.083336Z" clip-rule="nonzero"/></clipPath><path stroke="#cc0000" stroke-width="2.0" stroke-linecap="butt" clip-path="url(#id_0)" d="M93.85 156.40515L103.93384 164.79433L114.01768 164.79433L124.10149 164.79433L134.18535 169.01495L144.2692 173.18349L154.35303 173.18349L164.43687 173.18349L174.5207 177.40413L184.60454 177.40413L194.68839 177.40413L204.77222 181.57266L214.85606 181.57266L224.9399 185.7933L235.02374 185.7933L245.10757 185.7933L255.19142 185.7933L265.27524 185.7933L275.3591 185.7933L285.44293 190.01395L295.52676 194.18248L305.6106 198.40312L315.69446 202.57166L325.7783 206.7923L335.86212 211.01294L345.94595 211.01294L356.0298 215.18147L366.11365 219.4021L376.19748 215.18147L386.2813 219.4021L396.36514 219.4021L406.449 215.18147L416.53284 215.18147L426.61667 215.18147L436.7005 215.18147L446.78433 215.18147L456.8682 215.18147L466.95203 211.01294L477.03586 206.7923L487.1197 211.01294L497.20352 206.7923L507.28738 206.7923L517.3712 211.01294L527.4551 211.01294L537.5389 211.01294L547.62274 211.01294L557.70654 211.01294L567.7904 206.7923L577.87427 206.7923L587.95807 206.7923L598.04193 211.01294L608.12573 211.01294L618.2096 211.01294L628.29346 211.01294L638.37726 211.01294L648.4611 211.01294L658.5449 211.01294L668.6288 211.01294L678.71265 215.18147L688.79645 211.01294L698.8803 211.01294L708.9641 215.18147L719.048 202.57166L729.13184 202.57166L739.21564 202.57166L749.2995 202.57166L759.38336 202.57166L769.46716 202.57166L779.551 202.57166L789.6348 202.57166L799.7187 202.57166L809.80255 202.57166L819.88635 202.57166L829.9702 202.57166L840.054 202.57166L850.1379 206.7923L860.22174 206.7923L870.30554 206.7923L880.3894 202.57166L890.4732 202.57166L900.55707 202.57166L910.6409 202.57166L920.72473 202.57166L930.8086 206.7923L940.8924 202.57166L950.97626 206.7923L961.0601 206.7923L971.1439 206.7923L981.2278 211.01294L991.31165 211.01294L1001.39545 211.01294L1011.4793 211.01294L1021.5631 211.01294L1031.647 211.01294L1041.7308 211.01294L1051.8147 211.01294L1061.8984 211.01294L1071.9823 215.18147L1082.0662 219.4021L1092.15 366.39502" fill-rule="nonzero"/><path fill="#000000" fill-opacity="0.0" clip-path="url(#id_0)" d="M96.85 156.40515C96.85 158.062 95.50685 159.40515 93.85 159.40515C92.193146 159.40515 90.85 158.062 90.85 156.40515C90.85 154.74829 92.193146 153.40515 93.85 153.40515C95.50685 153.40515 96.85 154.74829 96.85 156.40515Z" fill-rule="nonzero"/><path fill="#000000" fill-opacity="0.0" clip-path="url(#id_0)" d="M106.93384 164.79433C106.93384 166.45117 105.59069 167.79433 103.93384 167.79433C102.276985 167.79433 100.93384 166.45117 100.93384 164.79433C100.93384 163.13747 102.276985 161.79433 103.93384 161.79433C105.59069 161.79433 106.93384 163.13747 106.93384 164.79433Z" fill-rule="nonzero"/><path fill="#000000" fill-opacity="0.0" clip-path="url(#id_0)" d="M117.01768 164.79433C117.01768 166.45117 115.67453 167.79433 114.01768 167.79433C112.360825 167.79433 111.01768 166.45117 111.01768 164.79433C111.01768 163.13747 112.360825 161.79433 114.01768 161.79433C115.67453 161.79433 117.01768 163.13747 117.01768 164.79433Z" fill-rule="nonzero"/><path fill="#000000" fill-opacity="0.0" clip-path="url(#id_0)" d="M127.10149 164.79433C127.10149 166.45117 125.75834 167.79433 124.10149 167.79433C122.44463 167.79433 121.10149 166.45117 121.10149 164.79433C121.10149 163.13747 122.44463 161.79433 124.10149 161.79433C125.75834 161.79433 127.10149 163.13747 127.10149 164.79433Z" fill-rule="nonzero"/><path fill="#000000" fill-opacity="0.0" clip-path="url(#id_0)" d="M137.18535 169.01495C137.18535 170.67181 135.84221 172.01495 134.18535 172.01495C132.5285 172.01495 131.18535 170.67181 131.18535 169.01495C131.18535 167.35811 132.5285 166.01495 134.18535 166.01495C135.84221 166.01495 137.18535 167.35811 137.18535 169.01495Z" fill-rule="nonzero"/><path fill="#000000" fill-opacity="0.0" clip-path="url(#id_0)" d="M147.2692 173.18349C147.2692 174.84035 145.92604 176.18349 144.2692 176.18349C142.61234 176.18349 141.2692 174.84035 141.2692 173.18349C141.2692 171.52664 142.61234 170.18349 144.2692 170.18349C145.92604 170.18349 147.2692 171.52664 147.2692 173.18349Z" fill-rule="nonzero"/><path fill="#000000" fill-opacity="0.0" clip-path="url(#id_0)" d="M157.35303 173.18349C157.35303 174.84035 156.00989 176.18349 154.35303 176.18349C152.69618 176.18349 151.35303 174.84035 151.35303 173.18349C151.35303 171.52664 152.69618 170.18349 154.35303 170.18349C156.00989 170.18349 157.35303 171.52664 157.35303 173.18349Z" fill-rule="nonzero"/><path fill="#000000" fill-opacity="0.0" clip-path="url(#id_0)" d="M167.43687 173.18349C167.43687 174.84035 166.09372 176.18349 164.43687 176.18349C162.78001 176.18349 161.43687 174.84035 161.43687 173.18349C161.43687 171.52664 162.78001 170.18349 164.43687 170.18349C166.09372 170.18349 167.43687 171.52664 167.43687 173.18349Z" fill-rule="nonzero"/><path fill="#000000" fill-opacity="0.0" clip-path="url(#id_0)" d="M177.5207 177.40413C177.5207 179.06099 176.17757 180.40413 174.5207 180.40413C172.86385 180.40413 171.5207 179.06099 171.5207 177.40413C171.5207 175.74728 172.86385 174.40413 174.5207 174.40413C176.17757 174.40413 177.5207 175.74728 177.5207 177.40413Z" fill-rule="nonzero"/><path fill="#000000" fill-opacity="0.0" clip-path="url(#id_0)" d="M187.60454 177.40413C187.60454 179.06099 186.2614 180.40413 184.60454 180.40413C182.9477 180.40413 181.60454 179.06099 181.60454 177.40413C181.60454 175.74728 182.9477 174.40413 184.60454 174.40413C186.2614 174.40413 187.60454 175.74728 187.60454 177.40413Z" fill-rule="nonzero"/><path fill="#000000" fill-opacity="0.0" clip-path="url(#id_0)" d="M197.68839 177.40413C197.68839 179.06099 196.34525 180.40413 194.68839 180.40413C193.03152 180.40413 191.68839 179.06099 191.68839 177.40413C191.68839 175.74728 193.03152 174.40413 194.68839 174.40413C196.34525 174.40413 197.68839 175.74728 197.68839 177.40413Z" fill-rule="nonzero"/><path fill="#000000" fill-opacity="0.0" clip-path="url(#id_0)" d="M207.77222 181.57266C207.77222 183.22952 206.42908 184.57266 204.77222 184.57266C203.11537 184.57266 201.77222 183.22952 201.77222 181.57266C201.77222 179.91582 203.11537 178.57266 204.77222 178.57266C206.42908 178.57266 207.77222 179.91582 207.77222 181.57266Z" fill-rule="nonzero"/><path fill="#000000" fill-opacity="0.0" clip-path="url(#id_0)" d="M217.85606 181.57266C217.85606 183.22952 216.51291 184.57266 214.85606 184.57266C213.1992 184.57266 211.85606 183.22952 211.85606 181.57266C211.85606 179.91582 213.1992 178.57266 214.85606 178.57266C216.51291 178.57266 217.85606 179.91582 217.85606 181.57266Z" fill-rule="nonzero"/><path fill="#000000" fill-opacity="0.0" clip-path="url(#id_0)" d="M227.9399 185.7933C227.9399 187.45016 226.59676 188.7933 224.9399 188.7933C223.28305 188.7933 221.9399 187.45016 221.9399 185.7933C221.9399 184.13646 223.28305 182.7933 224.9399 182.7933C226.59676 182.7933 227.9399 184.13646 227.9399 185.7933Z" fill-rule="nonzero"/><path fill="#000000" fill-opacity="0.0" clip-path="url(#id_0)" d="M238.02374 185.7933C238.02374 187.45016 236.68059 188.7933 235.02374 188.7933C233.36688 188.7933 232.02374 187.45016 232.02374 185.7933C232.02374 184.13646 233.36688 182.7933 235.02374 182.7933C236.68059 182.7933 238.02374 184.13646 238.02374 185.7933Z" fill-rule="nonzero"/><path fill="#000000" fill-opacity="0.0" clip-path="url(#id_0)" d="M248.10757 185.7933C248.10757 187.45016 246.76443 188.7933 245.10757 188.7933C243.45071 188.7933 242.10757 187.45016 242.10757 185.7933C242.10757 184.13646 243.45071 182.7933 245.10757 182.7933C246.76443 182.7933 248.10757 184.13646 248.10757 185.7933Z" fill-rule="nonzero"/><path fill="#000000" fill-opacity="0.0" clip-path="url(#id_0)" d="M258.1914 185.7933C258.1914 187.45016 256.84827 188.7933 255.19142 188.7933C253.53456 188.7933 252.19142 187.45016 252.19142 185.7933C252.19142 184.13646 253.53456 182.7933 255.19142 182.7933C256.84827 182.7933 258.1914 184.13646 258.1914 185.7933Z" fill-rule="nonzero"/><path fill="#000000" fill-opacity="0.0" clip-path="url(#id_0)" d="M268.27524 185.7933C268.27524 187.45016 266.9321 188.7933 265.27524 188.7933C263.6184 188.7933 262.27524 187.45016 262.27524 185.7933C262.27524 184.13646 263.6184 182.7933 265.27524 182.7933C266.9321 182.7933 268.27524 184.13646 268.27524 185.7933Z" fill-rule="nonzero"/><path fill="#000000" fill-opacity="0.0" clip-path="url(#id_0)" d="M278.3591 185.7933C278.3591 187.45016 277.01593 188.7933 275.3591 188.7933C273.70224 188.7933 272.3591 187.45016 272.3591 185.7933C272.3591 184.13646 273.70224 182.7933 275.3591 182.7933C277.01593 182.7933 278.3591 184.13646 278.3591 185.7933Z" fill-rule="nonzero"/><path fill="#000000" fill-opacity="0.0" clip-path="url(#id_0)" d="M288.44293 190.01395C288.44293 191.6708 287.0998 193.01395 285.44293 193.01395C283.78607 193.01395 282.44293 191.6708 282.44293 190.01395C282.44293 188.35709 283.78607 187.01395 285.44293 187.01395C287.0998 187.01395 288.44293 188.35709 288.44293 190.01395Z" fill-rule="nonzero"/><path fill="#000000" fill-opacity="0.0" clip-path="url(#id_0)" d="M298.52676 194.18248C298.52676 195.83934 297.18362 197.18248 295.52676 197.18248C293.8699 197.18248 292.52676 195.83934 292.52676 194.18248C292.52676 192.52562 293.8699 191.18248 295.52676 191.18248C297.18362 191.18248 298.52676 192.52562 298.52676 194.18248Z" fill-rule="nonzero"/><path fill="#000000" fill-opacity="0.0" clip-path="url(#id_0)" d="M308.6106 198.40312C308.6106 200.05997 307.26746 201.40312 305.6106 201.40312C303.95377 201.40312 302.6106 200.05997 302.6106 198.40312C302.6106 196.74626 303.95377 195.40312 305.6106 195.40312C307.26746 195.40312 308.6106 196.74626 308.6106 198.40312Z" fill-rule="nonzero"/><path fill="#000000" fill-opacity="0.0" clip-path="url(#id_0)" d="M318.69446 202.57166C318.69446 204.2285 317.3513 205.57166 315.69446 205.57166C314.0376 205.57166 312.69446 204.2285 312.69446 202.57166C312.69446 200.9148 314.0376 199.57166 315.69446 199.57166C317.3513 199.57166 318.69446 200.9148 318.69446 202.57166Z" fill-rule="nonzero"/><path fill="#000000" fill-opacity="0.0" clip-path="url(#id_0)" d="M328.7783 206.7923C328.7783 208.44914 327.43515 209.7923 325.7783 209.7923C324.12143 209.7923 322.7783 208.44914 322.7783 206.7923C322.7783 205.13544 324.12143 203.7923 325.7783 203.7923C327.43515 203.7923 328.7783 205.13544 328.7783 206.7923Z" fill-rule="nonzero"/><path fill="#000000" fill-opacity="0.0" clip-path="url(#id_0)" d="M338.86212 211.01294C338.86212 212.66978 337.51898 214.01294 335.86212 214.01294C334.20526 214.01294 332.86212 212.66978 332.86212 211.01294C332.86212 209.35608 334.20526 208.01294 335.86212 208.01294C337.51898 208.01294 338.86212 209.35608 338.86212 211.01294Z" fill-rule="nonzero"/><path fill="#000000" fill-opacity="0.0" clip-path="url(#id_0)" d="M348.94595 211.01294C348.94595 212.66978 347.6028 214.01294 345.94595 214.01294C344.2891 214.01294 342.94595 212.66978 342.94595 211.01294C342.94595 209.35608 344.2891 208.01294 345.94595 208.01294C347.6028 208.01294 348.94595 209.35608 348.94595 211.01294Z" fill-rule="nonzero"/><path fill="#000000" fill-opacity="0.0" clip-path="url(#id_0)" d="M359.0298 215.18147C359.0298 216.83832 357.68665 218.18147 356.0298 218.18147C354.37296 218.18147 353.0298 216.83832 353.0298 215.18147C353.0298 213.52461 354.37296 212.18147 356.0298 212.18147C357.68665 212.18147 359.0298 213.52461 359.0298 215.18147Z" fill-rule="nonzero"/><path fill="#000000" fill-opacity="0.0" clip-path="url(#id_0)" d="M369.11365 219.4021C369.11365 221.05896 367.77048 222.4021 366.11365 222.4021C364.4568 222.4021 363.11365 221.05896 363.11365 219.4021C363.11365 217.74525 364.4568 216.4021 366.11365 216.4021C367.77048 216.4021 369.11365 217.74525 369.11365 219.4021Z" fill-rule="nonzero"/><path fill="#000000" fill-opacity="0.0" clip-path="url(#id_0)" d="M379.19748 215.18147C379.19748 216.83832 377.85434 218.18147 376.19748 218.18147C374.54062 218.18147 373.19748 216.83832 373.19748 215.18147C373.19748 213.52461 374.54062 212.18147 376.19748 212.18147C377.85434 212.18147 379.19748 213.52461 379.19748 215.18147Z" fill-rule="nonzero"/><path fill="#000000" fill-opacity="0.0" clip-path="url(#id_0)" d="M389.2813 219.4021C389.2813 221.05896 387.93817 222.4021 386.2813 222.4021C384.62445 222.4021 383.2813 221.05896 383.2813 219.4021C383.2813 217.74525 384.62445 216.4021 386.2813 216.4021C387.93817 216.4021 389.2813 217.74525 389.2813 219.4021Z" fill-rule="nonzero"/><path fill="#000000" fill-opacity="0.0" clip-path="url(#id_0)" d="M399.36514 219.4021C399.36514 221.05896 398.022 222.4021 396.36514 222.4021C394.70828 222.4021 393.36514 221.05896 393.36514 219.4021C393.36514 217.74525 394.70828 216.4021 396.36514 216.4021C398.022 216.4021 399.36514 217.74525 399.36514 219.4021Z" fill-rule="nonzero"/><path fill="#000000" fill-opacity="0.0" clip-path="url(#id_0)" d="M409.449 215.18147C409.449 216.83832 408.10583 218.18147 406.449 218.18147C404.79214 218.18147 403.449 216.83832 403.449 215.18147C403.449 213.52461 404.79214 212.18147 406.449 212.18147C408.10583 212.18147 409.449 213.52461 409.449 215.18147Z" fill-rule="nonzero"/><path fill="#000000" fill-opacity="0.0" clip-path="url(#id_0)" d="M419.53284 215.18147C419.53284 216.83832 418.1897 218.18147 416.53284 218.18147C414.87598 218.18147 413.53284 216.83832 413.53284 215.18147C413.53284 213.52461 414.87598 212.18147 416.53284 212.18147C418.1897 212.18147 419.53284 213.52461 419.53284 215.18147Z" fill-rule="nonzero"/><path fill="#000000" fill-opacity="0.0" clip-path="url(#id_0)" d="M429.61667 215.18147C429.61667 216.83832 428.27353 218.18147 426.61667 218.18147C424.9598 218.18147 423.61667 216.83832 423.61667 215.18147C423.61667 213.52461 424.9598 212.18147 426.61667 212.18147C428.27353 212.18147 429.61667 213.52461 429.61667 215.18147Z" fill-rule="nonzero"/><path fill="#000000" fill-opacity="0.0" clip-path="url(#id_0)" d="M439.7005 215.18147C439.7005 216.83832 438.35736 218.18147 436.7005 218.18147C435.04364 218.18147 433.7005 216.83832 433.7005 215.18147C433.7005 213.52461 435.04364 212.18147 436.7005 212.18147C438.35736 212.18147 439.7005 213.52461 439.7005 215.18147Z" fill-rule="nonzero"/><path fill="#000000" fill-opacity="0.0" clip-path="url(#id_0)" d="M449.78433 215.18147C449.78433 216.83832 448.4412 218.18147 446.78433 218.18147C445.1275 218.18147 443.78433 216.83832 443.78433 215.18147C443.78433 213.52461 445.1275 212.18147 446.78433 212.18147C448.4412 212.18147 449.78433 213.52461 449.78433 215.18147Z" fill-rule="nonzero"/><path fill="#000000" fill-opacity="0.0" clip-path="url(#id_0)" d="M459.8682 215.18147C459.8682 216.83832 458.52502 218.18147 456.8682 218.18147C455.21133 218.18147 453.8682 216.83832 453.8682 215.18147C453.8682 213.52461 455.21133 212.18147 456.8682 212.18147C458.52502 212.18147 459.8682 213.52461 459.8682 215.18147Z" fill-rule="nonzero"/><path fill="#000000" fill-opacity="0.0" clip-path="url(#id_0)" d="M469.95203 211.01294C469.95203 212.66978 468.6089 214.01294 466.95203 214.01294C465.29517 214.01294 463.95203 212.66978 463.95203 211.01294C463.95203 209.35608 465.29517 208.01294 466.95203 208.01294C468.6089 208.01294 469.95203 209.35608 469.95203 211.01294Z" fill-rule="nonzero"/><path fill="#000000" fill-opacity="0.0" clip-path="url(#id_0)" d="M480.03586 206.7923C480.03586 208.44914 478.69272 209.7923 477.03586 209.7923C475.379 209.7923 474.03586 208.44914 474.03586 206.7923C474.03586 205.13544 475.379 203.7923 477.03586 203.7923C478.69272 203.7923 480.03586 205.13544 480.03586 206.7923Z" fill-rule="nonzero"/><path fill="#000000" fill-opacity="0.0" clip-path="url(#id_0)" d="M490.1197 211.01294C490.1197 212.66978 488.77655 214.01294 487.1197 214.01294C485.46283 214.01294 484.1197 212.66978 484.1197 211.01294C484.1197 209.35608 485.46283 208.01294 487.1197 208.01294C488.77655 208.01294 490.1197 209.35608 490.1197 211.01294Z" fill-rule="nonzero"/><path fill="#000000" fill-opacity="0.0" clip-path="url(#id_0)" d="M500.20352 206.7923C500.20352 208.44914 498.86038 209.7923 497.20352 209.7923C495.5467 209.7923 494.20352 208.44914 494.20352 206.7923C494.20352 205.13544 495.5467 203.7923 497.20352 203.7923C498.86038 203.7923 500.20352 205.13544 500.20352 206.7923Z" fill-rule="nonzero"/><path fill="#000000" fill-opacity="0.0" clip-path="url(#id_0)" d="M510.28738 206.7923C510.28738 208.44914 508.9442 209.7923 507.28738 209.7923C505.63052 209.7923 504.28738 208.44914 504.28738 206.7923C504.28738 205.13544 505.63052 203.7923 507.28738 203.7923C508.9442 203.7923 510.28738 205.13544 510.28738 206.7923Z" fill-rule="nonzero"/><path fill="#000000" fill-opacity="0.0" clip-path="url(#id_0)" d="M520.3712 211.01294C520.3712 212.66978 519.0281 214.01294 517.3712 214.01294C515.71436 214.01294 514.3712 212.66978 514.3712 211.01294C514.3712 209.35608 515.71436 208.01294 517.3712 208.01294C519.0281 208.01294 520.3712 209.35608 520.3712 211.01294Z" fill-rule="nonzero"/><path fill="#000000" fill-opacity="0.0" clip-path="url(#id_0)" d="M530.4551 211.01294C530.4551 212.66978 529.1119 214.01294 527.4551 214.01294C525.7982 214.01294 524.4551 212.66978 524.4551 211.01294C524.4551 209.35608 525.7982 208.01294 527.4551 208.01294C529.1119 208.01294 530.4551 209.35608 530.4551 211.01294Z" fill-rule="nonzero"/><path fill="#000000" fill-opacity="0.0" clip-path="url(#id_0)" d="M540.5389 211.01294C540.5389 212.66978 539.19574 214.01294 537.5389 214.01294C535.882 214.01294 534.5389 212.66978 534.5389 211.01294C534.5389 209.35608 535.882 208.01294 537.5389 208.01294C539.19574 208.01294 540.5389 209.35608 540.5389 211.01294Z" fill-rule="nonzero"/><path fill="#000000" fill-opacity="0.0" clip-path="url(#id_0)" d="M550.62274 211.01294C550.62274 212.66978 549.2796 214.01294 547.62274 214.01294C545.9659 214.01294 544.62274 212.66978 544.62274 211.01294C544.62274 209.35608 545.9659 208.01294 547.62274 208.01294C549.2796 208.01294 550.62274 209.35608 550.62274 211.01294Z" fill-rule="nonzero"/><path fill="#000000" fill-opacity="0.0" clip-path="url(#id_0)" d="M560.70654 211.01294C560.70654 212.66978 559.3634 214.01294 557.70654 214.01294C556.0497 214.01294 554.70654 212.66978 554.70654 211.01294C554.70654 209.35608 556.0497 208.01294 557.70654 208.01294C559.3634 208.01294 560.70654 209.35608 560.70654 211.01294Z" fill-rule="nonzero"/><path fill="#000000" fill-opacity="0.0" clip-path="url(#id_0)" d="M570.7904 206.7923C570.7904 208.44914 569.44727 209.7923 567.7904 209.7923C566.13354 209.7923 564.7904 208.44914 564.7904 206.7923C564.7904 205.13544 566.13354 203.7923 567.7904 203.7923C569.44727 203.7923 570.7904 205.13544 570.7904 206.7923Z" fill-rule="nonzero"/><path fill="#000000" fill-opacity="0.0" clip-path="url(#id_0)" d="M580.87427 206.7923C580.87427 208.44914 579.53107 209.7923 577.87427 209.7923C576.2174 209.7923 574.87427 208.44914 574.87427 206.7923C574.87427 205.13544 576.2174 203.7923 577.87427 203.7923C579.53107 203.7923 580.87427 205.13544 580.87427 206.7923Z" fill-rule="nonzero"/><path fill="#000000" fill-opacity="0.0" clip-path="url(#id_0)" d="M590.95807 206.7923C590.95807 208.44914 589.6149 209.7923 587.95807 209.7923C586.3012 209.7923 584.95807 208.44914 584.95807 206.7923C584.95807 205.13544 586.3012 203.7923 587.95807 203.7923C589.6149 203.7923 590.95807 205.13544 590.95807 206.7923Z" fill-rule="nonzero"/><path fill="#000000" fill-opacity="0.0" clip-path="url(#id_0)" d="M601.04193 211.01294C601.04193 212.66978 599.6988 214.01294 598.04193 214.01294C596.3851 214.01294 595.04193 212.66978 595.04193 211.01294C595.04193 209.35608 596.3851 208.01294 598.04193 208.01294C599.6988 208.01294 601.04193 209.35608 601.04193 211.01294Z" fill-rule="nonzero"/><path fill="#000000" fill-opacity="0.0" clip-path="url(#id_0)" d="M611.12573 211.01294C611.12573 212.66978 609.7826 214.01294 608.12573 214.01294C606.46893 214.01294 605.12573 212.66978 605.12573 211.01294C605.12573 209.35608 606.46893 208.01294 608.12573 208.01294C609.7826 208.01294 611.12573 209.35608 611.12573 211.01294Z" fill-rule="nonzero"/><path fill="#000000" fill-opacity="0.0" clip-path="url(#id_0)" d="M621.2096 211.01294C621.2096 212.66978 619.86646 214.01294 618.2096 214.01294C616.55273 214.01294 615.2096 212.66978 615.2096 211.01294C615.2096 209.35608 616.55273 208.01294 618.2096 208.01294C619.86646 208.01294 621.2096 209.35608 621.2096 211.01294Z" fill-rule="nonzero"/><path fill="#000000" fill-opacity="0.0" clip-path="url(#id_0)" d="M631.29346 211.01294C631.29346 212.66978 629.9503 214.01294 628.29346 214.01294C626.6366 214.01294 625.29346 212.66978 625.29346 211.01294C625.29346 209.35608 626.6366 208.01294 628.29346 208.01294C629.9503 208.01294 631.29346 209.35608 631.29346 211.01294Z" fill-rule="nonzero"/><path fill="#000000" fill-opacity="0.0" clip-path="url(#id_0)" d="M641.37726 211.01294C641.37726 212.66978 640.0341 214.01294 638.37726 214.01294C636.7204 214.01294 635.37726 212.66978 635.37726 211.01294C635.37726 209.35608 636.7204 208.01294 638.37726 208.01294C640.0341 208.01294 641.37726 209.35608 641.37726 211.01294Z" fill-rule="nonzero"/><path fill="#000000" fill-opacity="0.0" clip-path="url(#id_0)" d="M651.4611 211.01294C651.4611 212.66978 650.118 214.01294 648.4611 214.01294C646.80426 214.01294 645.4611 212.66978 645.4611 211.01294C645.4611 209.35608 646.80426 208.01294 648.4611 208.01294C650.118 208.01294 651.4611 209.35608 651.4611 211.01294Z" fill-rule="nonzero"/><path fill="#000000" fill-opacity="0.0" clip-path="url(#id_0)" d="M661.5449 211.01294C661.5449 212.66978 660.2018 214.01294 658.5449 214.01294C656.8881 214.01294 655.5449 212.66978 655.5449 211.01294C655.5449 209.35608 656.8881 208.01294 658.5449 208.01294C660.2018 208.01294 661.5449 209.35608 661.5449 211.01294Z" fill-rule="nonzero"/><path fill="#000000" fill-opacity="0.0" clip-path="url(#id_0)" d="M671.6288 211.01294C671.6288 212.66978 670.28564 214.01294 668.6288 214.01294C666.9719 214.01294 665.6288 212.66978 665.6288 211.01294C665.6288 209.35608 666.9719 208.01294 668.6288 208.01294C670.28564 208.01294 671.6288 209.35608 671.6288 211.01294Z" fill-rule="nonzero"/><path fill="#000000" fill-opacity="0.0" clip-path="url(#id_0)" d="M681.71265 215.18147C681.71265 216.83832 680.3695 218.18147 678.71265 218.18147C677.0558 218.18147 675.71265 216.83832 675.71265 215.18147C675.71265 213.52461 677.0558 212.18147 678.71265 212.18147C680.3695 212.18147 681.71265 213.52461 681.71265 215.18147Z" fill-rule="nonzero"/><path fill="#000000" fill-opacity="0.0" clip-path="url(#id_0)" d="M691.79645 211.01294C691.79645 212.66978 690.4533 214.01294 688.79645 214.01294C687.1396 214.01294 685.79645 212.66978 685.79645 211.01294C685.79645 209.35608 687.1396 208.01294 688.79645 208.01294C690.4533 208.01294 691.79645 209.35608 691.79645 211.01294Z" fill-rule="nonzero"/><path fill="#000000" fill-opacity="0.0" clip-path="url(#id_0)" d="M701.8803 211.01294C701.8803 212.66978 700.5372 214.01294 698.8803 214.01294C697.22345 214.01294 695.8803 212.66978 695.8803 211.01294C695.8803 209.35608 697.22345 208.01294 698.8803 208.01294C700.5372 208.01294 701.8803 209.35608 701.8803 211.01294Z" fill-rule="nonzero"/><path fill="#000000" fill-opacity="0.0" clip-path="url(#id_0)" d="M711.9641 215.18147C711.9641 216.83832 710.621 218.18147 708.9641 218.18147C707.3073 218.18147 705.9641 216.83832 705.9641 215.18147C705.9641 213.52461 707.3073 212.18147 708.9641 212.18147C710.621 212.18147 711.9641 213.52461 711.9641 215.18147Z" fill-rule="nonzero"/><path fill="#000000" fill-opacity="0.0" clip-path="url(#id_0)" d="M722.048 202.57166C722.048 204.2285 720.70483 205.57166 719.048 205.57166C717.3911 205.57166 716.048 204.2285 716.048 202.57166C716.048 200.9148 717.3911 199.57166 719.048 199.57166C720.70483 199.57166 722.048 200.9148 722.048 202.57166Z" fill-rule="nonzero"/><path fill="#000000" fill-opacity="0.0" clip-path="url(#id_0)" d="M732.13184 202.57166C732.13184 204.2285 730.7887 205.57166 729.13184 205.57166C727.475 205.57166 726.13184 204.2285 726.13184 202.57166C726.13184 200.9148 727.475 199.57166 729.13184 199.57166C730.7887 199.57166 732.13184 200.9148 732.13184 202.57166Z" fill-rule="nonzero"/><path fill="#000000" fill-opacity="0.0" clip-path="url(#id_0)" d="M742.21564 202.57166C742.21564 204.2285 740.8725 205.57166 739.21564 205.57166C737.5588 205.57166 736.21564 204.2285 736.21564 202.57166C736.21564 200.9148 737.5588 199.57166 739.21564 199.57166C740.8725 199.57166 742.21564 200.9148 742.21564 202.57166Z" fill-rule="nonzero"/><path fill="#000000" fill-opacity="0.0" clip-path="url(#id_0)" d="M752.2995 202.57166C752.2995 204.2285 750.95636 205.57166 749.2995 205.57166C747.64264 205.57166 746.2995 204.2285 746.2995 202.57166C746.2995 200.9148 747.64264 199.57166 749.2995 199.57166C750.95636 199.57166 752.2995 200.9148 752.2995 202.57166Z" fill-rule="nonzero"/><path fill="#000000" fill-opacity="0.0" clip-path="url(#id_0)" d="M762.38336 202.57166C762.38336 204.2285 761.04016 205.57166 759.38336 205.57166C757.7265 205.57166 756.38336 204.2285 756.38336 202.57166C756.38336 200.9148 757.7265 199.57166 759.38336 199.57166C761.04016 199.57166 762.38336 200.9148 762.38336 202.57166Z" fill-rule="nonzero"/><path fill="#000000" fill-opacity="0.0" clip-path="url(#id_0)" d="M772.46716 202.57166C772.46716 204.2285 771.124 205.57166 769.46716 205.57166C767.8103 205.57166 766.46716 204.2285 766.46716 202.57166C766.46716 200.9148 767.8103 199.57166 769.46716 199.57166C771.124 199.57166 772.46716 200.9148 772.46716 202.57166Z" fill-rule="nonzero"/><path fill="#000000" fill-opacity="0.0" clip-path="url(#id_0)" d="M782.551 202.57166C782.551 204.2285 781.2079 205.57166 779.551 205.57166C777.89417 205.57166 776.551 204.2285 776.551 202.57166C776.551 200.9148 777.89417 199.57166 779.551 199.57166C781.2079 199.57166 782.551 200.9148 782.551 202.57166Z" fill-rule="nonzero"/><path fill="#000000" fill-opacity="0.0" clip-path="url(#id_0)" d="M792.6348 202.57166C792.6348 204.2285 791.2917 205.57166 789.6348 205.57166C787.97797 205.57166 786.6348 204.2285 786.6348 202.57166C786.6348 200.9148 787.97797 199.57166 789.6348 199.57166C791.2917 199.57166 792.6348 200.9148 792.6348 202.57166Z" fill-rule="nonzero"/><path fill="#000000" fill-opacity="0.0" clip-path="url(#id_0)" d="M802.7187 202.57166C802.7187 204.2285 801.37555 205.57166 799.7187 205.57166C798.0618 205.57166 796.7187 204.2285 796.7187 202.57166C796.7187 200.9148 798.0618 199.57166 799.7187 199.57166C801.37555 199.57166 802.7187 200.9148 802.7187 202.57166Z" fill-rule="nonzero"/><path fill="#000000" fill-opacity="0.0" clip-path="url(#id_0)" d="M812.80255 202.57166C812.80255 204.2285 811.45935 205.57166 809.80255 205.57166C808.1457 205.57166 806.80255 204.2285 806.80255 202.57166C806.80255 200.9148 808.1457 199.57166 809.80255 199.57166C811.45935 199.57166 812.80255 200.9148 812.80255 202.57166Z" fill-rule="nonzero"/><path fill="#000000" fill-opacity="0.0" clip-path="url(#id_0)" d="M822.88635 202.57166C822.88635 204.2285 821.5432 205.57166 819.88635 205.57166C818.2295 205.57166 816.88635 204.2285 816.88635 202.57166C816.88635 200.9148 818.2295 199.57166 819.88635 199.57166C821.5432 199.57166 822.88635 200.9148 822.88635 202.57166Z" fill-rule="nonzero"/><path fill="#000000" fill-opacity="0.0" clip-path="url(#id_0)" d="M832.9702 202.57166C832.9702 204.2285 831.6271 205.57166 829.9702 205.57166C828.31335 205.57166 826.9702 204.2285 826.9702 202.57166C826.9702 200.9148 828.31335 199.57166 829.9702 199.57166C831.6271 199.57166 832.9702 200.9148 832.9702 202.57166Z" fill-rule="nonzero"/><path fill="#000000" fill-opacity="0.0" clip-path="url(#id_0)" d="M843.054 202.57166C843.054 204.2285 841.7109 205.57166 840.054 205.57166C838.39716 205.57166 837.054 204.2285 837.054 202.57166C837.054 200.9148 838.39716 199.57166 840.054 199.57166C841.7109 199.57166 843.054 200.9148 843.054 202.57166Z" fill-rule="nonzero"/><path fill="#000000" fill-opacity="0.0" clip-path="url(#id_0)" d="M853.1379 206.7923C853.1379 208.44914 851.79474 209.7923 850.1379 209.7923C848.481 209.7923 847.1379 208.44914 847.1379 206.7923C847.1379 205.13544 848.481 203.7923 850.1379 203.7923C851.79474 203.7923 853.1379 205.13544 853.1379 206.7923Z" fill-rule="nonzero"/><path fill="#000000" fill-opacity="0.0" clip-path="url(#id_0)" d="M863.22174 206.7923C863.22174 208.44914 861.8786 209.7923 860.22174 209.7923C858.5649 209.7923 857.22174 208.44914 857.22174 206.7923C857.22174 205.13544 858.5649 203.7923 860.22174 203.7923C861.8786 203.7923 863.22174 205.13544 863.22174 206.7923Z" fill-rule="nonzero"/><path fill="#000000" fill-opacity="0.0" clip-path="url(#id_0)" d="M873.30554 206.7923C873.30554 208.44914 871.9624 209.7923 870.30554 209.7923C868.6487 209.7923 867.30554 208.44914 867.30554 206.7923C867.30554 205.13544 868.6487 203.7923 870.30554 203.7923C871.9624 203.7923 873.30554 205.13544 873.30554 206.7923Z" fill-rule="nonzero"/><path fill="#000000" fill-opacity="0.0" clip-path="url(#id_0)" d="M883.3894 202.57166C883.3894 204.2285 882.04626 205.57166 880.3894 205.57166C878.73254 205.57166 877.3894 204.2285 877.3894 202.57166C877.3894 200.9148 878.73254 199.57166 880.3894 199.57166C882.04626 199.57166 883.3894 200.9148 883.3894 202.57166Z" fill-rule="nonzero"/><path fill="#000000" fill-opacity="0.0" clip-path="url(#id_0)" d="M893.4732 202.57166C893.4732 204.2285 892.13007 205.57166 890.4732 205.57166C888.8164 205.57166 887.4732 204.2285 887.4732 202.57166C887.4732 200.9148 888.8164 199.57166 890.4732 199.57166C892.13007 199.57166 893.4732 200.9148 893.4732 202.57166Z" fill-rule="nonzero"/><path fill="#000000" fill-opacity="0.0" clip-path="url(#id_0)" d="M903.55707 202.57166C903.55707 204.2285 902.2139 205.57166 900.55707 205.57166C898.9002 205.57166 897.55707 204.2285 897.55707 202.57166C897.55707 200.9148 898.9002 199.57166 900.55707 199.57166C902.2139 199.57166 903.55707 200.9148 903.55707 202.57166Z" fill-rule="nonzero"/><path fill="#000000" fill-opacity="0.0" clip-path="url(#id_0)" d="M913.6409 202.57166C913.6409 204.2285 912.2978 205.57166 910.6409 205.57166C908.9841 205.57166 907.6409 204.2285 907.6409 202.57166C907.6409 200.9148 908.9841 199.57166 910.6409 199.57166C912.2978 199.57166 913.6409 200.9148 913.6409 202.57166Z" fill-rule="nonzero"/><path fill="#000000" fill-opacity="0.0" clip-path="url(#id_0)" d="M923.72473 202.57166C923.72473 204.2285 922.3816 205.57166 920.72473 205.57166C919.0679 205.57166 917.72473 204.2285 917.72473 202.57166C917.72473 200.9148 919.0679 199.57166 920.72473 199.57166C922.3816 199.57166 923.72473 200.9148 923.72473 202.57166Z" fill-rule="nonzero"/><path fill="#000000" fill-opacity="0.0" clip-path="url(#id_0)" d="M933.8086 206.7923C933.8086 208.44914 932.46545 209.7923 930.8086 209.7923C929.15173 209.7923 927.8086 208.44914 927.8086 206.7923C927.8086 205.13544 929.15173 203.7923 930.8086 203.7923C932.46545 203.7923 933.8086 205.13544 933.8086 206.7923Z" fill-rule="nonzero"/><path fill="#000000" fill-opacity="0.0" clip-path="url(#id_0)" d="M943.8924 202.57166C943.8924 204.2285 942.54926 205.57166 940.8924 205.57166C939.2356 205.57166 937.8924 204.2285 937.8924 202.57166C937.8924 200.9148 939.2356 199.57166 940.8924 199.57166C942.54926 199.57166 943.8924 200.9148 943.8924 202.57166Z" fill-rule="nonzero"/><path fill="#000000" fill-opacity="0.0" clip-path="url(#id_0)" d="M953.97626 206.7923C953.97626 208.44914 952.6331 209.7923 950.97626 209.7923C949.3194 209.7923 947.97626 208.44914 947.97626 206.7923C947.97626 205.13544 949.3194 203.7923 950.97626 203.7923C952.6331 203.7923 953.97626 205.13544 953.97626 206.7923Z" fill-rule="nonzero"/><path fill="#000000" fill-opacity="0.0" clip-path="url(#id_0)" d="M964.0601 206.7923C964.0601 208.44914 962.717 209.7923 961.0601 209.7923C959.40326 209.7923 958.0601 208.44914 958.0601 206.7923C958.0601 205.13544 959.40326 203.7923 961.0601 203.7923C962.717 203.7923 964.0601 205.13544 964.0601 206.7923Z" fill-rule="nonzero"/><path fill="#000000" fill-opacity="0.0" clip-path="url(#id_0)" d="M974.1439 206.7923C974.1439 208.44914 972.8008 209.7923 971.1439 209.7923C969.48706 209.7923 968.1439 208.44914 968.1439 206.7923C968.1439 205.13544 969.48706 203.7923 971.1439 203.7923C972.8008 203.7923 974.1439 205.13544 974.1439 206.7923Z" fill-rule="nonzero"/><path fill="#000000" fill-opacity="0.0" clip-path="url(#id_0)" d="M984.2278 211.01294C984.2278 212.66978 982.88464 214.01294 981.2278 214.01294C979.5709 214.01294 978.2278 212.66978 978.2278 211.01294C978.2278 209.35608 979.5709 208.01294 981.2278 208.01294C982.88464 208.01294 984.2278 209.35608 984.2278 211.01294Z" fill-rule="nonzero"/><path fill="#000000" fill-opacity="0.0" clip-path="url(#id_0)" d="M994.31165 211.01294C994.31165 212.66978 992.96844 214.01294 991.31165 214.01294C989.6548 214.01294 988.31165 212.66978 988.31165 211.01294C988.31165 209.35608 989.6548 208.01294 991.31165 208.01294C992.96844 208.01294 994.31165 209.35608 994.31165 211.01294Z" fill-rule="nonzero"/><path fill="#000000" fill-opacity="0.0" clip-path="url(#id_0)" d="M1004.39545 211.01294C1004.39545 212.66978 1003.0523 214.01294 1001.39545 214.01294C999.7386 214.01294 998.39545 212.66978 998.39545 211.01294C998.39545 209.35608 999.7386 208.01294 1001.39545 208.01294C1003.0523 208.01294 1004.39545 209.35608 1004.39545 211.01294Z" fill-rule="nonzero"/><path fill="#000000" fill-opacity="0.0" clip-path="url(#id_0)" d="M1014.4793 211.01294C1014.4793 212.66978 1013.13617 214.01294 1011.4793 214.01294C1009.82245 214.01294 1008.4793 212.66978 1008.4793 211.01294C1008.4793 209.35608 1009.82245 208.01294 1011.4793 208.01294C1013.13617 208.01294 1014.4793 209.35608 1014.4793 211.01294Z" fill-rule="nonzero"/><path fill="#000000" fill-opacity="0.0" clip-path="url(#id_0)" d="M1024.5631 211.01294C1024.5631 212.66978 1023.22 214.01294 1021.5631 214.01294C1019.90625 214.01294 1018.5631 212.66978 1018.5631 211.01294C1018.5631 209.35608 1019.90625 208.01294 1021.5631 208.01294C1023.22 208.01294 1024.5631 209.35608 1024.5631 211.01294Z" fill-rule="nonzero"/><path fill="#000000" fill-opacity="0.0" clip-path="url(#id_0)" d="M1034.647 211.01294C1034.647 212.66978 1033.3038 214.01294 1031.647 214.01294C1029.9901 214.01294 1028.647 212.66978 1028.647 211.01294C1028.647 209.35608 1029.9901 208.01294 1031.647 208.01294C1033.3038 208.01294 1034.647 209.35608 1034.647 211.01294Z" fill-rule="nonzero"/><path fill="#000000" fill-opacity="0.0" clip-path="url(#id_0)" d="M1044.7308 211.01294C1044.7308 212.66978 1043.3877 214.01294 1041.7308 214.01294C1040.074 214.01294 1038.7308 212.66978 1038.7308 211.01294C1038.7308 209.35608 1040.074 208.01294 1041.7308 208.01294C1043.3877 208.01294 1044.7308 209.35608 1044.7308 211.01294Z" fill-rule="nonzero"/><path fill="#000000" fill-opacity="0.0" clip-path="url(#id_0)" d="M1054.8147 211.01294C1054.8147 212.66978 1053.4716 214.01294 1051.8147 214.01294C1050.1578 214.01294 1048.8147 212.66978 1048.8147 211.01294C1048.8147 209.35608 1050.1578 208.01294 1051.8147 208.01294C1053.4716 208.01294 1054.8147 209.35608 1054.8147 211.01294Z" fill-rule="nonzero"/><path fill="#000000" fill-opacity="0.0" clip-path="url(#id_0)" d="M1064.8984 211.01294C1064.8984 212.66978 1063.5553 214.01294 1061.8984 214.01294C1060.2416 214.01294 1058.8984 212.66978 1058.8984 211.01294C1058.8984 209.35608 1060.2416 208.01294 1061.8984 208.01294C1063.5553 208.01294 1064.8984 209.35608 1064.8984 211.01294Z" fill-rule="nonzero"/><path fill="#000000" fill-opacity="0.0" clip-path="url(#id_0)" d="M1074.9823 215.18147C1074.9823 216.83832 1073.6392 218.18147 1071.9823 218.18147C1070.3254 218.18147 1068.9823 216.83832 1068.9823 215.18147C1068.9823 213.52461 1070.3254 212.18147 1071.9823 212.18147C1073.6392 212.18147 1074.9823 213.52461 1074.9823 215.18147Z" fill-rule="nonzero"/><path fill="#000000" fill-opacity="0.0" clip-path="url(#id_0)" d="M1085.0662 219.4021C1085.0662 221.05896 1083.723 222.4021 1082.0662 222.4021C1080.4093 222.4021 1079.0662 221.05896 1079.0662 219.4021C1079.0662 217.74525 1080.4093 216.4021 1082.0662 216.4021C1083.723 216.4021 1085.0662 217.74525 1085.0662 219.4021Z" fill-rule="nonzero"/><path fill="#000000" fill-opacity="0.0" clip-path="url(#id_0)" d="M1095.15 366.39502C1095.15 368.05188 1093.8069 369.39502 1092.15 369.39502C1090.4932 369.39502 1089.15 368.05188 1089.15 366.39502C1089.15 364.73816 1090.4932 363.39502 1092.15 363.39502C1093.8069 363.39502 1095.15 364.73816 1095.15 366.39502Z" fill-rule="nonzero"/><path fill="#000000" d="M575.375 659.15L572.0469 650.5563L573.28125 650.5563L575.5156 656.8063Q575.78125 657.5563 575.96875 658.2125Q576.1719 657.5094 576.4375 656.8063L578.75 650.5563L579.90625 650.5563L576.5469 659.15L575.375 659.15ZM580.40625 656.04065Q580.40625 654.3063 581.3594 653.47815Q582.15625 652.79065 583.3125 652.79065Q584.59375 652.79065 585.40625 653.6344Q586.2344 654.4625 586.2344 655.9469Q586.2344 657.15 585.875 657.8375Q585.5156 658.525 584.8125 658.91565Q584.125 659.29065 583.3125 659.29065Q582.0156 659.29065 581.2031 658.4625Q580.40625 657.6188 580.40625 656.04065ZM581.4844 656.04065Q581.4844 657.22815 582.0 657.8219Q582.53125 658.41565 583.3125 658.41565Q584.1094 658.41565 584.625 657.8219Q585.1406 657.22815 585.1406 656.0094Q585.1406 654.85315 584.6094 654.2594Q584.09375 653.66565 583.3125 653.66565Q582.53125 653.66565 582.0 654.2594Q581.4844 654.8375 581.4844 656.04065ZM587.7656 659.15L587.7656 650.5563L588.8281 650.5563L588.8281 659.15L587.7656 659.15ZM593.09375 658.2125L593.25 659.1344Q592.7969 659.22815 592.4531 659.22815Q591.875 659.22815 591.5625 659.0563Q591.25 658.8688 591.1094 658.5719Q590.9844 658.275 590.9844 657.3219L590.9844 653.7438L590.21875 653.7438L590.21875 652.9313L590.9844 652.9313L590.9844 651.3844L592.03125 650.7594L592.03125 652.9313L593.09375 652.9313L593.09375 653.7438L592.03125 653.7438L592.03125 657.3844Q592.03125 657.8375 592.0781 657.9625Q592.1406 658.0875 592.2656 658.16565Q592.3906 658.2438 592.625 658.2438Q592.8125 658.2438 593.09375 658.2125ZM597.8594 658.3844Q597.2656 658.8844 596.71875 659.0875Q596.1875 659.29065 595.5625 659.29065Q594.53125 659.29065 593.9844 658.79065Q593.4375 658.29065 593.4375 657.5094Q593.4375 657.0563 593.6406 656.6813Q593.84375 656.29065 594.1875 656.0719Q594.53125 655.8375 594.9531 655.72815Q595.25 655.6344 595.8906 655.5563Q597.15625 655.41565 597.7656 655.1969Q597.7656 654.97815 597.7656 654.9313Q597.7656 654.275 597.46875 654.0094Q597.0625 653.66565 596.2656 653.66565Q595.53125 653.66565 595.1719 653.9313Q594.8125 654.1813 594.6406 654.8375L593.6094 654.6969Q593.75 654.04065 594.0781 653.6344Q594.40625 653.22815 595.0156 653.0094Q595.625 652.79065 596.4219 652.79065Q597.21875 652.79065 597.71875 652.97815Q598.21875 653.16565 598.4531 653.4469Q598.6875 653.72815 598.78125 654.16565Q598.8281 654.4313 598.8281 655.1344L598.8281 656.54065Q598.8281 658.0094 598.8906 658.4Q598.96875 658.79065 599.1719 659.15L598.0625 659.15Q597.90625 658.8219 597.8594 658.3844ZM597.7656 656.025Q597.1875 656.2594 596.0469 656.4313Q595.3906 656.525 595.125 656.65Q594.8594 656.7594 594.7031 656.97815Q594.5625 657.1969 594.5625 657.47815Q594.5625 657.9 594.875 658.1813Q595.2031 658.4625 595.8125 658.4625Q596.4219 658.4625 596.8906 658.1969Q597.375 657.9313 597.59375 657.4625Q597.7656 657.10315 597.7656 656.41565L597.7656 656.025ZM600.59375 659.66565L601.625 659.8219Q601.6875 660.29065 601.9844 660.5094Q602.375 660.8063 603.0469 660.8063Q603.78125 660.8063 604.1719 660.5094Q604.5781 660.2125 604.71875 659.6969Q604.8125 659.3688 604.7969 658.3375Q604.1094 659.15 603.0781 659.15Q601.7969 659.15 601.09375 658.22815Q600.3906 657.29065 600.3906 656.0094Q600.3906 655.1188 600.7031 654.3688Q601.03125 653.60315 601.6406 653.1969Q602.25 652.79065 603.0781 652.79065Q604.1875 652.79065 604.90625 653.6813L604.90625 652.9313L605.875 652.9313L605.875 658.3063Q605.875 659.7594 605.5781 660.3688Q605.28125 660.97815 604.6406 661.3219Q604.0 661.6813 603.0625 661.6813Q601.9531 661.6813 601.2656 661.1813Q600.5781 660.6813 600.59375 659.66565ZM601.46875 655.9313Q601.46875 657.15 601.9531 657.7125Q602.4375 658.275 603.1719 658.275Q603.90625 658.275 604.3906 657.7125Q604.8906 657.15 604.8906 655.9625Q604.8906 654.8219 604.375 654.2438Q603.875 653.66565 603.15625 653.66565Q602.4531 653.66565 601.9531 654.2438Q601.46875 654.8063 601.46875 655.9313ZM612.0469 657.15L613.1406 657.275Q612.8906 658.22815 612.1875 658.7594Q611.4844 659.29065 610.40625 659.29065Q609.0469 659.29065 608.2344 658.4469Q607.4375 657.60315 607.4375 656.0875Q607.4375 654.525 608.25 653.66565Q609.0625 652.79065 610.34375 652.79065Q611.59375 652.79065 612.375 653.6344Q613.1719 654.47815 613.1719 656.025Q613.1719 656.1188 613.1719 656.3063L608.53125 656.3063Q608.59375 657.3375 609.1094 657.8844Q609.625 658.41565 610.40625 658.41565Q610.9844 658.41565 611.3906 658.1188Q611.8125 657.8063 612.0469 657.15ZM608.59375 655.4469L612.0625 655.4469Q612.0 654.65 611.6719 654.2594Q611.15625 653.65 610.3594 653.65Q609.625 653.65 609.125 654.1344Q608.6406 654.6188 608.59375 655.4469Z" fill-rule="nonzero"/><path fill="#000000" d="M45.850025 364.3198L39.631275 364.3198L39.631275 363.3823L40.506275 363.3823Q40.037525 363.08542 39.7719 362.60104Q39.49065 362.11667 39.49065 361.49167Q39.49065 360.80417 39.7719 360.36667Q40.05315 359.91354 40.568775 359.74167Q39.49065 358.99167 39.49065 357.8198Q39.49065 356.8823 40.006275 356.39792Q40.506275 355.89792 41.5844 355.89792L45.850025 355.89792L45.850025 356.9448L41.92815 356.9448Q41.30315 356.9448 41.0219 357.05417Q40.74065 357.14792 40.568775 357.41354Q40.3969 357.67917 40.3969 358.05417Q40.3969 358.71042 40.8344 359.14792Q41.2719 359.5698 42.24065 359.5698L45.850025 359.5698L45.850025 360.6323L41.80315 360.6323Q41.100025 360.6323 40.756275 360.89792Q40.3969 361.14792 40.3969 361.72604Q40.3969 362.17917 40.631275 362.55417Q40.86565 362.92917 41.318775 363.10104Q41.7719 363.27292 42.61565 363.27292L45.850025 363.27292L45.850025 364.3198ZM45.850025 351.74167L37.256275 355.0698L37.256275 353.83542L43.506275 351.60104Q44.256275 351.33542 44.912525 351.14792Q44.2094 350.9448 43.506275 350.67917L37.256275 348.36667L37.256275 347.21042L45.850025 350.5698L45.850025 351.74167Z" fill-rule="nonzero"/><path fill="#000000" d="M70.225 611.5719L70.225 610.5094L73.475 610.5094L73.475 611.5719L70.225 611.5719ZM74.35 611.9L75.45937 611.8063Q75.58437 612.6188 76.02187 613.025Q76.475 613.4313 77.11562 613.4313Q77.86562 613.4313 78.39687 612.85315Q78.92812 612.275 78.92812 611.3375Q78.92812 610.4313 78.4125 609.91565Q77.9125 609.3844 77.08437 609.3844Q76.58437 609.3844 76.1625 609.6188Q75.75625 609.85315 75.52187 610.2125L74.5375 610.0875L75.36562 605.6813L79.64687 605.6813L79.64687 606.6813L76.20937 606.6813L75.75625 608.9938Q76.52187 608.4469 77.36562 608.4469Q78.49062 608.4469 79.25625 609.22815Q80.0375 610.0094 80.0375 611.2438Q80.0375 612.4 79.36562 613.2594Q78.5375 614.29065 77.11562 614.29065Q75.94375 614.29065 75.19375 613.6344Q74.45937 612.97815 74.35 611.9ZM81.35 609.91565Q81.35 608.3844 81.6625 607.4625Q81.975 606.525 82.58437 606.025Q83.20937 605.525 84.14687 605.525Q84.83437 605.525 85.35 605.8063Q85.88125 606.0875 86.225 606.6188Q86.56875 607.1344 86.75625 607.8844Q86.94375 608.6344 86.94375 609.91565Q86.94375 611.4313 86.63125 612.35315Q86.33437 613.275 85.70937 613.79065Q85.1 614.29065 84.14687 614.29065Q82.9125 614.29065 82.19375 613.4Q81.35 612.3375 81.35 609.91565ZM82.42812 609.91565Q82.42812 612.025 82.92812 612.72815Q83.42812 613.4313 84.14687 613.4313Q84.88125 613.4313 85.36562 612.72815Q85.86562 612.025 85.86562 609.91565Q85.86562 607.79065 85.36562 607.10315Q84.88125 606.4 84.13125 606.4Q83.4125 606.4 82.975 607.0094Q82.42812 607.79065 82.42812 609.91565Z" fill-rule="nonzero"/><path fill="#000000" d="M70.225 546.43854L70.225 545.37604L73.475 545.37604L73.475 546.43854L70.225 546.43854ZM74.35 546.75104L75.4125 546.6104Q75.58437 547.50104 76.02187 547.9073Q76.45937 548.2979 77.08437 548.2979Q77.83437 548.2979 78.35 547.7823Q78.86562 547.26666 78.86562 546.50104Q78.86562 545.7823 78.38125 545.31354Q77.9125 544.82916 77.17812 544.82916Q76.88125 544.82916 76.42812 544.95416L76.55312 544.01666Q76.6625 544.0323 76.725 544.0323Q77.39687 544.0323 77.92812 543.68854Q78.475 543.32916 78.475 542.5948Q78.475 542.01666 78.08437 541.64166Q77.69375 541.25104 77.06875 541.25104Q76.45937 541.25104 76.0375 541.64166Q75.63125 542.0323 75.52187 542.7979L74.45937 542.6104Q74.64687 541.56354 75.33437 540.9854Q76.02187 540.39166 77.0375 540.39166Q77.74062 540.39166 78.33437 540.70416Q78.92812 541.00104 79.24062 541.51666Q79.55312 542.0323 79.55312 542.62604Q79.55312 543.1729 79.25625 543.64166Q78.95937 544.0948 78.38125 544.3604Q79.13125 544.5323 79.55312 545.0948Q79.975 545.64166 79.975 546.4854Q79.975 547.6104 79.14687 548.39166Q78.33437 549.1729 77.08437 549.1729Q75.95937 549.1729 75.20937 548.50104Q74.45937 547.81354 74.35 546.75104ZM82.975 544.3604Q82.31875 544.1104 81.99062 543.6729Q81.67812 543.2198 81.67812 542.6104Q81.67812 541.6729 82.35 541.0323Q83.0375 540.39166 84.14687 540.39166Q85.27187 540.39166 85.95937 541.0479Q86.64687 541.70416 86.64687 542.64166Q86.64687 543.2354 86.33437 543.6729Q86.02187 544.1104 85.38125 544.3604Q86.17812 544.6104 86.58437 545.18854Q86.99062 545.76666 86.99062 546.56354Q86.99062 547.6573 86.20937 548.4073Q85.44375 549.1573 84.1625 549.1573Q82.89687 549.1573 82.11562 548.4073Q81.33437 547.6573 81.33437 546.5323Q81.33437 545.68854 81.75625 545.12604Q82.19375 544.56354 82.975 544.3604ZM82.75625 542.56354Q82.75625 543.1729 83.14687 543.56354Q83.55312 543.95416 84.17812 543.95416Q84.7875 543.95416 85.17812 543.57916Q85.56875 543.18854 85.56875 542.62604Q85.56875 542.0479 85.1625 541.6573Q84.75625 541.25104 84.1625 541.25104Q83.55312 541.25104 83.14687 541.64166Q82.75625 542.0323 82.75625 542.56354ZM82.42812 546.5323Q82.42812 546.9854 82.63125 547.4073Q82.85 547.82916 83.27187 548.06354Q83.69375 548.2979 84.17812 548.2979Q84.92812 548.2979 85.4125 547.81354Q85.9125 547.32916 85.9125 546.57916Q85.9125 545.81354 85.4125 545.31354Q84.9125 544.81354 84.14687 544.81354Q83.39687 544.81354 82.9125 545.31354Q82.42812 545.7979 82.42812 546.5323Z" fill-rule="nonzero"/><path fill="#000000" d="M70.225 481.3052L70.225 480.2427L73.475 480.2427L73.475 481.3052L70.225 481.3052ZM79.89687 482.8677L79.89687 483.88333L74.20937 483.88333Q74.20937 483.50833 74.33437 483.14896Q74.55312 482.57083 75.02187 482.00833Q75.50625 481.44583 76.4125 480.71146Q77.81875 479.5552 78.30312 478.88333Q78.80312 478.21146 78.80312 477.6177Q78.80312 476.9927 78.35 476.57083Q77.89687 476.13333 77.17812 476.13333Q76.4125 476.13333 75.95937 476.58646Q75.50625 477.03958 75.49062 477.85208L74.4125 477.7427Q74.52187 476.52396 75.24062 475.89896Q75.975 475.25833 77.20937 475.25833Q78.44375 475.25833 79.1625 475.94583Q79.88125 476.63333 79.88125 477.64896Q79.88125 478.16458 79.6625 478.66458Q79.45937 479.14896 78.95937 479.71146Q78.475 480.25833 77.35 481.21146Q76.39687 482.00833 76.11562 482.3052Q75.85 482.58646 75.67812 482.8677L79.89687 482.8677ZM81.35 481.63333L82.45937 481.53958Q82.58437 482.35208 83.02187 482.75833Q83.475 483.16458 84.11562 483.16458Q84.86562 483.16458 85.39687 482.58646Q85.92812 482.00833 85.92812 481.07083Q85.92812 480.16458 85.4125 479.64896Q84.9125 479.1177 84.08437 479.1177Q83.58437 479.1177 83.1625 479.35208Q82.75625 479.58646 82.52187 479.94583L81.5375 479.82083L82.36562 475.41458L86.64687 475.41458L86.64687 476.41458L83.20937 476.41458L82.75625 478.72708Q83.52187 478.1802 84.36562 478.1802Q85.49062 478.1802 86.25625 478.96146Q87.0375 479.7427 87.0375 480.97708Q87.0375 482.13333 86.36562 482.9927Q85.5375 484.02396 84.11562 484.02396Q82.94375 484.02396 82.19375 483.3677Q81.45937 482.71146 81.35 481.63333Z" fill-rule="nonzero"/><path fill="#000000" d="M70.225 416.17188L70.225 415.10938L73.475 415.10938L73.475 416.17188L70.225 416.17188ZM78.31875 418.75L77.27187 418.75L77.27187 412.03125Q76.88125 412.39062 76.25625 412.76562Q75.64687 413.125 75.1625 413.29688L75.1625 412.28125Q76.0375 411.85938 76.69375 411.28125Q77.36562 410.6875 77.64687 410.125L78.31875 410.125L78.31875 418.75ZM81.35 416.48438L82.4125 416.34375Q82.58437 417.23438 83.02187 417.64062Q83.45937 418.03125 84.08437 418.03125Q84.83437 418.03125 85.35 417.51562Q85.86562 417.0 85.86562 416.23438Q85.86562 415.51562 85.38125 415.04688Q84.9125 414.5625 84.17812 414.5625Q83.88125 414.5625 83.42812 414.6875L83.55312 413.75Q83.6625 413.76562 83.725 413.76562Q84.39687 413.76562 84.92812 413.42188Q85.475 413.0625 85.475 412.32812Q85.475 411.75 85.08437 411.375Q84.69375 410.98438 84.06875 410.98438Q83.45937 410.98438 83.0375 411.375Q82.63125 411.76562 82.52187 412.53125L81.45937 412.34375Q81.64687 411.29688 82.33437 410.71875Q83.02187 410.125 84.0375 410.125Q84.74062 410.125 85.33437 410.4375Q85.92812 410.73438 86.24062 411.25Q86.55312 411.76562 86.55312 412.35938Q86.55312 412.90625 86.25625 413.375Q85.95937 413.82812 85.38125 414.09375Q86.13125 414.26562 86.55312 414.82812Q86.975 415.375 86.975 416.21875Q86.975 417.34375 86.14687 418.125Q85.33437 418.90625 84.08437 418.90625Q82.95937 418.90625 82.20937 418.23438Q81.45937 417.54688 81.35 416.48438Z" fill-rule="nonzero"/><path fill="#000000" d="M81.35 349.3823Q81.35 347.85104 81.6625 346.92917Q81.975 345.99167 82.58437 345.49167Q83.20937 344.99167 84.14687 344.99167Q84.83437 344.99167 85.35 345.27292Q85.88125 345.55417 86.225 346.08542Q86.56875 346.60104 86.75625 347.35104Q86.94375 348.10104 86.94375 349.3823Q86.94375 350.89792 86.63125 351.8198Q86.33437 352.74167 85.70937 353.2573Q85.1 353.7573 84.14687 353.7573Q82.9125 353.7573 82.19375 352.86667Q81.35 351.80417 81.35 349.3823ZM82.42812 349.3823Q82.42812 351.49167 82.92812 352.1948Q83.42812 352.89792 84.14687 352.89792Q84.88125 352.89792 85.36562 352.1948Q85.86562 351.49167 85.86562 349.3823Q85.86562 347.2573 85.36562 346.5698Q84.88125 345.86667 84.13125 345.86667Q83.4125 345.86667 82.975 346.47604Q82.42812 347.2573 82.42812 349.3823Z" fill-rule="nonzero"/><path fill="#000000" d="M78.31875 288.48334L77.27187 288.48334L77.27187 281.7646Q76.88125 282.12396 76.25625 282.49896Q75.64687 282.85834 75.1625 283.0302L75.1625 282.0146Q76.0375 281.5927 76.69375 281.0146Q77.36562 280.42084 77.64687 279.85834L78.31875 279.85834L78.31875 288.48334ZM81.35 286.2177L82.4125 286.0771Q82.58437 286.9677 83.02187 287.37396Q83.45937 287.7646 84.08437 287.7646Q84.83437 287.7646 85.35 287.24896Q85.86562 286.73334 85.86562 285.9677Q85.86562 285.24896 85.38125 284.7802Q84.9125 284.29584 84.17812 284.29584Q83.88125 284.29584 83.42812 284.42084L83.55312 283.48334Q83.6625 283.49896 83.725 283.49896Q84.39687 283.49896 84.92812 283.1552Q85.475 282.79584 85.475 282.06146Q85.475 281.48334 85.08437 281.10834Q84.69375 280.7177 84.06875 280.7177Q83.45937 280.7177 83.0375 281.10834Q82.63125 281.49896 82.52187 282.2646L81.45937 282.0771Q81.64687 281.0302 82.33437 280.4521Q83.02187 279.85834 84.0375 279.85834Q84.74062 279.85834 85.33437 280.17084Q85.92812 280.4677 86.24062 280.98334Q86.55312 281.49896 86.55312 282.0927Q86.55312 282.6396 86.25625 283.10834Q85.95937 283.56146 85.38125 283.8271Q86.13125 283.99896 86.55312 284.56146Q86.975 285.10834 86.975 285.9521Q86.975 287.0771 86.14687 287.85834Q85.33437 288.6396 84.08437 288.6396Q82.95937 288.6396 82.20937 287.9677Q81.45937 287.2802 81.35 286.2177Z" fill-rule="nonzero"/><path fill="#000000" d="M79.89687 222.33438L79.89687 223.35L74.20937 223.35Q74.20937 222.975 74.33437 222.61563Q74.55312 222.0375 75.02187 221.475Q75.50625 220.9125 76.4125 220.17813Q77.81875 219.02188 78.30312 218.35Q78.80312 217.67813 78.80312 217.08438Q78.80312 216.45938 78.35 216.0375Q77.89687 215.6 77.17812 215.6Q76.4125 215.6 75.95937 216.05313Q75.50625 216.50626 75.49062 217.31876L74.4125 217.20938Q74.52187 215.99063 75.24062 215.36563Q75.975 214.725 77.20937 214.725Q78.44375 214.725 79.1625 215.4125Q79.88125 216.1 79.88125 217.11563Q79.88125 217.63126 79.6625 218.13126Q79.45937 218.61563 78.95937 219.17813Q78.475 219.725 77.35 220.67813Q76.39687 221.475 76.11562 221.77188Q75.85 222.05313 75.67812 222.33438L79.89687 222.33438ZM81.35 221.1L82.45937 221.00626Q82.58437 221.81876 83.02187 222.225Q83.475 222.63126 84.11562 222.63126Q84.86562 222.63126 85.39687 222.05313Q85.92812 221.475 85.92812 220.5375Q85.92812 219.63126 85.4125 219.11563Q84.9125 218.58438 84.08437 218.58438Q83.58437 218.58438 83.1625 218.81876Q82.75625 219.05313 82.52187 219.4125L81.5375 219.2875L82.36562 214.88126L86.64687 214.88126L86.64687 215.88126L83.20937 215.88126L82.75625 218.19376Q83.52187 217.64688 84.36562 217.64688Q85.49062 217.64688 86.25625 218.42813Q87.0375 219.20938 87.0375 220.44376Q87.0375 221.6 86.36562 222.45938Q85.5375 223.49063 84.11562 223.49063Q82.94375 223.49063 82.19375 222.83438Q81.45937 222.17813 81.35 221.1Z" fill-rule="nonzero"/><path fill="#000000" d="M74.35 155.95103L75.4125 155.81041Q75.58437 156.70103 76.02187 157.10728Q76.45937 157.49791 77.08437 157.49791Q77.83437 157.49791 78.35 156.98228Q78.86562 156.46666 78.86562 155.70103Q78.86562 154.98228 78.38125 154.51353Q77.9125 154.02916 77.17812 154.02916Q76.88125 154.02916 76.42812 154.15416L76.55312 153.21666Q76.6625 153.23228 76.725 153.23228Q77.39687 153.23228 77.92812 152.88853Q78.475 152.52916 78.475 151.79478Q78.475 151.21666 78.08437 150.84166Q77.69375 150.45103 77.06875 150.45103Q76.45937 150.45103 76.0375 150.84166Q75.63125 151.23228 75.52187 151.99791L74.45937 151.81041Q74.64687 150.76353 75.33437 150.18541Q76.02187 149.59166 77.0375 149.59166Q77.74062 149.59166 78.33437 149.90416Q78.92812 150.20103 79.24062 150.71666Q79.55312 151.23228 79.55312 151.82603Q79.55312 152.37291 79.25625 152.84166Q78.95937 153.29478 78.38125 153.56041Q79.13125 153.73228 79.55312 154.29478Q79.975 154.84166 79.975 155.68541Q79.975 156.81041 79.14687 157.59166Q78.33437 158.37291 77.08437 158.37291Q75.95937 158.37291 75.20937 157.70103Q74.45937 157.01353 74.35 155.95103ZM82.975 153.56041Q82.31875 153.31041 81.99062 152.87291Q81.67812 152.41978 81.67812 151.81041Q81.67812 150.87291 82.35 150.23228Q83.0375 149.59166 84.14687 149.59166Q85.27187 149.59166 85.95937 150.24791Q86.64687 150.90416 86.64687 151.84166Q86.64687 152.43541 86.33437 152.87291Q86.02187 153.31041 85.38125 153.56041Q86.17812 153.81041 86.58437 154.38853Q86.99062 154.96666 86.99062 155.76353Q86.99062 156.85728 86.20937 157.60728Q85.44375 158.35728 84.1625 158.35728Q82.89687 158.35728 82.11562 157.60728Q81.33437 156.85728 81.33437 155.73228Q81.33437 154.88853 81.75625 154.32603Q82.19375 153.76353 82.975 153.56041ZM82.75625 151.76353Q82.75625 152.37291 83.14687 152.76353Q83.55312 153.15416 84.17812 153.15416Q84.7875 153.15416 85.17812 152.77916Q85.56875 152.38853 85.56875 151.82603Q85.56875 151.24791 85.1625 150.85728Q84.75625 150.45103 84.1625 150.45103Q83.55312 150.45103 83.14687 150.84166Q82.75625 151.23228 82.75625 151.76353ZM82.42812 155.73228Q82.42812 156.18541 82.63125 156.60728Q82.85 157.02916 83.27187 157.26353Q83.69375 157.49791 84.17812 157.49791Q84.92812 157.49791 85.4125 157.01353Q85.9125 156.52916 85.9125 155.77916Q85.9125 155.01353 85.4125 154.51353Q84.9125 154.01353 84.14687 154.01353Q83.39687 154.01353 82.9125 154.51353Q82.42812 154.99791 82.42812 155.73228Z" fill-rule="nonzero"/><path fill="#000000" d="M74.35 90.833336L75.45937 90.739586Q75.58437 91.552086 76.02187 91.958336Q76.475 92.364586 77.11562 92.364586Q77.86562 92.364586 78.39687 91.78646Q78.92812 91.208336 78.92812 90.270836Q78.92812 89.364586 78.4125 88.84896Q77.9125 88.31771 77.08437 88.31771Q76.58437 88.31771 76.1625 88.552086Q75.75625 88.78646 75.52187 89.145836L74.5375 89.020836L75.36562 84.614586L79.64687 84.614586L79.64687 85.614586L76.20937 85.614586L75.75625 87.927086Q76.52187 87.38021 77.36562 87.38021Q78.49062 87.38021 79.25625 88.16146Q80.0375 88.94271 80.0375 90.177086Q80.0375 91.333336 79.36562 92.19271Q78.5375 93.22396 77.11562 93.22396Q75.94375 93.22396 75.19375 92.56771Q74.45937 91.91146 74.35 90.833336ZM81.35 88.84896Q81.35 87.31771 81.6625 86.395836Q81.975 85.458336 82.58437 84.958336Q83.20937 84.458336 84.14687 84.458336Q84.83437 84.458336 85.35 84.739586Q85.88125 85.020836 86.225 85.552086Q86.56875 86.06771 86.75625 86.81771Q86.94375 87.56771 86.94375 88.84896Q86.94375 90.364586 86.63125 91.28646Q86.33437 92.208336 85.70937 92.72396Q85.1 93.22396 84.14687 93.22396Q82.9125 93.22396 82.19375 92.333336Q81.35 91.270836 81.35 88.84896ZM82.42812 88.84896Q82.42812 90.958336 82.92812 91.66146Q83.42812 92.364586 84.14687 92.364586Q84.88125 92.364586 85.36562 91.66146Q85.86562 90.958336 85.86562 88.84896Q85.86562 86.72396 85.36562 86.03646Q84.88125 85.333336 84.13125 85.333336Q83.4125 85.333336 82.975 85.94271Q82.42812 86.72396 82.42812 88.84896Z" fill-rule="nonzero"/><path fill="#000000" d="M90.85 622.91565Q90.85 621.3844 91.1625 620.4625Q91.475 619.525 92.08437 619.025Q92.70937 618.525 93.64687 618.525Q94.33437 618.525 94.85 618.8063Q95.38125 619.0875 95.725 619.6188Q96.06875 620.1344 96.25625 620.8844Q96.44375 621.6344 96.44375 622.91565Q96.44375 624.4313 96.13125 625.35315Q95.83437 626.275 95.20937 626.79065Q94.6 627.29065 93.64687 627.29065Q92.4125 627.29065 91.69375 626.4Q90.85 625.3375 90.85 622.91565ZM91.92812 622.91565Q91.92812 625.025 92.42812 625.72815Q92.92812 626.4313 93.64687 626.4313Q94.38125 626.4313 94.86562 625.72815Q95.36562 625.025 95.36562 622.91565Q95.36562 620.79065 94.86562 620.10315Q94.38125 619.4 93.63125 619.4Q92.9125 619.4 92.475 620.0094Q91.92812 620.79065 91.92812 622.91565Z" fill-rule="nonzero"/><path fill="#000000" d="M400.38962 627.15L399.34274 627.15L399.34274 620.4313Q398.95212 620.79065 398.32712 621.16565Q397.71774 621.525 397.23337 621.6969L397.23337 620.6813Q398.10837 620.2594 398.76462 619.6813Q399.4365 619.0875 399.71774 618.525L400.38962 618.525L400.38962 627.15Z" fill-rule="nonzero"/><path fill="#000000" d="M707.5386 626.1344L707.5386 627.15L701.8511 627.15Q701.8511 626.775 701.9761 626.41565Q702.1948 625.8375 702.6636 625.275Q703.14795 624.7125 704.0542 623.97815Q705.46045 622.8219 705.9448 622.15Q706.4448 621.47815 706.4448 620.8844Q706.4448 620.2594 705.9917 619.8375Q705.5386 619.4 704.8198 619.4Q704.0542 619.4 703.6011 619.85315Q703.14795 620.3063 703.1323 621.1188L702.0542 621.0094Q702.1636 619.79065 702.8823 619.16565Q703.6167 618.525 704.8511 618.525Q706.08545 618.525 706.8042 619.2125Q707.52295 619.9 707.52295 620.91565Q707.52295 621.4313 707.3042 621.9313Q707.1011 622.41565 706.6011 622.97815Q706.1167 623.525 704.9917 624.47815Q704.0386 625.275 703.7573 625.5719Q703.4917 625.85315 703.3198 626.1344L707.5386 626.1344Z" fill-rule="nonzero"/><path fill="#000000" d="M1007.56256 624.8844L1008.62506 624.7438Q1008.79694 625.6344 1009.23444 626.04065Q1009.67194 626.4313 1010.29694 626.4313Q1011.04694 626.4313 1011.56256 625.91565Q1012.0782 625.4 1012.0782 624.6344Q1012.0782 623.91565 1011.5938 623.4469Q1011.12506 622.9625 1010.3907 622.9625Q1010.0938 622.9625 1009.6407 623.0875L1009.7657 622.15Q1009.87506 622.16565 1009.93756 622.16565Q1010.60944 622.16565 1011.1407 621.8219Q1011.68756 621.4625 1011.68756 620.72815Q1011.68756 620.15 1011.29694 619.775Q1010.9063 619.3844 1010.2813 619.3844Q1009.67194 619.3844 1009.25006 619.775Q1008.8438 620.16565 1008.73444 620.9313L1007.67194 620.7438Q1007.85944 619.6969 1008.54694 619.1188Q1009.23444 618.525 1010.25006 618.525Q1010.9532 618.525 1011.54694 618.8375Q1012.1407 619.1344 1012.4532 619.65Q1012.7657 620.16565 1012.7657 620.7594Q1012.7657 621.3063 1012.4688 621.775Q1012.17194 622.22815 1011.5938 622.4938Q1012.3438 622.66565 1012.7657 623.22815Q1013.18756 623.775 1013.18756 624.6188Q1013.18756 625.7438 1012.35944 626.525Q1011.54694 627.3063 1010.29694 627.3063Q1009.17194 627.3063 1008.42194 626.6344Q1007.67194 625.9469 1007.56256 624.8844Z" fill-rule="nonzero"/><path fill="#757575" d="M36.428123 53.85L36.428123 39.5375L46.7875 39.5375L46.7875 41.225L38.334373 41.225L38.334373 45.6L46.240623 45.6L46.240623 47.2875L38.334373 47.2875L38.334373 52.1625L47.115623 52.1625L47.115623 53.85L36.428123 53.85ZM49.146873 53.85L49.146873 43.475L50.725 43.475L50.725 45.053123Q51.334373 43.94375 51.85 43.6Q52.365623 43.240623 52.975 43.240623Q53.865623 43.240623 54.7875 43.803123L54.178123 45.44375Q53.5375 45.053123 52.896873 45.053123Q52.31875 45.053123 51.85 45.4125Q51.396873 45.75625 51.19375 46.365623Q50.9125 47.303123 50.9125 48.4125L50.9125 53.85L49.146873 53.85ZM56.146873 53.85L56.146873 43.475L57.725 43.475L57.725 45.053123Q58.334373 43.94375 58.85 43.6Q59.365623 43.240623 59.975 43.240623Q60.865623 43.240623 61.7875 43.803123L61.178123 45.44375Q60.5375 45.053123 59.896873 45.053123Q59.31875 45.053123 58.85 45.4125Q58.396873 45.75625 58.19375 46.365623Q57.9125 47.303123 57.9125 48.4125L57.9125 53.85L56.146873 53.85ZM62.521873 48.6625Q62.521873 45.7875 64.11562 44.396873Q65.45937 43.240623 67.38125 43.240623Q69.52187 43.240623 70.86562 44.646873Q72.225 46.053123 72.225 48.521873Q72.225 50.521873 71.63125 51.678123Q71.0375 52.81875 69.88125 53.459373Q68.74062 54.084373 67.38125 54.084373Q65.19375 54.084373 63.85 52.69375Q62.521873 51.2875 62.521873 48.6625ZM64.31875 48.6625Q64.31875 50.6625 65.17812 51.646873Q66.05312 52.63125 67.38125 52.63125Q68.69375 52.63125 69.55312 51.646873Q70.42812 50.646873 70.42812 48.6Q70.42812 46.678123 69.55312 45.69375Q68.67812 44.69375 67.38125 44.69375Q66.05312 44.69375 65.17812 45.69375Q64.31875 46.678123 64.31875 48.6625ZM74.14687 53.85L74.14687 43.475L75.725 43.475L75.725 45.053123Q76.33437 43.94375 76.85 43.6Q77.36562 43.240623 77.975 43.240623Q78.86562 43.240623 79.7875 43.803123L79.17812 45.44375Q78.5375 45.053123 77.89687 45.053123Q77.31875 45.053123 76.85 45.4125Q76.39687 45.75625 76.19375 46.365623Q75.9125 47.303123 75.9125 48.4125L75.9125 53.85L74.14687 53.85Z" fill-rule="nonzero"/></svg>