<svg version="1.1" viewBox="0.0 0.0 1127.0 697.0" fill="none" stroke="none" stroke-linecap="square" stroke-miterlimit="10" width="1127" height="697" xmlns:xlink="http://www.w3.org/1999/xlink" xmlns="http://www.w3.org/2000/svg"><path fill="#ffffff" d="M0 0L1127.0 0L1127.0 697.0L0 697.0L0 0Z" fill-rule="nonzero"/><path stroke="#333333" stroke-width="1.0" stroke-linecap="butt" d="M93.5 89.5L93.5 610.5" fill-rule="nonzero"/><path stroke="#cccccc" stroke-width="1.0" stroke-linecap="butt" d="M323.5 89.5L323.5 610.5" fill-rule="nonzero"/><path stroke="#cccccc" stroke-width="1.0" stroke-linecap="butt" d="M552.5 89.5L552.5 610.5" fill-rule="nonzero"/><path stroke="#cccccc" stroke-width="1.0" stroke-linecap="butt" d="M781.5 89.5L781.5 610.5" fill-rule="nonzero"/><path stroke="#cccccc" stroke-width="1.0" stroke-linecap="butt" d="M1010.5 89.5L1010.5 610.5" fill-rule="nonzero"/><path stroke="#cccccc" stroke-width="1.0" stroke-linecap="butt" d="M93.5 610.5L1092.5 610.5" fill-rule="nonzero"/><path stroke="#cccccc" stroke-width="1.0" stroke-linecap="butt" d="M93.5 545.5L1092.5 545.5" fill-rule="nonzero"/><path stroke="#cccccc" stroke-width="1.0" stroke-linecap="butt" d="M93.5 479.5L1092.5 479.5" fill-rule="nonzero"/><path stroke="#cccccc" stroke-width="1.0" stroke-linecap="butt" d="M93.5 414.5L1092.5 414.5" fill-rule="nonzero"/><path stroke="#333333" stroke-width="1.0" stroke-linecap="butt" d="M93.5 349.5L1092.5 349.5" fill-rule="nonzero"/><path stroke="#cccccc" stroke-width="1.0" stroke-linecap="butt" d="M93.5 284.5L1092.5 284.5" fill-rule="nonzero"/><path stroke="#cccccc" stroke-width="1.0" stroke-linecap="butt" d="M93.5 219.5L1092.5 219.5" fill-rule="nonzero"/><path stroke="#cccccc" stroke-width="1.0" stroke-linecap="butt" d="M93.5 154.5L1092.5 154.5" fill-rule="nonzero"/><path stroke="#cccccc" stroke-width="1.0" stroke-linecap="butt" d="M93.5 89.5L1092.5 89.5" fill-rule="nonzero"/><path stroke="#e6e6e6" stroke-width="1.0" stroke-linecap="butt" d="M93.5 588.5L1092.5 588.5" fill-rule="nonzero"/><path stroke="#e6e6e6" stroke-width="1.0" stroke-linecap="butt" d="M93.5 566.5L1092.5 566.5" fill-rule="nonzero"/><path stroke="#e6e6e6" stroke-width="1.0" stroke-linecap="butt" d="M93.5 523.5L1092.5 523.5" fill-rule="nonzero"/><path stroke="#e6e6e6" stroke-width="1.0" stroke-linecap="butt" d="M93.5 501.5L1092.5 501.5" fill-rule="nonzero"/><path stroke="#e6e6e6" stroke-width="1.0" stroke-linecap="butt" d="M93.5 458.5L1092.5 458.5" fill-rule="nonzero"/><path stroke="#e6e6e6" stroke-width="1.0" stroke-linecap="butt" d="M93.5 436.5L1092.5 436.5" fill-rule="nonzero"/><path stroke="#e6e6e6" stroke-width="1.0" stroke-linecap="butt" d="M93.5 393.5L1092.5 393.5" fill-rule="nonzero"/><path stroke="#e6e6e6" stroke-width="1.0" stroke-linecap="butt" d="M93.5 371.5L1092.5 371.5" fill-rule="nonzero"/><path stroke="#e6e6e6" stroke-width="1.0" stroke-linecap="butt" d="M93.5 327.5L1092.5 327.5" fill-rule="nonzero"/><path stroke="#e6e6e6" stroke-width="1.0" stroke-linecap="butt" d="M93.5 306.5L1092.5 306.5" fill-rule="nonzero"/><path stroke="#e6e6e6" stroke-width="1.0" stroke-linecap="butt" d="M93.5 262.5L1092.5 262.5" fill-rule="nonzero"/><path stroke="#e6e6e6" stroke-width="1.0" stroke-linecap="butt" d="M93.5 241.5L1092.5 241.5" fill-rule="nonzero"/><path stroke="#e6e6e6" stroke-width="1.0" stroke-linecap="butt" d="M93.5 197.5L1092.5 197.5" fill-rule="nonzero"/><path stroke="#e6e6e6" stroke-width="1.0" stroke-linecap="butt" d="M93.5 175.5L1092.5 175.5" fill-rule="nonzero"/><path stroke="#e6e6e6" stroke-width="1.0" stroke-linecap="butt" d="M93.5 132.5L1092.5 132.5" fill-rule="nonzero"/><path stroke="#e6e6e6" stroke-width="1.0" stroke-linecap="butt" d="M93.5 110.5L1092.5 110.5" fill-rule="nonzero"/><clipPath id="id_0"><path d="M93.85 89.083336L1092.15 89.083336L1092.15 610.15L93.85 610.15L93.85 89.083336Z" clip-rule="nonzero"/></clipPath><path stroke="#cc0000" stroke-width="2.0" stroke-linecap="butt" clip-path="url(#id_0)" d="M93.85 328.61768L103.93384 366.39502L114.01768 358.00583L124.10152 366.39502L134.18535 353.8373L144.2692 353.8373L154.35303 358.00583L164.43687 353.8373L174.5207 353.8373L184.60454 358.00583L194.68839 349.61667L204.77222 353.8373L214.85606 345.39603L224.9399 349.61667L235.02374 349.61667L245.10757 349.61667L255.19142 349.61667L265.27524 349.61667L275.3591 353.8373L285.44293 349.61667L295.52676 349.61667L305.6106 353.8373L315.69446 349.61667L325.7783 349.61667L335.86212 353.8373L345.94595 349.61667L356.0298 353.8373L366.11365 353.8373L376.19748 353.8373L386.2813 353.8373L396.36514 353.8373L406.449 349.61667L416.53284 353.8373L426.61667 349.61667L436.7005 349.61667L446.78433 353.8373L456.8682 353.8373L466.95203 349.61667L477.03586 353.8373L487.1197 349.61667L497.20352 349.61667L507.28738 349.61667L517.3712 353.8373L527.4551 353.8373L537.5389 349.61667L547.62274 353.8373L557.70654 358.00583L567.7904 358.00583L577.87427 353.8373L587.95807 353.8373L598.04193 353.8373L608.12573 353.8373L618.2096 353.8373L628.29346 353.8373L638.37726 349.61667L648.4611 349.61667L658.5449 349.61667L668.6288 349.61667L678.71265 349.61667L688.79645 349.61667L698.8803 349.61667L708.9641 349.61667L719.048 345.39603L729.13184 349.61667L739.21564 349.61667L749.2995 349.61667L759.38336 353.8373L769.46716 349.61667L779.551 349.61667L789.6348 353.8373L799.7187 353.8373L809.80255 353.8373L819.88635 349.61667L829.9702 353.8373L840.054 353.8373L850.1379 349.61667L860.22174 353.8373L870.30554 353.8373L880.3894 353.8373L890.4732 349.61667L900.55707 353.8373L910.6409 353.8373L920.72473 353.8373L930.8086 353.8373L940.8924 349.61667L950.97626 353.8373L961.0601 349.61667L971.1439 349.61667L981.2278 345.39603L991.31165 345.39603L1001.39545 345.39603L1011.4793 349.61667L1021.5631 349.61667L1031.647 353.8373L1041.7308 353.8373L1051.8147 349.61667L1061.8984 353.8373L1071.9823 349.61667L1082.0662 349.61667L1092.15 391.61465" fill-rule="nonzero"/><path fill="#000000" fill-opacity="0.0" clip-path="url(#id_0)" d="M96.85 328.61768C96.85 330.27454 95.50685 331.61768 93.85 331.61768C92.193146 331.61768 90.85 330.27454 90.85 328.61768C90.85 326.96082 92.193146 325.61768 93.85 325.61768C95.50685 325.61768 96.85 326.96082 96.85 328.61768Z" fill-rule="nonzero"/><path fill="#000000" fill-opacity="0.0" clip-path="url(#id_0)" d="M106.93384 366.39502C106.93384 368.05188 105.59069 369.39502 103.93384 369.39502C102.276985 369.39502 100.93384 368.05188 100.93384 366.39502C100.93384 364.73816 102.276985 363.39502 103.93384 363.39502C105.59069 363.39502 106.93384 364.73816 106.93384 366.39502Z" fill-rule="nonzero"/><path fill="#000000" fill-opacity="0.0" clip-path="url(#id_0)" d="M117.01768 358.00583C117.01768 359.6627 115.67453 361.00583 114.01768 361.00583C112.360825 361.00583 111.01768 359.6627 111.01768 358.00583C111.01768 356.349 112.360825 355.00583 114.01768 355.00583C115.67453 355.00583 117.01768 356.349 117.01768 358.00583Z" fill-rule="nonzero"/><path fill="#000000" fill-opacity="0.0" clip-path="url(#id_0)" d="M127.10152 366.39502C127.10152 368.05188 125.75837 369.39502 124.10152 369.39502C122.444664 369.39502 121.10152 368.05188 121.10152 366.39502C121.10152 364.73816 122.444664 363.39502 124.10152 363.39502C125.75837 363.39502 127.10152 364.73816 127.10152 366.39502Z" fill-rule="nonzero"/><path fill="#000000" fill-opacity="0.0" clip-path="url(#id_0)" d="M137.18535 353.8373C137.18535 355.49417 135.84221 356.8373 134.18535 356.8373C132.5285 356.8373 131.18535 355.49417 131.18535 353.8373C131.18535 352.18045 132.5285 350.8373 134.18535 350.8373C135.84221 350.8373 137.18535 352.18045 137.18535 353.8373Z" fill-rule="nonzero"/><path fill="#000000" fill-opacity="0.0" clip-path="url(#id_0)" d="M147.2692 353.8373C147.2692 355.49417 145.92604 356.8373 144.2692 356.8373C142.61234 356.8373 141.2692 355.49417 141.2692 353.8373C141.2692 352.18045 142.61234 350.8373 144.2692 350.8373C145.92604 350.8373 147.2692 352.18045 147.2692 353.8373Z" fill-rule="nonzero"/><path fill="#000000" fill-opacity="0.0" clip-path="url(#id_0)" d="M157.35303 358.00583C157.35303 359.6627 156.00989 361.00583 154.35303 361.00583C152.69618 361.00583 151.35303 359.6627 151.35303 358.00583C151.35303 356.349 152.69618 355.00583 154.35303 355.00583C156.00989 355.00583 157.35303 356.349 157.35303 358.00583Z" fill-rule="nonzero"/><path fill="#000000" fill-opacity="0.0" clip-path="url(#id_0)" d="M167.43687 353.8373C167.43687 355.49417 166.09372 356.8373 164.43687 356.8373C162.78001 356.8373 161.43687 355.49417 161.43687 353.8373C161.43687 352.18045 162.78001 350.8373 164.43687 350.8373C166.09372 350.8373 167.43687 352.18045 167.43687 353.8373Z" fill-rule="nonzero"/><path fill="#000000" fill-opacity="0.0" clip-path="url(#id_0)" d="M177.5207 353.8373C177.5207 355.49417 176.17757 356.8373 174.5207 356.8373C172.86385 356.8373 171.5207 355.49417 171.5207 353.8373C171.5207 352.18045 172.86385 350.8373 174.5207 350.8373C176.17757 350.8373 177.5207 352.18045 177.5207 353.8373Z" fill-rule="nonzero"/><path fill="#000000" fill-opacity="0.0" clip-path="url(#id_0)" d="M187.60454 358.00583C187.60454 359.6627 186.2614 361.00583 184.60454 361.00583C182.9477 361.00583 181.60454 359.6627 181.60454 358.00583C181.60454 356.349 182.9477 355.00583 184.60454 355.00583C186.2614 355.00583 187.60454 356.349 187.60454 358.00583Z" fill-rule="nonzero"/><path fill="#000000" fill-opacity="0.0" clip-path="url(#id_0)" d="M197.68839 349.61667C197.68839 351.27353 196.34525 352.61667 194.68839 352.61667C193.03152 352.61667 191.68839 351.27353 191.68839 349.61667C191.68839 347.9598 193.03152 346.61667 194.68839 346.61667C196.34525 346.61667 197.68839 347.9598 197.68839 349.61667Z" fill-rule="nonzero"/><path fill="#000000" fill-opacity="0.0" clip-path="url(#id_0)" d="M207.77222 353.8373C207.77222 355.49417 206.42908 356.8373 204.77222 356.8373C203.11537 356.8373 201.77222 355.49417 201.77222 353.8373C201.77222 352.18045 203.11537 350.8373 204.77222 350.8373C206.42908 350.8373 207.77222 352.18045 207.77222 353.8373Z" fill-rule="nonzero"/><path fill="#000000" fill-opacity="0.0" clip-path="url(#id_0)" d="M217.85606 345.39603C217.85606 347.0529 216.51291 348.39603 214.85606 348.39603C213.1992 348.39603 211.85606 347.0529 211.85606 345.39603C211.85606 343.73917 213.1992 342.39603 214.85606 342.39603C216.51291 342.39603 217.85606 343.73917 217.85606 345.39603Z" fill-rule="nonzero"/><path fill="#000000" fill-opacity="0.0" clip-path="url(#id_0)" d="M227.9399 349.61667C227.9399 351.27353 226.59676 352.61667 224.9399 352.61667C223.28305 352.61667 221.9399 351.27353 221.9399 349.61667C221.9399 347.9598 223.28305 346.61667 224.9399 346.61667C226.59676 346.61667 227.9399 347.9598 227.9399 349.61667Z" fill-rule="nonzero"/><path fill="#000000" fill-opacity="0.0" clip-path="url(#id_0)" d="M238.02374 349.61667C238.02374 351.27353 236.68059 352.61667 235.02374 352.61667C233.36688 352.61667 232.02374 351.27353 232.02374 349.61667C232.02374 347.9598 233.36688 346.61667 235.02374 346.61667C236.68059 346.61667 238.02374 347.9598 238.02374 349.61667Z" fill-rule="nonzero"/><path fill="#000000" fill-opacity="0.0" clip-path="url(#id_0)" d="M248.10757 349.61667C248.10757 351.27353 246.76443 352.61667 245.10757 352.61667C243.45071 352.61667 242.10757 351.27353 242.10757 349.61667C242.10757 347.9598 243.45071 346.61667 245.10757 346.61667C246.76443 346.61667 248.10757 347.9598 248.10757 349.61667Z" fill-rule="nonzero"/><path fill="#000000" fill-opacity="0.0" clip-path="url(#id_0)" d="M258.1914 349.61667C258.1914 351.27353 256.84827 352.61667 255.19142 352.61667C253.53456 352.61667 252.19142 351.27353 252.19142 349.61667C252.19142 347.9598 253.53456 346.61667 255.19142 346.61667C256.84827 346.61667 258.1914 347.9598 258.1914 349.61667Z" fill-rule="nonzero"/><path fill="#000000" fill-opacity="0.0" clip-path="url(#id_0)" d="M268.27524 349.61667C268.27524 351.27353 266.9321 352.61667 265.27524 352.61667C263.6184 352.61667 262.27524 351.27353 262.27524 349.61667C262.27524 347.9598 263.6184 346.61667 265.27524 346.61667C266.9321 346.61667 268.27524 347.9598 268.27524 349.61667Z" fill-rule="nonzero"/><path fill="#000000" fill-opacity="0.0" clip-path="url(#id_0)" d="M278.3591 353.8373C278.3591 355.49417 277.01593 356.8373 275.3591 356.8373C273.70224 356.8373 272.3591 355.49417 272.3591 353.8373C272.3591 352.18045 273.70224 350.8373 275.3591 350.8373C277.01593 350.8373 278.3591 352.18045 278.3591 353.8373Z" fill-rule="nonzero"/><path fill="#000000" fill-opacity="0.0" clip-path="url(#id_0)" d="M288.44293 349.61667C288.44293 351.27353 287.0998 352.61667 285.44293 352.61667C283.78607 352.61667 282.44293 351.27353 282.44293 349.61667C282.44293 347.9598 283.78607 346.61667 285.44293 346.61667C287.0998 346.61667 288.44293 347.9598 288.44293 349.61667Z" fill-rule="nonzero"/><path fill="#000000" fill-opacity="0.0" clip-path="url(#id_0)" d="M298.52676 349.61667C298.52676 351.27353 297.18362 352.61667 295.52676 352.61667C293.8699 352.61667 292.52676 351.27353 292.52676 349.61667C292.52676 347.9598 293.8699 346.61667 295.52676 346.61667C297.18362 346.61667 298.52676 347.9598 298.52676 349.61667Z" fill-rule="nonzero"/><path fill="#000000" fill-opacity="0.0" clip-path="url(#id_0)" d="M308.6106 353.8373C308.6106 355.49417 307.26746 356.8373 305.6106 356.8373C303.95377 356.8373 302.6106 355.49417 302.6106 353.8373C302.6106 352.18045 303.95377 350.8373 305.6106 350.8373C307.26746 350.8373 308.6106 352.18045 308.6106 353.8373Z" fill-rule="nonzero"/><path fill="#000000" fill-opacity="0.0" clip-path="url(#id_0)" d="M318.69446 349.61667C318.69446 351.27353 317.3513 352.61667 315.69446 352.61667C314.0376 352.61667 312.69446 351.27353 312.69446 349.61667C312.69446 347.9598 314.0376 346.61667 315.69446 346.61667C317.3513 346.61667 318.69446 347.9598 318.69446 349.61667Z" fill-rule="nonzero"/><path fill="#000000" fill-opacity="0.0" clip-path="url(#id_0)" d="M328.7783 349.61667C328.7783 351.27353 327.43515 352.61667 325.7783 352.61667C324.12143 352.61667 322.7783 351.27353 322.7783 349.61667C322.7783 347.9598 324.12143 346.61667 325.7783 346.61667C327.43515 346.61667 328.7783 347.9598 328.7783 349.61667Z" fill-rule="nonzero"/><path fill="#000000" fill-opacity="0.0" clip-path="url(#id_0)" d="M338.86212 353.8373C338.86212 355.49417 337.51898 356.8373 335.86212 356.8373C334.20526 356.8373 332.86212 355.49417 332.86212 353.8373C332.86212 352.18045 334.20526 350.8373 335.86212 350.8373C337.51898 350.8373 338.86212 352.18045 338.86212 353.8373Z" fill-rule="nonzero"/><path fill="#000000" fill-opacity="0.0" clip-path="url(#id_0)" d="M348.94595 349.61667C348.94595 351.27353 347.6028 352.61667 345.94595 352.61667C344.2891 352.61667 342.94595 351.27353 342.94595 349.61667C342.94595 347.9598 344.2891 346.61667 345.94595 346.61667C347.6028 346.61667 348.94595 347.9598 348.94595 349.61667Z" fill-rule="nonzero"/><path fill="#000000" fill-opacity="0.0" clip-path="url(#id_0)" d="M359.0298 353.8373C359.0298 355.49417 357.68665 356.8373 356.0298 356.8373C354.37296 356.8373 353.0298 355.49417 353.0298 353.8373C353.0298 352.18045 354.37296 350.8373 356.0298 350.8373C357.68665 350.8373 359.0298 352.18045 359.0298 353.8373Z" fill-rule="nonzero"/><path fill="#000000" fill-opacity="0.0" clip-path="url(#id_0)" d="M369.11365 353.8373C369.11365 355.49417 367.77048 356.8373 366.11365 356.8373C364.4568 356.8373 363.11365 355.49417 363.11365 353.8373C363.11365 352.18045 364.4568 350.8373 366.11365 350.8373C367.77048 350.8373 369.11365 352.18045 369.11365 353.8373Z" fill-rule="nonzero"/><path fill="#000000" fill-opacity="0.0" clip-path="url(#id_0)" d="M379.19748 353.8373C379.19748 355.49417 377.85434 356.8373 376.19748 356.8373C374.54062 356.8373 373.19748 355.49417 373.19748 353.8373C373.19748 352.18045 374.54062 350.8373 376.19748 350.8373C377.85434 350.8373 379.19748 352.18045 379.19748 353.8373Z" fill-rule="nonzero"/><path fill="#000000" fill-opacity="0.0" clip-path="url(#id_0)" d="M389.2813 353.8373C389.2813 355.49417 387.93817 356.8373 386.2813 356.8373C384.62445 356.8373 383.2813 355.49417 383.2813 353.8373C383.2813 352.18045 384.62445 350.8373 386.2813 350.8373C387.93817 350.8373 389.2813 352.18045 389.2813 353.8373Z" fill-rule="nonzero"/><path fill="#000000" fill-opacity="0.0" clip-path="url(#id_0)" d="M399.36514 353.8373C399.36514 355.49417 398.022 356.8373 396.36514 356.8373C394.70828 356.8373 393.36514 355.49417 393.36514 353.8373C393.36514 352.18045 394.70828 350.8373 396.36514 350.8373C398.022 350.8373 399.36514 352.18045 399.36514 353.8373Z" fill-rule="nonzero"/><path fill="#000000" fill-opacity="0.0" clip-path="url(#id_0)" d="M409.449 349.61667C409.449 351.27353 408.10583 352.61667 406.449 352.61667C404.79214 352.61667 403.449 351.27353 403.449 349.61667C403.449 347.9598 404.79214 346.61667 406.449 346.61667C408.10583 346.61667 409.449 347.9598 409.449 349.61667Z" fill-rule="nonzero"/><path fill="#000000" fill-opacity="0.0" clip-path="url(#id_0)" d="M419.53284 353.8373C419.53284 355.49417 418.1897 356.8373 416.53284 356.8373C414.87598 356.8373 413.53284 355.49417 413.53284 353.8373C413.53284 352.18045 414.87598 350.8373 416.53284 350.8373C418.1897 350.8373 419.53284 352.18045 419.53284 353.8373Z" fill-rule="nonzero"/><path fill="#000000" fill-opacity="0.0" clip-path="url(#id_0)" d="M429.61667 349.61667C429.61667 351.27353 428.27353 352.61667 426.61667 352.61667C424.9598 352.61667 423.61667 351.27353 423.61667 349.61667C423.61667 347.9598 424.9598 346.61667 426.61667 346.61667C428.27353 346.61667 429.61667 347.9598 429.61667 349.61667Z" fill-rule="nonzero"/><path fill="#000000" fill-opacity="0.0" clip-path="url(#id_0)" d="M439.7005 349.61667C439.7005 351.27353 438.35736 352.61667 436.7005 352.61667C435.04364 352.61667 433.7005 351.27353 433.7005 349.61667C433.7005 347.9598 435.04364 346.61667 436.7005 346.61667C438.35736 346.61667 439.7005 347.9598 439.7005 349.61667Z" fill-rule="nonzero"/><path fill="#000000" fill-opacity="0.0" clip-path="url(#id_0)" d="M449.78433 353.8373C449.78433 355.49417 448.4412 356.8373 446.78433 356.8373C445.1275 356.8373 443.78433 355.49417 443.78433 353.8373C443.78433 352.18045 445.1275 350.8373 446.78433 350.8373C448.4412 350.8373 449.78433 352.18045 449.78433 353.8373Z" fill-rule="nonzero"/><path fill="#000000" fill-opacity="0.0" clip-path="url(#id_0)" d="M459.8682 353.8373C459.8682 355.49417 458.52502 356.8373 456.8682 356.8373C455.21133 356.8373 453.8682 355.49417 453.8682 353.8373C453.8682 352.18045 455.21133 350.8373 456.8682 350.8373C458.52502 350.8373 459.8682 352.18045 459.8682 353.8373Z" fill-rule="nonzero"/><path fill="#000000" fill-opacity="0.0" clip-path="url(#id_0)" d="M469.95203 349.61667C469.95203 351.27353 468.6089 352.61667 466.95203 352.61667C465.29517 352.61667 463.95203 351.27353 463.95203 349.61667C463.95203 347.9598 465.29517 346.61667 466.95203 346.61667C468.6089 346.61667 469.95203 347.9598 469.95203 349.61667Z" fill-rule="nonzero"/><path fill="#000000" fill-opacity="0.0" clip-path="url(#id_0)" d="M480.03586 353.8373C480.03586 355.49417 478.69272 356.8373 477.03586 356.8373C475.379 356.8373 474.03586 355.49417 474.03586 353.8373C474.03586 352.18045 475.379 350.8373 477.03586 350.8373C478.69272 350.8373 480.03586 352.18045 480.03586 353.8373Z" fill-rule="nonzero"/><path fill="#000000" fill-opacity="0.0" clip-path="url(#id_0)" d="M490.1197 349.61667C490.1197 351.27353 488.77655 352.61667 487.1197 352.61667C485.46283 352.61667 484.1197 351.27353 484.1197 349.61667C484.1197 347.9598 485.46283 346.61667 487.1197 346.61667C488.77655 346.61667 490.1197 347.9598 490.1197 349.61667Z" fill-rule="nonzero"/><path fill="#000000" fill-opacity="0.0" clip-path="url(#id_0)" d="M500.20352 349.61667C500.20352 351.27353 498.86038 352.61667 497.20352 352.61667C495.5467 352.61667 494.20352 351.27353 494.20352 349.61667C494.20352 347.9598 495.5467 346.61667 497.20352 346.61667C498.86038 346.61667 500.20352 347.9598 500.20352 349.61667Z" fill-rule="nonzero"/><path fill="#000000" fill-opacity="0.0" clip-path="url(#id_0)" d="M510.28738 349.61667C510.28738 351.27353 508.9442 352.61667 507.28738 352.61667C505.63052 352.61667 504.28738 351.27353 504.28738 349.61667C504.28738 347.9598 505.63052 346.61667 507.28738 346.61667C508.9442 346.61667 510.28738 347.9598 510.28738 349.61667Z" fill-rule="nonzero"/><path fill="#000000" fill-opacity="0.0" clip-path="url(#id_0)" d="M520.3712 353.8373C520.3712 355.49417 519.0281 356.8373 517.3712 356.8373C515.71436 356.8373 514.3712 355.49417 514.3712 353.8373C514.3712 352.18045 515.71436 350.8373 517.3712 350.8373C519.0281 350.8373 520.3712 352.18045 520.3712 353.8373Z" fill-rule="nonzero"/><path fill="#000000" fill-opacity="0.0" clip-path="url(#id_0)" d="M530.4551 353.8373C530.4551 355.49417 529.1119 356.8373 527.4551 356.8373C525.7982 356.8373 524.4551 355.49417 524.4551 353.8373C524.4551 352.18045 525.7982 350.8373 527.4551 350.8373C529.1119 350.8373 530.4551 352.18045 530.4551 353.8373Z" fill-rule="nonzero"/><path fill="#000000" fill-opacity="0.0" clip-path="url(#id_0)" d="M540.5389 349.61667C540.5389 351.27353 539.19574 352.61667 537.5389 352.61667C535.882 352.61667 534.5389 351.27353 534.5389 349.61667C534.5389 347.9598 535.882 346.61667 537.5389 346.61667C539.19574 346.61667 540.5389 347.9598 540.5389 349.61667Z" fill-rule="nonzero"/><path fill="#000000" fill-opacity="0.0" clip-path="url(#id_0)" d="M550.62274 353.8373C550.62274 355.49417 549.2796 356.8373 547.62274 356.8373C545.9659 356.8373 544.62274 355.49417 544.62274 353.8373C544.62274 352.18045 545.9659 350.8373 547.62274 350.8373C549.2796 350.8373 550.62274 352.18045 550.62274 353.8373Z" fill-rule="nonzero"/><path fill="#000000" fill-opacity="0.0" clip-path="url(#id_0)" d="M560.70654 358.00583C560.70654 359.6627 559.3634 361.00583 557.70654 361.00583C556.0497 361.00583 554.70654 359.6627 554.70654 358.00583C554.70654 356.349 556.0497 355.00583 557.70654 355.00583C559.3634 355.00583 560.70654 356.349 560.70654 358.00583Z" fill-rule="nonzero"/><path fill="#000000" fill-opacity="0.0" clip-path="url(#id_0)" d="M570.7904 358.00583C570.7904 359.6627 569.44727 361.00583 567.7904 361.00583C566.13354 361.00583 564.7904 359.6627 564.7904 358.00583C564.7904 356.349 566.13354 355.00583 567.7904 355.00583C569.44727 355.00583 570.7904 356.349 570.7904 358.00583Z" fill-rule="nonzero"/><path fill="#000000" fill-opacity="0.0" clip-path="url(#id_0)" d="M580.87427 353.8373C580.87427 355.49417 579.53107 356.8373 577.87427 356.8373C576.2174 356.8373 574.87427 355.49417 574.87427 353.8373C574.87427 352.18045 576.2174 350.8373 577.87427 350.8373C579.53107 350.8373 580.87427 352.18045 580.87427 353.8373Z" fill-rule="nonzero"/><path fill="#000000" fill-opacity="0.0" clip-path="url(#id_0)" d="M590.95807 353.8373C590.95807 355.49417 589.6149 356.8373 587.95807 356.8373C586.3012 356.8373 584.95807 355.49417 584.95807 353.8373C584.95807 352.18045 586.3012 350.8373 587.95807 350.8373C589.6149 350.8373 590.95807 352.18045 590.95807 353.8373Z" fill-rule="nonzero"/><path fill="#000000" fill-opacity="0.0" clip-path="url(#id_0)" d="M601.04193 353.8373C601.04193 355.49417 599.6988 356.8373 598.04193 356.8373C596.3851 356.8373 595.04193 355.49417 595.04193 353.8373C595.04193 352.18045 596.3851 350.8373 598.04193 350.8373C599.6988 350.8373 601.04193 352.18045 601.04193 353.8373Z" fill-rule="nonzero"/><path fill="#000000" fill-opacity="0.0" clip-path="url(#id_0)" d="M611.12573 353.8373C611.12573 355.49417 609.7826 356.8373 608.12573 356.8373C606.46893 356.8373 605.12573 355.49417 605.12573 353.8373C605.12573 352.18045 606.46893 350.8373 608.12573 350.8373C609.7826 350.8373 611.12573 352.18045 611.12573 353.8373Z" fill-rule="nonzero"/><path fill="#000000" fill-opacity="0.0" clip-path="url(#id_0)" d="M621.2096 353.8373C621.2096 355.49417 619.86646 356.8373 618.2096 356.8373C616.55273 356.8373 615.2096 355.49417 615.2096 353.8373C615.2096 352.18045 616.55273 350.8373 618.2096 350.8373C619.86646 350.8373 621.2096 352.18045 621.2096 353.8373Z" fill-rule="nonzero"/><path fill="#000000" fill-opacity="0.0" clip-path="url(#id_0)" d="M631.29346 353.8373C631.29346 355.49417 629.9503 356.8373 628.29346 356.8373C626.6366 356.8373 625.29346 355.49417 625.29346 353.8373C625.29346 352.18045 626.6366 350.8373 628.29346 350.8373C629.9503 350.8373 631.29346 352.18045 631.29346 353.8373Z" fill-rule="nonzero"/><path fill="#000000" fill-opacity="0.0" clip-path="url(#id_0)" d="M641.37726 349.61667C641.37726 351.27353 640.0341 352.61667 638.37726 352.61667C636.7204 352.61667 635.37726 351.27353 635.37726 349.61667C635.37726 347.9598 636.7204 346.61667 638.37726 346.61667C640.0341 346.61667 641.37726 347.9598 641.37726 349.61667Z" fill-rule="nonzero"/><path fill="#000000" fill-opacity="0.0" clip-path="url(#id_0)" d="M651.4611 349.61667C651.4611 351.27353 650.118 352.61667 648.4611 352.61667C646.80426 352.61667 645.4611 351.27353 645.4611 349.61667C645.4611 347.9598 646.80426 346.61667 648.4611 346.61667C650.118 346.61667 651.4611 347.9598 651.4611 349.61667Z" fill-rule="nonzero"/><path fill="#000000" fill-opacity="0.0" clip-path="url(#id_0)" d="M661.5449 349.61667C661.5449 351.27353 660.2018 352.61667 658.5449 352.61667C656.8881 352.61667 655.5449 351.27353 655.5449 349.61667C655.5449 347.9598 656.8881 346.61667 658.5449 346.61667C660.2018 346.61667 661.5449 347.9598 661.5449 349.61667Z" fill-rule="nonzero"/><path fill="#000000" fill-opacity="0.0" clip-path="url(#id_0)" d="M671.6288 349.61667C671.6288 351.27353 670.28564 352.61667 668.6288 352.61667C666.9719 352.61667 665.6288 351.27353 665.6288 349.61667C665.6288 347.9598 666.9719 346.61667 668.6288 346.61667C670.28564 346.61667 671.6288 347.9598 671.6288 349.61667Z" fill-rule="nonzero"/><path fill="#000000" fill-opacity="0.0" clip-path="url(#id_0)" d="M681.71265 349.61667C681.71265 351.27353 680.3695 352.61667 678.71265 352.61667C677.0558 352.61667 675.71265 351.27353 675.71265 349.61667C675.71265 347.9598 677.0558 346.61667 678.71265 346.61667C680.3695 346.61667 681.71265 347.9598 681.71265 349.61667Z" fill-rule="nonzero"/><path fill="#000000" fill-opacity="0.0" clip-path="url(#id_0)" d="M691.79645 349.61667C691.79645 351.27353 690.4533 352.61667 688.79645 352.61667C687.1396 352.61667 685.79645 351.27353 685.79645 349.61667C685.79645 347.9598 687.1396 346.61667 688.79645 346.61667C690.4533 346.61667 691.79645 347.9598 691.79645 349.61667Z" fill-rule="nonzero"/><path fill="#000000" fill-opacity="0.0" clip-path="url(#id_0)" d="M701.8803 349.61667C701.8803 351.27353 700.5372 352.61667 698.8803 352.61667C697.22345 352.61667 695.8803 351.27353 695.8803 349.61667C695.8803 347.9598 697.22345 346.61667 698.8803 346.61667C700.5372 346.61667 701.8803 347.9598 701.8803 349.61667Z" fill-rule="nonzero"/><path fill="#000000" fill-opacity="0.0" clip-path="url(#id_0)" d="M711.9641 349.61667C711.9641 351.27353 710.621 352.61667 708.9641 352.61667C707.3073 352.61667 705.9641 351.27353 705.9641 349.61667C705.9641 347.9598 707.3073 346.61667 708.9641 346.61667C710.621 346.61667 711.9641 347.9598 711.9641 349.61667Z" fill-rule="nonzero"/><path fill="#000000" fill-opacity="0.0" clip-path="url(#id_0)" d="M722.048 345.39603C722.048 347.0529 720.70483 348.39603 719.048 348.39603C717.3911 348.39603 716.048 347.0529 716.048 345.39603C716.048 343.73917 717.3911 342.39603 719.048 342.39603C720.70483 342.39603 722.048 343.73917 722.048 345.39603Z" fill-rule="nonzero"/><path fill="#000000" fill-opacity="0.0" clip-path="url(#id_0)" d="M732.13184 349.61667C732.13184 351.27353 730.7887 352.61667 729.13184 352.61667C727.475 352.61667 726.13184 351.27353 726.13184 349.61667C726.13184 347.9598 727.475 346.61667 729.13184 346.61667C730.7887 346.61667 732.13184 347.9598 732.13184 349.61667Z" fill-rule="nonzero"/><path fill="#000000" fill-opacity="0.0" clip-path="url(#id_0)" d="M742.21564 349.61667C742.21564 351.27353 740.8725 352.61667 739.21564 352.61667C737.5588 352.61667 736.21564 351.27353 736.21564 349.61667C736.21564 347.9598 737.5588 346.61667 739.21564 346.61667C740.8725 346.61667 742.21564 347.9598 742.21564 349.61667Z" fill-rule="nonzero"/><path fill="#000000" fill-opacity="0.0" clip-path="url(#id_0)" d="M752.2995 349.61667C752.2995 351.27353 750.95636 352.61667 749.2995 352.61667C747.64264 352.61667 746.2995 351.27353 746.2995 349.61667C746.2995 347.9598 747.64264 346.61667 749.2995 346.61667C750.95636 346.61667 752.2995 347.9598 752.2995 349.61667Z" fill-rule="nonzero"/><path fill="#000000" fill-opacity="0.0" clip-path="url(#id_0)" d="M762.38336 353.8373C762.38336 355.49417 761.04016 356.8373 759.38336 356.8373C757.7265 356.8373 756.38336 355.49417 756.38336 353.8373C756.38336 352.18045 757.7265 350.8373 759.38336 350.8373C761.04016 350.8373 762.38336 352.18045 762.38336 353.8373Z" fill-rule="nonzero"/><path fill="#000000" fill-opacity="0.0" clip-path="url(#id_0)" d="M772.46716 349.61667C772.46716 351.27353 771.124 352.61667 769.46716 352.61667C767.8103 352.61667 766.46716 351.27353 766.46716 349.61667C766.46716 347.9598 767.8103 346.61667 769.46716 346.61667C771.124 346.61667 772.46716 347.9598 772.46716 349.61667Z" fill-rule="nonzero"/><path fill="#000000" fill-opacity="0.0" clip-path="url(#id_0)" d="M782.551 349.61667C782.551 351.27353 781.2079 352.61667 779.551 352.61667C777.89417 352.61667 776.551 351.27353 776.551 349.61667C776.551 347.9598 777.89417 346.61667 779.551 346.61667C781.2079 346.61667 782.551 347.9598 782.551 349.61667Z" fill-rule="nonzero"/><path fill="#000000" fill-opacity="0.0" clip-path="url(#id_0)" d="M792.6348 353.8373C792.6348 355.49417 791.2917 356.8373 789.6348 356.8373C787.97797 356.8373 786.6348 355.49417 786.6348 353.8373C786.6348 352.18045 787.97797 350.8373 789.6348 350.8373C791.2917 350.8373 792.6348 352.18045 792.6348 353.8373Z" fill-rule="nonzero"/><path fill="#000000" fill-opacity="0.0" clip-path="url(#id_0)" d="M802.7187 353.8373C802.7187 355.49417 801.37555 356.8373 799.7187 356.8373C798.0618 356.8373 796.7187 355.49417 796.7187 353.8373C796.7187 352.18045 798.0618 350.8373 799.7187 350.8373C801.37555 350.8373 802.7187 352.18045 802.7187 353.8373Z" fill-rule="nonzero"/><path fill="#000000" fill-opacity="0.0" clip-path="url(#id_0)" d="M812.80255 353.8373C812.80255 355.49417 811.45935 356.8373 809.80255 356.8373C808.1457 356.8373 806.80255 355.49417 806.80255 353.8373C806.80255 352.18045 808.1457 350.8373 809.80255 350.8373C811.45935 350.8373 812.80255 352.18045 812.80255 353.8373Z" fill-rule="nonzero"/><path fill="#000000" fill-opacity="0.0" clip-path="url(#id_0)" d="M822.88635 349.61667C822.88635 351.27353 821.5432 352.61667 819.88635 352.61667C818.2295 352.61667 816.88635 351.27353 816.88635 349.61667C816.88635 347.9598 818.2295 346.61667 819.88635 346.61667C821.5432 346.61667 822.88635 347.9598 822.88635 349.61667Z" fill-rule="nonzero"/><path fill="#000000" fill-opacity="0.0" clip-path="url(#id_0)" d="M832.9702 353.8373C832.9702 355.49417 831.6271 356.8373 829.9702 356.8373C828.31335 356.8373 826.9702 355.49417 826.9702 353.8373C826.9702 352.18045 828.31335 350.8373 829.9702 350.8373C831.6271 350.8373 832.9702 352.18045 832.9702 353.8373Z" fill-rule="nonzero"/><path fill="#000000" fill-opacity="0.0" clip-path="url(#id_0)" d="M843.054 353.8373C843.054 355.49417 841.7109 356.8373 840.054 356.8373C838.39716 356.8373 837.054 355.49417 837.054 353.8373C837.054 352.18045 838.39716 350.8373 840.054 350.8373C841.7109 350.8373 843.054 352.18045 843.054 353.8373Z" fill-rule="nonzero"/><path fill="#000000" fill-opacity="0.0" clip-path="url(#id_0)" d="M853.1379 349.61667C853.1379 351.27353 851.79474 352.61667 850.1379 352.61667C848.481 352.61667 847.1379 351.27353 847.1379 349.61667C847.1379 347.9598 848.481 346.61667 850.1379 346.61667C851.79474 346.61667 853.1379 347.9598 853.1379 349.61667Z" fill-rule="nonzero"/><path fill="#000000" fill-opacity="0.0" clip-path="url(#id_0)" d="M863.22174 353.8373C863.22174 355.49417 861.8786 356.8373 860.22174 356.8373C858.5649 356.8373 857.22174 355.49417 857.22174 353.8373C857.22174 352.18045 858.5649 350.8373 860.22174 350.8373C861.8786 350.8373 863.22174 352.18045 863.22174 353.8373Z" fill-rule="nonzero"/><path fill="#000000" fill-opacity="0.0" clip-path="url(#id_0)" d="M873.30554 353.8373C873.30554 355.49417 871.9624 356.8373 870.30554 356.8373C868.6487 356.8373 867.30554 355.49417 867.30554 353.8373C867.30554 352.18045 868.6487 350.8373 870.30554 350.8373C871.9624 350.8373 873.30554 352.18045 873.30554 353.8373Z" fill-rule="nonzero"/><path fill="#000000" fill-opacity="0.0" clip-path="url(#id_0)" d="M883.3894 353.8373C883.3894 355.49417 882.04626 356.8373 880.3894 356.8373C878.73254 356.8373 877.3894 355.49417 877.3894 353.8373C877.3894 352.18045 878.73254 350.8373 880.3894 350.8373C882.04626 350.8373 883.3894 352.18045 883.3894 353.8373Z" fill-rule="nonzero"/><path fill="#000000" fill-opacity="0.0" clip-path="url(#id_0)" d="M893.4732 349.61667C893.4732 351.27353 892.13007 352.61667 890.4732 352.61667C888.8164 352.61667 887.4732 351.27353 887.4732 349.61667C887.4732 347.9598 888.8164 346.61667 890.4732 346.61667C892.13007 346.61667 893.4732 347.9598 893.4732 349.61667Z" fill-rule="nonzero"/><path fill="#000000" fill-opacity="0.0" clip-path="url(#id_0)" d="M903.55707 353.8373C903.55707 355.49417 902.2139 356.8373 900.55707 356.8373C898.9002 356.8373 897.55707 355.49417 897.55707 353.8373C897.55707 352.18045 898.9002 350.8373 900.55707 350.8373C902.2139 350.8373 903.55707 352.18045 903.55707 353.8373Z" fill-rule="nonzero"/><path fill="#000000" fill-opacity="0.0" clip-path="url(#id_0)" d="M913.6409 353.8373C913.6409 355.49417 912.2978 356.8373 910.6409 356.8373C908.9841 356.8373 907.6409 355.49417 907.6409 353.8373C907.6409 352.18045 908.9841 350.8373 910.6409 350.8373C912.2978 350.8373 913.6409 352.18045 913.6409 353.8373Z" fill-rule="nonzero"/><path fill="#000000" fill-opacity="0.0" clip-path="url(#id_0)" d="M923.72473 353.8373C923.72473 355.49417 922.3816 356.8373 920.72473 356.8373C919.0679 356.8373 917.72473 355.49417 917.72473 353.8373C917.72473 352.18045 919.0679 350.8373 920.72473 350.8373C922.3816 350.8373 923.72473 352.18045 923.72473 353.8373Z" fill-rule="nonzero"/><path fill="#000000" fill-opacity="0.0" clip-path="url(#id_0)" d="M933.8086 353.8373C933.8086 355.49417 932.46545 356.8373 930.8086 356.8373C929.15173 356.8373 927.8086 355.49417 927.8086 353.8373C927.8086 352.18045 929.15173 350.8373 930.8086 350.8373C932.46545 350.8373 933.8086 352.18045 933.8086 353.8373Z" fill-rule="nonzero"/><path fill="#000000" fill-opacity="0.0" clip-path="url(#id_0)" d="M943.8924 349.61667C943.8924 351.27353 942.54926 352.61667 940.8924 352.61667C939.2356 352.61667 937.8924 351.27353 937.8924 349.61667C937.8924 347.9598 939.2356 346.61667 940.8924 346.61667C942.54926 346.61667 943.8924 347.9598 943.8924 349.61667Z" fill-rule="nonzero"/><path fill="#000000" fill-opacity="0.0" clip-path="url(#id_0)" d="M953.97626 353.8373C953.97626 355.49417 952.6331 356.8373 950.97626 356.8373C949.3194 356.8373 947.97626 355.49417 947.97626 353.8373C947.97626 352.18045 949.3194 350.8373 950.97626 350.8373C952.6331 350.8373 953.97626 352.18045 953.97626 353.8373Z" fill-rule="nonzero"/><path fill="#000000" fill-opacity="0.0" clip-path="url(#id_0)" d="M964.0601 349.61667C964.0601 351.27353 962.717 352.61667 961.0601 352.61667C959.40326 352.61667 958.0601 351.27353 958.0601 349.61667C958.0601 347.9598 959.40326 346.61667 961.0601 346.61667C962.717 346.61667 964.0601 347.9598 964.0601 349.61667Z" fill-rule="nonzero"/><path fill="#000000" fill-opacity="0.0" clip-path="url(#id_0)" d="M974.1439 349.61667C974.1439 351.27353 972.8008 352.61667 971.1439 352.61667C969.48706 352.61667 968.1439 351.27353 968.1439 349.61667C968.1439 347.9598 969.48706 346.61667 971.1439 346.61667C972.8008 346.61667 974.1439 347.9598 974.1439 349.61667Z" fill-rule="nonzero"/><path fill="#000000" fill-opacity="0.0" clip-path="url(#id_0)" d="M984.2278 345.39603C984.2278 347.0529 982.88464 348.39603 981.2278 348.39603C979.5709 348.39603 978.2278 347.0529 978.2278 345.39603C978.2278 343.73917 979.5709 342.39603 981.2278 342.39603C982.88464 342.39603 984.2278 343.73917 984.2278 345.39603Z" fill-rule="nonzero"/><path fill="#000000" fill-opacity="0.0" clip-path="url(#id_0)" d="M994.31165 345.39603C994.31165 347.0529 992.96844 348.39603 991.31165 348.39603C989.6548 348.39603 988.31165 347.0529 988.31165 345.39603C988.31165 343.73917 989.6548 342.39603 991.31165 342.39603C992.96844 342.39603 994.31165 343.73917 994.31165 345.39603Z" fill-rule="nonzero"/><path fill="#000000" fill-opacity="0.0" clip-path="url(#id_0)" d="M1004.39545 345.39603C1004.39545 347.0529 1003.0523 348.39603 1001.39545 348.39603C999.7386 348.39603 998.39545 347.0529 998.39545 345.39603C998.39545 343.73917 999.7386 342.39603 1001.39545 342.39603C1003.0523 342.39603 1004.39545 343.73917 1004.39545 345.39603Z" fill-rule="nonzero"/><path fill="#000000" fill-opacity="0.0" clip-path="url(#id_0)" d="M1014.4793 349.61667C1014.4793 351.27353 1013.13617 352.61667 1011.4793 352.61667C1009.82245 352.61667 1008.4793 351.27353 1008.4793 349.61667C1008.4793 347.9598 1009.82245 346.61667 1011.4793 346.61667C1013.13617 346.61667 1014.4793 347.9598 1014.4793 349.61667Z" fill-rule="nonzero"/><path fill="#000000" fill-opacity="0.0" clip-path="url(#id_0)" d="M1024.5631 349.61667C1024.5631 351.27353 1023.22 352.61667 1021.5631 352.61667C1019.90625 352.61667 1018.5631 351.27353 1018.5631 349.61667C1018.5631 347.9598 1019.90625 346.61667 1021.5631 346.61667C1023.22 346.61667 1024.5631 347.9598 1024.5631 349.61667Z" fill-rule="nonzero"/><path fill="#000000" fill-opacity="0.0" clip-path="url(#id_0)" d="M1034.647 353.8373C1034.647 355.49417 1033.3038 356.8373 1031.647 356.8373C1029.9901 356.8373 1028.647 355.49417 1028.647 353.8373C1028.647 352.18045 1029.9901 350.8373 1031.647 350.8373C1033.3038 350.8373 1034.647 352.18045 1034.647 353.8373Z" fill-rule="nonzero"/><path fill="#000000" fill-opacity="0.0" clip-path="url(#id_0)" d="M1044.7308 353.8373C1044.7308 355.49417 1043.3877 356.8373 1041.7308 356.8373C1040.074 356.8373 1038.7308 355.49417 1038.7308 353.8373C1038.7308 352.18045 1040.074 350.8373 1041.7308 350.8373C1043.3877 350.8373 1044.7308 352.18045 1044.7308 353.8373Z" fill-rule="nonzero"/><path fill="#000000" fill-opacity="0.0" clip-path="url(#id_0)" d="M1054.8147 349.61667C1054.8147 351.27353 1053.4716 352.61667 1051.8147 352.61667C1050.1578 352.61667 1048.8147 351.27353 1048.8147 349.61667C1048.8147 347.9598 1050.1578 346.61667 1051.8147 346.61667C1053.4716 346.61667 1054.8147 347.9598 1054.8147 349.61667Z" fill-rule="nonzero"/><path fill="#000000" fill-opacity="0.0" clip-path="url(#id_0)" d="M1064.8984 353.8373C1064.8984 355.49417 1063.5553 356.8373 1061.8984 356.8373C1060.2416 356.8373 1058.8984 355.49417 1058.8984 353.8373C1058.8984 352.18045 1060.2416 350.8373 1061.8984 350.8373C1063.5553 350.8373 1064.8984 352.18045 1064.8984 353.8373Z" fill-rule="nonzero"/><path fill="#000000" fill-opacity="0.0" clip-path="url(#id_0)" d="M1074.9823 349.61667C1074.9823 351.27353 1073.6392 352.61667 1071.9823 352.61667C1070.3254 352.61667 1068.9823 351.27353 1068.9823 349.61667C1068.9823 347.9598 1070.3254 346.61667 1071.9823 346.61667C1073.6392 346.61667 1074.9823 347.9598 1074.9823 349.61667Z" fill-rule="nonzero"/><path fill="#000000" fill-opacity="0.0" clip-path="url(#id_0)" d="M1085.0662 349.61667C1085.0662 351.27353 1083.723 352.61667 1082.0662 352.61667C1080.4093 352.61667 1079.0662 351.27353 1079.0662 349.61667C1079.0662 347.9598 1080.4093 346.61667 1082.0662 346.61667C1083.723 346.61667 1085.0662 347.9598 1085.0662 349.61667Z" fill-rule="nonzero"/><path fill="#000000" fill-opacity="0.0" clip-path="url(#id_0)" d="M1095.15 391.61465C1095.15 393.27148 1093.8069 394.61465 1092.15 394.61465C1090.4932 394.61465 1089.15 393.27148 1089.15 391.61465C1089.15 389.9578 1090.4932 388.61465 1092.15 388.61465C1093.8069 388.61465 1095.15 389.9578 1095.15 391.61465Z" fill-rule="nonzero"/><path fill="#000000" d="M575.375 659.15L572.0469 650.5563L573.28125 650.5563L575.5156 656.8063Q575.78125 657.5563 575.96875 658.2125Q576.1719 657.5094 576.4375 656.8063L578.75 650.5563L579.90625 650.5563L576.5469 659.15L575.375 659.15ZM580.40625 656.04065Q580.40625 654.3063 581.3594 653.47815Q582.15625 652.79065 583.3125 652.79065Q584.59375 652.79065 585.40625 653.6344Q586.2344 654.4625 586.2344 655.9469Q586.2344 657.15 585.875 657.8375Q585.5156 658.525 584.8125 658.91565Q584.125 659.29065 583.3125 659.29065Q582.0156 659.29065 581.2031 658.4625Q580.40625 657.6188 580.40625 656.04065ZM581.4844 656.04065Q581.4844 657.22815 582.0 657.8219Q582.53125 658.41565 583.3125 658.41565Q584.1094 658.41565 584.625 657.8219Q585.1406 657.22815 585.1406 656.0094Q585.1406 654.85315 584.6094 654.2594Q584.09375 653.66565 583.3125 653.66565Q582.53125 653.66565 582.0 654.2594Q581.4844 654.8375 581.4844 656.04065ZM587.7656 659.15L587.7656 650.5563L588.8281 650.5563L588.8281 659.15L587.7656 659.15ZM593.09375 658.2125L593.25 659.1344Q592.7969 659.22815 592.4531 659.22815Q591.875 659.22815 591.5625 659.0563Q591.25 658.8688 591.1094 658.5719Q590.9844 658.275 590.9844 657.3219L590.9844 653.7438L590.21875 653.7438L590.21875 652.9313L590.9844 652.9313L590.9844 651.3844L592.03125 650.7594L592.03125 652.9313L593.09375 652.9313L593.09375 653.7438L592.03125 653.7438L592.03125 657.3844Q592.03125 657.8375 592.0781 657.9625Q592.1406 658.0875 592.2656 658.16565Q592.3906 658.2438 592.625 658.2438Q592.8125 658.2438 593.09375 658.2125ZM597.8594 658.3844Q597.2656 658.8844 596.71875 659.0875Q596.1875 659.29065 595.5625 659.29065Q594.53125 659.29065 593.9844 658.79065Q593.4375 658.29065 593.4375 657.5094Q593.4375 657.0563 593.6406 656.6813Q593.84375 656.29065 594.1875 656.0719Q594.53125 655.8375 594.9531 655.72815Q595.25 655.6344 595.8906 655.5563Q597.15625 655.41565 597.7656 655.1969Q597.7656 654.97815 597.7656 654.9313Q597.7656 654.275 597.46875 654.0094Q597.0625 653.66565 596.2656 653.66565Q595.53125 653.66565 595.1719 653.9313Q594.8125 654.1813 594.6406 654.8375L593.6094 654.6969Q593.75 654.04065 594.0781 653.6344Q594.40625 653.22815 595.0156 653.0094Q595.625 652.79065 596.4219 652.79065Q597.21875 652.79065 597.71875 652.97815Q598.21875 653.16565 598.4531 653.4469Q598.6875 653.72815 598.78125 654.16565Q598.8281 654.4313 598.8281 655.1344L598.8281 656.54065Q598.8281 658.0094 598.8906 658.4Q598.96875 658.79065 599.1719 659.15L598.0625 659.15Q597.90625 658.8219 597.8594 658.3844ZM597.7656 656.025Q597.1875 656.2594 596.0469 656.4313Q595.3906 656.525 595.125 656.65Q594.8594 656.7594 594.7031 656.97815Q594.5625 657.1969 594.5625 657.47815Q594.5625 657.9 594.875 658.1813Q595.2031 658.4625 595.8125 658.4625Q596.4219 658.4625 596.8906 658.1969Q597.375 657.9313 597.59375 657.4625Q597.7656 657.10315 597.7656 656.41565L597.7656 656.025ZM600.59375 659.66565L601.625 659.8219Q601.6875 660.29065 601.9844 660.5094Q602.375 660.8063 603.0469 660.8063Q603.78125 660.8063 604.1719 660.5094Q604.5781 660.2125 604.71875 659.6969Q604.8125 659.3688 604.7969 658.3375Q604.1094 659.15 603.0781 659.15Q601.7969 659.15 601.09375 658.22815Q600.3906 657.29065 600.3906 656.0094Q600.3906 655.1188 600.7031 654.3688Q601.03125 653.60315 601.6406 653.1969Q602.25 652.79065 603.0781 652.79065Q604.1875 652.79065 604.90625 653.6813L604.90625 652.9313L605.875 652.9313L605.875 658.3063Q605.875 659.7594 605.5781 660.3688Q605.28125 660.97815 604.6406 661.3219Q604.0 661.6813 603.0625 661.6813Q601.9531 661.6813 601.2656 661.1813Q600.5781 660.6813 600.59375 659.66565ZM601.46875 655.9313Q601.46875 657.15 601.9531 657.7125Q602.4375 658.275 603.1719 658.275Q603.90625 658.275 604.3906 657.7125Q604.8906 657.15 604.8906 655.9625Q604.8906 654.8219 604.375 654.2438Q603.875 653.66565 603.15625 653.66565Q602.4531 653.66565 601.9531 654.2438Q601.46875 654.8063 601.46875 655.9313ZM612.0469 657.15L613.1406 657.275Q612.8906 658.22815 612.1875 658.7594Q611.4844 659.29065 610.40625 659.29065Q609.0469 659.29065 608.2344 658.4469Q607.4375 657.60315 607.4375 656.0875Q607.4375 654.525 608.25 653.66565Q609.0625 652.79065 610.34375 652.79065Q611.59375 652.79065 612.375 653.6344Q613.1719 654.47815 613.1719 656.025Q613.1719 656.1188 613.1719 656.3063L608.53125 656.3063Q608.59375 657.3375 609.1094 657.8844Q609.625 658.41565 610.40625 658.41565Q610.9844 658.41565 611.3906 658.1188Q611.8125 657.8063 612.0469 657.15ZM608.59375 655.4469L612.0625 655.4469Q612.0 654.65 611.6719 654.2594Q611.15625 653.65 610.3594 653.65Q609.625 653.65 609.125 654.1344Q608.6406 654.6188 608.59375 655.4469Z" fill-rule="nonzero"/><path fill="#000000" d="M45.850025 364.3198L39.631275 364.3198L39.631275 363.3823L40.506275 363.3823Q40.037525 363.08542 39.7719 362.60104Q39.49065 362.11667 39.49065 361.49167Q39.49065 360.80417 39.7719 360.36667Q40.05315 359.91354 40.568775 359.74167Q39.49065 358.99167 39.49065 357.8198Q39.49065 356.8823 40.006275 356.39792Q40.506275 355.89792 41.5844 355.89792L45.850025 355.89792L45.850025 356.9448L41.92815 356.9448Q41.30315 356.9448 41.0219 357.05417Q40.74065 357.14792 40.568775 357.41354Q40.3969 357.67917 40.3969 358.05417Q40.3969 358.71042 40.8344 359.14792Q41.2719 359.5698 42.24065 359.5698L45.850025 359.5698L45.850025 360.6323L41.80315 360.6323Q41.100025 360.6323 40.756275 360.89792Q40.3969 361.14792 40.3969 361.72604Q40.3969 362.17917 40.631275 362.55417Q40.86565 362.92917 41.318775 363.10104Q41.7719 363.27292 42.61565 363.27292L45.850025 363.27292L45.850025 364.3198ZM45.850025 351.74167L37.256275 355.0698L37.256275 353.83542L43.506275 351.60104Q44.256275 351.33542 44.912525 351.14792Q44.2094 350.9448 43.506275 350.67917L37.256275 348.36667L37.256275 347.21042L45.850025 350.5698L45.850025 351.74167Z" fill-rule="nonzero"/><path fill="#000000" d="M70.225 611.5719L70.225 610.5094L73.475 610.5094L73.475 611.5719L70.225 611.5719ZM74.35 611.9L75.45937 611.8063Q75.58437 612.6188 76.02187 613.025Q76.475 613.4313 77.11562 613.4313Q77.86562 613.4313 78.39687 612.85315Q78.92812 612.275 78.92812 611.3375Q78.92812 610.4313 78.4125 609.91565Q77.9125 609.3844 77.08437 609.3844Q76.58437 609.3844 76.1625 609.6188Q75.75625 609.85315 75.52187 610.2125L74.5375 610.0875L75.36562 605.6813L79.64687 605.6813L79.64687 606.6813L76.20937 606.6813L75.75625 608.9938Q76.52187 608.4469 77.36562 608.4469Q78.49062 608.4469 79.25625 609.22815Q80.0375 610.0094 80.0375 611.2438Q80.0375 612.4 79.36562 613.2594Q78.5375 614.29065 77.11562 614.29065Q75.94375 614.29065 75.19375 613.6344Q74.45937 612.97815 74.35 611.9ZM81.35 609.91565Q81.35 608.3844 81.6625 607.4625Q81.975 606.525 82.58437 606.025Q83.20937 605.525 84.14687 605.525Q84.83437 605.525 85.35 605.8063Q85.88125 606.0875 86.225 606.6188Q86.56875 607.1344 86.75625 607.8844Q86.94375 608.6344 86.94375 609.91565Q86.94375 611.4313 86.63125 612.35315Q86.33437 613.275 85.70937 613.79065Q85.1 614.29065 84.14687 614.29065Q82.9125 614.29065 82.19375 613.4Q81.35 612.3375 81.35 609.91565ZM82.42812 609.91565Q82.42812 612.025 82.92812 612.72815Q83.42812 613.4313 84.14687 613.4313Q84.88125 613.4313 85.36562 612.72815Q85.86562 612.025 85.86562 609.91565Q85.86562 607.79065 85.36562 607.10315Q84.88125 606.4 84.13125 606.4Q83.4125 606.4 82.975 607.0094Q82.42812 607.79065 82.42812 609.91565Z" fill-rule="nonzero"/><path fill="#000000" d="M70.225 546.43854L70.225 545.37604L73.475 545.37604L73.475 546.43854L70.225 546.43854ZM74.35 546.75104L75.4125 546.6104Q75.58437 547.50104 76.02187 547.9073Q76.45937 548.2979 77.08437 548.2979Q77.83437 548.2979 78.35 547.7823Q78.86562 547.26666 78.86562 546.50104Q78.86562 545.7823 78.38125 545.31354Q77.9125 544.82916 77.17812 544.82916Q76.88125 544.82916 76.42812 544.95416L76.55312 544.01666Q76.6625 544.0323 76.725 544.0323Q77.39687 544.0323 77.92812 543.68854Q78.475 543.32916 78.475 542.5948Q78.475 542.01666 78.08437 541.64166Q77.69375 541.25104 77.06875 541.25104Q76.45937 541.25104 76.0375 541.64166Q75.63125 542.0323 75.52187 542.7979L74.45937 542.6104Q74.64687 541.56354 75.33437 540.9854Q76.02187 540.39166 77.0375 540.39166Q77.74062 540.39166 78.33437 540.70416Q78.92812 541.00104 79.24062 541.51666Q79.55312 542.0323 79.55312 542.62604Q79.55312 543.1729 79.25625 543.64166Q78.95937 544.0948 78.38125 544.3604Q79.13125 544.5323 79.55312 545.0948Q79.975 545.64166 79.975 546.4854Q79.975 547.6104 79.14687 548.39166Q78.33437 549.1729 77.08437 549.1729Q75.95937 549.1729 75.20937 548.50104Q74.45937 547.81354 74.35 546.75104ZM82.975 544.3604Q82.31875 544.1104 81.99062 543.6729Q81.67812 543.2198 81.67812 542.6104Q81.67812 541.6729 82.35 541.0323Q83.0375 540.39166 84.14687 540.39166Q85.27187 540.39166 85.95937 541.0479Q86.64687 541.70416 86.64687 542.64166Q86.64687 543.2354 86.33437 543.6729Q86.02187 544.1104 85.38125 544.3604Q86.17812 544.6104 86.58437 545.18854Q86.99062 545.76666 86.99062 546.56354Q86.99062 547.6573 86.20937 548.4073Q85.44375 549.1573 84.1625 549.1573Q82.89687 549.1573 82.11562 548.4073Q81.33437 547.6573 81.33437 546.5323Q81.33437 545.68854 81.75625 545.12604Q82.19375 544.56354 82.975 544.3604ZM82.75625 542.56354Q82.75625 543.1729 83.14687 543.56354Q83.55312 543.95416 84.17812 543.95416Q84.7875 543.95416 85.17812 543.57916Q85.56875 543.18854 85.56875 542.62604Q85.56875 542.0479 85.1625 541.6573Q84.75625 541.25104 84.1625 541.25104Q83.55312 541.25104 83.14687 541.64166Q82.75625 542.0323 82.75625 542.56354ZM82.42812 546.5323Q82.42812 546.9854 82.63125 547.4073Q82.85 547.82916 83.27187 548.06354Q83.69375 548.2979 84.17812 548.2979Q84.92812 548.2979 85.4125 547.81354Q85.9125 547.32916 85.9125 546.57916Q85.9125 545.81354 85.4125 545.31354Q84.9125 544.81354 84.14687 544.81354Q83.39687 544.81354 82.9125 545.31354Q82.42812 545.7979 82.42812 546.5323Z" fill-rule="nonzero"/><path fill="#000000" d="M70.225 481.3052L70.225 480.2427L73.475 480.2427L73.475 481.3052L70.225 481.3052ZM79.89687 482.8677L79.89687 483.88333L74.20937 483.88333Q74.20937 483.50833 74.33437 483.14896Q74.55312 482.57083 75.02187 482.00833Q75.50625 481.44583 76.4125 480.71146Q77.81875 479.5552 78.30312 478.88333Q78.80312 478.21146 78.80312 477.6177Q78.80312 476.9927 78.35 476.57083Q77.89687 476.13333 77.17812 476.13333Q76.4125 476.13333 75.95937 476.58646Q75.50625 477.03958 75.49062 477.85208L74.4125 477.7427Q74.52187 476.52396 75.24062 475.89896Q75.975 475.25833 77.20937 475.25833Q78.44375 475.25833 79.1625 475.94583Q79.88125 476.63333 79.88125 477.64896Q79.88125 478.16458 79.6625 478.66458Q79.45937 479.14896 78.95937 479.71146Q78.475 480.25833 77.35 481.21146Q76.39687 482.00833 76.11562 482.3052Q75.85 482.58646 75.67812 482.8677L79.89687 482.8677ZM81.35 481.63333L82.45937 481.53958Q82.58437 482.35208 83.02187 482.75833Q83.475 483.16458 84.11562 483.16458Q84.86562 483.16458 85.39687 482.58646Q85.92812 482.00833 85.92812 481.07083Q85.92812 480.16458 85.4125 479.64896Q84.9125 479.1177 84.08437 479.1177Q83.58437 479.1177 83.1625 479.35208Q82.75625 479.58646 82.52187 479.94583L81.5375 479.82083L82.36562 475.41458L86.64687 475.41458L86.64687 476.41458L83.20937 476.41458L82.75625 478.72708Q83.52187 478.1802 84.36562 478.1802Q85.49062 478.1802 86.25625 478.96146Q87.0375 479.7427 87.0375 480.97708Q87.0375 482.13333 86.36562 482.9927Q85.5375 484.02396 84.11562 484.02396Q82.94375 484.02396 82.19375 483.3677Q81.45937 482.71146 81.35 481.63333Z" fill-rule="nonzero"/><path fill="#000000" d="M70.225 416.17188L70.225 415.10938L73.475 415.10938L73.475 416.17188L70.225 416.17188ZM78.31875 418.75L77.27187 418.75L77.27187 412.03125Q76.88125 412.39062 76.25625 412.76562Q75.64687 413.125 75.1625 413.29688L75.1625 412.28125Q76.0375 411.85938 76.69375 411.28125Q77.36562 410.6875 77.64687 410.125L78.31875 410.125L78.31875 418.75ZM81.35 416.48438L82.4125 416.34375Q82.58437 417.23438 83.02187 417.64062Q83.45937 418.03125 84.08437 418.03125Q84.83437 418.03125 85.35 417.51562Q85.86562 417.0 85.86562 416.23438Q85.86562 415.51562 85.38125 415.04688Q84.9125 414.5625 84.17812 414.5625Q83.88125 414.5625 83.42812 414.6875L83.55312 413.75Q83.6625 413.76562 83.725 413.76562Q84.39687 413.76562 84.92812 413.42188Q85.475 413.0625 85.475 412.32812Q85.475 411.75 85.08437 411.375Q84.69375 410.98438 84.06875 410.98438Q83.45937 410.98438 83.0375 411.375Q82.63125 411.76562 82.52187 412.53125L81.45937 412.34375Q81.64687 411.29688 82.33437 410.71875Q83.02187 410.125 84.0375 410.125Q84.74062 410.125 85.33437 410.4375Q85.92812 410.73438 86.24062 411.25Q86.55312 411.76562 86.55312 412.35938Q86.55312 412.90625 86.25625 413.375Q85.95937 413.82812 85.38125 414.09375Q86.13125 414.26562 86.55312 414.82812Q86.975 415.375 86.975 416.21875Q86.975 417.34375 86.14687 418.125Q85.33437 418.90625 84.08437 418.90625Q82.95937 418.90625 82.20937 418.23438Q81.45937 417.54688 81.35 416.48438Z" fill-rule="nonzero"/><path fill="#000000" d="M81.35 349.3823Q81.35 347.85104 81.6625 346.92917Q81.975 345.99167 82.58437 345.49167Q83.20937 344.99167 84.14687 344.99167Q84.83437 344.99167 85.35 345.27292Q85.88125 345.55417 86.225 346.08542Q86.56875 346.60104 86.75625 347.35104Q86.94375 348.10104 86.94375 349.3823Q86.94375 350.89792 86.63125 351.8198Q86.33437 352.74167 85.70937 353.2573Q85.1 353.7573 84.14687 353.7573Q82.9125 353.7573 82.19375 352.86667Q81.35 351.80417 81.35 349.3823ZM82.42812 349.3823Q82.42812 351.49167 82.92812 352.1948Q83.42812 352.89792 84.14687 352.89792Q84.88125 352.89792 85.36562 352.1948Q85.86562 351.49167 85.86562 349.3823Q85.86562 347.2573 85.36562 346.5698Q84.88125 345.86667 84.13125 345.86667Q83.4125 345.86667 82.975 346.47604Q82.42812 347.2573 82.42812 349.3823Z" fill-rule="nonzero"/><path fill="#000000" d="M78.31875 288.48334L77.27187 288.48334L77.27187 281.7646Q76.88125 282.12396 76.25625 282.49896Q75.64687 282.85834 75.1625 283.0302L75.1625 282.0146Q76.0375 281.5927 76.69375 281.0146Q77.36562 280.42084 77.64687 279.85834L78.31875 279.85834L78.31875 288.48334ZM81.35 286.2177L82.4125 286.0771Q82.58437 286.9677 83.02187 287.37396Q83.45937 287.7646 84.08437 287.7646Q84.83437 287.7646 85.35 287.24896Q85.86562 286.73334 85.86562 285.9677Q85.86562 285.24896 85.38125 284.7802Q84.9125 284.29584 84.17812 284.29584Q83.88125 284.29584 83.42812 284.42084L83.55312 283.48334Q83.6625 283.49896 83.725 283.49896Q84.39687 283.49896 84.92812 283.1552Q85.475 282.79584 85.475 282.06146Q85.475 281.48334 85.08437 281.10834Q84.69375 280.7177 84.06875 280.7177Q83.45937 280.7177 83.0375 281.10834Q82.63125 281.49896 82.52187 282.2646L81.45937 282.0771Q81.64687 281.0302 82.33437 280.4521Q83.02187 279.85834 84.0375 279.85834Q84.74062 279.85834 85.33437 280.17084Q85.92812 280.4677 86.24062 280.98334Q86.55312 281.49896 86.55312 282.0927Q86.55312 282.6396 86.25625 283.10834Q85.95937 283.56146 85.38125 283.8271Q86.13125 283.99896 86.55312 284.56146Q86.975 285.10834 86.975 285.9521Q86.975 287.0771 86.14687 287.85834Q85.33437 288.6396 84.08437 288.6396Q82.95937 288.6396 82.20937 287.9677Q81.45937 287.2802 81.35 286.2177Z" fill-rule="nonzero"/><path fill="#000000" d="M79.89687 222.33438L79.89687 223.35L74.20937 223.35Q74.20937 222.975 74.33437 222.61563Q74.55312 222.0375 75.02187 221.475Q75.50625 220.9125 76.4125 220.17813Q77.81875 219.02188 78.30312 218.35Q78.80312 217.67813 78.80312 217.08438Q78.80312 216.45938 78.35 216.0375Q77.89687 215.6 77.17812 215.6Q76.4125 215.6 75.95937 216.05313Q75.50625 216.50626 75.49062 217.31876L74.4125 217.20938Q74.52187 215.99063 75.24062 215.36563Q75.975 214.725 77.20937 214.725Q78.44375 214.725 79.1625 215.4125Q79.88125 216.1 79.88125 217.11563Q79.88125 217.63126 79.6625 218.13126Q79.45937 218.61563 78.95937 219.17813Q78.475 219.725 77.35 220.67813Q76.39687 221.475 76.11562 221.77188Q75.85 222.05313 75.67812 222.33438L79.89687 222.33438ZM81.35 221.1L82.45937 221.00626Q82.58437 221.81876 83.02187 222.225Q83.475 222.63126 84.11562 222.63126Q84.86562 222.63126 85.39687 222.05313Q85.92812 221.475 85.92812 220.5375Q85.92812 219.63126 85.4125 219.11563Q84.9125 218.58438 84.08437 218.58438Q83.58437 218.58438 83.1625 218.81876Q82.75625 219.05313 82.52187 219.4125L81.5375 219.2875L82.36562 214.88126L86.64687 214.88126L86.64687 215.88126L83.20937 215.88126L82.75625 218.19376Q83.52187 217.64688 84.36562 217.64688Q85.49062 217.64688 86.25625 218.42813Q87.0375 219.20938 87.0375 220.44376Q87.0375 221.6 86.36562 222.45938Q85.5375 223.49063 84.11562 223.49063Q82.94375 223.49063 82.19375 222.83438Q81.45937 222.17813 81.35 221.1Z" fill-rule="nonzero"/><path fill="#000000" d="M74.35 155.95103L75.4125 155.81041Q75.58437 156.70103 76.02187 157.10728Q76.45937 157.49791 77.08437 157.49791Q77.83437 157.49791 78.35 156.98228Q78.86562 156.46666 78.86562 155.70103Q78.86562 154.98228 78.38125 154.51353Q77.9125 154.02916 77.17812 154.02916Q76.88125 154.02916 76.42812 154.15416L76.55312 153.21666Q76.6625 153.23228 76.725 153.23228Q77.39687 153.23228 77.92812 152.88853Q78.475 152.52916 78.475 151.79478Q78.475 151.21666 78.08437 150.84166Q77.69375 150.45103 77.06875 150.45103Q76.45937 150.45103 76.0375 150.84166Q75.63125 151.23228 75.52187 151.99791L74.45937 151.81041Q74.64687 150.76353 75.33437 150.18541Q76.02187 149.59166 77.0375 149.59166Q77.74062 149.59166 78.33437 149.90416Q78.92812 150.20103 79.24062 150.71666Q79.55312 151.23228 79.55312 151.82603Q79.55312 152.37291 79.25625 152.84166Q78.95937 153.29478 78.38125 153.56041Q79.13125 153.73228 79.55312 154.29478Q79.975 154.84166 79.975 155.68541Q79.975 156.81041 79.14687 157.59166Q78.33437 158.37291 77.08437 158.37291Q75.95937 158.37291 75.20937 157.70103Q74.45937 157.01353 74.35 155.95103ZM82.975 153.56041Q82.31875 153.31041 81.99062 152.87291Q81.67812 152.41978 81.67812 151.81041Q81.67812 150.87291 82.35 150.23228Q83.0375 149.59166 84.14687 149.59166Q85.27187 149.59166 85.95937 150.24791Q86.64687 150.90416 86.64687 151.84166Q86.64687 152.43541 86.33437 152.87291Q86.02187 153.31041 85.38125 153.56041Q86.17812 153.81041 86.58437 154.38853Q86.99062 154.96666 86.99062 155.76353Q86.99062 156.85728 86.20937 157.60728Q85.44375 158.35728 84.1625 158.35728Q82.89687 158.35728 82.11562 157.60728Q81.33437 156.85728 81.33437 155.73228Q81.33437 154.88853 81.75625 154.32603Q82.19375 153.76353 82.975 153.56041ZM82.75625 151.76353Q82.75625 152.37291 83.14687 152.76353Q83.55312 153.15416 84.17812 153.15416Q84.7875 153.15416 85.17812 152.77916Q85.56875 152.38853 85.56875 151.82603Q85.56875 151.24791 85.1625 150.85728Q84.75625 150.45103 84.1625 150.45103Q83.55312 150.45103 83.14687 150.84166Q82.75625 151.23228 82.75625 151.76353ZM82.42812 155.73228Q82.42812 156.18541 82.63125 156.60728Q82.85 157.02916 83.27187 157.26353Q83.69375 157.49791 84.17812 157.49791Q84.92812 157.49791 85.4125 157.01353Q85.9125 156.52916 85.9125 155.77916Q85.9125 155.01353 85.4125 154.51353Q84.9125 154.01353 84.14687 154.01353Q83.39687 154.01353 82.9125 154.51353Q82.42812 154.99791 82.42812 155.73228Z" fill-rule="nonzero"/><path fill="#000000" d="M74.35 90.833336L75.45937 90.739586Q75.58437 91.552086 76.02187 91.958336Q76.475 92.364586 77.11562 92.364586Q77.86562 92.364586 78.39687 91.78646Q78.92812 91.208336 78.92812 90.270836Q78.92812 89.364586 78.4125 88.84896Q77.9125 88.31771 77.08437 88.31771Q76.58437 88.31771 76.1625 88.552086Q75.75625 88.78646 75.52187 89.145836L74.5375 89.020836L75.36562 84.614586L79.64687 84.614586L79.64687 85.614586L76.20937 85.614586L75.75625 87.927086Q76.52187 87.38021 77.36562 87.38021Q78.49062 87.38021 79.25625 88.16146Q80.0375 88.94271 80.0375 90.177086Q80.0375 91.333336 79.36562 92.19271Q78.5375 93.22396 77.11562 93.22396Q75.94375 93.22396 75.19375 92.56771Q74.45937 91.91146 74.35 90.833336ZM81.35 88.84896Q81.35 87.31771 81.6625 86.395836Q81.975 85.458336 82.58437 84.958336Q83.20937 84.458336 84.14687 84.458336Q84.83437 84.458336 85.35 84.739586Q85.88125 85.020836 86.225 85.552086Q86.56875 86.06771 86.75625 86.81771Q86.94375 87.56771 86.94375 88.84896Q86.94375 90.364586 86.63125 91.28646Q86.33437 92.208336 85.70937 92.72396Q85.1 93.22396 84.14687 93.22396Q82.9125 93.22396 82.19375 92.333336Q81.35 91.270836 81.35 88.84896ZM82.42812 88.84896Q82.42812 90.958336 82.92812 91.66146Q83.42812 92.364586 84.14687 92.364586Q84.88125 92.364586 85.36562 91.66146Q85.86562 90.958336 85.86562 88.84896Q85.86562 86.72396 85.36562 86.03646Q84.88125 85.333336 84.13125 85.333336Q83.4125 85.333336 82.975 85.94271Q82.42812 86.72396 82.42812 88.84896Z" fill-rule="nonzero"/><path fill="#000000" d="M85.85 622.91565Q85.85 621.3844 86.1625 620.4625Q86.475 619.525 87.08437 619.025Q87.70937 618.525 88.64687 618.525Q89.33437 618.525 89.85 618.8063Q90.38125 619.0875 90.725 619.6188Q91.06875 620.1344 91.25625 620.8844Q91.44375 621.6344 91.44375 622.91565Q91.44375 624.4313 91.13125 625.35315Q90.83437 626.275 90.20937 626.79065Q89.6 627.29065 88.64687 627.29065Q87.4125 627.29065 86.69375 626.4Q85.85 625.3375 85.85 622.91565ZM86.92812 622.91565Q86.92812 625.025 87.42812 625.72815Q87.92812 626.4313 88.64687 626.4313Q89.38125 626.4313 89.86562 625.72815Q90.36562 625.025 90.36562 622.91565Q90.36562 620.79065 89.86562 620.10315Q89.38125 619.4 88.63125 619.4Q87.9125 619.4 87.475 620.0094Q86.92812 620.79065 86.92812 622.91565ZM93.44375 627.15L93.44375 625.9469L94.64687 625.9469L94.64687 627.15L93.44375 627.15ZM95.85 622.91565Q95.85 621.3844 96.1625 620.4625Q96.475 619.525 97.08437 619.025Q97.70937 618.525 98.64687 618.525Q99.33437 618.525 99.85 618.8063Q100.38125 619.0875 100.725 619.6188Q101.06875 620.1344 101.25625 620.8844Q101.44375 621.6344 101.44375 622.91565Q101.44375 624.4313 101.13125 625.35315Q100.83437 626.275 100.20937 626.79065Q99.6 627.29065 98.64687 627.29065Q97.4125 627.29065 96.69375 626.4Q95.85 625.3375 95.85 622.91565ZM96.92812 622.91565Q96.92812 625.025 97.42812 625.72815Q97.92812 626.4313 98.64687 626.4313Q99.38125 626.4313 99.86562 625.72815Q100.36562 625.025 100.36562 622.91565Q100.36562 620.79065 99.86562 620.10315Q99.38125 619.4 98.63125 619.4Q97.9125 619.4 97.475 620.0094Q96.92812 620.79065 96.92812 622.91565Z" fill-rule="nonzero"/><path fill="#000000" d="M315.02814 622.91565Q315.02814 621.3844 315.34064 620.4625Q315.65314 619.525 316.2625 619.025Q316.8875 618.525 317.825 618.525Q318.5125 618.525 319.02814 618.8063Q319.5594 619.0875 319.90314 619.6188Q320.2469 620.1344 320.4344 620.8844Q320.6219 621.6344 320.6219 622.91565Q320.6219 624.4313 320.3094 625.35315Q320.0125 626.275 319.3875 626.79065Q318.77814 627.29065 317.825 627.29065Q316.59064 627.29065 315.8719 626.4Q315.02814 625.3375 315.02814 622.91565ZM316.10626 622.91565Q316.10626 625.025 316.60626 625.72815Q317.10626 626.4313 317.825 626.4313Q318.5594 626.4313 319.04376 625.72815Q319.54376 625.025 319.54376 622.91565Q319.54376 620.79065 319.04376 620.10315Q318.5594 619.4 317.8094 619.4Q317.09064 619.4 316.65314 620.0094Q316.10626 620.79065 316.10626 622.91565ZM322.6219 627.15L322.6219 625.9469L323.825 625.9469L323.825 627.15L322.6219 627.15ZM325.02814 624.9L326.1375 624.8063Q326.2625 625.6188 326.7 626.025Q327.15314 626.4313 327.79376 626.4313Q328.54376 626.4313 329.075 625.85315Q329.60626 625.275 329.60626 624.3375Q329.60626 623.4313 329.09064 622.91565Q328.59064 622.3844 327.7625 622.3844Q327.2625 622.3844 326.84064 622.6188Q326.4344 622.85315 326.2 623.2125L325.21564 623.0875L326.04376 618.6813L330.325 618.6813L330.325 619.6813L326.8875 619.6813L326.4344 621.9938Q327.2 621.4469 328.04376 621.4469Q329.16876 621.4469 329.9344 622.22815Q330.71564 623.0094 330.71564 624.2438Q330.71564 625.4 330.04376 626.2594Q329.21564 627.29065 327.79376 627.29065Q326.6219 627.29065 325.8719 626.6344Q325.1375 625.97815 325.02814 624.9Z" fill-rule="nonzero"/><path fill="#000000" d="M548.17505 627.15L547.1282 627.15L547.1282 620.4313Q546.73755 620.79065 546.11255 621.16565Q545.5032 621.525 545.0188 621.6969L545.0188 620.6813Q545.8938 620.2594 546.55005 619.6813Q547.2219 619.0875 547.5032 618.525L548.17505 618.525L548.17505 627.15ZM551.80005 627.15L551.80005 625.9469L553.0032 625.9469L553.0032 627.15L551.80005 627.15ZM554.2063 622.91565Q554.2063 621.3844 554.5188 620.4625Q554.8313 619.525 555.4407 619.025Q556.0657 618.525 557.0032 618.525Q557.6907 618.525 558.2063 618.8063Q558.73755 619.0875 559.0813 619.6188Q559.42505 620.1344 559.61255 620.8844Q559.80005 621.6344 559.80005 622.91565Q559.80005 624.4313 559.48755 625.35315Q559.1907 626.275 558.5657 626.79065Q557.9563 627.29065 557.0032 627.29065Q555.7688 627.29065 555.05005 626.4Q554.2063 625.3375 554.2063 622.91565ZM555.2844 622.91565Q555.2844 625.025 555.7844 625.72815Q556.2844 626.4313 557.0032 626.4313Q557.73755 626.4313 558.2219 625.72815Q558.7219 625.025 558.7219 622.91565Q558.7219 620.79065 558.2219 620.10315Q557.73755 619.4 556.98755 619.4Q556.2688 619.4 555.8313 620.0094Q555.2844 620.79065 555.2844 622.91565Z" fill-rule="nonzero"/><path fill="#000000" d="M777.3532 627.15L776.30634 627.15L776.30634 620.4313Q775.9157 620.79065 775.2907 621.16565Q774.68134 621.525 774.19696 621.6969L774.19696 620.6813Q775.07196 620.2594 775.7282 619.6813Q776.4001 619.0875 776.68134 618.525L777.3532 618.525L777.3532 627.15ZM780.9782 627.15L780.9782 625.9469L782.18134 625.9469L782.18134 627.15L780.9782 627.15ZM783.38446 624.9L784.49384 624.8063Q784.61884 625.6188 785.05634 626.025Q785.50946 626.4313 786.1501 626.4313Q786.9001 626.4313 787.43134 625.85315Q787.9626 625.275 787.9626 624.3375Q787.9626 623.4313 787.44696 622.91565Q786.94696 622.3844 786.11884 622.3844Q785.61884 622.3844 785.19696 622.6188Q784.7907 622.85315 784.55634 623.2125L783.57196 623.0875L784.4001 618.6813L788.68134 618.6813L788.68134 619.6813L785.24384 619.6813L784.7907 621.9938Q785.55634 621.4469 786.4001 621.4469Q787.5251 621.4469 788.2907 622.22815Q789.07196 623.0094 789.07196 624.2438Q789.07196 625.4 788.4001 626.2594Q787.57196 627.29065 786.1501 627.29065Q784.9782 627.29065 784.2282 626.6344Q783.49384 625.97815 783.38446 624.9Z" fill-rule="nonzero"/><path fill="#000000" d="M1008.10944 626.1344L1008.10944 627.15L1002.42194 627.15Q1002.42194 626.775 1002.54694 626.41565Q1002.7657 625.8375 1003.23444 625.275Q1003.7188 624.7125 1004.62506 623.97815Q1006.0313 622.8219 1006.5157 622.15Q1007.0157 621.47815 1007.0157 620.8844Q1007.0157 620.2594 1006.56256 619.8375Q1006.10944 619.4 1005.3907 619.4Q1004.62506 619.4 1004.17194 619.85315Q1003.7188 620.3063 1003.7032 621.1188L1002.62506 621.0094Q1002.73444 619.79065 1003.4532 619.16565Q1004.18756 618.525 1005.42194 618.525Q1006.6563 618.525 1007.37506 619.2125Q1008.0938 619.9 1008.0938 620.91565Q1008.0938 621.4313 1007.87506 621.9313Q1007.67194 622.41565 1007.17194 622.97815Q1006.68756 623.525 1005.56256 624.47815Q1004.60944 625.275 1004.3282 625.5719Q1004.06256 625.85315 1003.8907 626.1344L1008.10944 626.1344ZM1010.1563 627.15L1010.1563 625.9469L1011.35944 625.9469L1011.35944 627.15L1010.1563 627.15ZM1012.56256 622.91565Q1012.56256 621.3844 1012.87506 620.4625Q1013.18756 619.525 1013.79694 619.025Q1014.42194 618.525 1015.35944 618.525Q1016.04694 618.525 1016.56256 618.8063Q1017.0938 619.0875 1017.43756 619.6188Q1017.7813 620.1344 1017.9688 620.8844Q1018.1563 621.6344 1018.1563 622.91565Q1018.1563 624.4313 1017.8438 625.35315Q1017.54694 626.275 1016.92194 626.79065Q1016.31256 627.29065 1015.35944 627.29065Q1014.12506 627.29065 1013.4063 626.4Q1012.56256 625.3375 1012.56256 622.91565ZM1013.6407 622.91565Q1013.6407 625.025 1014.1407 625.72815Q1014.6407 626.4313 1015.35944 626.4313Q1016.0938 626.4313 1016.5782 625.72815Q1017.0782 625.025 1017.0782 622.91565Q1017.0782 620.79065 1016.5782 620.10315Q1016.0938 619.4 1015.3438 619.4Q1014.62506 619.4 1014.18756 620.0094Q1013.6407 620.79065 1013.6407 622.91565Z" fill-rule="nonzero"/><path fill="#757575" d="M36.428123 53.85L36.428123 39.5375L46.7875 39.5375L46.7875 41.225L38.334373 41.225L38.334373 45.6L46.240623 45.6L46.240623 47.2875L38.334373 47.2875L38.334373 52.1625L47.115623 52.1625L47.115623 53.85L36.428123 53.85ZM49.146873 53.85L49.146873 43.475L50.725 43.475L50.725 45.053123Q51.334373 43.94375 51.85 43.6Q52.365623 43.240623 52.975 43.240623Q53.865623 43.240623 54.7875 43.803123L54.178123 45.44375Q53.5375 45.053123 52.896873 45.053123Q52.31875 45.053123 51.85 45.4125Q51.396873 45.75625 51.19375 46.365623Q50.9125 47.303123 50.9125 48.4125L50.9125 53.85L49.146873 53.85ZM56.146873 53.85L56.146873 43.475L57.725 43.475L57.725 45.053123Q58.334373 43.94375 58.85 43.6Q59.365623 43.240623 59.975 43.240623Q60.865623 43.240623 61.7875 43.803123L61.178123 45.44375Q60.5375 45.053123 59.896873 45.053123Q59.31875 45.053123 58.85 45.4125Q58.396873 45.75625 58.19375 46.365623Q57.9125 47.303123 57.9125 48.4125L57.9125 53.85L56.146873 53.85ZM62.521873 48.6625Q62.521873 45.7875 64.11562 44.396873Q65.45937 43.240623 67.38125 43.240623Q69.52187 43.240623 70.86562 44.646873Q72.225 46.053123 72.225 48.521873Q72.225 50.521873 71.63125 51.678123Q71.0375 52.81875 69.88125 53.459373Q68.74062 54.084373 67.38125 54.084373Q65.19375 54.084373 63.85 52.69375Q62.521873 51.2875 62.521873 48.6625ZM64.31875 48.6625Q64.31875 50.6625 65.17812 51.646873Q66.05312 52.63125 67.38125 52.63125Q68.69375 52.63125 69.55312 51.646873Q70.42812 50.646873 70.42812 48.6Q70.42812 46.678123 69.55312 45.69375Q68.67812 44.69375 67.38125 44.69375Q66.05312 44.69375 65.17812 45.69375Q64.31875 46.678123 64.31875 48.6625ZM74.14687 53.85L74.14687 43.475L75.725 43.475L75.725 45.053123Q76.33437 43.94375 76.85 43.6Q77.36562 43.240623 77.975 43.240623Q78.86562 43.240623 79.7875 43.803123L79.17812 45.44375Q78.5375 45.053123 77.89687 45.053123Q77.31875 45.053123 76.85 45.4125Q76.39687 45.75625 76.19375 46.365623Q75.9125 47.303123 75.9125 48.4125L75.9125 53.85L74.14687 53.85Z" fill-rule="nonzero"/></svg>