<svg version="1.1" viewBox="0.0 0.0 1127.0 697.0" fill="none" stroke="none" stroke-linecap="square" stroke-miterlimit="10" width="1127" height="697" xmlns:xlink="http://www.w3.org/1999/xlink" xmlns="http://www.w3.org/2000/svg"><path fill="#ffffff" d="M0 0L1127.0 0L1127.0 697.0L0 697.0L0 0Z" fill-rule="nonzero"/><path stroke="#333333" stroke-width="1.0" stroke-linecap="butt" d="M93.5 89.5L93.5 610.5" fill-rule="nonzero"/><path stroke="#cccccc" stroke-width="1.0" stroke-linecap="butt" d="M399.5 89.5L399.5 610.5" fill-rule="nonzero"/><path stroke="#cccccc" stroke-width="1.0" stroke-linecap="butt" d="M704.5 89.5L704.5 610.5" fill-rule="nonzero"/><path stroke="#cccccc" stroke-width="1.0" stroke-linecap="butt" d="M1010.5 89.5L1010.5 610.5" fill-rule="nonzero"/><path stroke="#cccccc" stroke-width="1.0" stroke-linecap="butt" d="M93.5 610.5L1092.5 610.5" fill-rule="nonzero"/><path stroke="#cccccc" stroke-width="1.0" stroke-linecap="butt" d="M93.5 545.5L1092.5 545.5" fill-rule="nonzero"/><path stroke="#cccccc" stroke-width="1.0" stroke-linecap="butt" d="M93.5 479.5L1092.5 479.5" fill-rule="nonzero"/><path stroke="#cccccc" stroke-width="1.0" stroke-linecap="butt" d="M93.5 414.5L1092.5 414.5" fill-rule="nonzero"/><path stroke="#333333" stroke-width="1.0" stroke-linecap="butt" d="M93.5 349.5L1092.5 349.5" fill-rule="nonzero"/><path stroke="#cccccc" stroke-width="1.0" stroke-linecap="butt" d="M93.5 284.5L1092.5 284.5" fill-rule="nonzero"/><path stroke="#cccccc" stroke-width="1.0" stroke-linecap="butt" d="M93.5 219.5L1092.5 219.5" fill-rule="nonzero"/><path stroke="#cccccc" stroke-width="1.0" stroke-linecap="butt" d="M93.5 154.5L1092.5 154.5" fill-rule="nonzero"/><path stroke="#cccccc" stroke-width="1.0" stroke-linecap="butt" d="M93.5 89.5L1092.5 89.5" fill-rule="nonzero"/><path stroke="#e6e6e6" stroke-width="1.0" stroke-linecap="butt" d="M93.5 588.5L1092.5 588.5" fill-rule="nonzero"/><path stroke="#e6e6e6" stroke-width="1.0" stroke-linecap="butt" d="M93.5 566.5L1092.5 566.5" fill-rule="nonzero"/><path stroke="#e6e6e6" stroke-width="1.0" stroke-linecap="butt" d="M93.5 523.5L1092.5 523.5" fill-rule="nonzero"/><path stroke="#e6e6e6" stroke-width="1.0" stroke-linecap="butt" d="M93.5 501.5L1092.5 501.5" fill-rule="nonzero"/><path stroke="#e6e6e6" stroke-width="1.0" stroke-linecap="butt" d="M93.5 458.5L1092.5 458.5" fill-rule="nonzero"/><path stroke="#e6e6e6" stroke-width="1.0" stroke-linecap="butt" d="M93.5 436.5L1092.5 436.5" fill-rule="nonzero"/><path stroke="#e6e6e6" stroke-width="1.0" stroke-linecap="butt" d="M93.5 393.5L1092.5 393.5" fill-rule="nonzero"/><path stroke="#e6e6e6" stroke-width="1.0" stroke-linecap="butt" d="M93.5 371.5L1092.5 371.5" fill-rule="nonzero"/><path stroke="#e6e6e6" stroke-width="1.0" stroke-linecap="butt" d="M93.5 327.5L1092.5 327.5" fill-rule="nonzero"/><path stroke="#e6e6e6" stroke-width="1.0" stroke-linecap="butt" d="M93.5 306.5L1092.5 306.5" fill-rule="nonzero"/><path stroke="#e6e6e6" stroke-width="1.0" stroke-linecap="butt" d="M93.5 262.5L1092.5 262.5" fill-rule="nonzero"/><path stroke="#e6e6e6" stroke-width="1.0" stroke-linecap="butt" d="M93.5 241.5L1092.5 241.5" fill-rule="nonzero"/><path stroke="#e6e6e6" stroke-width="1.0" stroke-linecap="butt" d="M93.5 197.5L1092.5 197.5" fill-rule="nonzero"/><path stroke="#e6e6e6" stroke-width="1.0" stroke-linecap="butt" d="M93.5 175.5L1092.5 175.5" fill-rule="nonzero"/><path stroke="#e6e6e6" stroke-width="1.0" stroke-linecap="butt" d="M93.5 132.5L1092.5 132.5" fill-rule="nonzero"/><path stroke="#e6e6e6" stroke-width="1.0" stroke-linecap="butt" d="M93.5 110.5L1092.5 110.5" fill-rule="nonzero"/><clipPath id="id_0"><path d="M93.85 89.083336L1092.15 89.083336L1092.15 610.15L93.85 610.15L93.85 89.083336Z" clip-rule="nonzero"/></clipPath><path stroke="#cc0000" stroke-width="2.0" stroke-linecap="butt" clip-path="url(#id_0)" d="M93.85 269.78925L103.93384 290.78824L114.01768 295.00888L124.10149 299.22952L134.18535 295.00888L144.2692 303.39804L154.35303 303.39804L164.43687 307.61868L174.5207 311.78723L184.60454 311.78723L194.68839 311.78723L204.77222 311.78723L214.85606 316.00787L224.9399 316.00787L235.02374 316.00787L245.10757 320.22852L255.19142 316.00787L265.27524 320.22852L275.3591 320.22852L285.44293 320.22852L295.52676 324.39703L305.6106 328.61768L315.69446 332.83832L325.7783 337.00687L335.86212 341.2275L345.94595 345.39603L356.0298 349.61667L366.11365 349.61667L376.19748 349.61667L386.2813 349.61667L396.36514 349.61667L406.449 345.39603L416.53284 349.61667L426.61667 349.61667L436.7005 349.61667L446.78433 349.61667L456.8682 353.8373L466.95203 349.61667L477.03586 345.39603L487.1197 345.39603L497.20352 345.39603L507.28738 345.39603L517.3712 345.39603L527.4551 345.39603L537.5389 345.39603L547.62274 345.39603L557.70654 345.39603L567.7904 341.2275L577.87427 341.2275L587.95807 341.2275L598.04193 345.39603L608.12573 345.39603L618.2096 345.39603L628.29346 345.39603L638.37726 345.39603L648.4611 345.39603L658.5449 349.61667L668.6288 345.39603L678.71265 349.61667L688.79645 353.8373L698.8803 353.8373L708.9641 349.61667L719.048 345.39603L729.13184 341.2275L739.21564 337.00687L749.2995 341.2275L759.38336 341.2275L769.46716 337.00687L779.551 341.2275L789.6348 341.2275L799.7187 341.2275L809.80255 341.2275L819.88635 341.2275L829.9702 341.2275L840.054 341.2275L850.1379 341.2275L860.22174 345.39603L870.30554 345.39603L880.3894 341.2275L890.4732 341.2275L900.55707 341.2275L910.6409 345.39603L920.72473 341.2275L930.8086 341.2275L940.8924 341.2275L950.97626 345.39603L961.0601 345.39603L971.1439 349.61667L981.2278 349.61667L991.31165 349.61667L1001.39545 349.61667L1011.4793 349.61667L1021.5631 349.61667L1031.647 349.61667L1041.7308 349.61667L1051.8147 349.61667L1061.8984 353.8373L1071.9823 353.8373L1082.0662 358.00583L1092.15 425.22345" fill-rule="nonzero"/><path fill="#000000" fill-opacity="0.0" clip-path="url(#id_0)" d="M96.85 269.78925C96.85 271.4461 95.50685 272.78925 93.85 272.78925C92.193146 272.78925 90.85 271.4461 90.85 269.78925C90.85 268.1324 92.193146 266.78925 93.85 266.78925C95.50685 266.78925 96.85 268.1324 96.85 269.78925Z" fill-rule="nonzero"/><path fill="#000000" fill-opacity="0.0" clip-path="url(#id_0)" d="M106.93384 290.78824C106.93384 292.4451 105.59069 293.78824 103.93384 293.78824C102.276985 293.78824 100.93384 292.4451 100.93384 290.78824C100.93384 289.13138 102.276985 287.78824 103.93384 287.78824C105.59069 287.78824 106.93384 289.13138 106.93384 290.78824Z" fill-rule="nonzero"/><path fill="#000000" fill-opacity="0.0" clip-path="url(#id_0)" d="M117.01768 295.00888C117.01768 296.66574 115.67453 298.00888 114.01768 298.00888C112.360825 298.00888 111.01768 296.66574 111.01768 295.00888C111.01768 293.35202 112.360825 292.00888 114.01768 292.00888C115.67453 292.00888 117.01768 293.35202 117.01768 295.00888Z" fill-rule="nonzero"/><path fill="#000000" fill-opacity="0.0" clip-path="url(#id_0)" d="M127.10149 299.22952C127.10149 300.88638 125.75834 302.22952 124.10149 302.22952C122.44463 302.22952 121.10149 300.88638 121.10149 299.22952C121.10149 297.57266 122.44463 296.22952 124.10149 296.22952C125.75834 296.22952 127.10149 297.57266 127.10149 299.22952Z" fill-rule="nonzero"/><path fill="#000000" fill-opacity="0.0" clip-path="url(#id_0)" d="M137.18535 295.00888C137.18535 296.66574 135.84221 298.00888 134.18535 298.00888C132.5285 298.00888 131.18535 296.66574 131.18535 295.00888C131.18535 293.35202 132.5285 292.00888 134.18535 292.00888C135.84221 292.00888 137.18535 293.35202 137.18535 295.00888Z" fill-rule="nonzero"/><path fill="#000000" fill-opacity="0.0" clip-path="url(#id_0)" d="M147.2692 303.39804C147.2692 305.0549 145.92604 306.39804 144.2692 306.39804C142.61234 306.39804 141.2692 305.0549 141.2692 303.39804C141.2692 301.7412 142.61234 300.39804 144.2692 300.39804C145.92604 300.39804 147.2692 301.7412 147.2692 303.39804Z" fill-rule="nonzero"/><path fill="#000000" fill-opacity="0.0" clip-path="url(#id_0)" d="M157.35303 303.39804C157.35303 305.0549 156.00989 306.39804 154.35303 306.39804C152.69618 306.39804 151.35303 305.0549 151.35303 303.39804C151.35303 301.7412 152.69618 300.39804 154.35303 300.39804C156.00989 300.39804 157.35303 301.7412 157.35303 303.39804Z" fill-rule="nonzero"/><path fill="#000000" fill-opacity="0.0" clip-path="url(#id_0)" d="M167.43687 307.61868C167.43687 309.27554 166.09372 310.61868 164.43687 310.61868C162.78001 310.61868 161.43687 309.27554 161.43687 307.61868C161.43687 305.96185 162.78001 304.61868 164.43687 304.61868C166.09372 304.61868 167.43687 305.96185 167.43687 307.61868Z" fill-rule="nonzero"/><path fill="#000000" fill-opacity="0.0" clip-path="url(#id_0)" d="M177.5207 311.78723C177.5207 313.4441 176.17757 314.78723 174.5207 314.78723C172.86385 314.78723 171.5207 313.4441 171.5207 311.78723C171.5207 310.13037 172.86385 308.78723 174.5207 308.78723C176.17757 308.78723 177.5207 310.13037 177.5207 311.78723Z" fill-rule="nonzero"/><path fill="#000000" fill-opacity="0.0" clip-path="url(#id_0)" d="M187.60454 311.78723C187.60454 313.4441 186.2614 314.78723 184.60454 314.78723C182.9477 314.78723 181.60454 313.4441 181.60454 311.78723C181.60454 310.13037 182.9477 308.78723 184.60454 308.78723C186.2614 308.78723 187.60454 310.13037 187.60454 311.78723Z" fill-rule="nonzero"/><path fill="#000000" fill-opacity="0.0" clip-path="url(#id_0)" d="M197.68839 311.78723C197.68839 313.4441 196.34525 314.78723 194.68839 314.78723C193.03152 314.78723 191.68839 313.4441 191.68839 311.78723C191.68839 310.13037 193.03152 308.78723 194.68839 308.78723C196.34525 308.78723 197.68839 310.13037 197.68839 311.78723Z" fill-rule="nonzero"/><path fill="#000000" fill-opacity="0.0" clip-path="url(#id_0)" d="M207.77222 311.78723C207.77222 313.4441 206.42908 314.78723 204.77222 314.78723C203.11537 314.78723 201.77222 313.4441 201.77222 311.78723C201.77222 310.13037 203.11537 308.78723 204.77222 308.78723C206.42908 308.78723 207.77222 310.13037 207.77222 311.78723Z" fill-rule="nonzero"/><path fill="#000000" fill-opacity="0.0" clip-path="url(#id_0)" d="M217.85606 316.00787C217.85606 317.66473 216.51291 319.00787 214.85606 319.00787C213.1992 319.00787 211.85606 317.66473 211.85606 316.00787C211.85606 314.351 213.1992 313.00787 214.85606 313.00787C216.51291 313.00787 217.85606 314.351 217.85606 316.00787Z" fill-rule="nonzero"/><path fill="#000000" fill-opacity="0.0" clip-path="url(#id_0)" d="M227.9399 316.00787C227.9399 317.66473 226.59676 319.00787 224.9399 319.00787C223.28305 319.00787 221.9399 317.66473 221.9399 316.00787C221.9399 314.351 223.28305 313.00787 224.9399 313.00787C226.59676 313.00787 227.9399 314.351 227.9399 316.00787Z" fill-rule="nonzero"/><path fill="#000000" fill-opacity="0.0" clip-path="url(#id_0)" d="M238.02374 316.00787C238.02374 317.66473 236.68059 319.00787 235.02374 319.00787C233.36688 319.00787 232.02374 317.66473 232.02374 316.00787C232.02374 314.351 233.36688 313.00787 235.02374 313.00787C236.68059 313.00787 238.02374 314.351 238.02374 316.00787Z" fill-rule="nonzero"/><path fill="#000000" fill-opacity="0.0" clip-path="url(#id_0)" d="M248.10757 320.22852C248.10757 321.88538 246.76443 323.22852 245.10757 323.22852C243.45071 323.22852 242.10757 321.88538 242.10757 320.22852C242.10757 318.57166 243.45071 317.22852 245.10757 317.22852C246.76443 317.22852 248.10757 318.57166 248.10757 320.22852Z" fill-rule="nonzero"/><path fill="#000000" fill-opacity="0.0" clip-path="url(#id_0)" d="M258.1914 316.00787C258.1914 317.66473 256.84827 319.00787 255.19142 319.00787C253.53456 319.00787 252.19142 317.66473 252.19142 316.00787C252.19142 314.351 253.53456 313.00787 255.19142 313.00787C256.84827 313.00787 258.1914 314.351 258.1914 316.00787Z" fill-rule="nonzero"/><path fill="#000000" fill-opacity="0.0" clip-path="url(#id_0)" d="M268.27524 320.22852C268.27524 321.88538 266.9321 323.22852 265.27524 323.22852C263.6184 323.22852 262.27524 321.88538 262.27524 320.22852C262.27524 318.57166 263.6184 317.22852 265.27524 317.22852C266.9321 317.22852 268.27524 318.57166 268.27524 320.22852Z" fill-rule="nonzero"/><path fill="#000000" fill-opacity="0.0" clip-path="url(#id_0)" d="M278.3591 320.22852C278.3591 321.88538 277.01593 323.22852 275.3591 323.22852C273.70224 323.22852 272.3591 321.88538 272.3591 320.22852C272.3591 318.57166 273.70224 317.22852 275.3591 317.22852C277.01593 317.22852 278.3591 318.57166 278.3591 320.22852Z" fill-rule="nonzero"/><path fill="#000000" fill-opacity="0.0" clip-path="url(#id_0)" d="M288.44293 320.22852C288.44293 321.88538 287.0998 323.22852 285.44293 323.22852C283.78607 323.22852 282.44293 321.88538 282.44293 320.22852C282.44293 318.57166 283.78607 317.22852 285.44293 317.22852C287.0998 317.22852 288.44293 318.57166 288.44293 320.22852Z" fill-rule="nonzero"/><path fill="#000000" fill-opacity="0.0" clip-path="url(#id_0)" d="M298.52676 324.39703C298.52676 326.0539 297.18362 327.39703 295.52676 327.39703C293.8699 327.39703 292.52676 326.0539 292.52676 324.39703C292.52676 322.74017 293.8699 321.39703 295.52676 321.39703C297.18362 321.39703 298.52676 322.74017 298.52676 324.39703Z" fill-rule="nonzero"/><path fill="#000000" fill-opacity="0.0" clip-path="url(#id_0)" d="M308.6106 328.61768C308.6106 330.27454 307.26746 331.61768 305.6106 331.61768C303.95377 331.61768 302.6106 330.27454 302.6106 328.61768C302.6106 326.96082 303.95377 325.61768 305.6106 325.61768C307.26746 325.61768 308.6106 326.96082 308.6106 328.61768Z" fill-rule="nonzero"/><path fill="#000000" fill-opacity="0.0" clip-path="url(#id_0)" d="M318.69446 332.83832C318.69446 334.49518 317.3513 335.83832 315.69446 335.83832C314.0376 335.83832 312.69446 334.49518 312.69446 332.83832C312.69446 331.18146 314.0376 329.83832 315.69446 329.83832C317.3513 329.83832 318.69446 331.18146 318.69446 332.83832Z" fill-rule="nonzero"/><path fill="#000000" fill-opacity="0.0" clip-path="url(#id_0)" d="M328.7783 337.00687C328.7783 338.6637 327.43515 340.00687 325.7783 340.00687C324.12143 340.00687 322.7783 338.6637 322.7783 337.00687C322.7783 335.35 324.12143 334.00687 325.7783 334.00687C327.43515 334.00687 328.7783 335.35 328.7783 337.00687Z" fill-rule="nonzero"/><path fill="#000000" fill-opacity="0.0" clip-path="url(#id_0)" d="M338.86212 341.2275C338.86212 342.88434 337.51898 344.2275 335.86212 344.2275C334.20526 344.2275 332.86212 342.88434 332.86212 341.2275C332.86212 339.57065 334.20526 338.2275 335.86212 338.2275C337.51898 338.2275 338.86212 339.57065 338.86212 341.2275Z" fill-rule="nonzero"/><path fill="#000000" fill-opacity="0.0" clip-path="url(#id_0)" d="M348.94595 345.39603C348.94595 347.0529 347.6028 348.39603 345.94595 348.39603C344.2891 348.39603 342.94595 347.0529 342.94595 345.39603C342.94595 343.73917 344.2891 342.39603 345.94595 342.39603C347.6028 342.39603 348.94595 343.73917 348.94595 345.39603Z" fill-rule="nonzero"/><path fill="#000000" fill-opacity="0.0" clip-path="url(#id_0)" d="M359.0298 349.61667C359.0298 351.27353 357.68665 352.61667 356.0298 352.61667C354.37296 352.61667 353.0298 351.27353 353.0298 349.61667C353.0298 347.9598 354.37296 346.61667 356.0298 346.61667C357.68665 346.61667 359.0298 347.9598 359.0298 349.61667Z" fill-rule="nonzero"/><path fill="#000000" fill-opacity="0.0" clip-path="url(#id_0)" d="M369.11365 349.61667C369.11365 351.27353 367.77048 352.61667 366.11365 352.61667C364.4568 352.61667 363.11365 351.27353 363.11365 349.61667C363.11365 347.9598 364.4568 346.61667 366.11365 346.61667C367.77048 346.61667 369.11365 347.9598 369.11365 349.61667Z" fill-rule="nonzero"/><path fill="#000000" fill-opacity="0.0" clip-path="url(#id_0)" d="M379.19748 349.61667C379.19748 351.27353 377.85434 352.61667 376.19748 352.61667C374.54062 352.61667 373.19748 351.27353 373.19748 349.61667C373.19748 347.9598 374.54062 346.61667 376.19748 346.61667C377.85434 346.61667 379.19748 347.9598 379.19748 349.61667Z" fill-rule="nonzero"/><path fill="#000000" fill-opacity="0.0" clip-path="url(#id_0)" d="M389.2813 349.61667C389.2813 351.27353 387.93817 352.61667 386.2813 352.61667C384.62445 352.61667 383.2813 351.27353 383.2813 349.61667C383.2813 347.9598 384.62445 346.61667 386.2813 346.61667C387.93817 346.61667 389.2813 347.9598 389.2813 349.61667Z" fill-rule="nonzero"/><path fill="#000000" fill-opacity="0.0" clip-path="url(#id_0)" d="M399.36514 349.61667C399.36514 351.27353 398.022 352.61667 396.36514 352.61667C394.70828 352.61667 393.36514 351.27353 393.36514 349.61667C393.36514 347.9598 394.70828 346.61667 396.36514 346.61667C398.022 346.61667 399.36514 347.9598 399.36514 349.61667Z" fill-rule="nonzero"/><path fill="#000000" fill-opacity="0.0" clip-path="url(#id_0)" d="M409.449 345.39603C409.449 347.0529 408.10583 348.39603 406.449 348.39603C404.79214 348.39603 403.449 347.0529 403.449 345.39603C403.449 343.73917 404.79214 342.39603 406.449 342.39603C408.10583 342.39603 409.449 343.73917 409.449 345.39603Z" fill-rule="nonzero"/><path fill="#000000" fill-opacity="0.0" clip-path="url(#id_0)" d="M419.53284 349.61667C419.53284 351.27353 418.1897 352.61667 416.53284 352.61667C414.87598 352.61667 413.53284 351.27353 413.53284 349.61667C413.53284 347.9598 414.87598 346.61667 416.53284 346.61667C418.1897 346.61667 419.53284 347.9598 419.53284 349.61667Z" fill-rule="nonzero"/><path fill="#000000" fill-opacity="0.0" clip-path="url(#id_0)" d="M429.61667 349.61667C429.61667 351.27353 428.27353 352.61667 426.61667 352.61667C424.9598 352.61667 423.61667 351.27353 423.61667 349.61667C423.61667 347.9598 424.9598 346.61667 426.61667 346.61667C428.27353 346.61667 429.61667 347.9598 429.61667 349.61667Z" fill-rule="nonzero"/><path fill="#000000" fill-opacity="0.0" clip-path="url(#id_0)" d="M439.7005 349.61667C439.7005 351.27353 438.35736 352.61667 436.7005 352.61667C435.04364 352.61667 433.7005 351.27353 433.7005 349.61667C433.7005 347.9598 435.04364 346.61667 436.7005 346.61667C438.35736 346.61667 439.7005 347.9598 439.7005 349.61667Z" fill-rule="nonzero"/><path fill="#000000" fill-opacity="0.0" clip-path="url(#id_0)" d="M449.78433 349.61667C449.78433 351.27353 448.4412 352.61667 446.78433 352.61667C445.1275 352.61667 443.78433 351.27353 443.78433 349.61667C443.78433 347.9598 445.1275 346.61667 446.78433 346.61667C448.4412 346.61667 449.78433 347.9598 449.78433 349.61667Z" fill-rule="nonzero"/><path fill="#000000" fill-opacity="0.0" clip-path="url(#id_0)" d="M459.8682 353.8373C459.8682 355.49417 458.52502 356.8373 456.8682 356.8373C455.21133 356.8373 453.8682 355.49417 453.8682 353.8373C453.8682 352.18045 455.21133 350.8373 456.8682 350.8373C458.52502 350.8373 459.8682 352.18045 459.8682 353.8373Z" fill-rule="nonzero"/><path fill="#000000" fill-opacity="0.0" clip-path="url(#id_0)" d="M469.95203 349.61667C469.95203 351.27353 468.6089 352.61667 466.95203 352.61667C465.29517 352.61667 463.95203 351.27353 463.95203 349.61667C463.95203 347.9598 465.29517 346.61667 466.95203 346.61667C468.6089 346.61667 469.95203 347.9598 469.95203 349.61667Z" fill-rule="nonzero"/><path fill="#000000" fill-opacity="0.0" clip-path="url(#id_0)" d="M480.03586 345.39603C480.03586 347.0529 478.69272 348.39603 477.03586 348.39603C475.379 348.39603 474.03586 347.0529 474.03586 345.39603C474.03586 343.73917 475.379 342.39603 477.03586 342.39603C478.69272 342.39603 480.03586 343.73917 480.03586 345.39603Z" fill-rule="nonzero"/><path fill="#000000" fill-opacity="0.0" clip-path="url(#id_0)" d="M490.1197 345.39603C490.1197 347.0529 488.77655 348.39603 487.1197 348.39603C485.46283 348.39603 484.1197 347.0529 484.1197 345.39603C484.1197 343.73917 485.46283 342.39603 487.1197 342.39603C488.77655 342.39603 490.1197 343.73917 490.1197 345.39603Z" fill-rule="nonzero"/><path fill="#000000" fill-opacity="0.0" clip-path="url(#id_0)" d="M500.20352 345.39603C500.20352 347.0529 498.86038 348.39603 497.20352 348.39603C495.5467 348.39603 494.20352 347.0529 494.20352 345.39603C494.20352 343.73917 495.5467 342.39603 497.20352 342.39603C498.86038 342.39603 500.20352 343.73917 500.20352 345.39603Z" fill-rule="nonzero"/><path fill="#000000" fill-opacity="0.0" clip-path="url(#id_0)" d="M510.28738 345.39603C510.28738 347.0529 508.9442 348.39603 507.28738 348.39603C505.63052 348.39603 504.28738 347.0529 504.28738 345.39603C504.28738 343.73917 505.63052 342.39603 507.28738 342.39603C508.9442 342.39603 510.28738 343.73917 510.28738 345.39603Z" fill-rule="nonzero"/><path fill="#000000" fill-opacity="0.0" clip-path="url(#id_0)" d="M520.3712 345.39603C520.3712 347.0529 519.0281 348.39603 517.3712 348.39603C515.71436 348.39603 514.3712 347.0529 514.3712 345.39603C514.3712 343.73917 515.71436 342.39603 517.3712 342.39603C519.0281 342.39603 520.3712 343.73917 520.3712 345.39603Z" fill-rule="nonzero"/><path fill="#000000" fill-opacity="0.0" clip-path="url(#id_0)" d="M530.4551 345.39603C530.4551 347.0529 529.1119 348.39603 527.4551 348.39603C525.7982 348.39603 524.4551 347.0529 524.4551 345.39603C524.4551 343.73917 525.7982 342.39603 527.4551 342.39603C529.1119 342.39603 530.4551 343.73917 530.4551 345.39603Z" fill-rule="nonzero"/><path fill="#000000" fill-opacity="0.0" clip-path="url(#id_0)" d="M540.5389 345.39603C540.5389 347.0529 539.19574 348.39603 537.5389 348.39603C535.882 348.39603 534.5389 347.0529 534.5389 345.39603C534.5389 343.73917 535.882 342.39603 537.5389 342.39603C539.19574 342.39603 540.5389 343.73917 540.5389 345.39603Z" fill-rule="nonzero"/><path fill="#000000" fill-opacity="0.0" clip-path="url(#id_0)" d="M550.62274 345.39603C550.62274 347.0529 549.2796 348.39603 547.62274 348.39603C545.9659 348.39603 544.62274 347.0529 544.62274 345.39603C544.62274 343.73917 545.9659 342.39603 547.62274 342.39603C549.2796 342.39603 550.62274 343.73917 550.62274 345.39603Z" fill-rule="nonzero"/><path fill="#000000" fill-opacity="0.0" clip-path="url(#id_0)" d="M560.70654 345.39603C560.70654 347.0529 559.3634 348.39603 557.70654 348.39603C556.0497 348.39603 554.70654 347.0529 554.70654 345.39603C554.70654 343.73917 556.0497 342.39603 557.70654 342.39603C559.3634 342.39603 560.70654 343.73917 560.70654 345.39603Z" fill-rule="nonzero"/><path fill="#000000" fill-opacity="0.0" clip-path="url(#id_0)" d="M570.7904 341.2275C570.7904 342.88434 569.44727 344.2275 567.7904 344.2275C566.13354 344.2275 564.7904 342.88434 564.7904 341.2275C564.7904 339.57065 566.13354 338.2275 567.7904 338.2275C569.44727 338.2275 570.7904 339.57065 570.7904 341.2275Z" fill-rule="nonzero"/><path fill="#000000" fill-opacity="0.0" clip-path="url(#id_0)" d="M580.87427 341.2275C580.87427 342.88434 579.53107 344.2275 577.87427 344.2275C576.2174 344.2275 574.87427 342.88434 574.87427 341.2275C574.87427 339.57065 576.2174 338.2275 577.87427 338.2275C579.53107 338.2275 580.87427 339.57065 580.87427 341.2275Z" fill-rule="nonzero"/><path fill="#000000" fill-opacity="0.0" clip-path="url(#id_0)" d="M590.95807 341.2275C590.95807 342.88434 589.6149 344.2275 587.95807 344.2275C586.3012 344.2275 584.95807 342.88434 584.95807 341.2275C584.95807 339.57065 586.3012 338.2275 587.95807 338.2275C589.6149 338.2275 590.95807 339.57065 590.95807 341.2275Z" fill-rule="nonzero"/><path fill="#000000" fill-opacity="0.0" clip-path="url(#id_0)" d="M601.04193 345.39603C601.04193 347.0529 599.6988 348.39603 598.04193 348.39603C596.3851 348.39603 595.04193 347.0529 595.04193 345.39603C595.04193 343.73917 596.3851 342.39603 598.04193 342.39603C599.6988 342.39603 601.04193 343.73917 601.04193 345.39603Z" fill-rule="nonzero"/><path fill="#000000" fill-opacity="0.0" clip-path="url(#id_0)" d="M611.12573 345.39603C611.12573 347.0529 609.7826 348.39603 608.12573 348.39603C606.46893 348.39603 605.12573 347.0529 605.12573 345.39603C605.12573 343.73917 606.46893 342.39603 608.12573 342.39603C609.7826 342.39603 611.12573 343.73917 611.12573 345.39603Z" fill-rule="nonzero"/><path fill="#000000" fill-opacity="0.0" clip-path="url(#id_0)" d="M621.2096 345.39603C621.2096 347.0529 619.86646 348.39603 618.2096 348.39603C616.55273 348.39603 615.2096 347.0529 615.2096 345.39603C615.2096 343.73917 616.55273 342.39603 618.2096 342.39603C619.86646 342.39603 621.2096 343.73917 621.2096 345.39603Z" fill-rule="nonzero"/><path fill="#000000" fill-opacity="0.0" clip-path="url(#id_0)" d="M631.29346 345.39603C631.29346 347.0529 629.9503 348.39603 628.29346 348.39603C626.6366 348.39603 625.29346 347.0529 625.29346 345.39603C625.29346 343.73917 626.6366 342.39603 628.29346 342.39603C629.9503 342.39603 631.29346 343.73917 631.29346 345.39603Z" fill-rule="nonzero"/><path fill="#000000" fill-opacity="0.0" clip-path="url(#id_0)" d="M641.37726 345.39603C641.37726 347.0529 640.0341 348.39603 638.37726 348.39603C636.7204 348.39603 635.37726 347.0529 635.37726 345.39603C635.37726 343.73917 636.7204 342.39603 638.37726 342.39603C640.0341 342.39603 641.37726 343.73917 641.37726 345.39603Z" fill-rule="nonzero"/><path fill="#000000" fill-opacity="0.0" clip-path="url(#id_0)" d="M651.4611 345.39603C651.4611 347.0529 650.118 348.39603 648.4611 348.39603C646.80426 348.39603 645.4611 347.0529 645.4611 345.39603C645.4611 343.73917 646.80426 342.39603 648.4611 342.39603C650.118 342.39603 651.4611 343.73917 651.4611 345.39603Z" fill-rule="nonzero"/><path fill="#000000" fill-opacity="0.0" clip-path="url(#id_0)" d="M661.5449 349.61667C661.5449 351.27353 660.2018 352.61667 658.5449 352.61667C656.8881 352.61667 655.5449 351.27353 655.5449 349.61667C655.5449 347.9598 656.8881 346.61667 658.5449 346.61667C660.2018 346.61667 661.5449 347.9598 661.5449 349.61667Z" fill-rule="nonzero"/><path fill="#000000" fill-opacity="0.0" clip-path="url(#id_0)" d="M671.6288 345.39603C671.6288 347.0529 670.28564 348.39603 668.6288 348.39603C666.9719 348.39603 665.6288 347.0529 665.6288 345.39603C665.6288 343.73917 666.9719 342.39603 668.6288 342.39603C670.28564 342.39603 671.6288 343.73917 671.6288 345.39603Z" fill-rule="nonzero"/><path fill="#000000" fill-opacity="0.0" clip-path="url(#id_0)" d="M681.71265 349.61667C681.71265 351.27353 680.3695 352.61667 678.71265 352.61667C677.0558 352.61667 675.71265 351.27353 675.71265 349.61667C675.71265 347.9598 677.0558 346.61667 678.71265 346.61667C680.3695 346.61667 681.71265 347.9598 681.71265 349.61667Z" fill-rule="nonzero"/><path fill="#000000" fill-opacity="0.0" clip-path="url(#id_0)" d="M691.79645 353.8373C691.79645 355.49417 690.4533 356.8373 688.79645 356.8373C687.1396 356.8373 685.79645 355.49417 685.79645 353.8373C685.79645 352.18045 687.1396 350.8373 688.79645 350.8373C690.4533 350.8373 691.79645 352.18045 691.79645 353.8373Z" fill-rule="nonzero"/><path fill="#000000" fill-opacity="0.0" clip-path="url(#id_0)" d="M701.8803 353.8373C701.8803 355.49417 700.5372 356.8373 698.8803 356.8373C697.22345 356.8373 695.8803 355.49417 695.8803 353.8373C695.8803 352.18045 697.22345 350.8373 698.8803 350.8373C700.5372 350.8373 701.8803 352.18045 701.8803 353.8373Z" fill-rule="nonzero"/><path fill="#000000" fill-opacity="0.0" clip-path="url(#id_0)" d="M711.9641 349.61667C711.9641 351.27353 710.621 352.61667 708.9641 352.61667C707.3073 352.61667 705.9641 351.27353 705.9641 349.61667C705.9641 347.9598 707.3073 346.61667 708.9641 346.61667C710.621 346.61667 711.9641 347.9598 711.9641 349.61667Z" fill-rule="nonzero"/><path fill="#000000" fill-opacity="0.0" clip-path="url(#id_0)" d="M722.048 345.39603C722.048 347.0529 720.70483 348.39603 719.048 348.39603C717.3911 348.39603 716.048 347.0529 716.048 345.39603C716.048 343.73917 717.3911 342.39603 719.048 342.39603C720.70483 342.39603 722.048 343.73917 722.048 345.39603Z" fill-rule="nonzero"/><path fill="#000000" fill-opacity="0.0" clip-path="url(#id_0)" d="M732.13184 341.2275C732.13184 342.88434 730.7887 344.2275 729.13184 344.2275C727.475 344.2275 726.13184 342.88434 726.13184 341.2275C726.13184 339.57065 727.475 338.2275 729.13184 338.2275C730.7887 338.2275 732.13184 339.57065 732.13184 341.2275Z" fill-rule="nonzero"/><path fill="#000000" fill-opacity="0.0" clip-path="url(#id_0)" d="M742.21564 337.00687C742.21564 338.6637 740.8725 340.00687 739.21564 340.00687C737.5588 340.00687 736.21564 338.6637 736.21564 337.00687C736.21564 335.35 737.5588 334.00687 739.21564 334.00687C740.8725 334.00687 742.21564 335.35 742.21564 337.00687Z" fill-rule="nonzero"/><path fill="#000000" fill-opacity="0.0" clip-path="url(#id_0)" d="M752.2995 341.2275C752.2995 342.88434 750.95636 344.2275 749.2995 344.2275C747.64264 344.2275 746.2995 342.88434 746.2995 341.2275C746.2995 339.57065 747.64264 338.2275 749.2995 338.2275C750.95636 338.2275 752.2995 339.57065 752.2995 341.2275Z" fill-rule="nonzero"/><path fill="#000000" fill-opacity="0.0" clip-path="url(#id_0)" d="M762.38336 341.2275C762.38336 342.88434 761.04016 344.2275 759.38336 344.2275C757.7265 344.2275 756.38336 342.88434 756.38336 341.2275C756.38336 339.57065 757.7265 338.2275 759.38336 338.2275C761.04016 338.2275 762.38336 339.57065 762.38336 341.2275Z" fill-rule="nonzero"/><path fill="#000000" fill-opacity="0.0" clip-path="url(#id_0)" d="M772.46716 337.00687C772.46716 338.6637 771.124 340.00687 769.46716 340.00687C767.8103 340.00687 766.46716 338.6637 766.46716 337.00687C766.46716 335.35 767.8103 334.00687 769.46716 334.00687C771.124 334.00687 772.46716 335.35 772.46716 337.00687Z" fill-rule="nonzero"/><path fill="#000000" fill-opacity="0.0" clip-path="url(#id_0)" d="M782.551 341.2275C782.551 342.88434 781.2079 344.2275 779.551 344.2275C777.89417 344.2275 776.551 342.88434 776.551 341.2275C776.551 339.57065 777.89417 338.2275 779.551 338.2275C781.2079 338.2275 782.551 339.57065 782.551 341.2275Z" fill-rule="nonzero"/><path fill="#000000" fill-opacity="0.0" clip-path="url(#id_0)" d="M792.6348 341.2275C792.6348 342.88434 791.2917 344.2275 789.6348 344.2275C787.97797 344.2275 786.6348 342.88434 786.6348 341.2275C786.6348 339.57065 787.97797 338.2275 789.6348 338.2275C791.2917 338.2275 792.6348 339.57065 792.6348 341.2275Z" fill-rule="nonzero"/><path fill="#000000" fill-opacity="0.0" clip-path="url(#id_0)" d="M802.7187 341.2275C802.7187 342.88434 801.37555 344.2275 799.7187 344.2275C798.0618 344.2275 796.7187 342.88434 796.7187 341.2275C796.7187 339.57065 798.0618 338.2275 799.7187 338.2275C801.37555 338.2275 802.7187 339.57065 802.7187 341.2275Z" fill-rule="nonzero"/><path fill="#000000" fill-opacity="0.0" clip-path="url(#id_0)" d="M812.80255 341.2275C812.80255 342.88434 811.45935 344.2275 809.80255 344.2275C808.1457 344.2275 806.80255 342.88434 806.80255 341.2275C806.80255 339.57065 808.1457 338.2275 809.80255 338.2275C811.45935 338.2275 812.80255 339.57065 812.80255 341.2275Z" fill-rule="nonzero"/><path fill="#000000" fill-opacity="0.0" clip-path="url(#id_0)" d="M822.88635 341.2275C822.88635 342.88434 821.5432 344.2275 819.88635 344.2275C818.2295 344.2275 816.88635 342.88434 816.88635 341.2275C816.88635 339.57065 818.2295 338.2275 819.88635 338.2275C821.5432 338.2275 822.88635 339.57065 822.88635 341.2275Z" fill-rule="nonzero"/><path fill="#000000" fill-opacity="0.0" clip-path="url(#id_0)" d="M832.9702 341.2275C832.9702 342.88434 831.6271 344.2275 829.9702 344.2275C828.31335 344.2275 826.9702 342.88434 826.9702 341.2275C826.9702 339.57065 828.31335 338.2275 829.9702 338.2275C831.6271 338.2275 832.9702 339.57065 832.9702 341.2275Z" fill-rule="nonzero"/><path fill="#000000" fill-opacity="0.0" clip-path="url(#id_0)" d="M843.054 341.2275C843.054 342.88434 841.7109 344.2275 840.054 344.2275C838.39716 344.2275 837.054 342.88434 837.054 341.2275C837.054 339.57065 838.39716 338.2275 840.054 338.2275C841.7109 338.2275 843.054 339.57065 843.054 341.2275Z" fill-rule="nonzero"/><path fill="#000000" fill-opacity="0.0" clip-path="url(#id_0)" d="M853.1379 341.2275C853.1379 342.88434 851.79474 344.2275 850.1379 344.2275C848.481 344.2275 847.1379 342.88434 847.1379 341.2275C847.1379 339.57065 848.481 338.2275 850.1379 338.2275C851.79474 338.2275 853.1379 339.57065 853.1379 341.2275Z" fill-rule="nonzero"/><path fill="#000000" fill-opacity="0.0" clip-path="url(#id_0)" d="M863.22174 345.39603C863.22174 347.0529 861.8786 348.39603 860.22174 348.39603C858.5649 348.39603 857.22174 347.0529 857.22174 345.39603C857.22174 343.73917 858.5649 342.39603 860.22174 342.39603C861.8786 342.39603 863.22174 343.73917 863.22174 345.39603Z" fill-rule="nonzero"/><path fill="#000000" fill-opacity="0.0" clip-path="url(#id_0)" d="M873.30554 345.39603C873.30554 347.0529 871.9624 348.39603 870.30554 348.39603C868.6487 348.39603 867.30554 347.0529 867.30554 345.39603C867.30554 343.73917 868.6487 342.39603 870.30554 342.39603C871.9624 342.39603 873.30554 343.73917 873.30554 345.39603Z" fill-rule="nonzero"/><path fill="#000000" fill-opacity="0.0" clip-path="url(#id_0)" d="M883.3894 341.2275C883.3894 342.88434 882.04626 344.2275 880.3894 344.2275C878.73254 344.2275 877.3894 342.88434 877.3894 341.2275C877.3894 339.57065 878.73254 338.2275 880.3894 338.2275C882.04626 338.2275 883.3894 339.57065 883.3894 341.2275Z" fill-rule="nonzero"/><path fill="#000000" fill-opacity="0.0" clip-path="url(#id_0)" d="M893.4732 341.2275C893.4732 342.88434 892.13007 344.2275 890.4732 344.2275C888.8164 344.2275 887.4732 342.88434 887.4732 341.2275C887.4732 339.57065 888.8164 338.2275 890.4732 338.2275C892.13007 338.2275 893.4732 339.57065 893.4732 341.2275Z" fill-rule="nonzero"/><path fill="#000000" fill-opacity="0.0" clip-path="url(#id_0)" d="M903.55707 341.2275C903.55707 342.88434 902.2139 344.2275 900.55707 344.2275C898.9002 344.2275 897.55707 342.88434 897.55707 341.2275C897.55707 339.57065 898.9002 338.2275 900.55707 338.2275C902.2139 338.2275 903.55707 339.57065 903.55707 341.2275Z" fill-rule="nonzero"/><path fill="#000000" fill-opacity="0.0" clip-path="url(#id_0)" d="M913.6409 345.39603C913.6409 347.0529 912.2978 348.39603 910.6409 348.39603C908.9841 348.39603 907.6409 347.0529 907.6409 345.39603C907.6409 343.73917 908.9841 342.39603 910.6409 342.39603C912.2978 342.39603 913.6409 343.73917 913.6409 345.39603Z" fill-rule="nonzero"/><path fill="#000000" fill-opacity="0.0" clip-path="url(#id_0)" d="M923.72473 341.2275C923.72473 342.88434 922.3816 344.2275 920.72473 344.2275C919.0679 344.2275 917.72473 342.88434 917.72473 341.2275C917.72473 339.57065 919.0679 338.2275 920.72473 338.2275C922.3816 338.2275 923.72473 339.57065 923.72473 341.2275Z" fill-rule="nonzero"/><path fill="#000000" fill-opacity="0.0" clip-path="url(#id_0)" d="M933.8086 341.2275C933.8086 342.88434 932.46545 344.2275 930.8086 344.2275C929.15173 344.2275 927.8086 342.88434 927.8086 341.2275C927.8086 339.57065 929.15173 338.2275 930.8086 338.2275C932.46545 338.2275 933.8086 339.57065 933.8086 341.2275Z" fill-rule="nonzero"/><path fill="#000000" fill-opacity="0.0" clip-path="url(#id_0)" d="M943.8924 341.2275C943.8924 342.88434 942.54926 344.2275 940.8924 344.2275C939.2356 344.2275 937.8924 342.88434 937.8924 341.2275C937.8924 339.57065 939.2356 338.2275 940.8924 338.2275C942.54926 338.2275 943.8924 339.57065 943.8924 341.2275Z" fill-rule="nonzero"/><path fill="#000000" fill-opacity="0.0" clip-path="url(#id_0)" d="M953.97626 345.39603C953.97626 347.0529 952.6331 348.39603 950.97626 348.39603C949.3194 348.39603 947.97626 347.0529 947.97626 345.39603C947.97626 343.73917 949.3194 342.39603 950.97626 342.39603C952.6331 342.39603 953.97626 343.73917 953.97626 345.39603Z" fill-rule="nonzero"/><path fill="#000000" fill-opacity="0.0" clip-path="url(#id_0)" d="M964.0601 345.39603C964.0601 347.0529 962.717 348.39603 961.0601 348.39603C959.40326 348.39603 958.0601 347.0529 958.0601 345.39603C958.0601 343.73917 959.40326 342.39603 961.0601 342.39603C962.717 342.39603 964.0601 343.73917 964.0601 345.39603Z" fill-rule="nonzero"/><path fill="#000000" fill-opacity="0.0" clip-path="url(#id_0)" d="M974.1439 349.61667C974.1439 351.27353 972.8008 352.61667 971.1439 352.61667C969.48706 352.61667 968.1439 351.27353 968.1439 349.61667C968.1439 347.9598 969.48706 346.61667 971.1439 346.61667C972.8008 346.61667 974.1439 347.9598 974.1439 349.61667Z" fill-rule="nonzero"/><path fill="#000000" fill-opacity="0.0" clip-path="url(#id_0)" d="M984.2278 349.61667C984.2278 351.27353 982.88464 352.61667 981.2278 352.61667C979.5709 352.61667 978.2278 351.27353 978.2278 349.61667C978.2278 347.9598 979.5709 346.61667 981.2278 346.61667C982.88464 346.61667 984.2278 347.9598 984.2278 349.61667Z" fill-rule="nonzero"/><path fill="#000000" fill-opacity="0.0" clip-path="url(#id_0)" d="M994.31165 349.61667C994.31165 351.27353 992.96844 352.61667 991.31165 352.61667C989.6548 352.61667 988.31165 351.27353 988.31165 349.61667C988.31165 347.9598 989.6548 346.61667 991.31165 346.61667C992.96844 346.61667 994.31165 347.9598 994.31165 349.61667Z" fill-rule="nonzero"/><path fill="#000000" fill-opacity="0.0" clip-path="url(#id_0)" d="M1004.39545 349.61667C1004.39545 351.27353 1003.0523 352.61667 1001.39545 352.61667C999.7386 352.61667 998.39545 351.27353 998.39545 349.61667C998.39545 347.9598 999.7386 346.61667 1001.39545 346.61667C1003.0523 346.61667 1004.39545 347.9598 1004.39545 349.61667Z" fill-rule="nonzero"/><path fill="#000000" fill-opacity="0.0" clip-path="url(#id_0)" d="M1014.4793 349.61667C1014.4793 351.27353 1013.13617 352.61667 1011.4793 352.61667C1009.82245 352.61667 1008.4793 351.27353 1008.4793 349.61667C1008.4793 347.9598 1009.82245 346.61667 1011.4793 346.61667C1013.13617 346.61667 1014.4793 347.9598 1014.4793 349.61667Z" fill-rule="nonzero"/><path fill="#000000" fill-opacity="0.0" clip-path="url(#id_0)" d="M1024.5631 349.61667C1024.5631 351.27353 1023.22 352.61667 1021.5631 352.61667C1019.90625 352.61667 1018.5631 351.27353 1018.5631 349.61667C1018.5631 347.9598 1019.90625 346.61667 1021.5631 346.61667C1023.22 346.61667 1024.5631 347.9598 1024.5631 349.61667Z" fill-rule="nonzero"/><path fill="#000000" fill-opacity="0.0" clip-path="url(#id_0)" d="M1034.647 349.61667C1034.647 351.27353 1033.3038 352.61667 1031.647 352.61667C1029.9901 352.61667 1028.647 351.27353 1028.647 349.61667C1028.647 347.9598 1029.9901 346.61667 1031.647 346.61667C1033.3038 346.61667 1034.647 347.9598 1034.647 349.61667Z" fill-rule="nonzero"/><path fill="#000000" fill-opacity="0.0" clip-path="url(#id_0)" d="M1044.7308 349.61667C1044.7308 351.27353 1043.3877 352.61667 1041.7308 352.61667C1040.074 352.61667 1038.7308 351.27353 1038.7308 349.61667C1038.7308 347.9598 1040.074 346.61667 1041.7308 346.61667C1043.3877 346.61667 1044.7308 347.9598 1044.7308 349.61667Z" fill-rule="nonzero"/><path fill="#000000" fill-opacity="0.0" clip-path="url(#id_0)" d="M1054.8147 349.61667C1054.8147 351.27353 1053.4716 352.61667 1051.8147 352.61667C1050.1578 352.61667 1048.8147 351.27353 1048.8147 349.61667C1048.8147 347.9598 1050.1578 346.61667 1051.8147 346.61667C1053.4716 346.61667 1054.8147 347.9598 1054.8147 349.61667Z" fill-rule="nonzero"/><path fill="#000000" fill-opacity="0.0" clip-path="url(#id_0)" d="M1064.8984 353.8373C1064.8984 355.49417 1063.5553 356.8373 1061.8984 356.8373C1060.2416 356.8373 1058.8984 355.49417 1058.8984 353.8373C1058.8984 352.18045 1060.2416 350.8373 1061.8984 350.8373C1063.5553 350.8373 1064.8984 352.18045 1064.8984 353.8373Z" fill-rule="nonzero"/><path fill="#000000" fill-opacity="0.0" clip-path="url(#id_0)" d="M1074.9823 353.8373C1074.9823 355.49417 1073.6392 356.8373 1071.9823 356.8373C1070.3254 356.8373 1068.9823 355.49417 1068.9823 353.8373C1068.9823 352.18045 1070.3254 350.8373 1071.9823 350.8373C1073.6392 350.8373 1074.9823 352.18045 1074.9823 353.8373Z" fill-rule="nonzero"/><path fill="#000000" fill-opacity="0.0" clip-path="url(#id_0)" d="M1085.0662 358.00583C1085.0662 359.6627 1083.723 361.00583 1082.0662 361.00583C1080.4093 361.00583 1079.0662 359.6627 1079.0662 358.00583C1079.0662 356.349 1080.4093 355.00583 1082.0662 355.00583C1083.723 355.00583 1085.0662 356.349 1085.0662 358.00583Z" fill-rule="nonzero"/><path fill="#000000" fill-opacity="0.0" clip-path="url(#id_0)" d="M1095.15 425.22345C1095.15 426.88028 1093.8069 428.22345 1092.15 428.22345C1090.4932 428.22345 1089.15 426.88028 1089.15 425.22345C1089.15 423.5666 1090.4932 422.22345 1092.15 422.22345C1093.8069 422.22345 1095.15 423.5666 1095.15 425.22345Z" fill-rule="nonzero"/><path fill="#000000" d="M575.375 659.15L572.0469 650.5563L573.28125 650.5563L575.5156 656.8063Q575.78125 657.5563 575.96875 658.2125Q576.1719 657.5094 576.4375 656.8063L578.75 650.5563L579.90625 650.5563L576.5469 659.15L575.375 659.15ZM580.40625 656.04065Q580.40625 654.3063 581.3594 653.47815Q582.15625 652.79065 583.3125 652.79065Q584.59375 652.79065 585.40625 653.6344Q586.2344 654.4625 586.2344 655.9469Q586.2344 657.15 585.875 657.8375Q585.5156 658.525 584.8125 658.91565Q584.125 659.29065 583.3125 659.29065Q582.0156 659.29065 581.2031 658.4625Q580.40625 657.6188 580.40625 656.04065ZM581.4844 656.04065Q581.4844 657.22815 582.0 657.8219Q582.53125 658.41565 583.3125 658.41565Q584.1094 658.41565 584.625 657.8219Q585.1406 657.22815 585.1406 656.0094Q585.1406 654.85315 584.6094 654.2594Q584.09375 653.66565 583.3125 653.66565Q582.53125 653.66565 582.0 654.2594Q581.4844 654.8375 581.4844 656.04065ZM587.7656 659.15L587.7656 650.5563L588.8281 650.5563L588.8281 659.15L587.7656 659.15ZM593.09375 658.2125L593.25 659.1344Q592.7969 659.22815 592.4531 659.22815Q591.875 659.22815 591.5625 659.0563Q591.25 658.8688 591.1094 658.5719Q590.9844 658.275 590.9844 657.3219L590.9844 653.7438L590.21875 653.7438L590.21875 652.9313L590.9844 652.9313L590.9844 651.3844L592.03125 650.7594L592.03125 652.9313L593.09375 652.9313L593.09375 653.7438L592.03125 653.7438L592.03125 657.3844Q592.03125 657.8375 592.0781 657.9625Q592.1406 658.0875 592.2656 658.16565Q592.3906 658.2438 592.625 658.2438Q592.8125 658.2438 593.09375 658.2125ZM597.8594 658.3844Q597.2656 658.8844 596.71875 659.0875Q596.1875 659.29065 595.5625 659.29065Q594.53125 659.29065 593.9844 658.79065Q593.4375 658.29065 593.4375 657.5094Q593.4375 657.0563 593.6406 656.6813Q593.84375 656.29065 594.1875 656.0719Q594.53125 655.8375 594.9531 655.72815Q595.25 655.6344 595.8906 655.5563Q597.15625 655.41565 597.7656 655.1969Q597.7656 654.97815 597.7656 654.9313Q597.7656 654.275 597.46875 654.0094Q597.0625 653.66565 596.2656 653.66565Q595.53125 653.66565 595.1719 653.9313Q594.8125 654.1813 594.6406 654.8375L593.6094 654.6969Q593.75 654.04065 594.0781 653.6344Q594.40625 653.22815 595.0156 653.0094Q595.625 652.79065 596.4219 652.79065Q597.21875 652.79065 597.71875 652.97815Q598.21875 653.16565 598.4531 653.4469Q598.6875 653.72815 598.78125 654.16565Q598.8281 654.4313 598.8281 655.1344L598.8281 656.54065Q598.8281 658.0094 598.8906 658.4Q598.96875 658.79065 599.1719 659.15L598.0625 659.15Q597.90625 658.8219 597.8594 658.3844ZM597.7656 656.025Q597.1875 656.2594 596.0469 656.4313Q595.3906 656.525 595.125 656.65Q594.8594 656.7594 594.7031 656.97815Q594.5625 657.1969 594.5625 657.47815Q594.5625 657.9 594.875 658.1813Q595.2031 658.4625 595.8125 658.4625Q596.4219 658.4625 596.8906 658.1969Q597.375 657.9313 597.59375 657.4625Q597.7656 657.10315 597.7656 656.41565L597.7656 656.025ZM600.59375 659.66565L601.625 659.8219Q601.6875 660.29065 601.9844 660.5094Q602.375 660.8063 603.0469 660.8063Q603.78125 660.8063 604.1719 660.5094Q604.5781 660.2125 604.71875 659.6969Q604.8125 659.3688 604.7969 658.3375Q604.1094 659.15 603.0781 659.15Q601.7969 659.15 601.09375 658.22815Q600.3906 657.29065 600.3906 656.0094Q600.3906 655.1188 600.7031 654.3688Q601.03125 653.60315 601.6406 653.1969Q602.25 652.79065 603.0781 652.79065Q604.1875 652.79065 604.90625 653.6813L604.90625 652.9313L605.875 652.9313L605.875 658.3063Q605.875 659.7594 605.5781 660.3688Q605.28125 660.97815 604.6406 661.3219Q604.0 661.6813 603.0625 661.6813Q601.9531 661.6813 601.2656 661.1813Q600.5781 660.6813 600.59375 659.66565ZM601.46875 655.9313Q601.46875 657.15 601.9531 657.7125Q602.4375 658.275 603.1719 658.275Q603.90625 658.275 604.3906 657.7125Q604.8906 657.15 604.8906 655.9625Q604.8906 654.8219 604.375 654.2438Q603.875 653.66565 603.15625 653.66565Q602.4531 653.66565 601.9531 654.2438Q601.46875 654.8063 601.46875 655.9313ZM612.0469 657.15L613.1406 657.275Q612.8906 658.22815 612.1875 658.7594Q611.4844 659.29065 610.40625 659.29065Q609.0469 659.29065 608.2344 658.4469Q607.4375 657.60315 607.4375 656.0875Q607.4375 654.525 608.25 653.66565Q609.0625 652.79065 610.34375 652.79065Q611.59375 652.79065 612.375 653.6344Q613.1719 654.47815 613.1719 656.025Q613.1719 656.1188 613.1719 656.3063L608.53125 656.3063Q608.59375 657.3375 609.1094 657.8844Q609.625 658.41565 610.40625 658.41565Q610.9844 658.41565 611.3906 658.1188Q611.8125 657.8063 612.0469 657.15ZM608.59375 655.4469L612.0625 655.4469Q612.0 654.65 611.6719 654.2594Q611.15625 653.65 610.3594 653.65Q609.625 653.65 609.125 654.1344Q608.6406 654.6188 608.59375 655.4469Z" fill-rule="nonzero"/><path fill="#000000" d="M45.850025 364.3198L39.631275 364.3198L39.631275 363.3823L40.506275 363.3823Q40.037525 363.08542 39.7719 362.60104Q39.49065 362.11667 39.49065 361.49167Q39.49065 360.80417 39.7719 360.36667Q40.05315 359.91354 40.568775 359.74167Q39.49065 358.99167 39.49065 357.8198Q39.49065 356.8823 40.006275 356.39792Q40.506275 355.89792 41.5844 355.89792L45.850025 355.89792L45.850025 356.9448L41.92815 356.9448Q41.30315 356.9448 41.0219 357.05417Q40.74065 357.14792 40.568775 357.41354Q40.3969 357.67917 40.3969 358.05417Q40.3969 358.71042 40.8344 359.14792Q41.2719 359.5698 42.24065 359.5698L45.850025 359.5698L45.850025 360.6323L41.80315 360.6323Q41.100025 360.6323 40.756275 360.89792Q40.3969 361.14792 40.3969 361.72604Q40.3969 362.17917 40.631275 362.55417Q40.86565 362.92917 41.318775 363.10104Q41.7719 363.27292 42.61565 363.27292L45.850025 363.27292L45.850025 364.3198ZM45.850025 351.74167L37.256275 355.0698L37.256275 353.83542L43.506275 351.60104Q44.256275 351.33542 44.912525 351.14792Q44.2094 350.9448 43.506275 350.67917L37.256275 348.36667L37.256275 347.21042L45.850025 350.5698L45.850025 351.74167Z" fill-rule="nonzero"/><path fill="#000000" d="M70.225 611.5719L70.225 610.5094L73.475 610.5094L73.475 611.5719L70.225 611.5719ZM74.35 611.9L75.45937 611.8063Q75.58437 612.6188 76.02187 613.025Q76.475 613.4313 77.11562 613.4313Q77.86562 613.4313 78.39687 612.85315Q78.92812 612.275 78.92812 611.3375Q78.92812 610.4313 78.4125 609.91565Q77.9125 609.3844 77.08437 609.3844Q76.58437 609.3844 76.1625 609.6188Q75.75625 609.85315 75.52187 610.2125L74.5375 610.0875L75.36562 605.6813L79.64687 605.6813L79.64687 606.6813L76.20937 606.6813L75.75625 608.9938Q76.52187 608.4469 77.36562 608.4469Q78.49062 608.4469 79.25625 609.22815Q80.0375 610.0094 80.0375 611.2438Q80.0375 612.4 79.36562 613.2594Q78.5375 614.29065 77.11562 614.29065Q75.94375 614.29065 75.19375 613.6344Q74.45937 612.97815 74.35 611.9ZM81.35 609.91565Q81.35 608.3844 81.6625 607.4625Q81.975 606.525 82.58437 606.025Q83.20937 605.525 84.14687 605.525Q84.83437 605.525 85.35 605.8063Q85.88125 606.0875 86.225 606.6188Q86.56875 607.1344 86.75625 607.8844Q86.94375 608.6344 86.94375 609.91565Q86.94375 611.4313 86.63125 612.35315Q86.33437 613.275 85.70937 613.79065Q85.1 614.29065 84.14687 614.29065Q82.9125 614.29065 82.19375 613.4Q81.35 612.3375 81.35 609.91565ZM82.42812 609.91565Q82.42812 612.025 82.92812 612.72815Q83.42812 613.4313 84.14687 613.4313Q84.88125 613.4313 85.36562 612.72815Q85.86562 612.025 85.86562 609.91565Q85.86562 607.79065 85.36562 607.10315Q84.88125 606.4 84.13125 606.4Q83.4125 606.4 82.975 607.0094Q82.42812 607.79065 82.42812 609.91565Z" fill-rule="nonzero"/><path fill="#000000" d="M70.225 546.43854L70.225 545.37604L73.475 545.37604L73.475 546.43854L70.225 546.43854ZM74.35 546.75104L75.4125 546.6104Q75.58437 547.50104 76.02187 547.9073Q76.45937 548.2979 77.08437 548.2979Q77.83437 548.2979 78.35 547.7823Q78.86562 547.26666 78.86562 546.50104Q78.86562 545.7823 78.38125 545.31354Q77.9125 544.82916 77.17812 544.82916Q76.88125 544.82916 76.42812 544.95416L76.55312 544.01666Q76.6625 544.0323 76.725 544.0323Q77.39687 544.0323 77.92812 543.68854Q78.475 543.32916 78.475 542.5948Q78.475 542.01666 78.08437 541.64166Q77.69375 541.25104 77.06875 541.25104Q76.45937 541.25104 76.0375 541.64166Q75.63125 542.0323 75.52187 542.7979L74.45937 542.6104Q74.64687 541.56354 75.33437 540.9854Q76.02187 540.39166 77.0375 540.39166Q77.74062 540.39166 78.33437 540.70416Q78.92812 541.00104 79.24062 541.51666Q79.55312 542.0323 79.55312 542.62604Q79.55312 543.1729 79.25625 543.64166Q78.95937 544.0948 78.38125 544.3604Q79.13125 544.5323 79.55312 545.0948Q79.975 545.64166 79.975 546.4854Q79.975 547.6104 79.14687 548.39166Q78.33437 549.1729 77.08437 549.1729Q75.95937 549.1729 75.20937 548.50104Q74.45937 547.81354 74.35 546.75104ZM82.975 544.3604Q82.31875 544.1104 81.99062 543.6729Q81.67812 543.2198 81.67812 542.6104Q81.67812 541.6729 82.35 541.0323Q83.0375 540.39166 84.14687 540.39166Q85.27187 540.39166 85.95937 541.0479Q86.64687 541.70416 86.64687 542.64166Q86.64687 543.2354 86.33437 543.6729Q86.02187 544.1104 85.38125 544.3604Q86.17812 544.6104 86.58437 545.18854Q86.99062 545.76666 86.99062 546.56354Q86.99062 547.6573 86.20937 548.4073Q85.44375 549.1573 84.1625 549.1573Q82.89687 549.1573 82.11562 548.4073Q81.33437 547.6573 81.33437 546.5323Q81.33437 545.68854 81.75625 545.12604Q82.19375 544.56354 82.975 544.3604ZM82.75625 542.56354Q82.75625 543.1729 83.14687 543.56354Q83.55312 543.95416 84.17812 543.95416Q84.7875 543.95416 85.17812 543.57916Q85.56875 543.18854 85.56875 542.62604Q85.56875 542.0479 85.1625 541.6573Q84.75625 541.25104 84.1625 541.25104Q83.55312 541.25104 83.14687 541.64166Q82.75625 542.0323 82.75625 542.56354ZM82.42812 546.5323Q82.42812 546.9854 82.63125 547.4073Q82.85 547.82916 83.27187 548.06354Q83.69375 548.2979 84.17812 548.2979Q84.92812 548.2979 85.4125 547.81354Q85.9125 547.32916 85.9125 546.57916Q85.9125 545.81354 85.4125 545.31354Q84.9125 544.81354 84.14687 544.81354Q83.39687 544.81354 82.9125 545.31354Q82.42812 545.7979 82.42812 546.5323Z" fill-rule="nonzero"/><path fill="#000000" d="M70.225 481.3052L70.225 480.2427L73.475 480.2427L73.475 481.3052L70.225 481.3052ZM79.89687 482.8677L79.89687 483.88333L74.20937 483.88333Q74.20937 483.50833 74.33437 483.14896Q74.55312 482.57083 75.02187 482.00833Q75.50625 481.44583 76.4125 480.71146Q77.81875 479.5552 78.30312 478.88333Q78.80312 478.21146 78.80312 477.6177Q78.80312 476.9927 78.35 476.57083Q77.89687 476.13333 77.17812 476.13333Q76.4125 476.13333 75.95937 476.58646Q75.50625 477.03958 75.49062 477.85208L74.4125 477.7427Q74.52187 476.52396 75.24062 475.89896Q75.975 475.25833 77.20937 475.25833Q78.44375 475.25833 79.1625 475.94583Q79.88125 476.63333 79.88125 477.64896Q79.88125 478.16458 79.6625 478.66458Q79.45937 479.14896 78.95937 479.71146Q78.475 480.25833 77.35 481.21146Q76.39687 482.00833 76.11562 482.3052Q75.85 482.58646 75.67812 482.8677L79.89687 482.8677ZM81.35 481.63333L82.45937 481.53958Q82.58437 482.35208 83.02187 482.75833Q83.475 483.16458 84.11562 483.16458Q84.86562 483.16458 85.39687 482.58646Q85.92812 482.00833 85.92812 481.07083Q85.92812 480.16458 85.4125 479.64896Q84.9125 479.1177 84.08437 479.1177Q83.58437 479.1177 83.1625 479.35208Q82.75625 479.58646 82.52187 479.94583L81.5375 479.82083L82.36562 475.41458L86.64687 475.41458L86.64687 476.41458L83.20937 476.41458L82.75625 478.72708Q83.52187 478.1802 84.36562 478.1802Q85.49062 478.1802 86.25625 478.96146Q87.0375 479.7427 87.0375 480.97708Q87.0375 482.13333 86.36562 482.9927Q85.5375 484.02396 84.11562 484.02396Q82.94375 484.02396 82.19375 483.3677Q81.45937 482.71146 81.35 481.63333Z" fill-rule="nonzero"/><path fill="#000000" d="M70.225 416.17188L70.225 415.10938L73.475 415.10938L73.475 416.17188L70.225 416.17188ZM78.31875 418.75L77.27187 418.75L77.27187 412.03125Q76.88125 412.39062 76.25625 412.76562Q75.64687 413.125 75.1625 413.29688L75.1625 412.28125Q76.0375 411.85938 76.69375 411.28125Q77.36562 410.6875 77.64687 410.125L78.31875 410.125L78.31875 418.75ZM81.35 416.48438L82.4125 416.34375Q82.58437 417.23438 83.02187 417.64062Q83.45937 418.03125 84.08437 418.03125Q84.83437 418.03125 85.35 417.51562Q85.86562 417.0 85.86562 416.23438Q85.86562 415.51562 85.38125 415.04688Q84.9125 414.5625 84.17812 414.5625Q83.88125 414.5625 83.42812 414.6875L83.55312 413.75Q83.6625 413.76562 83.725 413.76562Q84.39687 413.76562 84.92812 413.42188Q85.475 413.0625 85.475 412.32812Q85.475 411.75 85.08437 411.375Q84.69375 410.98438 84.06875 410.98438Q83.45937 410.98438 83.0375 411.375Q82.63125 411.76562 82.52187 412.53125L81.45937 412.34375Q81.64687 411.29688 82.33437 410.71875Q83.02187 410.125 84.0375 410.125Q84.74062 410.125 85.33437 410.4375Q85.92812 410.73438 86.24062 411.25Q86.55312 411.76562 86.55312 412.35938Q86.55312 412.90625 86.25625 413.375Q85.95937 413.82812 85.38125 414.09375Q86.13125 414.26562 86.55312 414.82812Q86.975 415.375 86.975 416.21875Q86.975 417.34375 86.14687 418.125Q85.33437 418.90625 84.08437 418.90625Q82.95937 418.90625 82.20937 418.23438Q81.45937 417.54688 81.35 416.48438Z" fill-rule="nonzero"/><path fill="#000000" d="M81.35 349.3823Q81.35 347.85104 81.6625 346.92917Q81.975 345.99167 82.58437 345.49167Q83.20937 344.99167 84.14687 344.99167Q84.83437 344.99167 85.35 345.27292Q85.88125 345.55417 86.225 346.08542Q86.56875 346.60104 86.75625 347.35104Q86.94375 348.10104 86.94375 349.3823Q86.94375 350.89792 86.63125 351.8198Q86.33437 352.74167 85.70937 353.2573Q85.1 353.7573 84.14687 353.7573Q82.9125 353.7573 82.19375 352.86667Q81.35 351.80417 81.35 349.3823ZM82.42812 349.3823Q82.42812 351.49167 82.92812 352.1948Q83.42812 352.89792 84.14687 352.89792Q84.88125 352.89792 85.36562 352.1948Q85.86562 351.49167 85.86562 349.3823Q85.86562 347.2573 85.36562 346.5698Q84.88125 345.86667 84.13125 345.86667Q83.4125 345.86667 82.975 346.47604Q82.42812 347.2573 82.42812 349.3823Z" fill-rule="nonzero"/><path fill="#000000" d="M78.31875 288.48334L77.27187 288.48334L77.27187 281.7646Q76.88125 282.12396 76.25625 282.49896Q75.64687 282.85834 75.1625 283.0302L75.1625 282.0146Q76.0375 281.5927 76.69375 281.0146Q77.36562 280.42084 77.64687 279.85834L78.31875 279.85834L78.31875 288.48334ZM81.35 286.2177L82.4125 286.0771Q82.58437 286.9677 83.02187 287.37396Q83.45937 287.7646 84.08437 287.7646Q84.83437 287.7646 85.35 287.24896Q85.86562 286.73334 85.86562 285.9677Q85.86562 285.24896 85.38125 284.7802Q84.9125 284.29584 84.17812 284.29584Q83.88125 284.29584 83.42812 284.42084L83.55312 283.48334Q83.6625 283.49896 83.725 283.49896Q84.39687 283.49896 84.92812 283.1552Q85.475 282.79584 85.475 282.06146Q85.475 281.48334 85.08437 281.10834Q84.69375 280.7177 84.06875 280.7177Q83.45937 280.7177 83.0375 281.10834Q82.63125 281.49896 82.52187 282.2646L81.45937 282.0771Q81.64687 281.0302 82.33437 280.4521Q83.02187 279.85834 84.0375 279.85834Q84.74062 279.85834 85.33437 280.17084Q85.92812 280.4677 86.24062 280.98334Q86.55312 281.49896 86.55312 282.0927Q86.55312 282.6396 86.25625 283.10834Q85.95937 283.56146 85.38125 283.8271Q86.13125 283.99896 86.55312 284.56146Q86.975 285.10834 86.975 285.9521Q86.975 287.0771 86.14687 287.85834Q85.33437 288.6396 84.08437 288.6396Q82.95937 288.6396 82.20937 287.9677Q81.45937 287.2802 81.35 286.2177Z" fill-rule="nonzero"/><path fill="#000000" d="M79.89687 222.33438L79.89687 223.35L74.20937 223.35Q74.20937 222.975 74.33437 222.61563Q74.55312 222.0375 75.02187 221.475Q75.50625 220.9125 76.4125 220.17813Q77.81875 219.02188 78.30312 218.35Q78.80312 217.67813 78.80312 217.08438Q78.80312 216.45938 78.35 216.0375Q77.89687 215.6 77.17812 215.6Q76.4125 215.6 75.95937 216.05313Q75.50625 216.50626 75.49062 217.31876L74.4125 217.20938Q74.52187 215.99063 75.24062 215.36563Q75.975 214.725 77.20937 214.725Q78.44375 214.725 79.1625 215.4125Q79.88125 216.1 79.88125 217.11563Q79.88125 217.63126 79.6625 218.13126Q79.45937 218.61563 78.95937 219.17813Q78.475 219.725 77.35 220.67813Q76.39687 221.475 76.11562 221.77188Q75.85 222.05313 75.67812 222.33438L79.89687 222.33438ZM81.35 221.1L82.45937 221.00626Q82.58437 221.81876 83.02187 222.225Q83.475 222.63126 84.11562 222.63126Q84.86562 222.63126 85.39687 222.05313Q85.92812 221.475 85.92812 220.5375Q85.92812 219.63126 85.4125 219.11563Q84.9125 218.58438 84.08437 218.58438Q83.58437 218.58438 83.1625 218.81876Q82.75625 219.05313 82.52187 219.4125L81.5375 219.2875L82.36562 214.88126L86.64687 214.88126L86.64687 215.88126L83.20937 215.88126L82.75625 218.19376Q83.52187 217.64688 84.36562 217.64688Q85.49062 217.64688 86.25625 218.42813Q87.0375 219.20938 87.0375 220.44376Q87.0375 221.6 86.36562 222.45938Q85.5375 223.49063 84.11562 223.49063Q82.94375 223.49063 82.19375 222.83438Q81.45937 222.17813 81.35 221.1Z" fill-rule="nonzero"/><path fill="#000000" d="M74.35 155.95103L75.4125 155.81041Q75.58437 156.70103 76.02187 157.10728Q76.45937 157.49791 77.08437 157.49791Q77.83437 157.49791 78.35 156.98228Q78.86562 156.46666 78.86562 155.70103Q78.86562 154.98228 78.38125 154.51353Q77.9125 154.02916 77.17812 154.02916Q76.88125 154.02916 76.42812 154.15416L76.55312 153.21666Q76.6625 153.23228 76.725 153.23228Q77.39687 153.23228 77.92812 152.88853Q78.475 152.52916 78.475 151.79478Q78.475 151.21666 78.08437 150.84166Q77.69375 150.45103 77.06875 150.45103Q76.45937 150.45103 76.0375 150.84166Q75.63125 151.23228 75.52187 151.99791L74.45937 151.81041Q74.64687 150.76353 75.33437 150.18541Q76.02187 149.59166 77.0375 149.59166Q77.74062 149.59166 78.33437 149.90416Q78.92812 150.20103 79.24062 150.71666Q79.55312 151.23228 79.55312 151.82603Q79.55312 152.37291 79.25625 152.84166Q78.95937 153.29478 78.38125 153.56041Q79.13125 153.73228 79.55312 154.29478Q79.975 154.84166 79.975 155.68541Q79.975 156.81041 79.14687 157.59166Q78.33437 158.37291 77.08437 158.37291Q75.95937 158.37291 75.20937 157.70103Q74.45937 157.01353 74.35 155.95103ZM82.975 153.56041Q82.31875 153.31041 81.99062 152.87291Q81.67812 152.41978 81.67812 151.81041Q81.67812 150.87291 82.35 150.23228Q83.0375 149.59166 84.14687 149.59166Q85.27187 149.59166 85.95937 150.24791Q86.64687 150.90416 86.64687 151.84166Q86.64687 152.43541 86.33437 152.87291Q86.02187 153.31041 85.38125 153.56041Q86.17812 153.81041 86.58437 154.38853Q86.99062 154.96666 86.99062 155.76353Q86.99062 156.85728 86.20937 157.60728Q85.44375 158.35728 84.1625 158.35728Q82.89687 158.35728 82.11562 157.60728Q81.33437 156.85728 81.33437 155.73228Q81.33437 154.88853 81.75625 154.32603Q82.19375 153.76353 82.975 153.56041ZM82.75625 151.76353Q82.75625 152.37291 83.14687 152.76353Q83.55312 153.15416 84.17812 153.15416Q84.7875 153.15416 85.17812 152.77916Q85.56875 152.38853 85.56875 151.82603Q85.56875 151.24791 85.1625 150.85728Q84.75625 150.45103 84.1625 150.45103Q83.55312 150.45103 83.14687 150.84166Q82.75625 151.23228 82.75625 151.76353ZM82.42812 155.73228Q82.42812 156.18541 82.63125 156.60728Q82.85 157.02916 83.27187 157.26353Q83.69375 157.49791 84.17812 157.49791Q84.92812 157.49791 85.4125 157.01353Q85.9125 156.52916 85.9125 155.77916Q85.9125 155.01353 85.4125 154.51353Q84.9125 154.01353 84.14687 154.01353Q83.39687 154.01353 82.9125 154.51353Q82.42812 154.99791 82.42812 155.73228Z" fill-rule="nonzero"/><path fill="#000000" d="M74.35 90.833336L75.45937 90.739586Q75.58437 91.552086 76.02187 91.958336Q76.475 92.364586 77.11562 92.364586Q77.86562 92.364586 78.39687 91.78646Q78.92812 91.208336 78.92812 90.270836Q78.92812 89.364586 78.4125 88.84896Q77.9125 88.31771 77.08437 88.31771Q76.58437 88.31771 76.1625 88.552086Q75.75625 88.78646 75.52187 89.145836L74.5375 89.020836L75.36562 84.614586L79.64687 84.614586L79.64687 85.614586L76.20937 85.614586L75.75625 87.927086Q76.52187 87.38021 77.36562 87.38021Q78.49062 87.38021 79.25625 88.16146Q80.0375 88.94271 80.0375 90.177086Q80.0375 91.333336 79.36562 92.19271Q78.5375 93.22396 77.11562 93.22396Q75.94375 93.22396 75.19375 92.56771Q74.45937 91.91146 74.35 90.833336ZM81.35 88.84896Q81.35 87.31771 81.6625 86.395836Q81.975 85.458336 82.58437 84.958336Q83.20937 84.458336 84.14687 84.458336Q84.83437 84.458336 85.35 84.739586Q85.88125 85.020836 86.225 85.552086Q86.56875 86.06771 86.75625 86.81771Q86.94375 87.56771 86.94375 88.84896Q86.94375 90.364586 86.63125 91.28646Q86.33437 92.208336 85.70937 92.72396Q85.1 93.22396 84.14687 93.22396Q82.9125 93.22396 82.19375 92.333336Q81.35 91.270836 81.35 88.84896ZM82.42812 88.84896Q82.42812 90.958336 82.92812 91.66146Q83.42812 92.364586 84.14687 92.364586Q84.88125 92.364586 85.36562 91.66146Q85.86562 90.958336 85.86562 88.84896Q85.86562 86.72396 85.36562 86.03646Q84.88125 85.333336 84.13125 85.333336Q83.4125 85.333336 82.975 85.94271Q82.42812 86.72396 82.42812 88.84896Z" fill-rule="nonzero"/><path fill="#000000" d="M90.85 622.91565Q90.85 621.3844 91.1625 620.4625Q91.475 619.525 92.08437 619.025Q92.70937 618.525 93.64687 618.525Q94.33437 618.525 94.85 618.8063Q95.38125 619.0875 95.725 619.6188Q96.06875 620.1344 96.25625 620.8844Q96.44375 621.6344 96.44375 622.91565Q96.44375 624.4313 96.13125 625.35315Q95.83437 626.275 95.20937 626.79065Q94.6 627.29065 93.64687 627.29065Q92.4125 627.29065 91.69375 626.4Q90.85 625.3375 90.85 622.91565ZM91.92812 622.91565Q91.92812 625.025 92.42812 625.72815Q92.92812 626.4313 93.64687 626.4313Q94.38125 626.4313 94.86562 625.72815Q95.36562 625.025 95.36562 622.91565Q95.36562 620.79065 94.86562 620.10315Q94.38125 619.4 93.63125 619.4Q92.9125 619.4 92.475 620.0094Q91.92812 620.79065 91.92812 622.91565Z" fill-rule="nonzero"/><path fill="#000000" d="M400.38962 627.15L399.34274 627.15L399.34274 620.4313Q398.95212 620.79065 398.32712 621.16565Q397.71774 621.525 397.23337 621.6969L397.23337 620.6813Q398.10837 620.2594 398.76462 619.6813Q399.4365 619.0875 399.71774 618.525L400.38962 618.525L400.38962 627.15Z" fill-rule="nonzero"/><path fill="#000000" d="M707.5386 626.1344L707.5386 627.15L701.8511 627.15Q701.8511 626.775 701.9761 626.41565Q702.1948 625.8375 702.6636 625.275Q703.14795 624.7125 704.0542 623.97815Q705.46045 622.8219 705.9448 622.15Q706.4448 621.47815 706.4448 620.8844Q706.4448 620.2594 705.9917 619.8375Q705.5386 619.4 704.8198 619.4Q704.0542 619.4 703.6011 619.85315Q703.14795 620.3063 703.1323 621.1188L702.0542 621.0094Q702.1636 619.79065 702.8823 619.16565Q703.6167 618.525 704.8511 618.525Q706.08545 618.525 706.8042 619.2125Q707.52295 619.9 707.52295 620.91565Q707.52295 621.4313 707.3042 621.9313Q707.1011 622.41565 706.6011 622.97815Q706.1167 623.525 704.9917 624.47815Q704.0386 625.275 703.7573 625.5719Q703.4917 625.85315 703.3198 626.1344L707.5386 626.1344Z" fill-rule="nonzero"/><path fill="#000000" d="M1007.56256 624.8844L1008.62506 624.7438Q1008.79694 625.6344 1009.23444 626.04065Q1009.67194 626.4313 1010.29694 626.4313Q1011.04694 626.4313 1011.56256 625.91565Q1012.0782 625.4 1012.0782 624.6344Q1012.0782 623.91565 1011.5938 623.4469Q1011.12506 622.9625 1010.3907 622.9625Q1010.0938 622.9625 1009.6407 623.0875L1009.7657 622.15Q1009.87506 622.16565 1009.93756 622.16565Q1010.60944 622.16565 1011.1407 621.8219Q1011.68756 621.4625 1011.68756 620.72815Q1011.68756 620.15 1011.29694 619.775Q1010.9063 619.3844 1010.2813 619.3844Q1009.67194 619.3844 1009.25006 619.775Q1008.8438 620.16565 1008.73444 620.9313L1007.67194 620.7438Q1007.85944 619.6969 1008.54694 619.1188Q1009.23444 618.525 1010.25006 618.525Q1010.9532 618.525 1011.54694 618.8375Q1012.1407 619.1344 1012.4532 619.65Q1012.7657 620.16565 1012.7657 620.7594Q1012.7657 621.3063 1012.4688 621.775Q1012.17194 622.22815 1011.5938 622.4938Q1012.3438 622.66565 1012.7657 623.22815Q1013.18756 623.775 1013.18756 624.6188Q1013.18756 625.7438 1012.35944 626.525Q1011.54694 627.3063 1010.29694 627.3063Q1009.17194 627.3063 1008.42194 626.6344Q1007.67194 625.9469 1007.56256 624.8844Z" fill-rule="nonzero"/><path fill="#757575" d="M36.428123 53.85L36.428123 39.5375L46.7875 39.5375L46.7875 41.225L38.334373 41.225L38.334373 45.6L46.240623 45.6L46.240623 47.2875L38.334373 47.2875L38.334373 52.1625L47.115623 52.1625L47.115623 53.85L36.428123 53.85ZM49.146873 53.85L49.146873 43.475L50.725 43.475L50.725 45.053123Q51.334373 43.94375 51.85 43.6Q52.365623 43.240623 52.975 43.240623Q53.865623 43.240623 54.7875 43.803123L54.178123 45.44375Q53.5375 45.053123 52.896873 45.053123Q52.31875 45.053123 51.85 45.4125Q51.396873 45.75625 51.19375 46.365623Q50.9125 47.303123 50.9125 48.4125L50.9125 53.85L49.146873 53.85ZM56.146873 53.85L56.146873 43.475L57.725 43.475L57.725 45.053123Q58.334373 43.94375 58.85 43.6Q59.365623 43.240623 59.975 43.240623Q60.865623 43.240623 61.7875 43.803123L61.178123 45.44375Q60.5375 45.053123 59.896873 45.053123Q59.31875 45.053123 58.85 45.4125Q58.396873 45.75625 58.19375 46.365623Q57.9125 47.303123 57.9125 48.4125L57.9125 53.85L56.146873 53.85ZM62.521873 48.6625Q62.521873 45.7875 64.11562 44.396873Q65.45937 43.240623 67.38125 43.240623Q69.52187 43.240623 70.86562 44.646873Q72.225 46.053123 72.225 48.521873Q72.225 50.521873 71.63125 51.678123Q71.0375 52.81875 69.88125 53.459373Q68.74062 54.084373 67.38125 54.084373Q65.19375 54.084373 63.85 52.69375Q62.521873 51.2875 62.521873 48.6625ZM64.31875 48.6625Q64.31875 50.6625 65.17812 51.646873Q66.05312 52.63125 67.38125 52.63125Q68.69375 52.63125 69.55312 51.646873Q70.42812 50.646873 70.42812 48.6Q70.42812 46.678123 69.55312 45.69375Q68.67812 44.69375 67.38125 44.69375Q66.05312 44.69375 65.17812 45.69375Q64.31875 46.678123 64.31875 48.6625ZM74.14687 53.85L74.14687 43.475L75.725 43.475L75.725 45.053123Q76.33437 43.94375 76.85 43.6Q77.36562 43.240623 77.975 43.240623Q78.86562 43.240623 79.7875 43.803123L79.17812 45.44375Q78.5375 45.053123 77.89687 45.053123Q77.31875 45.053123 76.85 45.4125Q76.39687 45.75625 76.19375 46.365623Q75.9125 47.303123 75.9125 48.4125L75.9125 53.85L74.14687 53.85Z" fill-rule="nonzero"/></svg>