<svg version="1.1" viewBox="0.0 0.0 1127.0 697.0" fill="none" stroke="none" stroke-linecap="square" stroke-miterlimit="10" width="1127" height="697" xmlns:xlink="http://www.w3.org/1999/xlink" xmlns="http://www.w3.org/2000/svg"><path fill="#ffffff" d="M0 0L1127.0 0L1127.0 697.0L0 697.0L0 0Z" fill-rule="nonzero"/><path stroke="#333333" stroke-width="1.0" stroke-linecap="butt" d="M97.5 89.5L97.5 610.5" fill-rule="nonzero"/><path stroke="#cccccc" stroke-width="1.0" stroke-linecap="butt" d="M402.5 89.5L402.5 610.5" fill-rule="nonzero"/><path stroke="#cccccc" stroke-width="1.0" stroke-linecap="butt" d="M706.5 89.5L706.5 610.5" fill-rule="nonzero"/><path stroke="#cccccc" stroke-width="1.0" stroke-linecap="butt" d="M1010.5 89.5L1010.5 610.5" fill-rule="nonzero"/><path stroke="#cccccc" stroke-width="1.0" stroke-linecap="butt" d="M97.5 610.5L1092.5 610.5" fill-rule="nonzero"/><path stroke="#cccccc" stroke-width="1.0" stroke-linecap="butt" d="M97.5 545.5L1092.5 545.5" fill-rule="nonzero"/><path stroke="#cccccc" stroke-width="1.0" stroke-linecap="butt" d="M97.5 479.5L1092.5 479.5" fill-rule="nonzero"/><path stroke="#cccccc" stroke-width="1.0" stroke-linecap="butt" d="M97.5 414.5L1092.5 414.5" fill-rule="nonzero"/><path stroke="#333333" stroke-width="1.0" stroke-linecap="butt" d="M97.5 349.5L1092.5 349.5" fill-rule="nonzero"/><path stroke="#cccccc" stroke-width="1.0" stroke-linecap="butt" d="M97.5 284.5L1092.5 284.5" fill-rule="nonzero"/><path stroke="#cccccc" stroke-width="1.0" stroke-linecap="butt" d="M97.5 219.5L1092.5 219.5" fill-rule="nonzero"/><path stroke="#cccccc" stroke-width="1.0" stroke-linecap="butt" d="M97.5 154.5L1092.5 154.5" fill-rule="nonzero"/><path stroke="#cccccc" stroke-width="1.0" stroke-linecap="butt" d="M97.5 89.5L1092.5 89.5" fill-rule="nonzero"/><path stroke="#e6e6e6" stroke-width="1.0" stroke-linecap="butt" d="M97.5 588.5L1092.5 588.5" fill-rule="nonzero"/><path stroke="#e6e6e6" stroke-width="1.0" stroke-linecap="butt" d="M97.5 566.5L1092.5 566.5" fill-rule="nonzero"/><path stroke="#e6e6e6" stroke-width="1.0" stroke-linecap="butt" d="M97.5 523.5L1092.5 523.5" fill-rule="nonzero"/><path stroke="#e6e6e6" stroke-width="1.0" stroke-linecap="butt" d="M97.5 501.5L1092.5 501.5" fill-rule="nonzero"/><path stroke="#e6e6e6" stroke-width="1.0" stroke-linecap="butt" d="M97.5 458.5L1092.5 458.5" fill-rule="nonzero"/><path stroke="#e6e6e6" stroke-width="1.0" stroke-linecap="butt" d="M97.5 436.5L1092.5 436.5" fill-rule="nonzero"/><path stroke="#e6e6e6" stroke-width="1.0" stroke-linecap="butt" d="M97.5 393.5L1092.5 393.5" fill-rule="nonzero"/><path stroke="#e6e6e6" stroke-width="1.0" stroke-linecap="butt" d="M97.5 371.5L1092.5 371.5" fill-rule="nonzero"/><path stroke="#e6e6e6" stroke-width="1.0" stroke-linecap="butt" d="M97.5 327.5L1092.5 327.5" fill-rule="nonzero"/><path stroke="#e6e6e6" stroke-width="1.0" stroke-linecap="butt" d="M97.5 306.5L1092.5 306.5" fill-rule="nonzero"/><path stroke="#e6e6e6" stroke-width="1.0" stroke-linecap="butt" d="M97.5 262.5L1092.5 262.5" fill-rule="nonzero"/><path stroke="#e6e6e6" stroke-width="1.0" stroke-linecap="butt" d="M97.5 241.5L1092.5 241.5" fill-rule="nonzero"/><path stroke="#e6e6e6" stroke-width="1.0" stroke-linecap="butt" d="M97.5 197.5L1092.5 197.5" fill-rule="nonzero"/><path stroke="#e6e6e6" stroke-width="1.0" stroke-linecap="butt" d="M97.5 175.5L1092.5 175.5" fill-rule="nonzero"/><path stroke="#e6e6e6" stroke-width="1.0" stroke-linecap="butt" d="M97.5 132.5L1092.5 132.5" fill-rule="nonzero"/><path stroke="#e6e6e6" stroke-width="1.0" stroke-linecap="butt" d="M97.5 110.5L1092.5 110.5" fill-rule="nonzero"/><clipPath id="id_0"><path d="M97.85 89.083336L1092.15 89.083336L1092.15 610.15L97.85 610.15L97.85 89.083336Z" clip-rule="nonzero"/></clipPath><path stroke="#cc0000" stroke-width="2.0" stroke-linecap="butt" clip-path="url(#id_0)" d="M97.85 166.87859L107.89343 145.8796L117.93687 156.37909L127.98027 154.29483L138.02374 158.48941L148.06717 145.8796L158.11061 150.10023L168.15404 164.79433L178.19748 160.59973L188.2409 175.29381L198.28435 162.684L208.32777 143.79533L218.37122 158.48941L228.41464 168.9889L238.45808 160.59973L248.50151 208.90262L258.54495 217.2918L268.58838 236.20651L278.6318 276.09415L288.67526 286.61972L298.7187 311.8133L308.76212 328.61768L318.80554 334.92258L328.849 341.2275L338.89243 351.727L348.93585 341.2275L358.97928 362.22647L369.02274 345.4221L379.06616 351.727L389.1096 343.31177L399.153 337.00687L409.19647 351.727L419.2399 358.00583L429.28333 343.31177L439.32678 360.11615L449.3702 343.31177L459.41364 358.00583L469.45706 353.81125L479.50052 345.4221L489.54395 358.00583L499.58737 358.00583L509.6308 362.22647L519.67426 341.2275L529.71765 345.4221L539.7611 343.31177L549.80457 358.00583L559.84796 364.31076L569.8914 358.00583L579.9349 332.81226L589.9783 347.50635L600.0217 343.31177L610.0651 364.31076L620.1086 343.31177L630.15204 366.42108L640.19543 364.31076L650.2389 345.4221L660.28235 353.81125L670.32574 347.50635L680.3692 349.61667L690.4126 362.22647L700.45605 358.00583L710.4995 362.22647L720.5429 355.92157L730.58636 355.92157L740.6298 353.81125L750.6732 345.4221L760.7167 353.81125L770.7601 334.92258L780.8035 358.00583L790.847 353.81125L800.8904 355.92157L810.93384 343.31177L820.9773 355.92157L831.0207 347.50635L841.06415 358.00583L851.1076 345.4221L861.151 358.00583L871.19446 347.50635L881.23785 337.00687L891.2813 368.53137L901.32477 337.00687L911.36816 370.61566L921.4116 364.31076L931.4551 349.61667L941.4985 343.31177L951.54193 341.2275L961.5853 360.11615L971.6288 366.42108L981.67224 366.42108L991.71564 374.81024L1001.7591 385.30972L1011.80255 381.11514L1021.84595 389.53036L1031.8894 418.91855L1041.9329 433.63867L1051.9763 442.02783L1062.0197 486.13614L1072.0631 505.05084L1082.1066 540.7439L1092.15 570.15814" fill-rule="nonzero"/><path fill="#000000" fill-opacity="0.0" clip-path="url(#id_0)" d="M100.85 166.87859C100.85 168.53545 99.50685 169.87859 97.85 169.87859C96.193146 169.87859 94.85 168.53545 94.85 166.87859C94.85 165.22173 96.193146 163.87859 97.85 163.87859C99.50685 163.87859 100.85 165.22173 100.85 166.87859Z" fill-rule="nonzero"/><path fill="#000000" fill-opacity="0.0" clip-path="url(#id_0)" d="M110.89343 145.8796C110.89343 147.53645 109.550285 148.8796 107.89343 148.8796C106.23658 148.8796 104.89343 147.53645 104.89343 145.8796C104.89343 144.22275 106.23658 142.8796 107.89343 142.8796C109.550285 142.8796 110.89343 144.22275 110.89343 145.8796Z" fill-rule="nonzero"/><path fill="#000000" fill-opacity="0.0" clip-path="url(#id_0)" d="M120.93687 156.37909C120.93687 158.03595 119.59372 159.37909 117.93687 159.37909C116.280014 159.37909 114.93687 158.03595 114.93687 156.37909C114.93687 154.72224 116.280014 153.37909 117.93687 153.37909C119.59372 153.37909 120.93687 154.72224 120.93687 156.37909Z" fill-rule="nonzero"/><path fill="#000000" fill-opacity="0.0" clip-path="url(#id_0)" d="M130.98027 154.29483C130.98027 155.95168 129.63713 157.29483 127.98027 157.29483C126.32342 157.29483 124.98027 155.95168 124.98027 154.29483C124.98027 152.63797 126.32342 151.29483 127.98027 151.29483C129.63713 151.29483 130.98027 152.63797 130.98027 154.29483Z" fill-rule="nonzero"/><path fill="#000000" fill-opacity="0.0" clip-path="url(#id_0)" d="M141.02374 158.48941C141.02374 160.14627 139.68059 161.48941 138.02374 161.48941C136.36688 161.48941 135.02374 160.14627 135.02374 158.48941C135.02374 156.83257 136.36688 155.48941 138.02374 155.48941C139.68059 155.48941 141.02374 156.83257 141.02374 158.48941Z" fill-rule="nonzero"/><path fill="#000000" fill-opacity="0.0" clip-path="url(#id_0)" d="M151.06717 145.8796C151.06717 147.53645 149.72403 148.8796 148.06717 148.8796C146.41032 148.8796 145.06717 147.53645 145.06717 145.8796C145.06717 144.22275 146.41032 142.8796 148.06717 142.8796C149.72403 142.8796 151.06717 144.22275 151.06717 145.8796Z" fill-rule="nonzero"/><path fill="#000000" fill-opacity="0.0" clip-path="url(#id_0)" d="M161.11061 150.10023C161.11061 151.7571 159.76746 153.10023 158.11061 153.10023C156.45375 153.10023 155.11061 151.7571 155.11061 150.10023C155.11061 148.44339 156.45375 147.10023 158.11061 147.10023C159.76746 147.10023 161.11061 148.44339 161.11061 150.10023Z" fill-rule="nonzero"/><path fill="#000000" fill-opacity="0.0" clip-path="url(#id_0)" d="M171.15404 164.79433C171.15404 166.45117 169.8109 167.79433 168.15404 167.79433C166.4972 167.79433 165.15404 166.45117 165.15404 164.79433C165.15404 163.13747 166.4972 161.79433 168.15404 161.79433C169.8109 161.79433 171.15404 163.13747 171.15404 164.79433Z" fill-rule="nonzero"/><path fill="#000000" fill-opacity="0.0" clip-path="url(#id_0)" d="M181.19748 160.59973C181.19748 162.25659 179.85432 163.59973 178.19748 163.59973C176.54062 163.59973 175.19748 162.25659 175.19748 160.59973C175.19748 158.94289 176.54062 157.59973 178.19748 157.59973C179.85432 157.59973 181.19748 158.94289 181.19748 160.59973Z" fill-rule="nonzero"/><path fill="#000000" fill-opacity="0.0" clip-path="url(#id_0)" d="M191.2409 175.29381C191.2409 176.95067 189.89777 178.29381 188.2409 178.29381C186.58406 178.29381 185.2409 176.95067 185.2409 175.29381C185.2409 173.63696 186.58406 172.29381 188.2409 172.29381C189.89777 172.29381 191.2409 173.63696 191.2409 175.29381Z" fill-rule="nonzero"/><path fill="#000000" fill-opacity="0.0" clip-path="url(#id_0)" d="M201.28435 162.684C201.28435 164.34085 199.9412 165.684 198.28435 165.684C196.62749 165.684 195.28435 164.34085 195.28435 162.684C195.28435 161.02715 196.62749 159.684 198.28435 159.684C199.9412 159.684 201.28435 161.02715 201.28435 162.684Z" fill-rule="nonzero"/><path fill="#000000" fill-opacity="0.0" clip-path="url(#id_0)" d="M211.32777 143.79533C211.32777 145.4522 209.98463 146.79533 208.32777 146.79533C206.67093 146.79533 205.32777 145.4522 205.32777 143.79533C205.32777 142.13847 206.67093 140.79533 208.32777 140.79533C209.98463 140.79533 211.32777 142.13847 211.32777 143.79533Z" fill-rule="nonzero"/><path fill="#000000" fill-opacity="0.0" clip-path="url(#id_0)" d="M221.37122 158.48941C221.37122 160.14627 220.02806 161.48941 218.37122 161.48941C216.71436 161.48941 215.37122 160.14627 215.37122 158.48941C215.37122 156.83257 216.71436 155.48941 218.37122 155.48941C220.02806 155.48941 221.37122 156.83257 221.37122 158.48941Z" fill-rule="nonzero"/><path fill="#000000" fill-opacity="0.0" clip-path="url(#id_0)" d="M231.41464 168.9889C231.41464 170.64577 230.0715 171.9889 228.41464 171.9889C226.7578 171.9889 225.41464 170.64577 225.41464 168.9889C225.41464 167.33205 226.7578 165.9889 228.41464 165.9889C230.0715 165.9889 231.41464 167.33205 231.41464 168.9889Z" fill-rule="nonzero"/><path fill="#000000" fill-opacity="0.0" clip-path="url(#id_0)" d="M241.45808 160.59973C241.45808 162.25659 240.11493 163.59973 238.45808 163.59973C236.80122 163.59973 235.45808 162.25659 235.45808 160.59973C235.45808 158.94289 236.80122 157.59973 238.45808 157.59973C240.11493 157.59973 241.45808 158.94289 241.45808 160.59973Z" fill-rule="nonzero"/><path fill="#000000" fill-opacity="0.0" clip-path="url(#id_0)" d="M251.50151 208.90262C251.50151 210.55946 250.15837 211.90262 248.50151 211.90262C246.84467 211.90262 245.50151 210.55946 245.50151 208.90262C245.50151 207.24576 246.84467 205.90262 248.50151 205.90262C250.15837 205.90262 251.50151 207.24576 251.50151 208.90262Z" fill-rule="nonzero"/><path fill="#000000" fill-opacity="0.0" clip-path="url(#id_0)" d="M261.54495 217.2918C261.54495 218.94864 260.2018 220.2918 258.54495 220.2918C256.8881 220.2918 255.54495 218.94864 255.54495 217.2918C255.54495 215.63493 256.8881 214.2918 258.54495 214.2918C260.2018 214.2918 261.54495 215.63493 261.54495 217.2918Z" fill-rule="nonzero"/><path fill="#000000" fill-opacity="0.0" clip-path="url(#id_0)" d="M271.58838 236.20651C271.58838 237.86336 270.24524 239.20651 268.58838 239.20651C266.93152 239.20651 265.58838 237.86336 265.58838 236.20651C265.58838 234.54965 266.93152 233.20651 268.58838 233.20651C270.24524 233.20651 271.58838 234.54965 271.58838 236.20651Z" fill-rule="nonzero"/><path fill="#000000" fill-opacity="0.0" clip-path="url(#id_0)" d="M281.6318 276.09415C281.6318 277.751 280.28867 279.09415 278.6318 279.09415C276.97498 279.09415 275.6318 277.751 275.6318 276.09415C275.6318 274.43732 276.97498 273.09415 278.6318 273.09415C280.28867 273.09415 281.6318 274.43732 281.6318 276.09415Z" fill-rule="nonzero"/><path fill="#000000" fill-opacity="0.0" clip-path="url(#id_0)" d="M291.67526 286.61972C291.67526 288.27655 290.3321 289.61972 288.67526 289.61972C287.0184 289.61972 285.67526 288.27655 285.67526 286.61972C285.67526 284.96286 287.0184 283.61972 288.67526 283.61972C290.3321 283.61972 291.67526 284.96286 291.67526 286.61972Z" fill-rule="nonzero"/><path fill="#000000" fill-opacity="0.0" clip-path="url(#id_0)" d="M301.7187 311.8133C301.7187 313.47012 300.37555 314.8133 298.7187 314.8133C297.06183 314.8133 295.7187 313.47012 295.7187 311.8133C295.7187 310.15643 297.06183 308.8133 298.7187 308.8133C300.37555 308.8133 301.7187 310.15643 301.7187 311.8133Z" fill-rule="nonzero"/><path fill="#000000" fill-opacity="0.0" clip-path="url(#id_0)" d="M311.76212 328.61768C311.76212 330.27454 310.41898 331.61768 308.76212 331.61768C307.10526 331.61768 305.76212 330.27454 305.76212 328.61768C305.76212 326.96082 307.10526 325.61768 308.76212 325.61768C310.41898 325.61768 311.76212 326.96082 311.76212 328.61768Z" fill-rule="nonzero"/><path fill="#000000" fill-opacity="0.0" clip-path="url(#id_0)" d="M321.80554 334.92258C321.80554 336.57944 320.4624 337.92258 318.80554 337.92258C317.1487 337.92258 315.80554 336.57944 315.80554 334.92258C315.80554 333.26575 317.1487 331.92258 318.80554 331.92258C320.4624 331.92258 321.80554 333.26575 321.80554 334.92258Z" fill-rule="nonzero"/><path fill="#000000" fill-opacity="0.0" clip-path="url(#id_0)" d="M331.849 341.2275C331.849 342.88434 330.50586 344.2275 328.849 344.2275C327.19214 344.2275 325.849 342.88434 325.849 341.2275C325.849 339.57065 327.19214 338.2275 328.849 338.2275C330.50586 338.2275 331.849 339.57065 331.849 341.2275Z" fill-rule="nonzero"/><path fill="#000000" fill-opacity="0.0" clip-path="url(#id_0)" d="M341.89243 351.727C341.89243 353.38385 340.5493 354.727 338.89243 354.727C337.23557 354.727 335.89243 353.38385 335.89243 351.727C335.89243 350.07013 337.23557 348.727 338.89243 348.727C340.5493 348.727 341.89243 350.07013 341.89243 351.727Z" fill-rule="nonzero"/><path fill="#000000" fill-opacity="0.0" clip-path="url(#id_0)" d="M351.93585 341.2275C351.93585 342.88434 350.5927 344.2275 348.93585 344.2275C347.279 344.2275 345.93585 342.88434 345.93585 341.2275C345.93585 339.57065 347.279 338.2275 348.93585 338.2275C350.5927 338.2275 351.93585 339.57065 351.93585 341.2275Z" fill-rule="nonzero"/><path fill="#000000" fill-opacity="0.0" clip-path="url(#id_0)" d="M361.97928 362.22647C361.97928 363.88333 360.63614 365.22647 358.97928 365.22647C357.32245 365.22647 355.97928 363.88333 355.97928 362.22647C355.97928 360.5696 357.32245 359.22647 358.97928 359.22647C360.63614 359.22647 361.97928 360.5696 361.97928 362.22647Z" fill-rule="nonzero"/><path fill="#000000" fill-opacity="0.0" clip-path="url(#id_0)" d="M372.02274 345.4221C372.02274 347.07895 370.6796 348.4221 369.02274 348.4221C367.36588 348.4221 366.02274 347.07895 366.02274 345.4221C366.02274 343.76523 367.36588 342.4221 369.02274 342.4221C370.6796 342.4221 372.02274 343.76523 372.02274 345.4221Z" fill-rule="nonzero"/><path fill="#000000" fill-opacity="0.0" clip-path="url(#id_0)" d="M382.06616 351.727C382.06616 353.38385 380.72302 354.727 379.06616 354.727C377.4093 354.727 376.06616 353.38385 376.06616 351.727C376.06616 350.07013 377.4093 348.727 379.06616 348.727C380.72302 348.727 382.06616 350.07013 382.06616 351.727Z" fill-rule="nonzero"/><path fill="#000000" fill-opacity="0.0" clip-path="url(#id_0)" d="M392.1096 343.31177C392.1096 344.96863 390.76645 346.31177 389.1096 346.31177C387.45273 346.31177 386.1096 344.96863 386.1096 343.31177C386.1096 341.6549 387.45273 340.31177 389.1096 340.31177C390.76645 340.31177 392.1096 341.6549 392.1096 343.31177Z" fill-rule="nonzero"/><path fill="#000000" fill-opacity="0.0" clip-path="url(#id_0)" d="M402.153 337.00687C402.153 338.6637 400.80988 340.00687 399.153 340.00687C397.4962 340.00687 396.153 338.6637 396.153 337.00687C396.153 335.35 397.4962 334.00687 399.153 334.00687C400.80988 334.00687 402.153 335.35 402.153 337.00687Z" fill-rule="nonzero"/><path fill="#000000" fill-opacity="0.0" clip-path="url(#id_0)" d="M412.19647 351.727C412.19647 353.38385 410.85333 354.727 409.19647 354.727C407.5396 354.727 406.19647 353.38385 406.19647 351.727C406.19647 350.07013 407.5396 348.727 409.19647 348.727C410.85333 348.727 412.19647 350.07013 412.19647 351.727Z" fill-rule="nonzero"/><path fill="#000000" fill-opacity="0.0" clip-path="url(#id_0)" d="M422.2399 358.00583C422.2399 359.6627 420.89676 361.00583 419.2399 361.00583C417.58304 361.00583 416.2399 359.6627 416.2399 358.00583C416.2399 356.349 417.58304 355.00583 419.2399 355.00583C420.89676 355.00583 422.2399 356.349 422.2399 358.00583Z" fill-rule="nonzero"/><path fill="#000000" fill-opacity="0.0" clip-path="url(#id_0)" d="M432.28333 343.31177C432.28333 344.96863 430.9402 346.31177 429.28333 346.31177C427.62646 346.31177 426.28333 344.96863 426.28333 343.31177C426.28333 341.6549 427.62646 340.31177 429.28333 340.31177C430.9402 340.31177 432.28333 341.6549 432.28333 343.31177Z" fill-rule="nonzero"/><path fill="#000000" fill-opacity="0.0" clip-path="url(#id_0)" d="M442.32678 360.11615C442.32678 361.773 440.9836 363.11615 439.32678 363.11615C437.66992 363.11615 436.32678 361.773 436.32678 360.11615C436.32678 358.45932 437.66992 357.11615 439.32678 357.11615C440.9836 357.11615 442.32678 358.45932 442.32678 360.11615Z" fill-rule="nonzero"/><path fill="#000000" fill-opacity="0.0" clip-path="url(#id_0)" d="M452.3702 343.31177C452.3702 344.96863 451.02707 346.31177 449.3702 346.31177C447.71335 346.31177 446.3702 344.96863 446.3702 343.31177C446.3702 341.6549 447.71335 340.31177 449.3702 340.31177C451.02707 340.31177 452.3702 341.6549 452.3702 343.31177Z" fill-rule="nonzero"/><path fill="#000000" fill-opacity="0.0" clip-path="url(#id_0)" d="M462.41364 358.00583C462.41364 359.6627 461.0705 361.00583 459.41364 361.00583C457.75677 361.00583 456.41364 359.6627 456.41364 358.00583C456.41364 356.349 457.75677 355.00583 459.41364 355.00583C461.0705 355.00583 462.41364 356.349 462.41364 358.00583Z" fill-rule="nonzero"/><path fill="#000000" fill-opacity="0.0" clip-path="url(#id_0)" d="M472.45706 353.81125C472.45706 355.4681 471.11392 356.81125 469.45706 356.81125C467.8002 356.81125 466.45706 355.4681 466.45706 353.81125C466.45706 352.1544 467.8002 350.81125 469.45706 350.81125C471.11392 350.81125 472.45706 352.1544 472.45706 353.81125Z" fill-rule="nonzero"/><path fill="#000000" fill-opacity="0.0" clip-path="url(#id_0)" d="M482.50052 345.4221C482.50052 347.07895 481.15735 348.4221 479.50052 348.4221C477.84366 348.4221 476.50052 347.07895 476.50052 345.4221C476.50052 343.76523 477.84366 342.4221 479.50052 342.4221C481.15735 342.4221 482.50052 343.76523 482.50052 345.4221Z" fill-rule="nonzero"/><path fill="#000000" fill-opacity="0.0" clip-path="url(#id_0)" d="M492.54395 358.00583C492.54395 359.6627 491.2008 361.00583 489.54395 361.00583C487.8871 361.00583 486.54395 359.6627 486.54395 358.00583C486.54395 356.349 487.8871 355.00583 489.54395 355.00583C491.2008 355.00583 492.54395 356.349 492.54395 358.00583Z" fill-rule="nonzero"/><path fill="#000000" fill-opacity="0.0" clip-path="url(#id_0)" d="M502.58737 358.00583C502.58737 359.6627 501.24423 361.00583 499.58737 361.00583C497.9305 361.00583 496.58737 359.6627 496.58737 358.00583C496.58737 356.349 497.9305 355.00583 499.58737 355.00583C501.24423 355.00583 502.58737 356.349 502.58737 358.00583Z" fill-rule="nonzero"/><path fill="#000000" fill-opacity="0.0" clip-path="url(#id_0)" d="M512.6308 362.22647C512.6308 363.88333 511.28766 365.22647 509.6308 365.22647C507.97397 365.22647 506.6308 363.88333 506.6308 362.22647C506.6308 360.5696 507.97397 359.22647 509.6308 359.22647C511.28766 359.22647 512.6308 360.5696 512.6308 362.22647Z" fill-rule="nonzero"/><path fill="#000000" fill-opacity="0.0" clip-path="url(#id_0)" d="M522.67426 341.2275C522.67426 342.88434 521.3311 344.2275 519.67426 344.2275C518.0174 344.2275 516.67426 342.88434 516.67426 341.2275C516.67426 339.57065 518.0174 338.2275 519.67426 338.2275C521.3311 338.2275 522.67426 339.57065 522.67426 341.2275Z" fill-rule="nonzero"/><path fill="#000000" fill-opacity="0.0" clip-path="url(#id_0)" d="M532.71765 345.4221C532.71765 347.07895 531.3745 348.4221 529.71765 348.4221C528.06085 348.4221 526.71765 347.07895 526.71765 345.4221C526.71765 343.76523 528.06085 342.4221 529.71765 342.4221C531.3745 342.4221 532.71765 343.76523 532.71765 345.4221Z" fill-rule="nonzero"/><path fill="#000000" fill-opacity="0.0" clip-path="url(#id_0)" d="M542.7611 343.31177C542.7611 344.96863 541.41797 346.31177 539.7611 346.31177C538.10425 346.31177 536.7611 344.96863 536.7611 343.31177C536.7611 341.6549 538.10425 340.31177 539.7611 340.31177C541.41797 340.31177 542.7611 341.6549 542.7611 343.31177Z" fill-rule="nonzero"/><path fill="#000000" fill-opacity="0.0" clip-path="url(#id_0)" d="M552.80457 358.00583C552.80457 359.6627 551.4614 361.00583 549.80457 361.00583C548.1477 361.00583 546.80457 359.6627 546.80457 358.00583C546.80457 356.349 548.1477 355.00583 549.80457 355.00583C551.4614 355.00583 552.80457 356.349 552.80457 358.00583Z" fill-rule="nonzero"/><path fill="#000000" fill-opacity="0.0" clip-path="url(#id_0)" d="M562.84796 364.31076C562.84796 365.9676 561.5048 367.31076 559.84796 367.31076C558.1911 367.31076 556.84796 365.9676 556.84796 364.31076C556.84796 362.6539 558.1911 361.31076 559.84796 361.31076C561.5048 361.31076 562.84796 362.6539 562.84796 364.31076Z" fill-rule="nonzero"/><path fill="#000000" fill-opacity="0.0" clip-path="url(#id_0)" d="M572.8914 358.00583C572.8914 359.6627 571.5483 361.00583 569.8914 361.00583C568.23456 361.00583 566.8914 359.6627 566.8914 358.00583C566.8914 356.349 568.23456 355.00583 569.8914 355.00583C571.5483 355.00583 572.8914 356.349 572.8914 358.00583Z" fill-rule="nonzero"/><path fill="#000000" fill-opacity="0.0" clip-path="url(#id_0)" d="M582.9349 332.81226C582.9349 334.46912 581.5917 335.81226 579.9349 335.81226C578.278 335.81226 576.9349 334.46912 576.9349 332.81226C576.9349 331.15543 578.278 329.81226 579.9349 329.81226C581.5917 329.81226 582.9349 331.15543 582.9349 332.81226Z" fill-rule="nonzero"/><path fill="#000000" fill-opacity="0.0" clip-path="url(#id_0)" d="M592.9783 347.50635C592.9783 349.1632 591.63513 350.50635 589.9783 350.50635C588.3214 350.50635 586.9783 349.1632 586.9783 347.50635C586.9783 345.8495 588.3214 344.50635 589.9783 344.50635C591.63513 344.50635 592.9783 345.8495 592.9783 347.50635Z" fill-rule="nonzero"/><path fill="#000000" fill-opacity="0.0" clip-path="url(#id_0)" d="M603.0217 343.31177C603.0217 344.96863 601.6786 346.31177 600.0217 346.31177C598.36487 346.31177 597.0217 344.96863 597.0217 343.31177C597.0217 341.6549 598.36487 340.31177 600.0217 340.31177C601.6786 340.31177 603.0217 341.6549 603.0217 343.31177Z" fill-rule="nonzero"/><path fill="#000000" fill-opacity="0.0" clip-path="url(#id_0)" d="M613.0651 364.31076C613.0651 365.9676 611.722 367.31076 610.0651 367.31076C608.4083 367.31076 607.0651 365.9676 607.0651 364.31076C607.0651 362.6539 608.4083 361.31076 610.0651 361.31076C611.722 361.31076 613.0651 362.6539 613.0651 364.31076Z" fill-rule="nonzero"/><path fill="#000000" fill-opacity="0.0" clip-path="url(#id_0)" d="M623.1086 343.31177C623.1086 344.96863 621.76544 346.31177 620.1086 346.31177C618.4517 346.31177 617.1086 344.96863 617.1086 343.31177C617.1086 341.6549 618.4517 340.31177 620.1086 340.31177C621.76544 340.31177 623.1086 341.6549 623.1086 343.31177Z" fill-rule="nonzero"/><path fill="#000000" fill-opacity="0.0" clip-path="url(#id_0)" d="M633.15204 366.42108C633.15204 368.0779 631.8089 369.42108 630.15204 369.42108C628.4952 369.42108 627.15204 368.0779 627.15204 366.42108C627.15204 364.76422 628.4952 363.42108 630.15204 363.42108C631.8089 363.42108 633.15204 364.76422 633.15204 366.42108Z" fill-rule="nonzero"/><path fill="#000000" fill-opacity="0.0" clip-path="url(#id_0)" d="M643.19543 364.31076C643.19543 365.9676 641.8523 367.31076 640.19543 367.31076C638.5386 367.31076 637.19543 365.9676 637.19543 364.31076C637.19543 362.6539 638.5386 361.31076 640.19543 361.31076C641.8523 361.31076 643.19543 362.6539 643.19543 364.31076Z" fill-rule="nonzero"/><path fill="#000000" fill-opacity="0.0" clip-path="url(#id_0)" d="M653.2389 345.4221C653.2389 347.07895 651.89575 348.4221 650.2389 348.4221C648.58203 348.4221 647.2389 347.07895 647.2389 345.4221C647.2389 343.76523 648.58203 342.4221 650.2389 342.4221C651.89575 342.4221 653.2389 343.76523 653.2389 345.4221Z" fill-rule="nonzero"/><path fill="#000000" fill-opacity="0.0" clip-path="url(#id_0)" d="M663.28235 353.81125C663.28235 355.4681 661.93915 356.81125 660.28235 356.81125C658.6255 356.81125 657.28235 355.4681 657.28235 353.81125C657.28235 352.1544 658.6255 350.81125 660.28235 350.81125C661.93915 350.81125 663.28235 352.1544 663.28235 353.81125Z" fill-rule="nonzero"/><path fill="#000000" fill-opacity="0.0" clip-path="url(#id_0)" d="M673.32574 347.50635C673.32574 349.1632 671.9826 350.50635 670.32574 350.50635C668.6689 350.50635 667.32574 349.1632 667.32574 347.50635C667.32574 345.8495 668.6689 344.50635 670.32574 344.50635C671.9826 344.50635 673.32574 345.8495 673.32574 347.50635Z" fill-rule="nonzero"/><path fill="#000000" fill-opacity="0.0" clip-path="url(#id_0)" d="M683.3692 349.61667C683.3692 351.27353 682.02606 352.61667 680.3692 352.61667C678.71234 352.61667 677.3692 351.27353 677.3692 349.61667C677.3692 347.9598 678.71234 346.61667 680.3692 346.61667C682.02606 346.61667 683.3692 347.9598 683.3692 349.61667Z" fill-rule="nonzero"/><path fill="#000000" fill-opacity="0.0" clip-path="url(#id_0)" d="M693.4126 362.22647C693.4126 363.88333 692.06946 365.22647 690.4126 365.22647C688.7558 365.22647 687.4126 363.88333 687.4126 362.22647C687.4126 360.5696 688.7558 359.22647 690.4126 359.22647C692.06946 359.22647 693.4126 360.5696 693.4126 362.22647Z" fill-rule="nonzero"/><path fill="#000000" fill-opacity="0.0" clip-path="url(#id_0)" d="M703.45605 358.00583C703.45605 359.6627 702.1129 361.00583 700.45605 361.00583C698.7992 361.00583 697.45605 359.6627 697.45605 358.00583C697.45605 356.349 698.7992 355.00583 700.45605 355.00583C702.1129 355.00583 703.45605 356.349 703.45605 358.00583Z" fill-rule="nonzero"/><path fill="#000000" fill-opacity="0.0" clip-path="url(#id_0)" d="M713.4995 362.22647C713.4995 363.88333 712.1564 365.22647 710.4995 365.22647C708.84265 365.22647 707.4995 363.88333 707.4995 362.22647C707.4995 360.5696 708.84265 359.22647 710.4995 359.22647C712.1564 359.22647 713.4995 360.5696 713.4995 362.22647Z" fill-rule="nonzero"/><path fill="#000000" fill-opacity="0.0" clip-path="url(#id_0)" d="M723.5429 355.92157C723.5429 357.57843 722.19977 358.92157 720.5429 358.92157C718.88605 358.92157 717.5429 357.57843 717.5429 355.92157C717.5429 354.2647 718.88605 352.92157 720.5429 352.92157C722.19977 352.92157 723.5429 354.2647 723.5429 355.92157Z" fill-rule="nonzero"/><path fill="#000000" fill-opacity="0.0" clip-path="url(#id_0)" d="M733.58636 355.92157C733.58636 357.57843 732.2432 358.92157 730.58636 358.92157C728.9295 358.92157 727.58636 357.57843 727.58636 355.92157C727.58636 354.2647 728.9295 352.92157 730.58636 352.92157C732.2432 352.92157 733.58636 354.2647 733.58636 355.92157Z" fill-rule="nonzero"/><path fill="#000000" fill-opacity="0.0" clip-path="url(#id_0)" d="M743.6298 353.81125C743.6298 355.4681 742.2867 356.81125 740.6298 356.81125C738.97296 356.81125 737.6298 355.4681 737.6298 353.81125C737.6298 352.1544 738.97296 350.81125 740.6298 350.81125C742.2867 350.81125 743.6298 352.1544 743.6298 353.81125Z" fill-rule="nonzero"/><path fill="#000000" fill-opacity="0.0" clip-path="url(#id_0)" d="M753.6732 345.4221C753.6732 347.07895 752.3301 348.4221 750.6732 348.4221C749.01636 348.4221 747.6732 347.07895 747.6732 345.4221C747.6732 343.76523 749.01636 342.4221 750.6732 342.4221C752.3301 342.4221 753.6732 343.76523 753.6732 345.4221Z" fill-rule="nonzero"/><path fill="#000000" fill-opacity="0.0" clip-path="url(#id_0)" d="M763.7167 353.81125C763.7167 355.4681 762.37354 356.81125 760.7167 356.81125C759.0598 356.81125 757.7167 355.4681 757.7167 353.81125C757.7167 352.1544 759.0598 350.81125 760.7167 350.81125C762.37354 350.81125 763.7167 352.1544 763.7167 353.81125Z" fill-rule="nonzero"/><path fill="#000000" fill-opacity="0.0" clip-path="url(#id_0)" d="M773.7601 334.92258C773.7601 336.57944 772.41693 337.92258 770.7601 337.92258C769.1033 337.92258 767.7601 336.57944 767.7601 334.92258C767.7601 333.26575 769.1033 331.92258 770.7601 331.92258C772.41693 331.92258 773.7601 333.26575 773.7601 334.92258Z" fill-rule="nonzero"/><path fill="#000000" fill-opacity="0.0" clip-path="url(#id_0)" d="M783.8035 358.00583C783.8035 359.6627 782.4604 361.00583 780.8035 361.00583C779.14667 361.00583 777.8035 359.6627 777.8035 358.00583C777.8035 356.349 779.14667 355.00583 780.8035 355.00583C782.4604 355.00583 783.8035 356.349 783.8035 358.00583Z" fill-rule="nonzero"/><path fill="#000000" fill-opacity="0.0" clip-path="url(#id_0)" d="M793.847 353.81125C793.847 355.4681 792.50385 356.81125 790.847 356.81125C789.1901 356.81125 787.847 355.4681 787.847 353.81125C787.847 352.1544 789.1901 350.81125 790.847 350.81125C792.50385 350.81125 793.847 352.1544 793.847 353.81125Z" fill-rule="nonzero"/><path fill="#000000" fill-opacity="0.0" clip-path="url(#id_0)" d="M803.8904 355.92157C803.8904 357.57843 802.54724 358.92157 800.8904 358.92157C799.2335 358.92157 797.8904 357.57843 797.8904 355.92157C797.8904 354.2647 799.2335 352.92157 800.8904 352.92157C802.54724 352.92157 803.8904 354.2647 803.8904 355.92157Z" fill-rule="nonzero"/><path fill="#000000" fill-opacity="0.0" clip-path="url(#id_0)" d="M813.93384 343.31177C813.93384 344.96863 812.5907 346.31177 810.93384 346.31177C809.277 346.31177 807.93384 344.96863 807.93384 343.31177C807.93384 341.6549 809.277 340.31177 810.93384 340.31177C812.5907 340.31177 813.93384 341.6549 813.93384 343.31177Z" fill-rule="nonzero"/><path fill="#000000" fill-opacity="0.0" clip-path="url(#id_0)" d="M823.9773 355.92157C823.9773 357.57843 822.63416 358.92157 820.9773 358.92157C819.32043 358.92157 817.9773 357.57843 817.9773 355.92157C817.9773 354.2647 819.32043 352.92157 820.9773 352.92157C822.63416 352.92157 823.9773 354.2647 823.9773 355.92157Z" fill-rule="nonzero"/><path fill="#000000" fill-opacity="0.0" clip-path="url(#id_0)" d="M834.0207 347.50635C834.0207 349.1632 832.67755 350.50635 831.0207 350.50635C829.36383 350.50635 828.0207 349.1632 828.0207 347.50635C828.0207 345.8495 829.36383 344.50635 831.0207 344.50635C832.67755 344.50635 834.0207 345.8495 834.0207 347.50635Z" fill-rule="nonzero"/><path fill="#000000" fill-opacity="0.0" clip-path="url(#id_0)" d="M844.06415 358.00583C844.06415 359.6627 842.721 361.00583 841.06415 361.00583C839.4073 361.00583 838.06415 359.6627 838.06415 358.00583C838.06415 356.349 839.4073 355.00583 841.06415 355.00583C842.721 355.00583 844.06415 356.349 844.06415 358.00583Z" fill-rule="nonzero"/><path fill="#000000" fill-opacity="0.0" clip-path="url(#id_0)" d="M854.1076 345.4221C854.1076 347.07895 852.7644 348.4221 851.1076 348.4221C849.45074 348.4221 848.1076 347.07895 848.1076 345.4221C848.1076 343.76523 849.45074 342.4221 851.1076 342.4221C852.7644 342.4221 854.1076 343.76523 854.1076 345.4221Z" fill-rule="nonzero"/><path fill="#000000" fill-opacity="0.0" clip-path="url(#id_0)" d="M864.151 358.00583C864.151 359.6627 862.80786 361.00583 861.151 361.00583C859.49414 361.00583 858.151 359.6627 858.151 358.00583C858.151 356.349 859.49414 355.00583 861.151 355.00583C862.80786 355.00583 864.151 356.349 864.151 358.00583Z" fill-rule="nonzero"/><path fill="#000000" fill-opacity="0.0" clip-path="url(#id_0)" d="M874.19446 347.50635C874.19446 349.1632 872.8513 350.50635 871.19446 350.50635C869.5376 350.50635 868.19446 349.1632 868.19446 347.50635C868.19446 345.8495 869.5376 344.50635 871.19446 344.50635C872.8513 344.50635 874.19446 345.8495 874.19446 347.50635Z" fill-rule="nonzero"/><path fill="#000000" fill-opacity="0.0" clip-path="url(#id_0)" d="M884.23785 337.00687C884.23785 338.6637 882.8947 340.00687 881.23785 340.00687C879.58105 340.00687 878.23785 338.6637 878.23785 337.00687C878.23785 335.35 879.58105 334.00687 881.23785 334.00687C882.8947 334.00687 884.23785 335.35 884.23785 337.00687Z" fill-rule="nonzero"/><path fill="#000000" fill-opacity="0.0" clip-path="url(#id_0)" d="M894.2813 368.53137C894.2813 370.18823 892.9382 371.53137 891.2813 371.53137C889.62445 371.53137 888.2813 370.18823 888.2813 368.53137C888.2813 366.87454 889.62445 365.53137 891.2813 365.53137C892.9382 365.53137 894.2813 366.87454 894.2813 368.53137Z" fill-rule="nonzero"/><path fill="#000000" fill-opacity="0.0" clip-path="url(#id_0)" d="M904.32477 337.00687C904.32477 338.6637 902.9816 340.00687 901.32477 340.00687C899.6679 340.00687 898.32477 338.6637 898.32477 337.00687C898.32477 335.35 899.6679 334.00687 901.32477 334.00687C902.9816 334.00687 904.32477 335.35 904.32477 337.00687Z" fill-rule="nonzero"/><path fill="#000000" fill-opacity="0.0" clip-path="url(#id_0)" d="M914.36816 370.61566C914.36816 372.27252 913.025 373.61566 911.36816 373.61566C909.7113 373.61566 908.36816 372.27252 908.36816 370.61566C908.36816 368.9588 909.7113 367.61566 911.36816 367.61566C913.025 367.61566 914.36816 368.9588 914.36816 370.61566Z" fill-rule="nonzero"/><path fill="#000000" fill-opacity="0.0" clip-path="url(#id_0)" d="M924.4116 364.31076C924.4116 365.9676 923.0685 367.31076 921.4116 367.31076C919.75476 367.31076 918.4116 365.9676 918.4116 364.31076C918.4116 362.6539 919.75476 361.31076 921.4116 361.31076C923.0685 361.31076 924.4116 362.6539 924.4116 364.31076Z" fill-rule="nonzero"/><path fill="#000000" fill-opacity="0.0" clip-path="url(#id_0)" d="M934.4551 349.61667C934.4551 351.27353 933.1119 352.61667 931.4551 352.61667C929.7982 352.61667 928.4551 351.27353 928.4551 349.61667C928.4551 347.9598 929.7982 346.61667 931.4551 346.61667C933.1119 346.61667 934.4551 347.9598 934.4551 349.61667Z" fill-rule="nonzero"/><path fill="#000000" fill-opacity="0.0" clip-path="url(#id_0)" d="M944.4985 343.31177C944.4985 344.96863 943.15533 346.31177 941.4985 346.31177C939.8416 346.31177 938.4985 344.96863 938.4985 343.31177C938.4985 341.6549 939.8416 340.31177 941.4985 340.31177C943.15533 340.31177 944.4985 341.6549 944.4985 343.31177Z" fill-rule="nonzero"/><path fill="#000000" fill-opacity="0.0" clip-path="url(#id_0)" d="M954.54193 341.2275C954.54193 342.88434 953.1988 344.2275 951.54193 344.2275C949.8851 344.2275 948.54193 342.88434 948.54193 341.2275C948.54193 339.57065 949.8851 338.2275 951.54193 338.2275C953.1988 338.2275 954.54193 339.57065 954.54193 341.2275Z" fill-rule="nonzero"/><path fill="#000000" fill-opacity="0.0" clip-path="url(#id_0)" d="M964.5853 360.11615C964.5853 361.773 963.2422 363.11615 961.5853 363.11615C959.9285 363.11615 958.5853 361.773 958.5853 360.11615C958.5853 358.45932 959.9285 357.11615 961.5853 357.11615C963.2422 357.11615 964.5853 358.45932 964.5853 360.11615Z" fill-rule="nonzero"/><path fill="#000000" fill-opacity="0.0" clip-path="url(#id_0)" d="M974.6288 366.42108C974.6288 368.0779 973.28564 369.42108 971.6288 369.42108C969.9719 369.42108 968.6288 368.0779 968.6288 366.42108C968.6288 364.76422 969.9719 363.42108 971.6288 363.42108C973.28564 363.42108 974.6288 364.76422 974.6288 366.42108Z" fill-rule="nonzero"/><path fill="#000000" fill-opacity="0.0" clip-path="url(#id_0)" d="M984.67224 366.42108C984.67224 368.0779 983.3291 369.42108 981.67224 369.42108C980.0154 369.42108 978.67224 368.0779 978.67224 366.42108C978.67224 364.76422 980.0154 363.42108 981.67224 363.42108C983.3291 363.42108 984.67224 364.76422 984.67224 366.42108Z" fill-rule="nonzero"/><path fill="#000000" fill-opacity="0.0" clip-path="url(#id_0)" d="M994.71564 374.81024C994.71564 376.4671 993.3725 377.81024 991.71564 377.81024C990.0588 377.81024 988.71564 376.4671 988.71564 374.81024C988.71564 373.15338 990.0588 371.81024 991.71564 371.81024C993.3725 371.81024 994.71564 373.15338 994.71564 374.81024Z" fill-rule="nonzero"/><path fill="#000000" fill-opacity="0.0" clip-path="url(#id_0)" d="M1004.7591 385.30972C1004.7591 386.96658 1003.41595 388.30972 1001.7591 388.30972C1000.10223 388.30972 998.7591 386.96658 998.7591 385.30972C998.7591 383.6529 1000.10223 382.30972 1001.7591 382.30972C1003.41595 382.30972 1004.7591 383.6529 1004.7591 385.30972Z" fill-rule="nonzero"/><path fill="#000000" fill-opacity="0.0" clip-path="url(#id_0)" d="M1014.80255 381.11514C1014.80255 382.772 1013.45935 384.11514 1011.80255 384.11514C1010.1457 384.11514 1008.80255 382.772 1008.80255 381.11514C1008.80255 379.45828 1010.1457 378.11514 1011.80255 378.11514C1013.45935 378.11514 1014.80255 379.45828 1014.80255 381.11514Z" fill-rule="nonzero"/><path fill="#000000" fill-opacity="0.0" clip-path="url(#id_0)" d="M1024.846 389.53036C1024.846 391.18723 1023.5028 392.53036 1021.84595 392.53036C1020.1891 392.53036 1018.84595 391.18723 1018.84595 389.53036C1018.84595 387.8735 1020.1891 386.53036 1021.84595 386.53036C1023.5028 386.53036 1024.846 387.8735 1024.846 389.53036Z" fill-rule="nonzero"/><path fill="#000000" fill-opacity="0.0" clip-path="url(#id_0)" d="M1034.8894 418.91855C1034.8894 420.57538 1033.5463 421.91855 1031.8894 421.91855C1030.2325 421.91855 1028.8894 420.57538 1028.8894 418.91855C1028.8894 417.2617 1030.2325 415.91855 1031.8894 415.91855C1033.5463 415.91855 1034.8894 417.2617 1034.8894 418.91855Z" fill-rule="nonzero"/><path fill="#000000" fill-opacity="0.0" clip-path="url(#id_0)" d="M1044.9329 433.63867C1044.9329 435.29553 1043.5897 436.63867 1041.9329 436.63867C1040.276 436.63867 1038.9329 435.29553 1038.9329 433.63867C1038.9329 431.9818 1040.276 430.63867 1041.9329 430.63867C1043.5897 430.63867 1044.9329 431.9818 1044.9329 433.63867Z" fill-rule="nonzero"/><path fill="#000000" fill-opacity="0.0" clip-path="url(#id_0)" d="M1054.9763 442.02783C1054.9763 443.6847 1053.633 445.02783 1051.9763 445.02783C1050.3195 445.02783 1048.9763 443.6847 1048.9763 442.02783C1048.9763 440.37097 1050.3195 439.02783 1051.9763 439.02783C1053.633 439.02783 1054.9763 440.37097 1054.9763 442.02783Z" fill-rule="nonzero"/><path fill="#000000" fill-opacity="0.0" clip-path="url(#id_0)" d="M1065.0197 486.13614C1065.0197 487.793 1063.6765 489.13614 1062.0197 489.13614C1060.3628 489.13614 1059.0197 487.793 1059.0197 486.13614C1059.0197 484.47928 1060.3628 483.13614 1062.0197 483.13614C1063.6765 483.13614 1065.0197 484.47928 1065.0197 486.13614Z" fill-rule="nonzero"/><path fill="#000000" fill-opacity="0.0" clip-path="url(#id_0)" d="M1075.0631 505.05084C1075.0631 506.7077 1073.72 508.05084 1072.0631 508.05084C1070.4062 508.05084 1069.0631 506.7077 1069.0631 505.05084C1069.0631 503.394 1070.4062 502.05084 1072.0631 502.05084C1073.72 502.05084 1075.0631 503.394 1075.0631 505.05084Z" fill-rule="nonzero"/><path fill="#000000" fill-opacity="0.0" clip-path="url(#id_0)" d="M1085.1066 540.7439C1085.1066 542.40076 1083.7634 543.7439 1082.1066 543.7439C1080.4497 543.7439 1079.1066 542.40076 1079.1066 540.7439C1079.1066 539.08704 1080.4497 537.7439 1082.1066 537.7439C1083.7634 537.7439 1085.1066 539.08704 1085.1066 540.7439Z" fill-rule="nonzero"/><path fill="#000000" fill-opacity="0.0" clip-path="url(#id_0)" d="M1095.15 570.15814C1095.15 571.815 1093.8069 573.15814 1092.15 573.15814C1090.4932 573.15814 1089.15 571.815 1089.15 570.15814C1089.15 568.5013 1090.4932 567.15814 1092.15 567.15814C1093.8069 567.15814 1095.15 568.5013 1095.15 570.15814Z" fill-rule="nonzero"/><path fill="#000000" d="M577.375 659.15L574.0469 650.5563L575.28125 650.5563L577.5156 656.8063Q577.78125 657.5563 577.96875 658.2125Q578.1719 657.5094 578.4375 656.8063L580.75 650.5563L581.90625 650.5563L578.5469 659.15L577.375 659.15ZM582.40625 656.04065Q582.40625 654.3063 583.3594 653.47815Q584.15625 652.79065 585.3125 652.79065Q586.59375 652.79065 587.40625 653.6344Q588.2344 654.4625 588.2344 655.9469Q588.2344 657.15 587.875 657.8375Q587.5156 658.525 586.8125 658.91565Q586.125 659.29065 585.3125 659.29065Q584.0156 659.29065 583.2031 658.4625Q582.40625 657.6188 582.40625 656.04065ZM583.4844 656.04065Q583.4844 657.22815 584.0 657.8219Q584.53125 658.41565 585.3125 658.41565Q586.1094 658.41565 586.625 657.8219Q587.1406 657.22815 587.1406 656.0094Q587.1406 654.85315 586.6094 654.2594Q586.09375 653.66565 585.3125 653.66565Q584.53125 653.66565 584.0 654.2594Q583.4844 654.8375 583.4844 656.04065ZM589.7656 659.15L589.7656 650.5563L590.8281 650.5563L590.8281 659.15L589.7656 659.15ZM595.09375 658.2125L595.25 659.1344Q594.7969 659.22815 594.4531 659.22815Q593.875 659.22815 593.5625 659.0563Q593.25 658.8688 593.1094 658.5719Q592.9844 658.275 592.9844 657.3219L592.9844 653.7438L592.21875 653.7438L592.21875 652.9313L592.9844 652.9313L592.9844 651.3844L594.03125 650.7594L594.03125 652.9313L595.09375 652.9313L595.09375 653.7438L594.03125 653.7438L594.03125 657.3844Q594.03125 657.8375 594.0781 657.9625Q594.1406 658.0875 594.2656 658.16565Q594.3906 658.2438 594.625 658.2438Q594.8125 658.2438 595.09375 658.2125ZM599.8594 658.3844Q599.2656 658.8844 598.71875 659.0875Q598.1875 659.29065 597.5625 659.29065Q596.53125 659.29065 595.9844 658.79065Q595.4375 658.29065 595.4375 657.5094Q595.4375 657.0563 595.6406 656.6813Q595.84375 656.29065 596.1875 656.0719Q596.53125 655.8375 596.9531 655.72815Q597.25 655.6344 597.8906 655.5563Q599.15625 655.41565 599.7656 655.1969Q599.7656 654.97815 599.7656 654.9313Q599.7656 654.275 599.46875 654.0094Q599.0625 653.66565 598.2656 653.66565Q597.53125 653.66565 597.1719 653.9313Q596.8125 654.1813 596.6406 654.8375L595.6094 654.6969Q595.75 654.04065 596.0781 653.6344Q596.40625 653.22815 597.0156 653.0094Q597.625 652.79065 598.4219 652.79065Q599.21875 652.79065 599.71875 652.97815Q600.21875 653.16565 600.4531 653.4469Q600.6875 653.72815 600.78125 654.16565Q600.8281 654.4313 600.8281 655.1344L600.8281 656.54065Q600.8281 658.0094 600.8906 658.4Q600.96875 658.79065 601.1719 659.15L600.0625 659.15Q599.90625 658.8219 599.8594 658.3844ZM599.7656 656.025Q599.1875 656.2594 598.0469 656.4313Q597.3906 656.525 597.125 656.65Q596.8594 656.7594 596.7031 656.97815Q596.5625 657.1969 596.5625 657.47815Q596.5625 657.9 596.875 658.1813Q597.2031 658.4625 597.8125 658.4625Q598.4219 658.4625 598.8906 658.1969Q599.375 657.9313 599.59375 657.4625Q599.7656 657.10315 599.7656 656.41565L599.7656 656.025ZM602.59375 659.66565L603.625 659.8219Q603.6875 660.29065 603.9844 660.5094Q604.375 660.8063 605.0469 660.8063Q605.78125 660.8063 606.1719 660.5094Q606.5781 660.2125 606.71875 659.6969Q606.8125 659.3688 606.7969 658.3375Q606.1094 659.15 605.0781 659.15Q603.7969 659.15 603.09375 658.22815Q602.3906 657.29065 602.3906 656.0094Q602.3906 655.1188 602.7031 654.3688Q603.03125 653.60315 603.6406 653.1969Q604.25 652.79065 605.0781 652.79065Q606.1875 652.79065 606.90625 653.6813L606.90625 652.9313L607.875 652.9313L607.875 658.3063Q607.875 659.7594 607.5781 660.3688Q607.28125 660.97815 606.6406 661.3219Q606.0 661.6813 605.0625 661.6813Q603.9531 661.6813 603.2656 661.1813Q602.5781 660.6813 602.59375 659.66565ZM603.46875 655.9313Q603.46875 657.15 603.9531 657.7125Q604.4375 658.275 605.1719 658.275Q605.90625 658.275 606.3906 657.7125Q606.8906 657.15 606.8906 655.9625Q606.8906 654.8219 606.375 654.2438Q605.875 653.66565 605.15625 653.66565Q604.4531 653.66565 603.9531 654.2438Q603.46875 654.8063 603.46875 655.9313ZM614.0469 657.15L615.1406 657.275Q614.8906 658.22815 614.1875 658.7594Q613.4844 659.29065 612.40625 659.29065Q611.0469 659.29065 610.2344 658.4469Q609.4375 657.60315 609.4375 656.0875Q609.4375 654.525 610.25 653.66565Q611.0625 652.79065 612.34375 652.79065Q613.59375 652.79065 614.375 653.6344Q615.1719 654.47815 615.1719 656.025Q615.1719 656.1188 615.1719 656.3063L610.53125 656.3063Q610.59375 657.3375 611.1094 657.8844Q611.625 658.41565 612.40625 658.41565Q612.9844 658.41565 613.3906 658.1188Q613.8125 657.8063 614.0469 657.15ZM610.59375 655.4469L614.0625 655.4469Q614.0 654.65 613.6719 654.2594Q613.15625 653.65 612.3594 653.65Q611.625 653.65 611.125 654.1344Q610.6406 654.6188 610.59375 655.4469Z" fill-rule="nonzero"/><path fill="#000000" d="M45.850025 364.3198L39.631275 364.3198L39.631275 363.3823L40.506275 363.3823Q40.037525 363.08542 39.7719 362.60104Q39.49065 362.11667 39.49065 361.49167Q39.49065 360.80417 39.7719 360.36667Q40.05315 359.91354 40.568775 359.74167Q39.49065 358.99167 39.49065 357.8198Q39.49065 356.8823 40.006275 356.39792Q40.506275 355.89792 41.5844 355.89792L45.850025 355.89792L45.850025 356.9448L41.92815 356.9448Q41.30315 356.9448 41.0219 357.05417Q40.74065 357.14792 40.568775 357.41354Q40.3969 357.67917 40.3969 358.05417Q40.3969 358.71042 40.8344 359.14792Q41.2719 359.5698 42.24065 359.5698L45.850025 359.5698L45.850025 360.6323L41.80315 360.6323Q41.100025 360.6323 40.756275 360.89792Q40.3969 361.14792 40.3969 361.72604Q40.3969 362.17917 40.631275 362.55417Q40.86565 362.92917 41.318775 363.10104Q41.7719 363.27292 42.61565 363.27292L45.850025 363.27292L45.850025 364.3198ZM45.850025 351.74167L37.256275 355.0698L37.256275 353.83542L43.506275 351.60104Q44.256275 351.33542 44.912525 351.14792Q44.2094 350.9448 43.506275 350.67917L37.256275 348.36667L37.256275 347.21042L45.850025 350.5698L45.850025 351.74167Z" fill-rule="nonzero"/><path fill="#000000" d="M67.225 611.5719L67.225 610.5094L70.475 610.5094L70.475 611.5719L67.225 611.5719ZM75.31875 614.15L74.27187 614.15L74.27187 607.4313Q73.88125 607.79065 73.25625 608.16565Q72.64687 608.525 72.1625 608.6969L72.1625 607.6813Q73.0375 607.2594 73.69375 606.6813Q74.36562 606.0875 74.64687 605.525L75.31875 605.525L75.31875 614.15ZM78.35 609.91565Q78.35 608.3844 78.6625 607.4625Q78.975 606.525 79.58437 606.025Q80.20937 605.525 81.14687 605.525Q81.83437 605.525 82.35 605.8063Q82.88125 606.0875 83.225 606.6188Q83.56875 607.1344 83.75625 607.8844Q83.94375 608.6344 83.94375 609.91565Q83.94375 611.4313 83.63125 612.35315Q83.33437 613.275 82.70937 613.79065Q82.1 614.29065 81.14687 614.29065Q79.9125 614.29065 79.19375 613.4Q78.35 612.3375 78.35 609.91565ZM79.42812 609.91565Q79.42812 612.025 79.92812 612.72815Q80.42812 613.4313 81.14687 613.4313Q81.88125 613.4313 82.36562 612.72815Q82.86562 612.025 82.86562 609.91565Q82.86562 607.79065 82.36562 607.10315Q81.88125 606.4 81.13125 606.4Q80.4125 606.4 79.975 607.0094Q79.42812 607.79065 79.42812 609.91565ZM85.35 609.91565Q85.35 608.3844 85.6625 607.4625Q85.975 606.525 86.58437 606.025Q87.20937 605.525 88.14687 605.525Q88.83437 605.525 89.35 605.8063Q89.88125 606.0875 90.225 606.6188Q90.56875 607.1344 90.75625 607.8844Q90.94375 608.6344 90.94375 609.91565Q90.94375 611.4313 90.63125 612.35315Q90.33437 613.275 89.70937 613.79065Q89.1 614.29065 88.14687 614.29065Q86.9125 614.29065 86.19375 613.4Q85.35 612.3375 85.35 609.91565ZM86.42812 609.91565Q86.42812 612.025 86.92812 612.72815Q87.42812 613.4313 88.14687 613.4313Q88.88125 613.4313 89.36562 612.72815Q89.86562 612.025 89.86562 609.91565Q89.86562 607.79065 89.36562 607.10315Q88.88125 606.4 88.13125 606.4Q87.4125 606.4 86.975 607.0094Q86.42812 607.79065 86.42812 609.91565Z" fill-rule="nonzero"/><path fill="#000000" d="M74.225 546.43854L74.225 545.37604L77.475 545.37604L77.475 546.43854L74.225 546.43854ZM78.4125 541.5479L78.4125 540.5323L83.975 540.5323L83.975 541.3604Q83.1625 542.2354 82.35 543.68854Q81.55312 545.12604 81.11562 546.6573Q80.7875 547.7354 80.70937 549.01666L79.61562 549.01666Q79.63125 548.00104 80.00625 546.56354Q80.39687 545.12604 81.1 543.7979Q81.81875 542.4698 82.63125 541.5479L78.4125 541.5479ZM85.35 546.76666L86.45937 546.6729Q86.58437 547.4854 87.02187 547.89166Q87.475 548.2979 88.11562 548.2979Q88.86562 548.2979 89.39687 547.7198Q89.92812 547.14166 89.92812 546.20416Q89.92812 545.2979 89.4125 544.7823Q88.9125 544.25104 88.08437 544.25104Q87.58437 544.25104 87.1625 544.4854Q86.75625 544.7198 86.52187 545.07916L85.5375 544.95416L86.36562 540.5479L90.64687 540.5479L90.64687 541.5479L87.20937 541.5479L86.75625 543.8604Q87.52187 543.31354 88.36562 543.31354Q89.49062 543.31354 90.25625 544.0948Q91.0375 544.87604 91.0375 546.1104Q91.0375 547.26666 90.36562 548.12604Q89.5375 549.1573 88.11562 549.1573Q86.94375 549.1573 86.19375 548.50104Q85.45937 547.8448 85.35 546.76666Z" fill-rule="nonzero"/><path fill="#000000" d="M74.225 481.3052L74.225 480.2427L77.475 480.2427L77.475 481.3052L74.225 481.3052ZM78.35 481.63333L79.45937 481.53958Q79.58437 482.35208 80.02187 482.75833Q80.475 483.16458 81.11562 483.16458Q81.86562 483.16458 82.39687 482.58646Q82.92812 482.00833 82.92812 481.07083Q82.92812 480.16458 82.4125 479.64896Q81.9125 479.1177 81.08437 479.1177Q80.58437 479.1177 80.1625 479.35208Q79.75625 479.58646 79.52187 479.94583L78.5375 479.82083L79.36562 475.41458L83.64687 475.41458L83.64687 476.41458L80.20937 476.41458L79.75625 478.72708Q80.52187 478.1802 81.36562 478.1802Q82.49062 478.1802 83.25625 478.96146Q84.0375 479.7427 84.0375 480.97708Q84.0375 482.13333 83.36562 482.9927Q82.5375 484.02396 81.11562 484.02396Q79.94375 484.02396 79.19375 483.3677Q78.45937 482.71146 78.35 481.63333ZM85.35 479.64896Q85.35 478.1177 85.6625 477.19583Q85.975 476.25833 86.58437 475.75833Q87.20937 475.25833 88.14687 475.25833Q88.83437 475.25833 89.35 475.53958Q89.88125 475.82083 90.225 476.35208Q90.56875 476.8677 90.75625 477.6177Q90.94375 478.3677 90.94375 479.64896Q90.94375 481.16458 90.63125 482.08646Q90.33437 483.00833 89.70937 483.52396Q89.1 484.02396 88.14687 484.02396Q86.9125 484.02396 86.19375 483.13333Q85.35 482.07083 85.35 479.64896ZM86.42812 479.64896Q86.42812 481.75833 86.92812 482.46146Q87.42812 483.16458 88.14687 483.16458Q88.88125 483.16458 89.36562 482.46146Q89.86562 481.75833 89.86562 479.64896Q89.86562 477.52396 89.36562 476.83646Q88.88125 476.13333 88.13125 476.13333Q87.4125 476.13333 86.975 476.7427Q86.42812 477.52396 86.42812 479.64896Z" fill-rule="nonzero"/><path fill="#000000" d="M74.225 416.17188L74.225 415.10938L77.475 415.10938L77.475 416.17188L74.225 416.17188ZM83.89687 417.73438L83.89687 418.75L78.20937 418.75Q78.20937 418.375 78.33437 418.01562Q78.55312 417.4375 79.02187 416.875Q79.50625 416.3125 80.4125 415.57812Q81.81875 414.42188 82.30312 413.75Q82.80312 413.07812 82.80312 412.48438Q82.80312 411.85938 82.35 411.4375Q81.89687 411.0 81.17812 411.0Q80.4125 411.0 79.95937 411.45312Q79.50625 411.90625 79.49062 412.71875L78.4125 412.60938Q78.52187 411.39062 79.24062 410.76562Q79.975 410.125 81.20937 410.125Q82.44375 410.125 83.1625 410.8125Q83.88125 411.5 83.88125 412.51562Q83.88125 413.03125 83.6625 413.53125Q83.45937 414.01562 82.95937 414.57812Q82.475 415.125 81.35 416.07812Q80.39687 416.875 80.11562 417.17188Q79.85 417.45312 79.67812 417.73438L83.89687 417.73438ZM85.35 416.5L86.45937 416.40625Q86.58437 417.21875 87.02187 417.625Q87.475 418.03125 88.11562 418.03125Q88.86562 418.03125 89.39687 417.45312Q89.92812 416.875 89.92812 415.9375Q89.92812 415.03125 89.4125 414.51562Q88.9125 413.98438 88.08437 413.98438Q87.58437 413.98438 87.1625 414.21875Q86.75625 414.45312 86.52187 414.8125L85.5375 414.6875L86.36562 410.28125L90.64687 410.28125L90.64687 411.28125L87.20937 411.28125L86.75625 413.59375Q87.52187 413.04688 88.36562 413.04688Q89.49062 413.04688 90.25625 413.82812Q91.0375 414.60938 91.0375 415.84375Q91.0375 417.0 90.36562 417.85938Q89.5375 418.89062 88.11562 418.89062Q86.94375 418.89062 86.19375 418.23438Q85.45937 417.57812 85.35 416.5Z" fill-rule="nonzero"/><path fill="#000000" d="M85.35 349.3823Q85.35 347.85104 85.6625 346.92917Q85.975 345.99167 86.58437 345.49167Q87.20937 344.99167 88.14687 344.99167Q88.83437 344.99167 89.35 345.27292Q89.88125 345.55417 90.225 346.08542Q90.56875 346.60104 90.75625 347.35104Q90.94375 348.10104 90.94375 349.3823Q90.94375 350.89792 90.63125 351.8198Q90.33437 352.74167 89.70937 353.2573Q89.1 353.7573 88.14687 353.7573Q86.9125 353.7573 86.19375 352.86667Q85.35 351.80417 85.35 349.3823ZM86.42812 349.3823Q86.42812 351.49167 86.92812 352.1948Q87.42812 352.89792 88.14687 352.89792Q88.88125 352.89792 89.36562 352.1948Q89.86562 351.49167 89.86562 349.3823Q89.86562 347.2573 89.36562 346.5698Q88.88125 345.86667 88.13125 345.86667Q87.4125 345.86667 86.975 346.47604Q86.42812 347.2573 86.42812 349.3823Z" fill-rule="nonzero"/><path fill="#000000" d="M83.89687 287.4677L83.89687 288.48334L78.20937 288.48334Q78.20937 288.10834 78.33437 287.74896Q78.55312 287.17084 79.02187 286.60834Q79.50625 286.04584 80.4125 285.31146Q81.81875 284.1552 82.30312 283.48334Q82.80312 282.81146 82.80312 282.2177Q82.80312 281.5927 82.35 281.17084Q81.89687 280.73334 81.17812 280.73334Q80.4125 280.73334 79.95937 281.18646Q79.50625 281.6396 79.49062 282.4521L78.4125 282.3427Q78.52187 281.12396 79.24062 280.49896Q79.975 279.85834 81.20937 279.85834Q82.44375 279.85834 83.1625 280.54584Q83.88125 281.23334 83.88125 282.24896Q83.88125 282.7646 83.6625 283.2646Q83.45937 283.74896 82.95937 284.31146Q82.475 284.85834 81.35 285.81146Q80.39687 286.60834 80.11562 286.9052Q79.85 287.18646 79.67812 287.4677L83.89687 287.4677ZM85.35 286.23334L86.45937 286.1396Q86.58437 286.9521 87.02187 287.35834Q87.475 287.7646 88.11562 287.7646Q88.86562 287.7646 89.39687 287.18646Q89.92812 286.60834 89.92812 285.67084Q89.92812 284.7646 89.4125 284.24896Q88.9125 283.7177 88.08437 283.7177Q87.58437 283.7177 87.1625 283.9521Q86.75625 284.18646 86.52187 284.54584L85.5375 284.42084L86.36562 280.0146L90.64687 280.0146L90.64687 281.0146L87.20937 281.0146L86.75625 283.3271Q87.52187 282.7802 88.36562 282.7802Q89.49062 282.7802 90.25625 283.56146Q91.0375 284.3427 91.0375 285.5771Q91.0375 286.73334 90.36562 287.5927Q89.5375 288.62396 88.11562 288.62396Q86.94375 288.62396 86.19375 287.9677Q85.45937 287.31146 85.35 286.23334Z" fill-rule="nonzero"/><path fill="#000000" d="M78.35 221.1L79.45937 221.00626Q79.58437 221.81876 80.02187 222.225Q80.475 222.63126 81.11562 222.63126Q81.86562 222.63126 82.39687 222.05313Q82.92812 221.475 82.92812 220.5375Q82.92812 219.63126 82.4125 219.11563Q81.9125 218.58438 81.08437 218.58438Q80.58437 218.58438 80.1625 218.81876Q79.75625 219.05313 79.52187 219.4125L78.5375 219.2875L79.36562 214.88126L83.64687 214.88126L83.64687 215.88126L80.20937 215.88126L79.75625 218.19376Q80.52187 217.64688 81.36562 217.64688Q82.49062 217.64688 83.25625 218.42813Q84.0375 219.20938 84.0375 220.44376Q84.0375 221.6 83.36562 222.45938Q82.5375 223.49063 81.11562 223.49063Q79.94375 223.49063 79.19375 222.83438Q78.45937 222.17813 78.35 221.1ZM85.35 219.11563Q85.35 217.58438 85.6625 216.6625Q85.975 215.725 86.58437 215.225Q87.20937 214.725 88.14687 214.725Q88.83437 214.725 89.35 215.00626Q89.88125 215.2875 90.225 215.81876Q90.56875 216.33438 90.75625 217.08438Q90.94375 217.83438 90.94375 219.11563Q90.94375 220.63126 90.63125 221.55313Q90.33437 222.475 89.70937 222.99063Q89.1 223.49063 88.14687 223.49063Q86.9125 223.49063 86.19375 222.6Q85.35 221.5375 85.35 219.11563ZM86.42812 219.11563Q86.42812 221.225 86.92812 221.92813Q87.42812 222.63126 88.14687 222.63126Q88.88125 222.63126 89.36562 221.92813Q89.86562 221.225 89.86562 219.11563Q89.86562 216.99063 89.36562 216.30313Q88.88125 215.6 88.13125 215.6Q87.4125 215.6 86.975 216.20938Q86.42812 216.99063 86.42812 219.11563Z" fill-rule="nonzero"/><path fill="#000000" d="M78.4125 150.74791L78.4125 149.73228L83.975 149.73228L83.975 150.56041Q83.1625 151.43541 82.35 152.88853Q81.55312 154.32603 81.11562 155.85728Q80.7875 156.93541 80.70937 158.21666L79.61562 158.21666Q79.63125 157.20103 80.00625 155.76353Q80.39687 154.32603 81.1 152.99791Q81.81875 151.66978 82.63125 150.74791L78.4125 150.74791ZM85.35 155.96666L86.45937 155.87291Q86.58437 156.68541 87.02187 157.09166Q87.475 157.49791 88.11562 157.49791Q88.86562 157.49791 89.39687 156.91978Q89.92812 156.34166 89.92812 155.40416Q89.92812 154.49791 89.4125 153.98228Q88.9125 153.45103 88.08437 153.45103Q87.58437 153.45103 87.1625 153.68541Q86.75625 153.91978 86.52187 154.27916L85.5375 154.15416L86.36562 149.74791L90.64687 149.74791L90.64687 150.74791L87.20937 150.74791L86.75625 153.06041Q87.52187 152.51353 88.36562 152.51353Q89.49062 152.51353 90.25625 153.29478Q91.0375 154.07603 91.0375 155.31041Q91.0375 156.46666 90.36562 157.32603Q89.5375 158.35728 88.11562 158.35728Q86.94375 158.35728 86.19375 157.70103Q85.45937 157.04478 85.35 155.96666Z" fill-rule="nonzero"/><path fill="#000000" d="M75.31875 93.083336L74.27187 93.083336L74.27187 86.364586Q73.88125 86.72396 73.25625 87.09896Q72.64687 87.458336 72.1625 87.63021L72.1625 86.614586Q73.0375 86.19271 73.69375 85.614586Q74.36562 85.020836 74.64687 84.458336L75.31875 84.458336L75.31875 93.083336ZM78.35 88.84896Q78.35 87.31771 78.6625 86.395836Q78.975 85.458336 79.58437 84.958336Q80.20937 84.458336 81.14687 84.458336Q81.83437 84.458336 82.35 84.739586Q82.88125 85.020836 83.225 85.552086Q83.56875 86.06771 83.75625 86.81771Q83.94375 87.56771 83.94375 88.84896Q83.94375 90.364586 83.63125 91.28646Q83.33437 92.208336 82.70937 92.72396Q82.1 93.22396 81.14687 93.22396Q79.9125 93.22396 79.19375 92.333336Q78.35 91.270836 78.35 88.84896ZM79.42812 88.84896Q79.42812 90.958336 79.92812 91.66146Q80.42812 92.364586 81.14687 92.364586Q81.88125 92.364586 82.36562 91.66146Q82.86562 90.958336 82.86562 88.84896Q82.86562 86.72396 82.36562 86.03646Q81.88125 85.333336 81.13125 85.333336Q80.4125 85.333336 79.975 85.94271Q79.42812 86.72396 79.42812 88.84896ZM85.35 88.84896Q85.35 87.31771 85.6625 86.395836Q85.975 85.458336 86.58437 84.958336Q87.20937 84.458336 88.14687 84.458336Q88.83437 84.458336 89.35 84.739586Q89.88125 85.020836 90.225 85.552086Q90.56875 86.06771 90.75625 86.81771Q90.94375 87.56771 90.94375 88.84896Q90.94375 90.364586 90.63125 91.28646Q90.33437 92.208336 89.70937 92.72396Q89.1 93.22396 88.14687 93.22396Q86.9125 93.22396 86.19375 92.333336Q85.35 91.270836 85.35 88.84896ZM86.42812 88.84896Q86.42812 90.958336 86.92812 91.66146Q87.42812 92.364586 88.14687 92.364586Q88.88125 92.364586 89.36562 91.66146Q89.86562 90.958336 89.86562 88.84896Q89.86562 86.72396 89.36562 86.03646Q88.88125 85.333336 88.13125 85.333336Q87.4125 85.333336 86.975 85.94271Q86.42812 86.72396 86.42812 88.84896Z" fill-rule="nonzero"/><path fill="#000000" d="M94.85 622.91565Q94.85 621.3844 95.1625 620.4625Q95.475 619.525 96.08437 619.025Q96.70937 618.525 97.64687 618.525Q98.33437 618.525 98.85 618.8063Q99.38125 619.0875 99.725 619.6188Q100.06875 620.1344 100.25625 620.8844Q100.44375 621.6344 100.44375 622.91565Q100.44375 624.4313 100.13125 625.35315Q99.83437 626.275 99.20937 626.79065Q98.6 627.29065 97.64687 627.29065Q96.4125 627.29065 95.69375 626.4Q94.85 625.3375 94.85 622.91565ZM95.92812 622.91565Q95.92812 625.025 96.42812 625.72815Q96.92812 626.4313 97.64687 626.4313Q98.38125 626.4313 98.86562 625.72815Q99.36562 625.025 99.36562 622.91565Q99.36562 620.79065 98.86562 620.10315Q98.38125 619.4 97.63125 619.4Q96.9125 619.4 96.475 620.0094Q95.92812 620.79065 95.92812 622.91565Z" fill-rule="nonzero"/><path fill="#000000" d="M403.16525 627.15L402.11838 627.15L402.11838 620.4313Q401.72775 620.79065 401.10275 621.16565Q400.49338 621.525 400.009 621.6969L400.009 620.6813Q400.884 620.2594 401.54025 619.6813Q402.21213 619.0875 402.49338 618.525L403.16525 618.525L403.16525 627.15Z" fill-rule="nonzero"/><path fill="#000000" d="M709.08984 626.1344L709.08984 627.15L703.40234 627.15Q703.40234 626.775 703.52734 626.41565Q703.7461 625.8375 704.21484 625.275Q704.6992 624.7125 705.60547 623.97815Q707.0117 622.8219 707.4961 622.15Q707.9961 621.47815 707.9961 620.8844Q707.9961 620.2594 707.54297 619.8375Q707.08984 619.4 706.3711 619.4Q705.60547 619.4 705.15234 619.85315Q704.6992 620.3063 704.6836 621.1188L703.60547 621.0094Q703.71484 619.79065 704.4336 619.16565Q705.16797 618.525 706.40234 618.525Q707.6367 618.525 708.35547 619.2125Q709.0742 619.9 709.0742 620.91565Q709.0742 621.4313 708.85547 621.9313Q708.65234 622.41565 708.15234 622.97815Q707.66797 623.525 706.54297 624.47815Q705.58984 625.275 705.3086 625.5719Q705.04297 625.85315 704.8711 626.1344L709.08984 626.1344Z" fill-rule="nonzero"/><path fill="#000000" d="M1007.88947 624.8844L1008.95197 624.7438Q1009.12384 625.6344 1009.56134 626.04065Q1009.99884 626.4313 1010.62384 626.4313Q1011.37384 626.4313 1011.88947 625.91565Q1012.4051 625.4 1012.4051 624.6344Q1012.4051 623.91565 1011.9207 623.4469Q1011.45197 622.9625 1010.7176 622.9625Q1010.4207 622.9625 1009.9676 623.0875L1010.0926 622.15Q1010.20197 622.16565 1010.26447 622.16565Q1010.93634 622.16565 1011.4676 621.8219Q1012.01447 621.4625 1012.01447 620.72815Q1012.01447 620.15 1011.62384 619.775Q1011.2332 619.3844 1010.6082 619.3844Q1009.99884 619.3844 1009.57697 619.775Q1009.1707 620.16565 1009.06134 620.9313L1007.99884 620.7438Q1008.18634 619.6969 1008.87384 619.1188Q1009.56134 618.525 1010.57697 618.525Q1011.2801 618.525 1011.87384 618.8375Q1012.4676 619.1344 1012.7801 619.65Q1013.0926 620.16565 1013.0926 620.7594Q1013.0926 621.3063 1012.7957 621.775Q1012.49884 622.22815 1011.9207 622.4938Q1012.6707 622.66565 1013.0926 623.22815Q1013.51447 623.775 1013.51447 624.6188Q1013.51447 625.7438 1012.68634 626.525Q1011.87384 627.3063 1010.62384 627.3063Q1009.49884 627.3063 1008.74884 626.6344Q1007.99884 625.9469 1007.88947 624.8844Z" fill-rule="nonzero"/><path fill="#757575" d="M36.428123 53.85L36.428123 39.5375L46.7875 39.5375L46.7875 41.225L38.334373 41.225L38.334373 45.6L46.240623 45.6L46.240623 47.2875L38.334373 47.2875L38.334373 52.1625L47.115623 52.1625L47.115623 53.85L36.428123 53.85ZM49.146873 53.85L49.146873 43.475L50.725 43.475L50.725 45.053123Q51.334373 43.94375 51.85 43.6Q52.365623 43.240623 52.975 43.240623Q53.865623 43.240623 54.7875 43.803123L54.178123 45.44375Q53.5375 45.053123 52.896873 45.053123Q52.31875 45.053123 51.85 45.4125Q51.396873 45.75625 51.19375 46.365623Q50.9125 47.303123 50.9125 48.4125L50.9125 53.85L49.146873 53.85ZM56.146873 53.85L56.146873 43.475L57.725 43.475L57.725 45.053123Q58.334373 43.94375 58.85 43.6Q59.365623 43.240623 59.975 43.240623Q60.865623 43.240623 61.7875 43.803123L61.178123 45.44375Q60.5375 45.053123 59.896873 45.053123Q59.31875 45.053123 58.85 45.4125Q58.396873 45.75625 58.19375 46.365623Q57.9125 47.303123 57.9125 48.4125L57.9125 53.85L56.146873 53.85ZM62.521873 48.6625Q62.521873 45.7875 64.11562 44.396873Q65.45937 43.240623 67.38125 43.240623Q69.52187 43.240623 70.86562 44.646873Q72.225 46.053123 72.225 48.521873Q72.225 50.521873 71.63125 51.678123Q71.0375 52.81875 69.88125 53.459373Q68.74062 54.084373 67.38125 54.084373Q65.19375 54.084373 63.85 52.69375Q62.521873 51.2875 62.521873 48.6625ZM64.31875 48.6625Q64.31875 50.6625 65.17812 51.646873Q66.05312 52.63125 67.38125 52.63125Q68.69375 52.63125 69.55312 51.646873Q70.42812 50.646873 70.42812 48.6Q70.42812 46.678123 69.55312 45.69375Q68.67812 44.69375 67.38125 44.69375Q66.05312 44.69375 65.17812 45.69375Q64.31875 46.678123 64.31875 48.6625ZM74.14687 53.85L74.14687 43.475L75.725 43.475L75.725 45.053123Q76.33437 43.94375 76.85 43.6Q77.36562 43.240623 77.975 43.240623Q78.86562 43.240623 79.7875 43.803123L79.17812 45.44375Q78.5375 45.053123 77.89687 45.053123Q77.31875 45.053123 76.85 45.4125Q76.39687 45.75625 76.19375 46.365623Q75.9125 47.303123 75.9125 48.4125L75.9125 53.85L74.14687 53.85Z" fill-rule="nonzero"/></svg>