<?xml version="1.0" encoding="UTF-8" standalone="no"?>
<!DOCTYPE svg PUBLIC "-//W3C//DTD SVG 1.1//EN" "http://www.w3.org/Graphics/SVG/1.1/DTD/svg11.dtd">
<svg width="100%" height="100%" viewBox="0 0 1280 800" version="1.1" xmlns="http://www.w3.org/2000/svg" xmlns:xlink="http://www.w3.org/1999/xlink" xml:space="preserve" xmlns:serif="http://www.serif.com/" style="fill-rule:evenodd;clip-rule:evenodd;stroke-linecap:round;stroke-linejoin:round;stroke-miterlimit:10;">
    <g transform="matrix(0,0.583832,-0.583832,0,1560.67,-5052.7)">
        <circle cx="9470" cy="1600" r="20" style="fill:none;stroke:black;stroke-width:3.08px;"/>
    </g>
    <g transform="matrix(0,0.583832,-0.583832,0,1654.08,-5146.11)">
        <circle cx="9630" cy="1600" r="20" style="fill:none;stroke:black;stroke-width:3.08px;"/>
    </g>
    <g transform="matrix(0,-0.583832,0.583832,0,-211.264,6002.16)">
        <path d="M9515,1515L9585,1515" style="fill:none;fill-rule:nonzero;stroke:black;stroke-width:3.08px;"/>
    </g>
    <g transform="matrix(-0.583832,0,0,-0.583832,6248.84,1351.94)">
        <path d="M9450,1550L9650,1550" style="fill:none;fill-rule:nonzero;stroke:black;stroke-width:3.08px;"/>
    </g>
    <g transform="matrix(-0.583832,0,0,-0.583832,6073.69,1410.32)">
        <path d="M9350,1600L9450,1600" style="fill:none;fill-rule:nonzero;stroke:black;stroke-width:3.08px;"/>
    </g>
    <g transform="matrix(0.583832,0,0,-0.583832,-4902.36,1410.32)">
        <path d="M9650,1600L9750,1600" style="fill:none;fill-rule:nonzero;stroke:black;stroke-width:3.08px;"/>
    </g>
    <g transform="matrix(0.561369,0.160391,-0.160391,0.561369,-4474.65,-1949.44)">
        <path d="M9482.86,1338L9490.14,1338" style="fill:none;fill-rule:nonzero;stroke:black;stroke-width:3.08px;"/>
    </g>
    <g transform="matrix(0.583832,0,0,-0.583832,-4902.36,1105.56)">
        <path d="M9490,1339L9502,1339" style="fill:none;fill-rule:nonzero;stroke:black;stroke-width:3.08px;"/>
    </g>
    <g transform="matrix(0.542075,-0.21683,0.21683,0.542075,-4795.59,1658.79)">
        <path d="M9501.81,1338L9507.19,1338" style="fill:none;fill-rule:nonzero;stroke:black;stroke-width:3.08px;"/>
    </g>
    <g transform="matrix(0.323852,-0.485778,0.485778,0.323852,-3079.22,4508.04)">
        <path d="M9506.2,1335.5L9509.8,1335.5" style="fill:none;fill-rule:nonzero;stroke:black;stroke-width:3.08px;"/>
    </g>
    <g transform="matrix(0.261098,-0.522195,0.522195,0.261098,-2528.72,4938.02)">
        <path d="M9507.76,1332L9512.24,1332" style="fill:none;fill-rule:nonzero;stroke:black;stroke-width:3.08px;"/>
    </g>
    <g transform="matrix(0,-0.583832,0.583832,0,-124.565,5869.92)">
        <path d="M9508.5,1327.5L9513.5,1327.5" style="fill:none;fill-rule:nonzero;stroke:black;stroke-width:3.08px;"/>
    </g>
    <g transform="matrix(-0.21683,-0.542075,0.542075,-0.21683,1995.05,5756.06)">
        <path d="M9507.31,1322.5L9512.69,1322.5" style="fill:none;fill-rule:nonzero;stroke:black;stroke-width:3.08px;"/>
    </g>
    <g transform="matrix(-0.412832,-0.412832,0.412832,-0.412832,4029.4,4781.86)">
        <path d="M9506.59,1319L9509.41,1319" style="fill:none;fill-rule:nonzero;stroke:black;stroke-width:3.08px;"/>
    </g>
    <g transform="matrix(-0.500632,-0.300379,0.300379,-0.500632,5009.49,3824.71)">
        <path d="M9501.59,1316.5L9507.42,1316.5" style="fill:none;fill-rule:nonzero;stroke:black;stroke-width:3.08px;"/>
    </g>
    <g transform="matrix(-0.572495,-0.114499,0.114499,-0.572495,5928.83,2148.87)">
        <path d="M9491.9,1314L9502.1,1314" style="fill:none;fill-rule:nonzero;stroke:black;stroke-width:3.08px;"/>
    </g>
    <g transform="matrix(-0.522195,-0.261098,0.261098,-0.522195,5251.29,3470.98)">
        <path d="M9487.76,1312L9492.24,1312" style="fill:none;fill-rule:nonzero;stroke:black;stroke-width:3.08px;"/>
    </g>
    <g transform="matrix(-0.412832,-0.412832,0.412832,-0.412832,4011.89,4763.52)">
        <path d="M9484.38,1309.5L9488.62,1309.5" style="fill:none;fill-rule:nonzero;stroke:black;stroke-width:3.08px;"/>
    </g>
    <g transform="matrix(-0.21683,-0.542075,0.542075,-0.21683,1983.44,5728.36)">
        <path d="M9481.31,1305.5L9486.69,1305.5" style="fill:none;fill-rule:nonzero;stroke:black;stroke-width:3.08px;"/>
    </g>
    <g transform="matrix(0,-0.583832,0.583832,0,-125.441,5838.11)">
        <path d="M9481,1301L9485,1301" style="fill:none;fill-rule:nonzero;stroke:black;stroke-width:3.08px;"/>
    </g>
    <g transform="matrix(0.21683,-0.542075,0.542075,0.21683,-2124.51,5158.91)">
        <path d="M9481.31,1296.5L9486.69,1296.5" style="fill:none;fill-rule:nonzero;stroke:black;stroke-width:3.08px;"/>
    </g>
    <g transform="matrix(0.485778,-0.323852,0.323852,0.485778,-4390.9,2741.06)">
        <path d="M9484.7,1293L9488.3,1293" style="fill:none;fill-rule:nonzero;stroke:black;stroke-width:3.08px;"/>
    </g>
    <g transform="matrix(0.467066,-0.350299,0.350299,0.467066,-4246.3,3017.09)">
        <path d="M9487.5,1290.5L9492.5,1290.5" style="fill:none;fill-rule:nonzero;stroke:black;stroke-width:3.08px;"/>
    </g>
    <g transform="matrix(0.583832,0,0,-0.583832,-4902.36,1047.18)">
        <path d="M9492,1289L9504,1289" style="fill:none;fill-rule:nonzero;stroke:black;stroke-width:3.08px;"/>
    </g>
    <g transform="matrix(0.536627,0.229983,-0.229983,0.536627,-4156.76,-2583.58)">
        <path d="M9503.69,1290.5L9511.31,1290.5" style="fill:none;fill-rule:nonzero;stroke:black;stroke-width:3.08px;"/>
    </g>
    <g transform="matrix(0.136251,0.567711,-0.567711,0.136251,110.859,-5282.38)">
        <path d="M9508.29,1314L9559.71,1314" style="fill:none;fill-rule:nonzero;stroke:black;stroke-width:3.08px;"/>
    </g>
    <g transform="matrix(0.156259,-0.562533,0.562533,0.156259,-1564.28,5476.26)">
        <path d="M9526.32,1321L9563.68,1321" style="fill:none;fill-rule:nonzero;stroke:black;stroke-width:3.08px;"/>
    </g>
    <g transform="matrix(0.1416,0.566401,-0.566401,0.1416,71.1655,-5285.43)">
        <path d="M9535.95,1321L9573.05,1321" style="fill:none;fill-rule:nonzero;stroke:black;stroke-width:3.08px;"/>
    </g>
    <g transform="matrix(0.136251,-0.567711,0.567711,0.136251,-1367.21,5560.34)">
        <path d="M9539.29,1314L9590.71,1314" style="fill:none;fill-rule:nonzero;stroke:black;stroke-width:3.08px;"/>
    </g>
    <g transform="matrix(-0.583832,0,0,-0.583832,6309.56,1105.56)">
        <path d="M9588,1339L9616,1339" style="fill:none;fill-rule:nonzero;stroke:black;stroke-width:3.08px;"/>
    </g>
    <g transform="matrix(0,-0.583832,0.583832,0,-63.5548,5915.17)">
        <path d="M9577,1314L9627,1314" style="fill:none;fill-rule:nonzero;stroke:black;stroke-width:3.08px;"/>
    </g>
    <g transform="matrix(-0.339346,0.475084,-0.475084,-0.339346,4573.74,-3825.3)">
        <path d="M9595.2,1292.5L9603.8,1292.5" style="fill:none;fill-rule:nonzero;stroke:black;stroke-width:3.08px;"/>
    </g>
    <g transform="matrix(-0.412832,0.412832,-0.412832,-0.412832,5196.2,-3124.69)">
        <path d="M9590.96,1298.5L9598.04,1298.5" style="fill:none;fill-rule:nonzero;stroke:black;stroke-width:3.08px;"/>
    </g>
    <g transform="matrix(-0.522195,0.261098,-0.261098,-0.522195,6044.4,-1521.82)">
        <path d="M9587.76,1302L9592.24,1302" style="fill:none;fill-rule:nonzero;stroke:black;stroke-width:3.08px;"/>
    </g>
    <g transform="matrix(0.561369,0.160391,-0.160391,0.561369,-4461.99,-1933.6)">
        <path d="M9396.86,1429L9404.14,1429" style="fill:none;fill-rule:nonzero;stroke:black;stroke-width:3.08px;"/>
    </g>
    <g transform="matrix(0.583832,0,0,-0.583832,-4902.36,1211.82)">
        <path d="M9404,1430L9416,1430" style="fill:none;fill-rule:nonzero;stroke:black;stroke-width:3.08px;"/>
    </g>
    <g transform="matrix(0.542075,-0.21683,0.21683,0.542075,-4818.91,1643.94)">
        <path d="M9415.81,1429L9421.19,1429" style="fill:none;fill-rule:nonzero;stroke:black;stroke-width:3.08px;"/>
    </g>
    <g transform="matrix(0.323852,-0.485778,0.485778,0.323852,-3145.78,4489.92)">
        <path d="M9420.2,1426.5L9423.8,1426.5" style="fill:none;fill-rule:nonzero;stroke:black;stroke-width:3.08px;"/>
    </g>
    <g transform="matrix(0.350299,-0.467066,0.467066,0.350299,-3366.06,4276.24)">
        <path d="M9422,1423L9427,1423" style="fill:none;fill-rule:nonzero;stroke:black;stroke-width:3.08px;"/>
    </g>
    <g transform="matrix(0,-0.583832,0.583832,0,-227.32,5873.43)">
        <path d="M9423.5,1418.5L9428.5,1418.5" style="fill:none;fill-rule:nonzero;stroke:black;stroke-width:3.08px;"/>
    </g>
    <g transform="matrix(-0.300379,-0.500632,0.500632,-0.300379,2723.25,5510.1)">
        <path d="M9421.59,1413.5L9427.42,1413.5" style="fill:none;fill-rule:nonzero;stroke:black;stroke-width:3.08px;"/>
    </g>
    <g transform="matrix(-0.412832,-0.412832,0.412832,-0.412832,3906.12,4837.06)">
        <path d="M9420.59,1410L9423.41,1410" style="fill:none;fill-rule:nonzero;stroke:black;stroke-width:3.08px;"/>
    </g>
    <g transform="matrix(-0.500632,-0.300379,0.300379,-0.500632,4888.89,3897.56)">
        <path d="M9415.59,1407.5L9421.42,1407.5" style="fill:none;fill-rule:nonzero;stroke:black;stroke-width:3.08px;"/>
    </g>
    <g transform="matrix(-0.56993,-0.126651,0.126651,-0.56993,5778.33,2355.07)">
        <path d="M9406.89,1405L9416.11,1405" style="fill:none;fill-rule:nonzero;stroke:black;stroke-width:3.08px;"/>
    </g>
    <g transform="matrix(-0.542075,-0.21683,0.21683,-0.542075,5382.02,3160.88)">
        <path d="M9401.81,1403L9407.19,1403" style="fill:none;fill-rule:nonzero;stroke:black;stroke-width:3.08px;"/>
    </g>
    <g transform="matrix(-0.323852,-0.485778,0.485778,-0.323852,2950.45,5380.07)">
        <path d="M9399.2,1400.5L9402.8,1400.5" style="fill:none;fill-rule:nonzero;stroke:black;stroke-width:3.08px;"/>
    </g>
    <g transform="matrix(-0.300379,-0.500632,0.500632,-0.300379,2708.77,5482.05)">
        <path d="M9395.59,1396.5L9401.42,1396.5" style="fill:none;fill-rule:nonzero;stroke:black;stroke-width:3.08px;"/>
    </g>
    <g transform="matrix(0,-0.583832,0.583832,0,-228.779,5841.02)">
        <path d="M9395,1392L9399,1392" style="fill:none;fill-rule:nonzero;stroke:black;stroke-width:3.08px;"/>
    </g>
    <g transform="matrix(0.300379,-0.500632,0.500632,0.300379,-2932.95,4640.54)">
        <path d="M9395.59,1387.5L9401.42,1387.5" style="fill:none;fill-rule:nonzero;stroke:black;stroke-width:3.08px;"/>
    </g>
    <g transform="matrix(0.412832,-0.412832,0.412832,0.412832,-3866.14,3659.75)">
        <path d="M9399.59,1384L9402.41,1384" style="fill:none;fill-rule:nonzero;stroke:black;stroke-width:3.08px;"/>
    </g>
    <g transform="matrix(0.500632,-0.300379,0.300379,0.500632,-4534.87,2481.92)">
        <path d="M9401.59,1381.5L9407.42,1381.5" style="fill:none;fill-rule:nonzero;stroke:black;stroke-width:3.08px;"/>
    </g>
    <g transform="matrix(0.583832,0,0,-0.583832,-4902.36,1153.44)">
        <path d="M9407,1380L9419,1380" style="fill:none;fill-rule:nonzero;stroke:black;stroke-width:3.08px;"/>
    </g>
    <g transform="matrix(0.536627,0.229983,-0.229983,0.536627,-4139.84,-2559.74)">
        <path d="M9418.69,1381.5L9426.31,1381.5" style="fill:none;fill-rule:nonzero;stroke:black;stroke-width:3.08px;"/>
    </g>
    <g transform="matrix(0.136251,0.567711,-0.567711,0.136251,124.028,-5192.82)">
        <path d="M9422.29,1405L9473.71,1405" style="fill:none;fill-rule:nonzero;stroke:black;stroke-width:3.08px;"/>
    </g>
    <g transform="matrix(0.156259,-0.562533,0.562533,0.156259,-1652.24,5466.79)">
        <path d="M9440.32,1412L9477.68,1412" style="fill:none;fill-rule:nonzero;stroke:black;stroke-width:3.08px;"/>
    </g>
    <g transform="matrix(0.1416,0.566401,-0.566401,0.1416,84.6759,-5196.47)">
        <path d="M9449.95,1412L9487.05,1412" style="fill:none;fill-rule:nonzero;stroke:black;stroke-width:3.08px;"/>
    </g>
    <g transform="matrix(0.136251,-0.567711,0.567711,0.136251,-1457.36,5552.24)">
        <path d="M9453.29,1405L9504.71,1405" style="fill:none;fill-rule:nonzero;stroke:black;stroke-width:3.08px;"/>
    </g>
    <g transform="matrix(0.583832,0,0,-0.583832,-4902.36,1217.66)">
        <path d="M9492,1435L9530,1435" style="fill:none;fill-rule:nonzero;stroke:black;stroke-width:3.08px;"/>
    </g>
    <g transform="matrix(0,-0.583832,0.583832,0,-151.713,5933.27)">
        <path d="M9517,1405L9567,1405" style="fill:none;fill-rule:nonzero;stroke:black;stroke-width:3.08px;"/>
    </g>
    <g transform="matrix(0.583832,0,0,-0.583832,-4902.36,1153.44)">
        <path d="M9542,1380L9561,1380" style="fill:none;fill-rule:nonzero;stroke:black;stroke-width:3.08px;"/>
    </g>
    <g transform="matrix(0.500632,0.300379,-0.300379,0.500632,-3691.7,-3215.68)">
        <path d="M9560.59,1381.5L9566.42,1381.5" style="fill:none;fill-rule:nonzero;stroke:black;stroke-width:3.08px;"/>
    </g>
    <g transform="matrix(0.485778,0.323852,-0.323852,0.485778,-3516.01,-3420.69)">
        <path d="M9565.7,1384L9569.3,1384" style="fill:none;fill-rule:nonzero;stroke:black;stroke-width:3.08px;"/>
    </g>
    <g transform="matrix(0.21683,0.542075,-0.542075,0.21683,-638.015,-5136.38)">
        <path d="M9567.31,1387.5L9572.69,1387.5" style="fill:none;fill-rule:nonzero;stroke:black;stroke-width:3.08px;"/>
    </g>
    <g transform="matrix(0,0.583832,-0.583832,0,1499.07,-5232.23)">
        <path d="M9567.5,1393.5L9574.5,1393.5" style="fill:none;fill-rule:nonzero;stroke:black;stroke-width:3.08px;"/>
    </g>
    <g transform="matrix(-0.21683,0.542075,-0.542075,-0.21683,3518.61,-4525.07)">
        <path d="M9567.31,1399.5L9572.69,1399.5" style="fill:none;fill-rule:nonzero;stroke:black;stroke-width:3.08px;"/>
    </g>
    <g transform="matrix(-0.485778,0.323852,-0.323852,-0.485778,5785.5,-2055.73)">
        <path d="M9565.7,1403L9569.3,1403" style="fill:none;fill-rule:nonzero;stroke:black;stroke-width:3.08px;"/>
    </g>
    <g transform="matrix(-0.542075,0.21683,-0.21683,-0.542075,6169.9,-949.695)">
        <path d="M9560.81,1405L9566.19,1405" style="fill:none;fill-rule:nonzero;stroke:black;stroke-width:3.08px;"/>
    </g>
    <g transform="matrix(-0.583832,0,0,-0.583832,6250.59,1183.79)">
        <path d="M9542,1406L9561,1406" style="fill:none;fill-rule:nonzero;stroke:black;stroke-width:3.08px;"/>
    </g>
    <g transform="matrix(0,0.583832,-0.583832,0,1535.85,-5245.66)">
        <path d="M9597.5,1413.5L9630.5,1413.5" style="fill:none;fill-rule:nonzero;stroke:black;stroke-width:3.08px;"/>
    </g>
    <g transform="matrix(0,0.583832,-0.583832,0,1520.97,-5234.86)">
        <path d="M9579,1410L9605,1410" style="fill:none;fill-rule:nonzero;stroke:black;stroke-width:3.08px;"/>
    </g>
    <g transform="matrix(0.300379,0.500632,-0.500632,0.300379,-1469.4,-4856.69)">
        <path d="M9590.59,1425.5L9596.42,1425.5" style="fill:none;fill-rule:nonzero;stroke:black;stroke-width:3.08px;"/>
    </g>
    <g transform="matrix(0.542075,0.21683,-0.21683,0.542075,-4191.74,-2479.29)">
        <path d="M9594.81,1429L9600.19,1429" style="fill:none;fill-rule:nonzero;stroke:black;stroke-width:3.08px;"/>
    </g>
    <g transform="matrix(0.583832,0,0,-0.583832,-4902.36,1211.82)">
        <path d="M9600,1430L9607,1430" style="fill:none;fill-rule:nonzero;stroke:black;stroke-width:3.08px;"/>
    </g>
    <g transform="matrix(0.522195,-0.261098,0.261098,0.522195,-4683.2,2139.03)">
        <path d="M9606.76,1429L9611.24,1429" style="fill:none;fill-rule:nonzero;stroke:black;stroke-width:3.08px;"/>
    </g>
    <g transform="matrix(0.412832,-0.412832,0.412832,0.412832,-3847.52,3754.34)">
        <path d="M9610.38,1426.5L9614.62,1426.5" style="fill:none;fill-rule:nonzero;stroke:black;stroke-width:3.08px;"/>
    </g>
    <g transform="matrix(0.542075,0.21683,-0.21683,0.542075,-4190.07,-2487.97)">
        <path d="M9634.81,1429L9640.19,1429" style="fill:none;fill-rule:nonzero;stroke:black;stroke-width:3.08px;"/>
    </g>
    <g transform="matrix(0.583832,0,0,-0.583832,-4902.36,1211.82)">
        <path d="M9640,1430L9650,1430" style="fill:none;fill-rule:nonzero;stroke:black;stroke-width:3.08px;"/>
    </g>
    <g transform="matrix(0.522195,-0.261098,0.261098,0.522195,-4680.55,2150.25)">
        <path d="M9649.76,1429L9654.24,1429" style="fill:none;fill-rule:nonzero;stroke:black;stroke-width:3.08px;"/>
    </g>
    <g transform="matrix(0.300379,-0.500632,0.500632,0.300379,-2879.13,4779.97)">
        <path d="M9652.59,1425.5L9658.42,1425.5" style="fill:none;fill-rule:nonzero;stroke:black;stroke-width:3.08px;"/>
    </g>
    <g transform="matrix(0,-0.583832,0.583832,0,-94.4979,6010.34)">
        <path d="M9656,1422L9658,1422" style="fill:none;fill-rule:nonzero;stroke:black;stroke-width:3.08px;"/>
    </g>
    <g transform="matrix(-0.300379,-0.500632,0.500632,-0.300379,2925,5630.17)">
        <path d="M9652.59,1418.5L9658.42,1418.5" style="fill:none;fill-rule:nonzero;stroke:black;stroke-width:3.08px;"/>
    </g>
    <g transform="matrix(-0.467066,-0.350299,0.350299,-0.467066,4745.41,4409.64)">
        <path d="M9649.5,1414.5L9654.5,1414.5" style="fill:none;fill-rule:nonzero;stroke:black;stroke-width:3.08px;"/>
    </g>
    <g transform="matrix(-0.583832,0,0,-0.583832,6360.94,1191.97)">
        <path d="M9642,1413L9650,1413" style="fill:none;fill-rule:nonzero;stroke:black;stroke-width:3.08px;"/>
    </g>
    <g transform="matrix(-0.522195,-0.261098,0.261098,-0.522195,5391.08,3620.75)">
        <path d="M9637.76,1412L9642.24,1412" style="fill:none;fill-rule:nonzero;stroke:black;stroke-width:3.08px;"/>
    </g>
    <g transform="matrix(-0.300379,-0.500632,0.500632,-0.300379,2913.21,5611.81)">
        <path d="M9633.59,1408.5L9639.42,1408.5" style="fill:none;fill-rule:nonzero;stroke:black;stroke-width:3.08px;"/>
    </g>
    <g transform="matrix(0,-0.583832,0.583832,0,-97.417,5987.57)">
        <path d="M9634,1405L9636,1405" style="fill:none;fill-rule:nonzero;stroke:black;stroke-width:3.08px;"/>
    </g>
    <g transform="matrix(0.300379,-0.500632,0.500632,0.300379,-2872.5,4763.66)">
        <path d="M9633.59,1401.5L9639.42,1401.5" style="fill:none;fill-rule:nonzero;stroke:black;stroke-width:3.08px;"/>
    </g>
    <g transform="matrix(0.522195,-0.261098,0.261098,0.522195,-4673.19,2145.21)">
        <path d="M9637.76,1398L9642.24,1398" style="fill:none;fill-rule:nonzero;stroke:black;stroke-width:3.08px;"/>
    </g>
    <g transform="matrix(0.583832,0,0,-0.583832,-4902.36,1173.29)">
        <path d="M9642,1397L9650,1397" style="fill:none;fill-rule:nonzero;stroke:black;stroke-width:3.08px;"/>
    </g>
    <g transform="matrix(0.522195,0.261098,-0.261098,0.522195,-3942.42,-2891.89)">
        <path d="M9649.76,1398L9654.24,1398" style="fill:none;fill-rule:nonzero;stroke:black;stroke-width:3.08px;"/>
    </g>
    <g transform="matrix(0,-0.583832,0.583832,0,-72.3123,6012.67)">
        <path d="M9653,1405L9703,1405" style="fill:none;fill-rule:nonzero;stroke:black;stroke-width:3.08px;"/>
    </g>
    <g transform="matrix(0,-0.583832,0.583832,0,-66.4739,6032.52)">
        <path d="M9687,1417L9713,1417" style="fill:none;fill-rule:nonzero;stroke:black;stroke-width:3.08px;"/>
    </g>
    <g transform="matrix(-0.300379,-0.500632,0.500632,-0.300379,2971.53,5636.66)">
        <path d="M9695.59,1401.5L9701.42,1401.5" style="fill:none;fill-rule:nonzero;stroke:black;stroke-width:3.08px;"/>
    </g>
    <g transform="matrix(-0.542075,-0.21683,0.21683,-0.542075,5709.62,3218.13)">
        <path d="M9691.81,1398L9697.19,1398" style="fill:none;fill-rule:nonzero;stroke:black;stroke-width:3.08px;"/>
    </g>
    <g transform="matrix(-0.583832,0,0,-0.583832,6410.56,1173.29)">
        <path d="M9685,1397L9692,1397" style="fill:none;fill-rule:nonzero;stroke:black;stroke-width:3.08px;"/>
    </g>
    <g transform="matrix(-0.542075,0.21683,-0.21683,-0.542075,6302.37,-983.379)">
        <path d="M9679.81,1398L9685.19,1398" style="fill:none;fill-rule:nonzero;stroke:black;stroke-width:3.08px;"/>
    </g>
    <g transform="matrix(-0.323852,0.485778,-0.485778,-0.323852,4563.45,-3888.57)">
        <path d="M9677.2,1400.5L9680.8,1400.5" style="fill:none;fill-rule:nonzero;stroke:black;stroke-width:3.08px;"/>
    </g>
    <g transform="matrix(0.583832,0,0,-0.583832,-4902.36,1410.32)">
        <path d="M9750,1600L9800,1600" style="fill:none;fill-rule:nonzero;stroke:black;stroke-width:3.08px;"/>
    </g>
    <g transform="matrix(0,-0.583832,0.583832,0,-100.336,6183.15)">
        <path d="M9775,1575L9825,1575" style="fill:none;fill-rule:nonzero;stroke:black;stroke-width:3.08px;"/>
    </g>
    <g transform="matrix(0.412832,0.412832,-0.412832,0.412832,-2572.07,-4244.69)">
        <path d="M9789.65,1575L9860.35,1575" style="fill:none;fill-rule:nonzero;stroke:black;stroke-width:3.08px;"/>
    </g>
    <g transform="matrix(-0.412832,0.412832,-0.412832,-0.412832,5560.72,-2894.43)">
        <path d="M9789.65,1625L9860.35,1625" style="fill:none;fill-rule:nonzero;stroke:black;stroke-width:3.08px;"/>
    </g>
    <g transform="matrix(0,-0.583832,0.583832,0,-129.528,6212.34)">
        <path d="M9775,1625L9825,1625" style="fill:none;fill-rule:nonzero;stroke:black;stroke-width:3.08px;"/>
    </g>
    <g transform="matrix(-0.467066,-0.350299,0.350299,-0.467066,4956.02,4667.62)">
        <path d="M9913.5,1565.5L9918.5,1565.5" style="fill:none;fill-rule:nonzero;stroke:black;stroke-width:3.08px;"/>
    </g>
    <g transform="matrix(-0.583832,0,0,-0.583832,6655.84,1375.1)">
        <path d="M9907,1564L9914,1564" style="fill:none;fill-rule:nonzero;stroke:black;stroke-width:3.08px;"/>
    </g>
    <g transform="matrix(-0.546659,0.204997,-0.204997,-0.546659,6599.89,-711.429)">
        <path d="M9898.73,1565.5L9907.27,1565.5" style="fill:none;fill-rule:nonzero;stroke:black;stroke-width:3.08px;"/>
    </g>
    <g transform="matrix(-0.412832,0.412832,-0.412832,-0.412832,5595.42,-2973.16)">
        <path d="M9894.17,1569L9899.83,1569" style="fill:none;fill-rule:nonzero;stroke:black;stroke-width:3.08px;"/>
    </g>
    <g transform="matrix(-0.300379,0.500632,-0.500632,-0.300379,4619.4,-4012.82)">
        <path d="M9890.59,1573.5L9896.42,1573.5" style="fill:none;fill-rule:nonzero;stroke:black;stroke-width:3.08px;"/>
    </g>
    <g transform="matrix(-0.114499,0.572495,-0.572495,-0.114499,2896.01,-5009.61)">
        <path d="M9885.9,1581L9896.1,1581" style="fill:none;fill-rule:nonzero;stroke:black;stroke-width:3.08px;"/>
    </g>
    <g transform="matrix(0,0.583832,-0.583832,0,1785.81,-5297.23)">
        <path d="M9886.5,1589.5L9893.5,1589.5" style="fill:none;fill-rule:nonzero;stroke:black;stroke-width:3.08px;"/>
    </g>
    <g transform="matrix(0.126651,0.56993,-0.56993,0.126651,516.147,-5357.95)">
        <path d="M9886.39,1597.5L9895.61,1597.5" style="fill:none;fill-rule:nonzero;stroke:black;stroke-width:3.08px;"/>
    </g>
    <g transform="matrix(0.300379,0.500632,-0.500632,0.300379,-1308.69,-4949.33)">
        <path d="M9890.59,1604.5L9896.42,1604.5" style="fill:none;fill-rule:nonzero;stroke:black;stroke-width:3.08px;"/>
    </g>
    <g transform="matrix(0.364717,0.455896,-0.455896,0.364717,-2013.95,-4610.47)">
        <path d="M9893.8,1609.5L9900.2,1609.5" style="fill:none;fill-rule:nonzero;stroke:black;stroke-width:3.08px;"/>
    </g>
    <g transform="matrix(0.566401,0.1416,-0.1416,0.566401,-4515.27,-1825.27)">
        <path d="M9898.88,1613L9907.12,1613" style="fill:none;fill-rule:nonzero;stroke:black;stroke-width:3.08px;"/>
    </g>
    <g transform="matrix(0.583832,0,0,-0.583832,-4916.29,1433.48)">
        <path d="M9907,1614L9911,1614" style="fill:none;fill-rule:nonzero;stroke:black;stroke-width:3.08px;"/>
    </g>
    <g transform="matrix(0.561369,-0.160391,0.160391,0.561369,-4952.29,1175.3)">
        <path d="M9910.86,1613L9918.14,1613" style="fill:none;fill-rule:nonzero;stroke:black;stroke-width:3.08px;"/>
    </g>
    <g transform="matrix(0.412832,-0.412832,0.412832,0.412832,-3884.92,3919.35)">
        <path d="M9917.38,1610.5L9921.62,1610.5" style="fill:none;fill-rule:nonzero;stroke:black;stroke-width:3.08px;"/>
    </g>
    <g transform="matrix(0,-0.583832,0.583832,0,-58.8104,6275.79)">
        <path d="M9913,1601L9929,1601" style="fill:none;fill-rule:nonzero;stroke:black;stroke-width:3.08px;"/>
    </g>
    <g transform="matrix(-0.583832,0,0,-0.583832,6662.27,1408.96)">
        <path d="M9911,1593L9921,1593" style="fill:none;fill-rule:nonzero;stroke:black;stroke-width:3.08px;"/>
    </g>
    <g transform="matrix(0,-0.583832,0.583832,0,-39.5439,6281.04)">
        <path d="M9917,1589L9967,1589" style="fill:none;fill-rule:nonzero;stroke:black;stroke-width:3.08px;"/>
    </g>
    <g transform="matrix(0.292919,0.505033,-0.505033,0.292919,-1217.32,-5017.23)">
        <path d="M9927.6,1589L9985.4,1589" style="fill:none;fill-rule:nonzero;stroke:black;stroke-width:3.08px;"/>
    </g>
    <g transform="matrix(0,-0.583832,0.583832,0,-22.6128,6297.97)">
        <path d="M9946,1589L9996,1589" style="fill:none;fill-rule:nonzero;stroke:black;stroke-width:3.08px;"/>
    </g>
    <g transform="matrix(0,-0.583832,0.583832,0,-8.60078,6311.99)">
        <path d="M9970,1589L10020,1589" style="fill:none;fill-rule:nonzero;stroke:black;stroke-width:3.08px;"/>
    </g>
    <g transform="matrix(0.583832,0,0,-0.583832,-4916.29,1375.1)">
        <path d="M9995,1564L10007,1564" style="fill:none;fill-rule:nonzero;stroke:black;stroke-width:3.08px;"/>
    </g>
    <g transform="matrix(0.536627,0.229983,-0.229983,0.536627,-4083.7,-2679.47)">
        <path d="M10006.7,1565.5L10014.3,1565.5" style="fill:none;fill-rule:nonzero;stroke:black;stroke-width:3.08px;"/>
    </g>
    <g transform="matrix(0.412832,0.412832,-0.412832,0.412832,-2555.82,-4317.75)">
        <path d="M10013.2,1569L10018.8,1569" style="fill:none;fill-rule:nonzero;stroke:black;stroke-width:3.08px;"/>
    </g>
    <g transform="matrix(0.300379,0.500632,-0.500632,0.300379,-1288.49,-5021.2)">
        <path d="M10016.6,1573.5L10022.4,1573.5" style="fill:none;fill-rule:nonzero;stroke:black;stroke-width:3.08px;"/>
    </g>
    <g transform="matrix(0.114499,0.572495,-0.572495,0.114499,692.478,-5446.65)">
        <path d="M10016.9,1581L10027.1,1581" style="fill:none;fill-rule:nonzero;stroke:black;stroke-width:3.08px;"/>
    </g>
    <g transform="matrix(0,0.583832,-0.583832,0,1863.46,-5374.88)">
        <path d="M10019.5,1589.5L10026.5,1589.5" style="fill:none;fill-rule:nonzero;stroke:black;stroke-width:3.08px;"/>
    </g>
    <g transform="matrix(-0.126651,0.56993,-0.56993,-0.126651,3114.63,-5027.96)">
        <path d="M10017.4,1597.5L10026.6,1597.5" style="fill:none;fill-rule:nonzero;stroke:black;stroke-width:3.08px;"/>
    </g>
    <g transform="matrix(-0.300379,0.500632,-0.500632,-0.300379,4746.33,-4048.49)">
        <path d="M10016.6,1604.5L10022.4,1604.5" style="fill:none;fill-rule:nonzero;stroke:black;stroke-width:3.08px;"/>
    </g>
    <g transform="matrix(-0.364717,0.455896,-0.455896,-0.364717,5318.14,-3490.69)">
        <path d="M10012.8,1609.5L10019.2,1609.5" style="fill:none;fill-rule:nonzero;stroke:black;stroke-width:3.08px;"/>
    </g>
    <g transform="matrix(-0.561369,0.160391,-0.160391,-0.561369,6806.45,-209.512)">
        <path d="M10006.9,1613L10014.1,1613" style="fill:none;fill-rule:nonzero;stroke:black;stroke-width:3.08px;"/>
    </g>
    <g transform="matrix(-0.583832,0,0,-0.583832,6761.52,1433.48)">
        <path d="M9995,1614L10007,1614" style="fill:none;fill-rule:nonzero;stroke:black;stroke-width:3.08px;"/>
    </g>
    <g transform="matrix(0,-0.583832,0.583832,0,-567.402,5716.48)">
        <path d="M8962,1562L9012,1562" style="fill:none;fill-rule:nonzero;stroke:black;stroke-width:3.08px;"/>
    </g>
    <g transform="matrix(0,-0.583832,0.583832,0,-562.148,5735.74)">
        <path d="M8995,1574L9021,1574" style="fill:none;fill-rule:nonzero;stroke:black;stroke-width:3.08px;"/>
    </g>
    <g transform="matrix(-0.21683,-0.542075,0.542075,-0.21683,1464.38,5687.93)">
        <path d="M9004.31,1558.5L9009.69,1558.5" style="fill:none;fill-rule:nonzero;stroke:black;stroke-width:3.08px;"/>
    </g>
    <g transform="matrix(-0.542075,-0.21683,0.21683,-0.542075,4897.58,3260.64)">
        <path d="M9000.81,1555L9006.19,1555" style="fill:none;fill-rule:nonzero;stroke:black;stroke-width:3.08px;"/>
    </g>
    <g transform="matrix(-0.583832,0,0,-0.583832,5603.71,1372.18)">
        <path d="M8994,1554L9001,1554" style="fill:none;fill-rule:nonzero;stroke:black;stroke-width:3.08px;"/>
    </g>
    <g transform="matrix(-0.542075,0.21683,-0.21683,-0.542075,5558.41,-641.209)">
        <path d="M8988.81,1555L8994.19,1555" style="fill:none;fill-rule:nonzero;stroke:black;stroke-width:3.08px;"/>
    </g>
    <g transform="matrix(-0.323852,0.485778,-0.485778,-0.323852,4012.51,-3394.82)">
        <path d="M8986.2,1557.5L8989.8,1557.5" style="fill:none;fill-rule:nonzero;stroke:black;stroke-width:3.08px;"/>
    </g>
    <g transform="matrix(0,-0.583832,0.583832,0,-535.291,5762.6)">
        <path d="M9041,1574L9067,1574" style="fill:none;fill-rule:nonzero;stroke:black;stroke-width:3.08px;"/>
    </g>
    <g transform="matrix(-0.300379,-0.500632,0.500632,-0.300379,2321.73,5467.65)">
        <path d="M9049.59,1558.5L9055.42,1558.5" style="fill:none;fill-rule:nonzero;stroke:black;stroke-width:3.08px;"/>
    </g>
    <g transform="matrix(-0.522195,-0.261098,0.261098,-0.522195,4700.08,3640.18)">
        <path d="M9046.76,1555L9051.24,1555" style="fill:none;fill-rule:nonzero;stroke:black;stroke-width:3.08px;"/>
    </g>
    <g transform="matrix(-0.583832,0,0,-0.583832,5655.67,1372.18)">
        <path d="M9037,1554L9047,1554" style="fill:none;fill-rule:nonzero;stroke:black;stroke-width:3.08px;"/>
    </g>
    <g transform="matrix(-0.542075,0.21683,-0.21683,-0.542075,5606.82,-650.533)">
        <path d="M9031.81,1555L9037.19,1555" style="fill:none;fill-rule:nonzero;stroke:black;stroke-width:3.08px;"/>
    </g>
    <g transform="matrix(-0.542075,0.21683,-0.21683,-0.542075,5632.68,-619.316)">
        <path d="M9048.81,1586L9054.19,1586" style="fill:none;fill-rule:nonzero;stroke:black;stroke-width:3.08px;"/>
    </g>
    <g transform="matrix(-0.583832,0,0,-0.583832,5656.83,1410.71)">
        <path d="M9037,1587L9049,1587" style="fill:none;fill-rule:nonzero;stroke:black;stroke-width:3.08px;"/>
    </g>
    <g transform="matrix(-0.542075,-0.21683,0.21683,-0.542075,4925.76,3302.27)">
        <path d="M9031.81,1586L9037.19,1586" style="fill:none;fill-rule:nonzero;stroke:black;stroke-width:3.08px;"/>
    </g>
    <g transform="matrix(-0.21683,-0.542075,0.542075,-0.21683,1470.59,5720.16)">
        <path d="M9028.31,1582.5L9033.69,1582.5" style="fill:none;fill-rule:nonzero;stroke:black;stroke-width:3.08px;"/>
    </g>
    <g transform="matrix(0,-0.583832,0.583832,0,-551.347,5750.63)">
        <path d="M9027.5,1577.5L9032.5,1577.5" style="fill:none;fill-rule:nonzero;stroke:black;stroke-width:3.08px;"/>
    </g>
    <g transform="matrix(0.21683,-0.542075,0.542075,0.21683,-2440.37,5030.22)">
        <path d="M9028.31,1572.5L9033.69,1572.5" style="fill:none;fill-rule:nonzero;stroke:black;stroke-width:3.08px;"/>
    </g>
    <g transform="matrix(0.542075,-0.21683,0.21683,0.542075,-4865.3,1582.1)">
        <path d="M9031.81,1569L9037.19,1569" style="fill:none;fill-rule:nonzero;stroke:black;stroke-width:3.08px;"/>
    </g>
    <g transform="matrix(0.583832,0,0,-0.583832,-4902.36,1388.53)">
        <path d="M9037,1568L9049,1568" style="fill:none;fill-rule:nonzero;stroke:black;stroke-width:3.08px;"/>
    </g>
    <g transform="matrix(0.542075,-0.21683,0.21683,0.542075,-4864.16,1585.7)">
        <path d="M9048.81,1567L9054.19,1567" style="fill:none;fill-rule:nonzero;stroke:black;stroke-width:3.08px;"/>
    </g>
    <g transform="matrix(0,-0.583832,0.583832,0,-519.82,5773.99)">
        <path d="M9060.5,1570.5L9093.5,1570.5" style="fill:none;fill-rule:nonzero;stroke:black;stroke-width:3.08px;"/>
    </g>
    <g transform="matrix(0.350299,-0.467066,0.467066,0.350299,-3511.32,4162.43)">
        <path d="M9076,1561L9081,1561" style="fill:none;fill-rule:nonzero;stroke:black;stroke-width:3.08px;"/>
    </g>
    <g transform="matrix(0.323852,-0.485778,0.485778,0.323852,-3298.07,4373.9)">
        <path d="M9079.2,1557.5L9082.8,1557.5" style="fill:none;fill-rule:nonzero;stroke:black;stroke-width:3.08px;"/>
    </g>
    <g transform="matrix(0.542075,-0.21683,0.21683,0.542075,-4860.18,1592.36)">
        <path d="M9081.81,1555L9087.19,1555" style="fill:none;fill-rule:nonzero;stroke:black;stroke-width:3.08px;"/>
    </g>
    <g transform="matrix(0.583832,0,0,-0.583832,-4902.36,1372.18)">
        <path d="M9087,1554L9092,1554" style="fill:none;fill-rule:nonzero;stroke:black;stroke-width:3.08px;"/>
    </g>
    <g transform="matrix(0,-0.583832,0.583832,0,-483.914,5799.97)">
        <path d="M9105,1562L9155,1562" style="fill:none;fill-rule:nonzero;stroke:black;stroke-width:3.08px;"/>
    </g>
    <g transform="matrix(-0.542075,0.21683,-0.21683,-0.542075,5718.25,-635.795)">
        <path d="M9124.81,1586L9130.19,1586" style="fill:none;fill-rule:nonzero;stroke:black;stroke-width:3.08px;"/>
    </g>
    <g transform="matrix(-0.583832,0,0,-0.583832,5747.33,1410.71)">
        <path d="M9116,1587L9125,1587" style="fill:none;fill-rule:nonzero;stroke:black;stroke-width:3.08px;"/>
    </g>
    <g transform="matrix(-0.542075,-0.21683,0.21683,-0.542075,5014.7,3319.4)">
        <path d="M9110.81,1586L9116.19,1586" style="fill:none;fill-rule:nonzero;stroke:black;stroke-width:3.08px;"/>
    </g>
    <g transform="matrix(-0.412832,-0.412832,0.412832,-0.412832,3523.04,4896.54)">
        <path d="M9107.38,1583.5L9111.62,1583.5" style="fill:none;fill-rule:nonzero;stroke:black;stroke-width:3.08px;"/>
    </g>
    <g transform="matrix(-0.261098,-0.522195,0.522195,-0.261098,1967.35,5648.25)">
        <path d="M9104.76,1580L9109.24,1580" style="fill:none;fill-rule:nonzero;stroke:black;stroke-width:3.08px;"/>
    </g>
    <g transform="matrix(0,-0.583832,0.583832,0,-502.889,5790.92)">
        <path d="M9098.5,1570.5L9113.5,1570.5" style="fill:none;fill-rule:nonzero;stroke:black;stroke-width:3.08px;"/>
    </g>
    <g transform="matrix(0.261098,-0.522195,0.522195,0.261098,-2778.36,4817.05)">
        <path d="M9104.76,1561L9109.24,1561" style="fill:none;fill-rule:nonzero;stroke:black;stroke-width:3.08px;"/>
    </g>
    <g transform="matrix(0.412832,-0.412832,0.412832,0.412832,-3987.61,3584.66)">
        <path d="M9107.38,1557.5L9111.62,1557.5" style="fill:none;fill-rule:nonzero;stroke:black;stroke-width:3.08px;"/>
    </g>
    <g transform="matrix(0.542075,-0.21683,0.21683,0.542075,-4858.97,1598.64)">
        <path d="M9110.81,1555L9116.19,1555" style="fill:none;fill-rule:nonzero;stroke:black;stroke-width:3.08px;"/>
    </g>
    <g transform="matrix(0.583832,0,0,-0.583832,-4902.36,1372.18)">
        <path d="M9116,1554L9125,1554" style="fill:none;fill-rule:nonzero;stroke:black;stroke-width:3.08px;"/>
    </g>
    <g transform="matrix(0.542075,0.21683,-0.21683,0.542075,-4184.04,-2356.55)">
        <path d="M9124.81,1555L9130.19,1555" style="fill:none;fill-rule:nonzero;stroke:black;stroke-width:3.08px;"/>
    </g>
    <g transform="matrix(0.583832,0,0,-0.583832,-4902.36,1416.55)">
        <path d="M9142,1592L9180,1592" style="fill:none;fill-rule:nonzero;stroke:black;stroke-width:3.08px;"/>
    </g>
    <g transform="matrix(0.542075,0.21683,-0.21683,0.542075,-4174.65,-2369.13)">
        <path d="M9188.81,1586L9194.19,1586" style="fill:none;fill-rule:nonzero;stroke:black;stroke-width:3.08px;"/>
    </g>
    <g transform="matrix(0.583832,0,0,-0.583832,-4902.36,1410.71)">
        <path d="M9194,1587L9204,1587" style="fill:none;fill-rule:nonzero;stroke:black;stroke-width:3.08px;"/>
    </g>
    <g transform="matrix(0.522195,-0.261098,0.261098,0.522195,-4749.03,2059.05)">
        <path d="M9203.76,1586L9208.24,1586" style="fill:none;fill-rule:nonzero;stroke:black;stroke-width:3.08px;"/>
    </g>
    <g transform="matrix(0.300379,-0.500632,0.500632,0.300379,-3084.15,4616.77)">
        <path d="M9206.59,1582.5L9212.42,1582.5" style="fill:none;fill-rule:nonzero;stroke:black;stroke-width:3.08px;"/>
    </g>
    <g transform="matrix(0,-0.583832,0.583832,0,-446.549,5857.18)">
        <path d="M9210,1579L9212,1579" style="fill:none;fill-rule:nonzero;stroke:black;stroke-width:3.08px;"/>
    </g>
    <g transform="matrix(-0.300379,-0.500632,0.500632,-0.300379,2452.04,5561.28)">
        <path d="M9206.59,1575.5L9212.42,1575.5" style="fill:none;fill-rule:nonzero;stroke:black;stroke-width:3.08px;"/>
    </g>
    <g transform="matrix(-0.467066,-0.350299,0.350299,-0.467066,4221.72,4433.97)">
        <path d="M9203.5,1571.5L9208.5,1571.5" style="fill:none;fill-rule:nonzero;stroke:black;stroke-width:3.08px;"/>
    </g>
    <g transform="matrix(-0.583832,0,0,-0.583832,5840.74,1390.86)">
        <path d="M9197,1570L9204,1570" style="fill:none;fill-rule:nonzero;stroke:black;stroke-width:3.08px;"/>
    </g>
    <g transform="matrix(-0.542075,-0.21683,0.21683,-0.542075,5109.59,3317.82)">
        <path d="M9191.81,1569L9197.19,1569" style="fill:none;fill-rule:nonzero;stroke:black;stroke-width:3.08px;"/>
    </g>
    <g transform="matrix(-0.300379,-0.500632,0.500632,-0.300379,2440.25,5542.92)">
        <path d="M9187.59,1565.5L9193.42,1565.5" style="fill:none;fill-rule:nonzero;stroke:black;stroke-width:3.08px;"/>
    </g>
    <g transform="matrix(0,-0.583832,0.583832,0,-449.468,5834.41)">
        <path d="M9188,1562L9190,1562" style="fill:none;fill-rule:nonzero;stroke:black;stroke-width:3.08px;"/>
    </g>
    <g transform="matrix(0.300379,-0.500632,0.500632,0.300379,-3077.52,4600.45)">
        <path d="M9187.59,1558.5L9193.42,1558.5" style="fill:none;fill-rule:nonzero;stroke:black;stroke-width:3.08px;"/>
    </g>
    <g transform="matrix(0.542075,-0.21683,0.21683,0.542075,-4855.59,1616.21)">
        <path d="M9191.81,1555L9197.19,1555" style="fill:none;fill-rule:nonzero;stroke:black;stroke-width:3.08px;"/>
    </g>
    <g transform="matrix(0.583832,0,0,-0.583832,-4902.36,1372.18)">
        <path d="M9197,1554L9204,1554" style="fill:none;fill-rule:nonzero;stroke:black;stroke-width:3.08px;"/>
    </g>
    <g transform="matrix(0.522195,0.261098,-0.261098,0.522195,-3928.92,-2750.19)">
        <path d="M9203.76,1555L9208.24,1555" style="fill:none;fill-rule:nonzero;stroke:black;stroke-width:3.08px;"/>
    </g>
    <g transform="matrix(0.199521,0.548682,-0.548682,0.199521,-492.303,-4904.79)">
        <path d="M9215.44,1570.5L9250.56,1570.5" style="fill:none;fill-rule:nonzero;stroke:black;stroke-width:3.08px;"/>
    </g>
    <g transform="matrix(-0.199521,0.548682,-0.548682,-0.199521,3201.45,-4284.68)">
        <path d="M9227.44,1570.5L9262.56,1570.5" style="fill:none;fill-rule:nonzero;stroke:black;stroke-width:3.08px;"/>
    </g>
    <g transform="matrix(-0.184624,0.553872,-0.553872,-0.184624,3078.19,-4334.33)">
        <path d="M9230.68,1593L9243.33,1593" style="fill:none;fill-rule:nonzero;stroke:black;stroke-width:3.08px;"/>
    </g>
    <g transform="matrix(-0.485778,0.323852,-0.323852,-0.485778,5492.05,-1721.28)">
        <path d="M9231.7,1600L9235.3,1600" style="fill:none;fill-rule:nonzero;stroke:black;stroke-width:3.08px;"/>
    </g>
    <g transform="matrix(-0.500632,0.300379,-0.300379,-0.500632,5588.06,-1476.86)">
        <path d="M9226.59,1602.5L9232.42,1602.5" style="fill:none;fill-rule:nonzero;stroke:black;stroke-width:3.08px;"/>
    </g>
    <g transform="matrix(0,0.583832,-0.583832,0,1426.68,-4937.59)">
        <path d="M9253.5,1570.5L9286.5,1570.5" style="fill:none;fill-rule:nonzero;stroke:black;stroke-width:3.08px;"/>
    </g>
    <g transform="matrix(0.412832,-0.412832,0.412832,0.412832,-3959.91,3651.53)">
        <path d="M9269.38,1557.5L9273.62,1557.5" style="fill:none;fill-rule:nonzero;stroke:black;stroke-width:3.08px;"/>
    </g>
    <g transform="matrix(0.522195,-0.261098,0.261098,0.522195,-4736.68,2075.16)">
        <path d="M9272.76,1555L9277.24,1555" style="fill:none;fill-rule:nonzero;stroke:black;stroke-width:3.08px;"/>
    </g>
    <g transform="matrix(0.583832,0,0,-0.583832,-4902.36,1372.18)">
        <path d="M9277,1554L9285,1554" style="fill:none;fill-rule:nonzero;stroke:black;stroke-width:3.08px;"/>
    </g>
    <g transform="matrix(0.522195,0.261098,-0.261098,0.522195,-3923.93,-2771.34)">
        <path d="M9284.76,1555L9289.24,1555" style="fill:none;fill-rule:nonzero;stroke:black;stroke-width:3.08px;"/>
    </g>
    <g transform="matrix(0.300379,0.500632,-0.500632,0.300379,-1488.7,-4651.73)">
        <path d="M9287.59,1558.5L9293.42,1558.5" style="fill:none;fill-rule:nonzero;stroke:black;stroke-width:3.08px;"/>
    </g>
    <g transform="matrix(0,0.583832,-0.583832,0,1441.56,-4948.39)">
        <path d="M9279,1574L9305,1574" style="fill:none;fill-rule:nonzero;stroke:black;stroke-width:3.08px;"/>
    </g>
    <g transform="matrix(-0.542075,0.21683,-0.21683,-0.542075,5951.31,-680.679)">
        <path d="M9331.81,1586L9337.19,1586" style="fill:none;fill-rule:nonzero;stroke:black;stroke-width:3.08px;"/>
    </g>
    <g transform="matrix(-0.583832,0,0,-0.583832,5989.03,1410.71)">
        <path d="M9323,1587L9332,1587" style="fill:none;fill-rule:nonzero;stroke:black;stroke-width:3.08px;"/>
    </g>
    <g transform="matrix(-0.542075,-0.21683,0.21683,-0.542075,5247.77,3364.28)">
        <path d="M9317.81,1586L9323.19,1586" style="fill:none;fill-rule:nonzero;stroke:black;stroke-width:3.08px;"/>
    </g>
    <g transform="matrix(-0.323852,-0.485778,0.485778,-0.323852,2785.31,5520.94)">
        <path d="M9315.2,1583.5L9318.8,1583.5" style="fill:none;fill-rule:nonzero;stroke:black;stroke-width:3.08px;"/>
    </g>
    <g transform="matrix(-0.350299,-0.467066,0.467066,-0.350299,3060.65,5384.04)">
        <path d="M9312,1580L9317,1580" style="fill:none;fill-rule:nonzero;stroke:black;stroke-width:3.08px;"/>
    </g>
    <g transform="matrix(0,-0.583832,0.583832,0,-382.035,5911.77)">
        <path d="M9305.5,1570.5L9320.5,1570.5" style="fill:none;fill-rule:nonzero;stroke:black;stroke-width:3.08px;"/>
    </g>
    <g transform="matrix(0.350299,-0.467066,0.467066,0.350299,-3456.2,4272.66)">
        <path d="M9312,1561L9317,1561" style="fill:none;fill-rule:nonzero;stroke:black;stroke-width:3.08px;"/>
    </g>
    <g transform="matrix(0.323852,-0.485778,0.485778,0.323852,-3236.72,4488.54)">
        <path d="M9315.2,1557.5L9318.8,1557.5" style="fill:none;fill-rule:nonzero;stroke:black;stroke-width:3.08px;"/>
    </g>
    <g transform="matrix(0.542075,-0.21683,0.21683,0.542075,-4850.33,1643.53)">
        <path d="M9317.81,1555L9323.19,1555" style="fill:none;fill-rule:nonzero;stroke:black;stroke-width:3.08px;"/>
    </g>
    <g transform="matrix(0.583832,0,0,-0.583832,-4902.36,1372.18)">
        <path d="M9323,1554L9332,1554" style="fill:none;fill-rule:nonzero;stroke:black;stroke-width:3.08px;"/>
    </g>
    <g transform="matrix(0.542075,0.21683,-0.21683,0.542075,-4175.4,-2401.43)">
        <path d="M9331.81,1555L9337.19,1555" style="fill:none;fill-rule:nonzero;stroke:black;stroke-width:3.08px;"/>
    </g>
</svg>
