<?xml version="1.0" encoding="UTF-8" standalone="no"?>
<!DOCTYPE svg PUBLIC "-//W3C//DTD SVG 1.1//EN" "http://www.w3.org/Graphics/SVG/1.1/DTD/svg11.dtd">
<svg width="100%" height="100%" viewBox="0 0 1280 800" version="1.1" xmlns="http://www.w3.org/2000/svg" xmlns:xlink="http://www.w3.org/1999/xlink" xml:space="preserve" xmlns:serif="http://www.serif.com/" style="fill-rule:evenodd;clip-rule:evenodd;stroke-linecap:round;stroke-linejoin:round;stroke-miterlimit:10;">
    <g transform="matrix(0,0.525657,-0.525657,0,2730.95,-1811.55)">
        <path d="M4295,4145L4305,4145" style="fill:none;fill-rule:nonzero;stroke:black;stroke-width:3.42px;"/>
    </g>
    <g transform="matrix(0,0.525657,-0.525657,0,2631.07,-1911.43)">
        <path d="M4295,3955L4305,3955" style="fill:none;fill-rule:nonzero;stroke:black;stroke-width:3.42px;"/>
    </g>
    <g transform="matrix(-0.525657,0,0,-0.525657,2896.53,2527.75)">
        <path d="M4360,4050L4400,4050" style="fill:none;fill-rule:nonzero;stroke:black;stroke-width:3.42px;"/>
    </g>
    <g transform="matrix(0.525657,0,0,-0.525657,-1708.23,2527.75)">
        <path d="M4345,4050L4390,4070L4390,4030L4345,4050" style="stroke:black;stroke-width:3.42px;"/>
    </g>
    <g transform="matrix(0.492188,0.184571,-0.184571,0.492188,-809.212,-2390.62)">
        <path d="M4298.64,4087.5L4341.36,4087.5" style="fill:none;fill-rule:nonzero;stroke:black;stroke-width:3.42px;"/>
    </g>
    <g transform="matrix(-0.492188,0.184571,-0.184571,-0.492188,3446.06,1648.29)">
        <path d="M4298.64,4102.5L4341.36,4102.5" style="fill:none;fill-rule:nonzero;stroke:black;stroke-width:3.42px;"/>
    </g>
    <g transform="matrix(-0.492188,0.184571,-0.184571,-0.492188,3408.12,1670.94)">
        <path d="M4258.64,4117.5L4301.36,4117.5" style="fill:none;fill-rule:nonzero;stroke:black;stroke-width:3.42px;"/>
    </g>
    <g transform="matrix(0.492188,0.184571,-0.184571,0.492188,-802.245,-2381.73)">
        <path d="M4258.64,4132.5L4301.36,4132.5" style="fill:none;fill-rule:nonzero;stroke:black;stroke-width:3.42px;"/>
    </g>
    <g transform="matrix(0.492188,0.184571,-0.184571,0.492188,-820.286,-2392.62)">
        <path d="M4298.64,4027.5L4341.36,4027.5" style="fill:none;fill-rule:nonzero;stroke:black;stroke-width:3.42px;"/>
    </g>
    <g transform="matrix(-0.492188,0.184571,-0.184571,-0.492188,3434.99,1587.22)">
        <path d="M4298.64,4042.5L4341.36,4042.5" style="fill:none;fill-rule:nonzero;stroke:black;stroke-width:3.42px;"/>
    </g>
    <g transform="matrix(-0.492188,0.184571,-0.184571,-0.492188,3397.05,1609.87)">
        <path d="M4258.64,4057.5L4301.36,4057.5" style="fill:none;fill-rule:nonzero;stroke:black;stroke-width:3.42px;"/>
    </g>
    <g transform="matrix(0.492188,0.184571,-0.184571,0.492188,-813.319,-2383.74)">
        <path d="M4258.64,4072.5L4301.36,4072.5" style="fill:none;fill-rule:nonzero;stroke:black;stroke-width:3.42px;"/>
    </g>
    <g transform="matrix(0.492188,0.184571,-0.184571,0.492188,-831.36,-2394.63)">
        <path d="M4298.64,3967.5L4341.36,3967.5" style="fill:none;fill-rule:nonzero;stroke:black;stroke-width:3.42px;"/>
    </g>
    <g transform="matrix(-0.492188,0.184571,-0.184571,-0.492188,3423.92,1526.15)">
        <path d="M4298.64,3982.5L4341.36,3982.5" style="fill:none;fill-rule:nonzero;stroke:black;stroke-width:3.42px;"/>
    </g>
    <g transform="matrix(-0.492188,0.184571,-0.184571,-0.492188,3385.97,1548.8)">
        <path d="M4258.64,3997.5L4301.36,3997.5" style="fill:none;fill-rule:nonzero;stroke:black;stroke-width:3.42px;"/>
    </g>
    <g transform="matrix(0.492188,0.184571,-0.184571,0.492188,-824.393,-2385.74)">
        <path d="M4258.64,4012.5L4301.36,4012.5" style="fill:none;fill-rule:nonzero;stroke:black;stroke-width:3.42px;"/>
    </g>
    <g transform="matrix(0,-0.525657,0.525657,0,-1511.11,2593.46)">
        <path d="M4275,3925L4325,3925" style="fill:none;fill-rule:nonzero;stroke:black;stroke-width:3.42px;"/>
    </g>
    <g transform="matrix(0.525657,0,0,-0.525657,-1708.23,2527.75)">
        <path d="M4400,4050L4450,4050" style="fill:none;fill-rule:nonzero;stroke:black;stroke-width:3.42px;"/>
    </g>
    <g transform="matrix(0,0.525657,-0.525657,0,2746.72,-1795.78)">
        <path d="M4275,4175L4325,4175" style="fill:none;fill-rule:nonzero;stroke:black;stroke-width:3.42px;"/>
    </g>
    <g transform="matrix(-0.303839,-0.428949,0.428949,-0.303839,-12.121,3369.1)">
        <path d="M4106.8,4016L4136.2,4016" style="fill:none;fill-rule:nonzero;stroke:black;stroke-width:3.42px;"/>
    </g>
    <g transform="matrix(0,-0.525657,0.525657,0,-1656.72,2529.85)">
        <path d="M4076,4003L4126,4003" style="fill:none;fill-rule:nonzero;stroke:black;stroke-width:3.42px;"/>
    </g>
    <g transform="matrix(0.525657,0,0,-0.525657,-1708.23,2452.05)">
        <path d="M4101,3978L4120,3978" style="fill:none;fill-rule:nonzero;stroke:black;stroke-width:3.42px;"/>
    </g>
    <g transform="matrix(0.450748,0.270449,-0.270449,0.450748,-323.165,-2546.9)">
        <path d="M4119.59,3979.5L4125.41,3979.5" style="fill:none;fill-rule:nonzero;stroke:black;stroke-width:3.42px;"/>
    </g>
    <g transform="matrix(0.371696,0.371696,-0.371696,0.371696,407.108,-2650.62)">
        <path d="M4124.59,3982L4127.41,3982" style="fill:none;fill-rule:nonzero;stroke:black;stroke-width:3.42px;"/>
    </g>
    <g transform="matrix(0.270449,0.450748,-0.450748,0.270449,1141.85,-2573.85)">
        <path d="M4125.59,3985.5L4131.41,3985.5" style="fill:none;fill-rule:nonzero;stroke:black;stroke-width:3.42px;"/>
    </g>
    <g transform="matrix(0,0.525657,-0.525657,0,2560.9,-1802.88)">
        <path d="M4126.5,3991.5L4133.5,3991.5" style="fill:none;fill-rule:nonzero;stroke:black;stroke-width:3.42px;"/>
    </g>
    <g transform="matrix(-0.270449,0.450748,-0.450748,-0.270449,3380.36,-408.554)">
        <path d="M4125.59,3997.5L4131.41,3997.5" style="fill:none;fill-rule:nonzero;stroke:black;stroke-width:3.42px;"/>
    </g>
    <g transform="matrix(-0.371696,0.371696,-0.371696,-0.371696,3481.4,326.617)">
        <path d="M4124.59,4001L4127.41,4001" style="fill:none;fill-rule:nonzero;stroke:black;stroke-width:3.42px;"/>
    </g>
    <g transform="matrix(-0.488061,0.195224,-0.195224,-0.488061,3252.31,1523.03)">
        <path d="M4119.81,4003L4125.19,4003" style="fill:none;fill-rule:nonzero;stroke:black;stroke-width:3.42px;"/>
    </g>
    <g transform="matrix(-0.525657,0,0,-0.525657,2613.2,2479.39)">
        <path d="M4101,4004L4120,4004" style="fill:none;fill-rule:nonzero;stroke:black;stroke-width:3.42px;"/>
    </g>
    <g transform="matrix(0.169211,0.497678,-0.497678,0.169211,1764.12,-2369.83)">
        <path d="M4126.1,4003L4178.9,4003" style="fill:none;fill-rule:nonzero;stroke:black;stroke-width:3.42px;"/>
    </g>
    <g transform="matrix(0.160208,-0.500649,0.500649,0.160208,-2188.77,1820.02)">
        <path d="M4142.75,4003L4195.25,4003" style="fill:none;fill-rule:nonzero;stroke:black;stroke-width:3.42px;"/>
    </g>
    <g transform="matrix(-0.525657,0,0,-0.525657,2713.6,2504.62)">
        <path d="M4192,4028L4220,4028" style="fill:none;fill-rule:nonzero;stroke:black;stroke-width:3.42px;"/>
    </g>
    <g transform="matrix(0,-0.525657,0.525657,0,-1601.52,2585.05)">
        <path d="M4181,4003L4231,4003" style="fill:none;fill-rule:nonzero;stroke:black;stroke-width:3.42px;"/>
    </g>
    <g transform="matrix(-0.305532,0.427745,-0.427745,-0.305532,3488.74,-218.721)">
        <path d="M4199.2,3981.5L4207.8,3981.5" style="fill:none;fill-rule:nonzero;stroke:black;stroke-width:3.42px;"/>
    </g>
    <g transform="matrix(-0.371696,0.371696,-0.371696,-0.371696,3541.45,287.555)">
        <path d="M4194.96,3987.5L4202.04,3987.5" style="fill:none;fill-rule:nonzero;stroke:black;stroke-width:3.42px;"/>
    </g>
    <g transform="matrix(-0.470162,0.235081,-0.235081,-0.470162,3406.45,1258.31)">
        <path d="M4191.76,3991L4196.24,3991" style="fill:none;fill-rule:nonzero;stroke:black;stroke-width:3.42px;"/>
    </g>
    <g transform="matrix(-0.291582,0.437373,-0.437373,-0.291582,3438.38,-157.77)">
        <path d="M4093.2,4115.5L4096.8,4115.5" style="fill:none;fill-rule:nonzero;stroke:black;stroke-width:3.42px;"/>
    </g>
    <g transform="matrix(-0.505432,0.144409,-0.144409,-0.505432,3104.12,1925.25)">
        <path d="M4086.86,4118L4094.14,4118" style="fill:none;fill-rule:nonzero;stroke:black;stroke-width:3.42px;"/>
    </g>
    <g transform="matrix(-0.525657,0,0,-0.525657,2585.87,2600.29)">
        <path d="M4082,4119L4087,4119" style="fill:none;fill-rule:nonzero;stroke:black;stroke-width:3.42px;"/>
    </g>
    <g transform="matrix(-0.505432,-0.144409,0.144409,-0.505432,1902.39,3104.92)">
        <path d="M4074.86,4118L4082.14,4118" style="fill:none;fill-rule:nonzero;stroke:black;stroke-width:3.42px;"/>
    </g>
    <g transform="matrix(-0.371696,-0.371696,0.371696,-0.371696,416.898,3475.82)">
        <path d="M4068.96,4114.5L4076.04,4114.5" style="fill:none;fill-rule:nonzero;stroke:black;stroke-width:3.42px;"/>
    </g>
    <g transform="matrix(-0.195224,-0.488061,0.488061,-0.195224,-780.648,3218.31)">
        <path d="M4066.31,4109.5L4071.69,4109.5" style="fill:none;fill-rule:nonzero;stroke:black;stroke-width:3.42px;"/>
    </g>
    <g transform="matrix(-0.166227,-0.498682,0.498682,-0.166227,-940.525,3136.27)">
        <path d="M4061.76,4102.5L4071.24,4102.5" style="fill:none;fill-rule:nonzero;stroke:black;stroke-width:3.42px;"/>
    </g>
    <g transform="matrix(0,-0.525657,0.525657,0,-1723.74,2559.03)">
        <path d="M4061.5,4094.5L4068.5,4094.5" style="fill:none;fill-rule:nonzero;stroke:black;stroke-width:3.42px;"/>
    </g>
    <g transform="matrix(0.151047,-0.503489,0.503489,0.151047,-2242.13,1848.02)">
        <path d="M4061.28,4086L4071.72,4086" style="fill:none;fill-rule:nonzero;stroke:black;stroke-width:3.42px;"/>
    </g>
    <g transform="matrix(0.195224,-0.488061,0.488061,0.195224,-2354.25,1603.51)">
        <path d="M4066.31,4078.5L4071.69,4078.5" style="fill:none;fill-rule:nonzero;stroke:black;stroke-width:3.42px;"/>
    </g>
    <g transform="matrix(0.410469,-0.328376,0.328376,0.410469,-2576.93,76.5092)">
        <path d="M4069.3,4074L4075.7,4074" style="fill:none;fill-rule:nonzero;stroke:black;stroke-width:3.42px;"/>
    </g>
    <g transform="matrix(0.483155,-0.207067,0.207067,0.483155,-2377.75,-712.55)">
        <path d="M4074.69,4070.5L4082.31,4070.5" style="fill:none;fill-rule:nonzero;stroke:black;stroke-width:3.42px;"/>
    </g>
    <g transform="matrix(0.525657,0,0,-0.525657,-1708.23,2547.72)">
        <path d="M4082,4069L4087,4069" style="fill:none;fill-rule:nonzero;stroke:black;stroke-width:3.42px;"/>
    </g>
    <g transform="matrix(0.483155,0.207067,-0.207067,0.483155,-691.511,-2404.08)">
        <path d="M4086.69,4070.5L4094.31,4070.5" style="fill:none;fill-rule:nonzero;stroke:black;stroke-width:3.42px;"/>
    </g>
    <g transform="matrix(0.371696,0.371696,-0.371696,0.371696,436.159,-2625.09)">
        <path d="M4093.59,4073L4096.41,4073" style="fill:none;fill-rule:nonzero;stroke:black;stroke-width:3.42px;"/>
    </g>
    <g transform="matrix(0.169211,0.497678,-0.497678,0.169211,1797.29,-2320.47)">
        <path d="M4092.1,4094L4144.9,4094" style="fill:none;fill-rule:nonzero;stroke:black;stroke-width:3.42px;"/>
    </g>
    <g transform="matrix(0.169211,-0.497678,0.497678,0.169211,-2271.64,1787.37)">
        <path d="M4109.1,4094L4161.9,4094" style="fill:none;fill-rule:nonzero;stroke:black;stroke-width:3.42px;"/>
    </g>
    <g transform="matrix(0.525657,0,0,-0.525657,-1708.23,2585.57)">
        <path d="M4196,4105L4220,4105" style="fill:none;fill-rule:nonzero;stroke:black;stroke-width:3.42px;"/>
    </g>
    <g transform="matrix(0.169211,-0.497678,0.497678,0.169211,-2248.83,1819.22)">
        <path d="M4173.1,4094L4225.9,4094" style="fill:none;fill-rule:nonzero;stroke:black;stroke-width:3.42px;"/>
    </g>
    <g transform="matrix(0.169211,0.497678,-0.497678,0.169211,1832.22,-2369.24)">
        <path d="M4190.1,4094L4242.9,4094" style="fill:none;fill-rule:nonzero;stroke:black;stroke-width:3.42px;"/>
    </g>
    <g transform="matrix(0,0.525657,-0.525657,0,2773,-1769.5)">
        <path d="M4275,4225L4325,4225" style="fill:none;fill-rule:nonzero;stroke:black;stroke-width:3.42px;"/>
    </g>
    <g transform="matrix(0.525657,0,0,-0.525657,-1708.23,2738.01)">
        <path d="M4300,4250L4350,4250" style="fill:none;fill-rule:nonzero;stroke:black;stroke-width:3.42px;"/>
    </g>
    <g transform="matrix(-0.371696,0.371696,-0.371696,-0.371696,3761.82,498.525)">
        <path d="M4289.65,4275L4360.36,4275" style="fill:none;fill-rule:nonzero;stroke:black;stroke-width:3.42px;"/>
    </g>
    <g transform="matrix(-0.371696,-0.371696,0.371696,-0.371696,538.955,3695.11)">
        <path d="M4239.65,4275L4310.36,4275" style="fill:none;fill-rule:nonzero;stroke:black;stroke-width:3.42px;"/>
    </g>
    <g transform="matrix(0.525657,0,0,-0.525657,-1708.23,2738.01)">
        <path d="M4250,4250L4300,4250" style="fill:none;fill-rule:nonzero;stroke:black;stroke-width:3.42px;"/>
    </g>
    <g transform="matrix(-0.420526,-0.315394,0.315394,-0.420526,952.342,3712.59)">
        <path d="M4261.5,4348.5L4266.5,4348.5" style="fill:none;fill-rule:nonzero;stroke:black;stroke-width:3.42px;"/>
    </g>
    <g transform="matrix(-0.525657,0,0,-0.525657,2766.33,2823.33)">
        <path d="M4255,4347L4262,4347" style="fill:none;fill-rule:nonzero;stroke:black;stroke-width:3.42px;"/>
    </g>
    <g transform="matrix(-0.492188,0.184571,-0.184571,-0.492188,3418.78,1894.76)">
        <path d="M4246.73,4348.5L4255.27,4348.5" style="fill:none;fill-rule:nonzero;stroke:black;stroke-width:3.42px;"/>
    </g>
    <g transform="matrix(-0.371696,0.371696,-0.371696,-0.371696,3716.2,580.701)">
        <path d="M4242.17,4352L4247.83,4352" style="fill:none;fill-rule:nonzero;stroke:black;stroke-width:3.42px;"/>
    </g>
    <g transform="matrix(-0.270449,0.450748,-0.450748,-0.270449,3629.67,-190.341)">
        <path d="M4238.59,4356.5L4244.41,4356.5" style="fill:none;fill-rule:nonzero;stroke:black;stroke-width:3.42px;"/>
    </g>
    <g transform="matrix(-0.10309,0.51545,-0.51545,-0.10309,3203.99,-1187.87)">
        <path d="M4233.9,4364L4244.1,4364" style="fill:none;fill-rule:nonzero;stroke:black;stroke-width:3.42px;"/>
    </g>
    <g transform="matrix(0,0.525657,-0.525657,0,2815.48,-1676.03)">
        <path d="M4234.5,4372.5L4241.5,4372.5" style="fill:none;fill-rule:nonzero;stroke:black;stroke-width:3.42px;"/>
    </g>
    <g transform="matrix(0.114031,0.51314,-0.51314,0.114031,2282,-2118.8)">
        <path d="M4234.39,4380.5L4243.61,4380.5" style="fill:none;fill-rule:nonzero;stroke:black;stroke-width:3.42px;"/>
    </g>
    <g transform="matrix(0.270449,0.450748,-0.450748,0.270449,1349.43,-2538.85)">
        <path d="M4238.59,4387.5L4244.41,4387.5" style="fill:none;fill-rule:nonzero;stroke:black;stroke-width:3.42px;"/>
    </g>
    <g transform="matrix(0.328376,0.410469,-0.410469,0.328376,929.758,-2622.61)">
        <path d="M4241.8,4392.5L4248.2,4392.5" style="fill:none;fill-rule:nonzero;stroke:black;stroke-width:3.42px;"/>
    </g>
    <g transform="matrix(0.509963,0.127491,-0.127491,0.509963,-1083.52,-2219.7)">
        <path d="M4246.88,4396L4255.12,4396" style="fill:none;fill-rule:nonzero;stroke:black;stroke-width:3.42px;"/>
    </g>
    <g transform="matrix(0.525657,0,0,-0.525657,-1710.69,2875.9)">
        <path d="M4255,4397L4259,4397" style="fill:none;fill-rule:nonzero;stroke:black;stroke-width:3.42px;"/>
    </g>
    <g transform="matrix(0.505432,-0.144409,0.144409,0.505432,-2259.3,-1042.28)">
        <path d="M4258.86,4396L4266.14,4396" style="fill:none;fill-rule:nonzero;stroke:black;stroke-width:3.42px;"/>
    </g>
    <g transform="matrix(0.371696,-0.371696,0.371696,0.371696,-2686.71,515.911)">
        <path d="M4265.38,4393.5L4269.62,4393.5" style="fill:none;fill-rule:nonzero;stroke:black;stroke-width:3.42px;"/>
    </g>
    <g transform="matrix(0,-0.525657,0.525657,0,-1771.14,2801.78)">
        <path d="M4261,4384L4277,4384" style="fill:none;fill-rule:nonzero;stroke:black;stroke-width:3.42px;"/>
    </g>
    <g transform="matrix(-0.525657,0,0,-0.525657,2772.12,2853.82)">
        <path d="M4259,4376L4269,4376" style="fill:none;fill-rule:nonzero;stroke:black;stroke-width:3.42px;"/>
    </g>
    <g transform="matrix(0,-0.525657,0.525657,0,-1753.79,2806.51)">
        <path d="M4265,4372L4315,4372" style="fill:none;fill-rule:nonzero;stroke:black;stroke-width:3.42px;"/>
    </g>
    <g transform="matrix(0.263732,0.45471,-0.45471,0.263732,1404.76,-2558.89)">
        <path d="M4275.6,4372L4333.4,4372" style="fill:none;fill-rule:nonzero;stroke:black;stroke-width:3.42px;"/>
    </g>
    <g transform="matrix(0,-0.525657,0.525657,0,-1738.55,2821.76)">
        <path d="M4294,4372L4344,4372" style="fill:none;fill-rule:nonzero;stroke:black;stroke-width:3.42px;"/>
    </g>
    <g transform="matrix(0,-0.525657,0.525657,0,-1725.93,2834.37)">
        <path d="M4318,4372L4368,4372" style="fill:none;fill-rule:nonzero;stroke:black;stroke-width:3.42px;"/>
    </g>
    <g transform="matrix(0.525657,0,0,-0.525657,-1710.69,2823.33)">
        <path d="M4343,4347L4355,4347" style="fill:none;fill-rule:nonzero;stroke:black;stroke-width:3.42px;"/>
    </g>
    <g transform="matrix(0.483155,0.207067,-0.207067,0.483155,-625.016,-2464.41)">
        <path d="M4354.69,4348.5L4362.31,4348.5" style="fill:none;fill-rule:nonzero;stroke:black;stroke-width:3.42px;"/>
    </g>
    <g transform="matrix(0.371696,0.371696,-0.371696,0.371696,578.818,-2698.77)">
        <path d="M4361.17,4352L4366.83,4352" style="fill:none;fill-rule:nonzero;stroke:black;stroke-width:3.42px;"/>
    </g>
    <g transform="matrix(0.270449,0.450748,-0.450748,0.270449,1367.62,-2603.55)">
        <path d="M4364.59,4356.5L4370.41,4356.5" style="fill:none;fill-rule:nonzero;stroke:black;stroke-width:3.42px;"/>
    </g>
    <g transform="matrix(0.10309,0.51545,-0.51545,0.10309,2385.35,-2155.16)">
        <path d="M4364.9,4364L4375.1,4364" style="fill:none;fill-rule:nonzero;stroke:black;stroke-width:3.42px;"/>
    </g>
    <g transform="matrix(0,0.525657,-0.525657,0,2885.4,-1745.94)">
        <path d="M4367.5,4372.5L4374.5,4372.5" style="fill:none;fill-rule:nonzero;stroke:black;stroke-width:3.42px;"/>
    </g>
    <g transform="matrix(-0.114031,0.51314,-0.51314,-0.114031,3332.56,-1187)">
        <path d="M4365.39,4380.5L4374.61,4380.5" style="fill:none;fill-rule:nonzero;stroke:black;stroke-width:3.42px;"/>
    </g>
    <g transform="matrix(-0.270449,0.450748,-0.450748,-0.270449,3743.96,-222.456)">
        <path d="M4364.59,4387.5L4370.41,4387.5" style="fill:none;fill-rule:nonzero;stroke:black;stroke-width:3.42px;"/>
    </g>
    <g transform="matrix(-0.328376,0.410469,-0.410469,-0.328376,3819.3,213.32)">
        <path d="M4360.8,4392.5L4367.2,4392.5" style="fill:none;fill-rule:nonzero;stroke:black;stroke-width:3.42px;"/>
    </g>
    <g transform="matrix(-0.505432,0.144409,-0.144409,-0.505432,3418.14,2156.53)">
        <path d="M4354.86,4396L4362.14,4396" style="fill:none;fill-rule:nonzero;stroke:black;stroke-width:3.42px;"/>
    </g>
    <g transform="matrix(-0.525657,0,0,-0.525657,2861.48,2875.9)">
        <path d="M4343,4397L4355,4397" style="fill:none;fill-rule:nonzero;stroke:black;stroke-width:3.42px;"/>
    </g>
    <g transform="matrix(0.270449,-0.450748,0.450748,0.270449,-2338.77,1177.55)">
        <path d="M4255.85,3825L4314.15,3825" style="fill:none;fill-rule:nonzero;stroke:black;stroke-width:3.42px;"/>
    </g>
    <g transform="matrix(0,-0.525657,0.525657,0,-1471.68,2554.03)">
        <path d="M4250,3850L4350,3850" style="fill:none;fill-rule:nonzero;stroke:black;stroke-width:3.42px;"/>
    </g>
    <g transform="matrix(0.270449,0.450748,-0.450748,0.270449,1117.11,-2698.88)">
        <path d="M4285.85,3825L4344.15,3825" style="fill:none;fill-rule:nonzero;stroke:black;stroke-width:3.42px;"/>
    </g>
    <g transform="matrix(0.525657,0,0,-0.525657,-1717.34,2213.46)">
        <path d="M4193,3732L4231,3732" style="fill:none;fill-rule:nonzero;stroke:black;stroke-width:3.42px;"/>
    </g>
    <g transform="matrix(0,-0.525657,0.525657,0,-1465.02,2465.78)">
        <path d="M4193,3732L4231,3732" style="fill:none;fill-rule:nonzero;stroke:black;stroke-width:3.42px;"/>
    </g>
    <g transform="matrix(0.525657,0,0,-0.525657,-1717.34,2180.87)">
        <path d="M4250,3701L4281,3701" style="fill:none;fill-rule:nonzero;stroke:black;stroke-width:3.42px;"/>
    </g>
    <g transform="matrix(-0.338595,0.402081,-0.402081,-0.338595,3467.53,-221.328)">
        <path d="M4260.58,3710.5L4285.42,3710.5" style="fill:none;fill-rule:nonzero;stroke:black;stroke-width:3.42px;"/>
    </g>
    <g transform="matrix(0.525657,0,0,-0.525657,-1717.34,2200.85)">
        <path d="M4265,3720L4272,3720" style="fill:none;fill-rule:nonzero;stroke:black;stroke-width:3.42px;"/>
    </g>
    <g transform="matrix(0.420526,0.315394,-0.315394,0.420526,-94.2648,-2666.79)">
        <path d="M4271.5,3721.5L4276.5,3721.5" style="fill:none;fill-rule:nonzero;stroke:black;stroke-width:3.42px;"/>
    </g>
    <g transform="matrix(0.437373,0.291582,-0.291582,0.437373,-253.85,-2628.52)">
        <path d="M4275.7,3724L4279.3,3724" style="fill:none;fill-rule:nonzero;stroke:black;stroke-width:3.42px;"/>
    </g>
    <g transform="matrix(0.195224,0.488061,-0.488061,0.195224,1516.16,-2567.25)">
        <path d="M4277.31,3727.5L4282.69,3727.5" style="fill:none;fill-rule:nonzero;stroke:black;stroke-width:3.42px;"/>
    </g>
    <g transform="matrix(0,0.525657,-0.525657,0,2496.86,-1996.53)">
        <path d="M4275,3736L4287,3736" style="fill:none;fill-rule:nonzero;stroke:black;stroke-width:3.42px;"/>
    </g>
    <g transform="matrix(-0.235081,0.470162,-0.470162,-0.235081,3298.91,-874.132)">
        <path d="M4277.76,3744L4282.24,3744" style="fill:none;fill-rule:nonzero;stroke:black;stroke-width:3.42px;"/>
    </g>
    <g transform="matrix(-0.371696,0.371696,-0.371696,-0.371696,3514.02,62.8599)">
        <path d="M4275.38,3747.5L4279.62,3747.5" style="fill:none;fill-rule:nonzero;stroke:black;stroke-width:3.42px;"/>
    </g>
    <g transform="matrix(-0.470162,0.235081,-0.235081,-0.470162,3420.35,1019.54)">
        <path d="M4271.76,3750L4276.24,3750" style="fill:none;fill-rule:nonzero;stroke:black;stroke-width:3.42px;"/>
    </g>
    <g transform="matrix(-0.525657,0,0,-0.525657,2766,2233.44)">
        <path d="M4257,3751L4272,3751" style="fill:none;fill-rule:nonzero;stroke:black;stroke-width:3.42px;"/>
    </g>
    <g transform="matrix(-0.470162,-0.235081,0.235081,-0.470162,1638.32,3024.55)">
        <path d="M4252.76,3750L4257.24,3750" style="fill:none;fill-rule:nonzero;stroke:black;stroke-width:3.42px;"/>
    </g>
    <g transform="matrix(-0.371696,-0.371696,0.371696,-0.371696,704.83,3233.05)">
        <path d="M4249.38,3747.5L4253.62,3747.5" style="fill:none;fill-rule:nonzero;stroke:black;stroke-width:3.42px;"/>
    </g>
    <g transform="matrix(0.291582,0.437373,-0.437373,0.291582,929.179,-2715.3)">
        <path d="M4302.2,3747.5L4305.8,3747.5" style="fill:none;fill-rule:nonzero;stroke:black;stroke-width:3.42px;"/>
    </g>
    <g transform="matrix(-0.371696,0.371696,-0.371696,-0.371696,3538.73,55.2533)">
        <path d="M4302.59,3750L4305.41,3750" style="fill:none;fill-rule:nonzero;stroke:black;stroke-width:3.42px;"/>
    </g>
    <g transform="matrix(-0.437373,-0.291582,0.291582,-0.437373,1331.71,3155.56)">
        <path d="M4299.7,3750L4303.3,3750" style="fill:none;fill-rule:nonzero;stroke:black;stroke-width:3.42px;"/>
    </g>
    <g transform="matrix(0.371696,-0.371696,0.371696,0.371696,-2448,465.778)">
        <path d="M4299.38,3747.5L4303.62,3747.5" style="fill:none;fill-rule:nonzero;stroke:black;stroke-width:3.42px;"/>
    </g>
    <g transform="matrix(0,0.525657,-0.525657,0,2514.99,-2001.52)">
        <path d="M4300.5,3748.5L4305.5,3748.5" style="fill:none;fill-rule:nonzero;stroke:black;stroke-width:3.42px;"/>
    </g>
    <g transform="matrix(0.525657,0,0,-0.525657,-1717.34,2180.87)">
        <path d="M4322,3701L4353,3701" style="fill:none;fill-rule:nonzero;stroke:black;stroke-width:3.42px;"/>
    </g>
    <g transform="matrix(-0.350506,0.391742,-0.391742,-0.350506,3542.71,-160.961)">
        <path d="M4331.75,3710.5L4357.25,3710.5" style="fill:none;fill-rule:nonzero;stroke:black;stroke-width:3.42px;"/>
    </g>
    <g transform="matrix(0.525657,0,0,-0.525657,-1717.34,2200.85)">
        <path d="M4336,3720L4343,3720" style="fill:none;fill-rule:nonzero;stroke:black;stroke-width:3.42px;"/>
    </g>
    <g transform="matrix(0.450748,0.270449,-0.270449,0.450748,-385.342,-2606.5)">
        <path d="M4342.59,3721.5L4348.41,3721.5" style="fill:none;fill-rule:nonzero;stroke:black;stroke-width:3.42px;"/>
    </g>
    <g transform="matrix(0.371696,0.371696,-0.371696,0.371696,336.437,-2753.2)">
        <path d="M4347.59,3724L4350.41,3724" style="fill:none;fill-rule:nonzero;stroke:black;stroke-width:3.42px;"/>
    </g>
    <g transform="matrix(0.270449,0.450748,-0.450748,0.270449,1073.37,-2720.18)">
        <path d="M4348.59,3727.5L4354.41,3727.5" style="fill:none;fill-rule:nonzero;stroke:black;stroke-width:3.42px;"/>
    </g>
    <g transform="matrix(0,0.525657,-0.525657,0,2534.71,-2034.37)">
        <path d="M4347,3736L4359,3736" style="fill:none;fill-rule:nonzero;stroke:black;stroke-width:3.42px;"/>
    </g>
    <g transform="matrix(-0.315394,0.420526,-0.420526,-0.315394,3516.95,-391.063)">
        <path d="M4349,3744L4354,3744" style="fill:none;fill-rule:nonzero;stroke:black;stroke-width:3.42px;"/>
    </g>
    <g transform="matrix(-0.291582,0.437373,-0.437373,-0.291582,3475.9,-549.574)">
        <path d="M4347.2,3747.5L4350.8,3747.5" style="fill:none;fill-rule:nonzero;stroke:black;stroke-width:3.42px;"/>
    </g>
    <g transform="matrix(-0.488061,0.195224,-0.195224,-0.488061,3419.87,1243.05)">
        <path d="M4342.81,3750L4348.19,3750" style="fill:none;fill-rule:nonzero;stroke:black;stroke-width:3.42px;"/>
    </g>
    <g transform="matrix(-0.525657,0,0,-0.525657,2841.16,2233.44)">
        <path d="M4329,3751L4343,3751" style="fill:none;fill-rule:nonzero;stroke:black;stroke-width:3.42px;"/>
    </g>
    <g transform="matrix(-0.488061,-0.195224,0.195224,-0.488061,1936.42,2936.04)">
        <path d="M4323.81,3750L4329.19,3750" style="fill:none;fill-rule:nonzero;stroke:black;stroke-width:3.42px;"/>
    </g>
    <g transform="matrix(-0.291582,-0.437373,0.437373,-0.291582,176.533,3243.33)">
        <path d="M4321.2,3747.5L4324.8,3747.5" style="fill:none;fill-rule:nonzero;stroke:black;stroke-width:3.42px;"/>
    </g>
    <g transform="matrix(0.169211,0.497678,-0.497678,0.169211,1696.64,-2559.51)">
        <path d="M4349.1,3726L4401.9,3726" style="fill:none;fill-rule:nonzero;stroke:black;stroke-width:3.42px;"/>
    </g>
    <g transform="matrix(0.160208,-0.500649,0.500649,0.160208,-1977.7,1850.47)">
        <path d="M4365.75,3726L4418.25,3726" style="fill:none;fill-rule:nonzero;stroke:black;stroke-width:3.42px;"/>
    </g>
    <g transform="matrix(0.525657,0,0,-0.525657,-1717.34,2218.72)">
        <path d="M4415,3737L4438,3737" style="fill:none;fill-rule:nonzero;stroke:black;stroke-width:3.42px;"/>
    </g>
    <g transform="matrix(0.160208,-0.500649,0.500649,0.160208,-1968.2,1863.49)">
        <path d="M4391.75,3726L4444.25,3726" style="fill:none;fill-rule:nonzero;stroke:black;stroke-width:3.42px;"/>
    </g>
    <g transform="matrix(0.169211,0.497678,-0.497678,0.169211,1717.68,-2588.88)">
        <path d="M4408.1,3726L4460.9,3726" style="fill:none;fill-rule:nonzero;stroke:black;stroke-width:3.42px;"/>
    </g>
    <g transform="matrix(-0.525657,0,0,-0.525657,3022.69,2527.75)">
        <path d="M4450,4050L4550,4050" style="fill:none;fill-rule:nonzero;stroke:black;stroke-width:3.42px;"/>
    </g>
    <g transform="matrix(-0.488061,0.195224,-0.195224,-0.488061,3726.31,1481.46)">
        <path d="M4580.81,4036L4586.19,4036" style="fill:none;fill-rule:nonzero;stroke:black;stroke-width:3.42px;"/>
    </g>
    <g transform="matrix(-0.525657,0,0,-0.525657,3103.35,2529.06)">
        <path d="M4572,4037L4581,4037" style="fill:none;fill-rule:nonzero;stroke:black;stroke-width:3.42px;"/>
    </g>
    <g transform="matrix(-0.488061,-0.195224,0.195224,-0.488061,2136.27,3268.35)">
        <path d="M4566.81,4036L4572.19,4036" style="fill:none;fill-rule:nonzero;stroke:black;stroke-width:3.42px;"/>
    </g>
    <g transform="matrix(-0.371696,-0.371696,0.371696,-0.371696,889.638,3601.36)">
        <path d="M4563.38,4033.5L4567.62,4033.5" style="fill:none;fill-rule:nonzero;stroke:black;stroke-width:3.42px;"/>
    </g>
    <g transform="matrix(-0.235081,-0.470162,0.470162,-0.235081,-131.497,3496.03)">
        <path d="M4560.76,4030L4565.24,4030" style="fill:none;fill-rule:nonzero;stroke:black;stroke-width:3.42px;"/>
    </g>
    <g transform="matrix(0,-0.525657,0.525657,0,-1423.35,2796.36)">
        <path d="M4554.5,4020.5L4569.5,4020.5" style="fill:none;fill-rule:nonzero;stroke:black;stroke-width:3.42px;"/>
    </g>
    <g transform="matrix(0.235081,-0.470162,0.470162,0.235081,-2267.91,1595.76)">
        <path d="M4560.76,4011L4565.24,4011" style="fill:none;fill-rule:nonzero;stroke:black;stroke-width:3.42px;"/>
    </g>
    <g transform="matrix(0.371696,-0.371696,0.371696,0.371696,-2494.65,598.884)">
        <path d="M4563.38,4007.5L4567.62,4007.5" style="fill:none;fill-rule:nonzero;stroke:black;stroke-width:3.42px;"/>
    </g>
    <g transform="matrix(0.488061,-0.195224,0.195224,0.488061,-2318.07,-672.443)">
        <path d="M4566.81,4005L4572.19,4005" style="fill:none;fill-rule:nonzero;stroke:black;stroke-width:3.42px;"/>
    </g>
    <g transform="matrix(0.525657,0,0,-0.525657,-1707.99,2494.37)">
        <path d="M4572,4004L4581,4004" style="fill:none;fill-rule:nonzero;stroke:black;stroke-width:3.42px;"/>
    </g>
    <g transform="matrix(0.488061,0.195224,-0.195224,0.488061,-753.795,-2459.33)">
        <path d="M4580.81,4005L4586.19,4005" style="fill:none;fill-rule:nonzero;stroke:black;stroke-width:3.42px;"/>
    </g>
    <g transform="matrix(0.166227,0.498682,-0.498682,0.166227,1953.39,-2568.18)">
        <path d="M4591.11,4020.5L4625.89,4020.5" style="fill:none;fill-rule:nonzero;stroke:black;stroke-width:3.42px;"/>
    </g>
    <g transform="matrix(0.17964,-0.494009,0.494009,0.17964,-2095.56,1958.39)">
        <path d="M4602.44,4020.5L4637.56,4020.5" style="fill:none;fill-rule:nonzero;stroke:black;stroke-width:3.42px;"/>
    </g>
    <g transform="matrix(0.525657,0,0,-0.525657,-1707.99,2534.32)">
        <path d="M4633,4042L4672,4042" style="fill:none;fill-rule:nonzero;stroke:black;stroke-width:3.42px;"/>
    </g>
    <g transform="matrix(0,-0.525657,0.525657,0,-1350.02,2873.37)">
        <path d="M4692,4024L4718,4024" style="fill:none;fill-rule:nonzero;stroke:black;stroke-width:3.42px;"/>
    </g>
    <g transform="matrix(-0.195224,-0.488061,0.488061,-0.195224,-273.357,3470.4)">
        <path d="M4701.31,4008.5L4706.69,4008.5" style="fill:none;fill-rule:nonzero;stroke:black;stroke-width:3.42px;"/>
    </g>
    <g transform="matrix(-0.488061,-0.195224,0.195224,-0.488061,2275.12,3262.5)">
        <path d="M4697.81,4005L4703.19,4005" style="fill:none;fill-rule:nonzero;stroke:black;stroke-width:3.42px;"/>
    </g>
    <g transform="matrix(-0.525657,0,0,-0.525657,3225.83,2494.37)">
        <path d="M4688,4004L4698,4004" style="fill:none;fill-rule:nonzero;stroke:black;stroke-width:3.42px;"/>
    </g>
    <g transform="matrix(-0.488061,0.195224,-0.195224,-0.488061,3823.66,1430.12)">
        <path d="M4682.81,4005L4688.19,4005" style="fill:none;fill-rule:nonzero;stroke:black;stroke-width:3.42px;"/>
    </g>
    <g transform="matrix(-0.488061,0.195224,-0.195224,-0.488061,3846.94,1458.23)">
        <path d="M4699.81,4036L4705.19,4036" style="fill:none;fill-rule:nonzero;stroke:black;stroke-width:3.42px;"/>
    </g>
    <g transform="matrix(-0.525657,0,0,-0.525657,3226.88,2529.06)">
        <path d="M4688,4037L4700,4037" style="fill:none;fill-rule:nonzero;stroke:black;stroke-width:3.42px;"/>
    </g>
    <g transform="matrix(-0.488061,-0.195224,0.195224,-0.488061,2253.86,3290.99)">
        <path d="M4682.81,4036L4688.19,4036" style="fill:none;fill-rule:nonzero;stroke:black;stroke-width:3.42px;"/>
    </g>
    <g transform="matrix(-0.195224,-0.488061,0.488061,-0.195224,-300.93,3476.96)">
        <path d="M4679.31,4032.5L4684.69,4032.5" style="fill:none;fill-rule:nonzero;stroke:black;stroke-width:3.42px;"/>
    </g>
    <g transform="matrix(0,-0.525657,0.525657,0,-1364.48,2862.59)">
        <path d="M4678.5,4027.5L4683.5,4027.5" style="fill:none;fill-rule:nonzero;stroke:black;stroke-width:3.42px;"/>
    </g>
    <g transform="matrix(0.195224,-0.488061,0.488061,0.195224,-2124.13,1899.17)">
        <path d="M4679.31,4022.5L4684.69,4022.5" style="fill:none;fill-rule:nonzero;stroke:black;stroke-width:3.42px;"/>
    </g>
    <g transform="matrix(0.488061,-0.195224,0.195224,0.488061,-2316.44,-649.27)">
        <path d="M4682.81,4019L4688.19,4019" style="fill:none;fill-rule:nonzero;stroke:black;stroke-width:3.42px;"/>
    </g>
    <g transform="matrix(0.525657,0,0,-0.525657,-1707.99,2509.09)">
        <path d="M4688,4018L4700,4018" style="fill:none;fill-rule:nonzero;stroke:black;stroke-width:3.42px;"/>
    </g>
    <g transform="matrix(0.488061,-0.195224,0.195224,0.488061,-2315.41,-646.027)">
        <path d="M4699.81,4017L4705.19,4017" style="fill:none;fill-rule:nonzero;stroke:black;stroke-width:3.42px;"/>
    </g>
    <g transform="matrix(0.525657,0,0,-0.525657,-1707.99,2534.32)">
        <path d="M4717,4042L4755,4042" style="fill:none;fill-rule:nonzero;stroke:black;stroke-width:3.42px;"/>
    </g>
    <g transform="matrix(0,0.525657,-0.525657,0,2915.69,-2103.03)">
        <path d="M4742,4029L4792,4029" style="fill:none;fill-rule:nonzero;stroke:black;stroke-width:3.42px;"/>
    </g>
    <g transform="matrix(0.488061,-0.195224,0.195224,0.488061,-2310.55,-633.398)">
        <path d="M4766.81,4005L4772.19,4005" style="fill:none;fill-rule:nonzero;stroke:black;stroke-width:3.42px;"/>
    </g>
    <g transform="matrix(0.525657,0,0,-0.525657,-1707.99,2494.37)">
        <path d="M4772,4004L4781,4004" style="fill:none;fill-rule:nonzero;stroke:black;stroke-width:3.42px;"/>
    </g>
    <g transform="matrix(0.488061,0.195224,-0.195224,0.488061,-746.276,-2498.38)">
        <path d="M4780.81,4005L4786.19,4005" style="fill:none;fill-rule:nonzero;stroke:black;stroke-width:3.42px;"/>
    </g>
    <g transform="matrix(0.291582,0.437373,-0.437373,0.291582,1165.3,-2870.75)">
        <path d="M4785.2,4007.5L4788.8,4007.5" style="fill:none;fill-rule:nonzero;stroke:black;stroke-width:3.42px;"/>
    </g>
    <g transform="matrix(0.315394,0.420526,-0.420526,0.315394,985.791,-2885.84)">
        <path d="M4787,4011L4792,4011" style="fill:none;fill-rule:nonzero;stroke:black;stroke-width:3.42px;"/>
    </g>
    <g transform="matrix(0,0.525657,-0.525657,0,2923.84,-2120.11)">
        <path d="M4783.5,4020.5L4798.5,4020.5" style="fill:none;fill-rule:nonzero;stroke:black;stroke-width:3.42px;"/>
    </g>
    <g transform="matrix(-0.315394,0.420526,-0.420526,-0.315394,4014.94,-339.765)">
        <path d="M4787,4030L4792,4030" style="fill:none;fill-rule:nonzero;stroke:black;stroke-width:3.42px;"/>
    </g>
    <g transform="matrix(-0.291582,0.437373,-0.437373,-0.291582,3968.28,-512.465)">
        <path d="M4785.2,4033.5L4788.8,4033.5" style="fill:none;fill-rule:nonzero;stroke:black;stroke-width:3.42px;"/>
    </g>
    <g transform="matrix(-0.488061,0.195224,-0.195224,-0.488061,3929.05,1442.42)">
        <path d="M4780.81,4036L4786.19,4036" style="fill:none;fill-rule:nonzero;stroke:black;stroke-width:3.42px;"/>
    </g>
    <g transform="matrix(-0.525657,0,0,-0.525657,3313.61,2529.06)">
        <path d="M4772,4037L4781,4037" style="fill:none;fill-rule:nonzero;stroke:black;stroke-width:3.42px;"/>
    </g>
    <g transform="matrix(-0.488061,-0.195224,0.195224,-0.488061,2339.01,3307.39)">
        <path d="M4766.81,4036L4772.19,4036" style="fill:none;fill-rule:nonzero;stroke:black;stroke-width:3.42px;"/>
    </g>
    <g transform="matrix(-0.488061,-0.195224,0.195224,-0.488061,2386.66,3316.57)">
        <path d="M4813.81,4036L4819.19,4036" style="fill:none;fill-rule:nonzero;stroke:black;stroke-width:3.42px;"/>
    </g>
    <g transform="matrix(-0.291582,-0.437373,0.437373,-0.291582,461.236,3686.32)">
        <path d="M4811.2,4033.5L4814.8,4033.5" style="fill:none;fill-rule:nonzero;stroke:black;stroke-width:3.42px;"/>
    </g>
    <g transform="matrix(-0.235081,-0.470162,0.470162,-0.235081,57.1663,3612.63)">
        <path d="M4808.76,4030L4813.24,4030" style="fill:none;fill-rule:nonzero;stroke:black;stroke-width:3.42px;"/>
    </g>
    <g transform="matrix(0,-0.525657,0.525657,0,-1292.99,2926.72)">
        <path d="M4802.5,4020.5L4817.5,4020.5" style="fill:none;fill-rule:nonzero;stroke:black;stroke-width:3.42px;"/>
    </g>
    <g transform="matrix(0.235081,-0.470162,0.470162,0.235081,-2195.85,1712.36)">
        <path d="M4808.76,4011L4813.24,4011" style="fill:none;fill-rule:nonzero;stroke:black;stroke-width:3.42px;"/>
    </g>
    <g transform="matrix(0.291582,-0.437373,0.437373,0.291582,-2334.16,1328.04)">
        <path d="M4811.2,4007.5L4814.8,4007.5" style="fill:none;fill-rule:nonzero;stroke:black;stroke-width:3.42px;"/>
    </g>
    <g transform="matrix(0.488061,-0.195224,0.195224,0.488061,-2308.78,-624.222)">
        <path d="M4813.81,4005L4819.19,4005" style="fill:none;fill-rule:nonzero;stroke:black;stroke-width:3.42px;"/>
    </g>
    <g transform="matrix(0.525657,0,0,-0.525657,-1707.99,2494.37)">
        <path d="M4819,4004L4826,4004" style="fill:none;fill-rule:nonzero;stroke:black;stroke-width:3.42px;"/>
    </g>
    <g transform="matrix(0.488061,0.195224,-0.195224,0.488061,-744.584,-2507.16)">
        <path d="M4825.81,4005L4831.19,4005" style="fill:none;fill-rule:nonzero;stroke:black;stroke-width:3.42px;"/>
    </g>
    <g transform="matrix(0.291582,0.437373,-0.437373,0.291582,1175.83,-2890.43)">
        <path d="M4830.2,4007.5L4833.8,4007.5" style="fill:none;fill-rule:nonzero;stroke:black;stroke-width:3.42px;"/>
    </g>
    <g transform="matrix(0.315394,0.420526,-0.420526,0.315394,995.253,-2904.76)">
        <path d="M4832,4011L4837,4011" style="fill:none;fill-rule:nonzero;stroke:black;stroke-width:3.42px;"/>
    </g>
    <g transform="matrix(0,0.525657,-0.525657,0,2947.49,-2143.77)">
        <path d="M4828.5,4020.5L4843.5,4020.5" style="fill:none;fill-rule:nonzero;stroke:black;stroke-width:3.42px;"/>
    </g>
    <g transform="matrix(-0.315394,0.420526,-0.420526,-0.315394,4052.79,-358.688)">
        <path d="M4832,4030L4837,4030" style="fill:none;fill-rule:nonzero;stroke:black;stroke-width:3.42px;"/>
    </g>
    <g transform="matrix(-0.291582,0.437373,-0.437373,-0.291582,4005.06,-532.147)">
        <path d="M4830.2,4033.5L4833.8,4033.5" style="fill:none;fill-rule:nonzero;stroke:black;stroke-width:3.42px;"/>
    </g>
    <g transform="matrix(-0.488061,0.195224,-0.195224,-0.488061,3974.67,1433.63)">
        <path d="M4825.81,4036L4831.19,4036" style="fill:none;fill-rule:nonzero;stroke:black;stroke-width:3.42px;"/>
    </g>
    <g transform="matrix(-0.525657,0,0,-0.525657,3361.97,2529.06)">
        <path d="M4819,4037L4826,4037" style="fill:none;fill-rule:nonzero;stroke:black;stroke-width:3.42px;"/>
    </g>
    <g transform="matrix(0.525657,0,0,-0.525657,-1707.99,2494.37)">
        <path d="M4850,4004L4869,4004" style="fill:none;fill-rule:nonzero;stroke:black;stroke-width:3.42px;"/>
    </g>
    <g transform="matrix(0,0.525657,-0.525657,0,2952.22,-2161.12)">
        <path d="M4835.5,4008.5L4878.5,4008.5" style="fill:none;fill-rule:nonzero;stroke:black;stroke-width:3.42px;"/>
    </g>
    <g transform="matrix(0.270449,0.450748,-0.450748,0.270449,1349.58,-2875.92)">
        <path d="M4855.59,4032.5L4861.41,4032.5" style="fill:none;fill-rule:nonzero;stroke:black;stroke-width:3.42px;"/>
    </g>
    <g transform="matrix(0.470162,0.235081,-0.235081,0.470162,-489.388,-2634.08)">
        <path d="M4859.76,4036L4864.24,4036" style="fill:none;fill-rule:nonzero;stroke:black;stroke-width:3.42px;"/>
    </g>
    <g transform="matrix(0.525657,0,0,-0.525657,-1707.99,2529.06)">
        <path d="M4864,4037L4869,4037" style="fill:none;fill-rule:nonzero;stroke:black;stroke-width:3.42px;"/>
    </g>
</svg>
