<?xml version="1.0" encoding="UTF-8" standalone="no"?>
<!DOCTYPE svg PUBLIC "-//W3C//DTD SVG 1.1//EN" "http://www.w3.org/Graphics/SVG/1.1/DTD/svg11.dtd">
<svg width="100%" height="100%" viewBox="0 0 1280 800" version="1.1" xmlns="http://www.w3.org/2000/svg" xmlns:xlink="http://www.w3.org/1999/xlink" xml:space="preserve" xmlns:serif="http://www.serif.com/" style="fill-rule:evenodd;clip-rule:evenodd;stroke-linecap:round;stroke-linejoin:round;stroke-miterlimit:10;">
    <g transform="matrix(0.584739,0,0,-0.584739,-2763.48,937.668)">
        <path d="M5550,1000L5900,1000" style="fill:none;fill-rule:nonzero;stroke:black;stroke-width:3.08px;"/>
    </g>
    <g transform="matrix(0.584739,0,0,-0.584739,-2763.48,1113.09)">
        <path d="M5550,1150L5900,1150" style="fill:none;fill-rule:nonzero;stroke:black;stroke-width:3.08px;"/>
    </g>
    <g transform="matrix(0.542917,0.217167,-0.217167,0.542917,-2291.89,-1486.57)">
        <path d="M5971.81,1021L5977.19,1021" style="fill:none;fill-rule:nonzero;stroke:black;stroke-width:3.08px;"/>
    </g>
    <g transform="matrix(0.584739,0,0,-0.584739,-2763.48,963.396)">
        <path d="M5977,1022L5986,1022" style="fill:none;fill-rule:nonzero;stroke:black;stroke-width:3.08px;"/>
    </g>
    <g transform="matrix(0.542917,-0.217167,0.217167,0.542917,-2734.76,1111.39)">
        <path d="M5985.81,1021L5991.19,1021" style="fill:none;fill-rule:nonzero;stroke:black;stroke-width:3.08px;"/>
    </g>
    <g transform="matrix(0.217167,-0.542917,0.542917,0.217167,-1113.41,3395.35)">
        <path d="M5989.31,1017.5L5994.69,1017.5" style="fill:none;fill-rule:nonzero;stroke:black;stroke-width:3.08px;"/>
    </g>
    <g transform="matrix(0,-0.584739,0.584739,0,147.931,3865.46)">
        <path d="M5992,1014L5994,1014" style="fill:none;fill-rule:nonzero;stroke:black;stroke-width:3.08px;"/>
    </g>
    <g transform="matrix(-0.217167,-0.542917,0.542917,-0.217167,1492.92,3831.67)">
        <path d="M5989.31,1010.5L5994.69,1010.5" style="fill:none;fill-rule:nonzero;stroke:black;stroke-width:3.08px;"/>
    </g>
    <g transform="matrix(-0.50141,-0.300846,0.300846,-0.50141,3438.11,2663.01)">
        <path d="M5985.59,1006.5L5991.41,1006.5" style="fill:none;fill-rule:nonzero;stroke:black;stroke-width:3.08px;"/>
    </g>
    <g transform="matrix(-0.584739,0,0,-0.584739,4232.92,943.515)">
        <path d="M5979,1005L5986,1005" style="fill:none;fill-rule:nonzero;stroke:black;stroke-width:3.08px;"/>
    </g>
    <g transform="matrix(-0.542917,-0.217167,0.217167,-0.542917,3757.91,2198.25)">
        <path d="M5973.81,1004L5979.19,1004" style="fill:none;fill-rule:nonzero;stroke:black;stroke-width:3.08px;"/>
    </g>
    <g transform="matrix(-0.217167,-0.542917,0.542917,-0.217167,1483.11,3813.34)">
        <path d="M5970.31,1000.5L5975.69,1000.5" style="fill:none;fill-rule:nonzero;stroke:black;stroke-width:3.08px;"/>
    </g>
    <g transform="matrix(0,-0.584739,0.584739,0,145.592,3843.24)">
        <path d="M5971,997L5973,997" style="fill:none;fill-rule:nonzero;stroke:black;stroke-width:3.08px;"/>
    </g>
    <g transform="matrix(0.217167,-0.542917,0.542917,0.217167,-1107.36,3376.21)">
        <path d="M5970.31,993.5L5975.69,993.5" style="fill:none;fill-rule:nonzero;stroke:black;stroke-width:3.08px;"/>
    </g>
    <g transform="matrix(0.542917,-0.217167,0.217167,0.542917,-2728.53,1107.49)">
        <path d="M5973.81,990L5979.19,990" style="fill:none;fill-rule:nonzero;stroke:black;stroke-width:3.08px;"/>
    </g>
    <g transform="matrix(0.584739,0,0,-0.584739,-2763.48,924.803)">
        <path d="M5979,989L5986,989" style="fill:none;fill-rule:nonzero;stroke:black;stroke-width:3.08px;"/>
    </g>
    <g transform="matrix(0.542917,0.217167,-0.217167,0.542917,-2298.04,-1490.91)">
        <path d="M5985.81,990L5991.19,990" style="fill:none;fill-rule:nonzero;stroke:black;stroke-width:3.08px;"/>
    </g>
    <g transform="matrix(0,0.584739,-0.584739,0,1358.93,-3168.37)">
        <path d="M6011,1014L6061,1014" style="fill:none;fill-rule:nonzero;stroke:black;stroke-width:3.08px;"/>
    </g>
    <g transform="matrix(-0.523006,0.261503,-0.261503,-0.523006,4187.65,-678.713)">
        <path d="M6031.76,1021L6036.24,1021" style="fill:none;fill-rule:nonzero;stroke:black;stroke-width:3.08px;"/>
    </g>
    <g transform="matrix(-0.584739,0,0,-0.584739,4284.96,963.396)">
        <path d="M6022,1022L6032,1022" style="fill:none;fill-rule:nonzero;stroke:black;stroke-width:3.08px;"/>
    </g>
    <g transform="matrix(-0.542917,-0.217167,0.217167,-0.542917,3802.71,2226.76)">
        <path d="M6016.81,1021L6022.19,1021" style="fill:none;fill-rule:nonzero;stroke:black;stroke-width:3.08px;"/>
    </g>
    <g transform="matrix(-0.324355,-0.486532,0.486532,-0.324355,2210.09,3621.08)">
        <path d="M6014.2,1018.5L6017.8,1018.5" style="fill:none;fill-rule:nonzero;stroke:black;stroke-width:3.08px;"/>
    </g>
    <g transform="matrix(-0.261503,-0.523006,0.523006,-0.261503,1794.96,3772.49)">
        <path d="M6011.76,1015L6016.24,1015" style="fill:none;fill-rule:nonzero;stroke:black;stroke-width:3.08px;"/>
    </g>
    <g transform="matrix(0,-0.584739,0.584739,0,164.596,3872.18)">
        <path d="M6005.5,1005.5L6020.5,1005.5" style="fill:none;fill-rule:nonzero;stroke:black;stroke-width:3.08px;"/>
    </g>
    <g transform="matrix(0.261503,-0.523006,0.523006,0.261503,-1340.46,3235.49)">
        <path d="M6011.76,996L6016.24,996" style="fill:none;fill-rule:nonzero;stroke:black;stroke-width:3.08px;"/>
    </g>
    <g transform="matrix(0.324355,-0.486532,0.486532,0.324355,-1679.9,2953.6)">
        <path d="M6014.2,992.5L6017.8,992.5" style="fill:none;fill-rule:nonzero;stroke:black;stroke-width:3.08px;"/>
    </g>
    <g transform="matrix(0.542917,-0.217167,0.217167,0.542917,-2726.73,1116.83)">
        <path d="M6016.81,990L6022.19,990" style="fill:none;fill-rule:nonzero;stroke:black;stroke-width:3.08px;"/>
    </g>
    <g transform="matrix(0.584739,0,0,-0.584739,-2763.48,924.803)">
        <path d="M6022,989L6032,989" style="fill:none;fill-rule:nonzero;stroke:black;stroke-width:3.08px;"/>
    </g>
    <g transform="matrix(0.523006,0.261503,-0.261503,0.523006,-2132.1,-1748.61)">
        <path d="M6031.76,990L6036.24,990" style="fill:none;fill-rule:nonzero;stroke:black;stroke-width:3.08px;"/>
    </g>
    <g transform="matrix(0,0.584739,-0.584739,0,1380.85,-3200.24)">
        <path d="M6065.5,1005.5L6098.5,1005.5" style="fill:none;fill-rule:nonzero;stroke:black;stroke-width:3.08px;"/>
    </g>
    <g transform="matrix(0,0.584739,-0.584739,0,1365.94,-3189.42)">
        <path d="M6047,1002L6073,1002" style="fill:none;fill-rule:nonzero;stroke:black;stroke-width:3.08px;"/>
    </g>
    <g transform="matrix(0.300846,0.50141,-0.50141,0.300846,-532.482,-2982.24)">
        <path d="M6058.59,1017.5L6064.41,1017.5" style="fill:none;fill-rule:nonzero;stroke:black;stroke-width:3.08px;"/>
    </g>
    <g transform="matrix(0.523006,0.261503,-0.261503,0.523006,-2122.08,-1754.8)">
        <path d="M6062.76,1021L6067.24,1021" style="fill:none;fill-rule:nonzero;stroke:black;stroke-width:3.08px;"/>
    </g>
    <g transform="matrix(0.584739,0,0,-0.584739,-2763.48,963.396)">
        <path d="M6067,1022L6074,1022" style="fill:none;fill-rule:nonzero;stroke:black;stroke-width:3.08px;"/>
    </g>
    <g transform="matrix(0.542917,-0.217167,0.217167,0.542917,-2731.08,1130.5)">
        <path d="M6073.81,1021L6079.19,1021" style="fill:none;fill-rule:nonzero;stroke:black;stroke-width:3.08px;"/>
    </g>
    <g transform="matrix(0.413473,-0.413473,0.413473,0.413473,-2143.22,2456.75)">
        <path d="M6078.38,1018.5L6082.62,1018.5" style="fill:none;fill-rule:nonzero;stroke:black;stroke-width:3.08px;"/>
    </g>
    <g transform="matrix(0,-0.584739,0.584739,0,229.209,3940.89)">
        <path d="M6114,1009L6140,1009" style="fill:none;fill-rule:nonzero;stroke:black;stroke-width:3.08px;"/>
    </g>
    <g transform="matrix(-0.300846,-0.50141,0.50141,-0.300846,2163.01,3719.4)">
        <path d="M6122.59,993.5L6128.41,993.5" style="fill:none;fill-rule:nonzero;stroke:black;stroke-width:3.08px;"/>
    </g>
    <g transform="matrix(-0.523006,-0.261503,0.261503,-0.523006,3759.24,2465.78)">
        <path d="M6119.76,990L6124.24,990" style="fill:none;fill-rule:nonzero;stroke:black;stroke-width:3.08px;"/>
    </g>
    <g transform="matrix(-0.584739,0,0,-0.584739,4387.87,924.803)">
        <path d="M6110,989L6120,989" style="fill:none;fill-rule:nonzero;stroke:black;stroke-width:3.08px;"/>
    </g>
    <g transform="matrix(-0.542917,0.217167,-0.217167,-0.542917,4338.67,-441.777)">
        <path d="M6104.81,990L6110.19,990" style="fill:none;fill-rule:nonzero;stroke:black;stroke-width:3.08px;"/>
    </g>
    <g transform="matrix(-0.542917,0.217167,-0.217167,-0.542917,4364.57,-410.511)">
        <path d="M6121.81,1021L6127.19,1021" style="fill:none;fill-rule:nonzero;stroke:black;stroke-width:3.08px;"/>
    </g>
    <g transform="matrix(-0.584739,0,0,-0.584739,4389.04,963.396)">
        <path d="M6110,1022L6122,1022" style="fill:none;fill-rule:nonzero;stroke:black;stroke-width:3.08px;"/>
    </g>
    <g transform="matrix(-0.542917,-0.217167,0.217167,-0.542917,3901.94,2245.87)">
        <path d="M6104.81,1021L6110.19,1021" style="fill:none;fill-rule:nonzero;stroke:black;stroke-width:3.08px;"/>
    </g>
    <g transform="matrix(-0.217167,-0.542917,0.542917,-0.217167,1578.93,3898.09)">
        <path d="M6101.31,1017.5L6106.69,1017.5" style="fill:none;fill-rule:nonzero;stroke:black;stroke-width:3.08px;"/>
    </g>
    <g transform="matrix(0,-0.584739,0.584739,0,213.129,3928.9)">
        <path d="M6100.5,1012.5L6105.5,1012.5" style="fill:none;fill-rule:nonzero;stroke:black;stroke-width:3.08px;"/>
    </g>
    <g transform="matrix(0.217167,-0.542917,0.542917,0.217167,-1066.81,3452.48)">
        <path d="M6101.31,1007.5L6106.69,1007.5" style="fill:none;fill-rule:nonzero;stroke:black;stroke-width:3.08px;"/>
    </g>
    <g transform="matrix(0.542917,-0.217167,0.217167,0.542917,-2726.09,1136.52)">
        <path d="M6104.81,1004L6110.19,1004" style="fill:none;fill-rule:nonzero;stroke:black;stroke-width:3.08px;"/>
    </g>
    <g transform="matrix(0.584739,0,0,-0.584739,-2763.48,941.176)">
        <path d="M6110,1003L6122,1003" style="fill:none;fill-rule:nonzero;stroke:black;stroke-width:3.08px;"/>
    </g>
    <g transform="matrix(0.542917,-0.217167,0.217167,0.542917,-2724.94,1140.13)">
        <path d="M6121.81,1002L6127.19,1002" style="fill:none;fill-rule:nonzero;stroke:black;stroke-width:3.08px;"/>
    </g>
    <g transform="matrix(0,-0.584739,0.584739,0,245.29,3952.87)">
        <path d="M6134.5,1005.5L6167.5,1005.5" style="fill:none;fill-rule:nonzero;stroke:black;stroke-width:3.08px;"/>
    </g>
    <g transform="matrix(0.261503,-0.523006,0.523006,0.261503,-1295.85,3307.67)">
        <path d="M6149.76,996L6154.24,996" style="fill:none;fill-rule:nonzero;stroke:black;stroke-width:3.08px;"/>
    </g>
    <g transform="matrix(0.324355,-0.486532,0.486532,0.324355,-1643.96,3020.74)">
        <path d="M6152.2,992.5L6155.8,992.5" style="fill:none;fill-rule:nonzero;stroke:black;stroke-width:3.08px;"/>
    </g>
    <g transform="matrix(0.542917,-0.217167,0.217167,0.542917,-2720.96,1146.8)">
        <path d="M6154.81,990L6160.19,990" style="fill:none;fill-rule:nonzero;stroke:black;stroke-width:3.08px;"/>
    </g>
    <g transform="matrix(0.584739,0,0,-0.584739,-2763.48,924.803)">
        <path d="M6160,989L6165,989" style="fill:none;fill-rule:nonzero;stroke:black;stroke-width:3.08px;"/>
    </g>
    <g transform="matrix(-0.542917,0.217167,-0.217167,-0.542917,4448.02,-426.581)">
        <path d="M6195.81,1021L6201.19,1021" style="fill:none;fill-rule:nonzero;stroke:black;stroke-width:3.08px;"/>
    </g>
    <g transform="matrix(-0.584739,0,0,-0.584739,4476.75,963.396)">
        <path d="M6186,1022L6196,1022" style="fill:none;fill-rule:nonzero;stroke:black;stroke-width:3.08px;"/>
    </g>
    <g transform="matrix(-0.523006,-0.261503,0.261503,-0.523006,3819.82,2516.33)">
        <path d="M6181.76,1021L6186.24,1021" style="fill:none;fill-rule:nonzero;stroke:black;stroke-width:3.08px;"/>
    </g>
    <g transform="matrix(-0.300846,-0.50141,0.50141,-0.300846,2199.69,3768.23)">
        <path d="M6177.59,1017.5L6183.41,1017.5" style="fill:none;fill-rule:nonzero;stroke:black;stroke-width:3.08px;"/>
    </g>
    <g transform="matrix(0,-0.584739,0.584739,0,261.662,3969.25)">
        <path d="M6169.5,1005.5L6188.5,1005.5" style="fill:none;fill-rule:nonzero;stroke:black;stroke-width:3.08px;"/>
    </g>
    <g transform="matrix(0.300846,-0.50141,0.50141,0.300846,-1507.03,3149.2)">
        <path d="M6177.59,993.5L6183.41,993.5" style="fill:none;fill-rule:nonzero;stroke:black;stroke-width:3.08px;"/>
    </g>
    <g transform="matrix(0.523006,-0.261503,0.261503,0.523006,-2640.62,1446.44)">
        <path d="M6181.76,990L6186.24,990" style="fill:none;fill-rule:nonzero;stroke:black;stroke-width:3.08px;"/>
    </g>
    <g transform="matrix(0.584739,0,0,-0.584739,-2763.48,924.803)">
        <path d="M6186,989L6196,989" style="fill:none;fill-rule:nonzero;stroke:black;stroke-width:3.08px;"/>
    </g>
    <g transform="matrix(0.542917,0.217167,-0.217167,0.542917,-2289.25,-1536.51)">
        <path d="M6195.81,990L6201.19,990" style="fill:none;fill-rule:nonzero;stroke:black;stroke-width:3.08px;"/>
    </g>
    <g transform="matrix(0.217167,0.542917,-0.542917,0.217167,55.5867,-3233.8)">
        <path d="M6199.31,993.5L6204.69,993.5" style="fill:none;fill-rule:nonzero;stroke:black;stroke-width:3.08px;"/>
    </g>
    <g transform="matrix(0,0.584739,-0.584739,0,1447.51,-3275.08)">
        <path d="M6200.5,998.5L6205.5,998.5" style="fill:none;fill-rule:nonzero;stroke:black;stroke-width:3.08px;"/>
    </g>
    <g transform="matrix(-0.576783,0.0961305,-0.0961305,-0.576783,4523.92,338.052)">
        <path d="M6178.83,1003L6203.17,1003" style="fill:none;fill-rule:nonzero;stroke:black;stroke-width:3.08px;"/>
    </g>
    <g transform="matrix(0.584739,0,0,-0.584739,-2763.48,969.243)">
        <path d="M6213,1027L6251,1027" style="fill:none;fill-rule:nonzero;stroke:black;stroke-width:3.08px;"/>
    </g>
    <g transform="matrix(-0.542917,-0.217167,0.217167,-0.542917,4082.37,2280.62)">
        <path d="M6264.81,1021L6270.19,1021" style="fill:none;fill-rule:nonzero;stroke:black;stroke-width:3.08px;"/>
    </g>
    <g transform="matrix(-0.324355,-0.486532,0.486532,-0.324355,2435.55,3741.74)">
        <path d="M6262.2,1018.5L6265.8,1018.5" style="fill:none;fill-rule:nonzero;stroke:black;stroke-width:3.08px;"/>
    </g>
    <g transform="matrix(-0.350843,-0.467791,0.467791,-0.350843,2619.86,3646.88)">
        <path d="M6259,1015L6264,1015" style="fill:none;fill-rule:nonzero;stroke:black;stroke-width:3.08px;"/>
    </g>
    <g transform="matrix(0,-0.584739,0.584739,0,309.026,4016.61)">
        <path d="M6252.5,1005.5L6267.5,1005.5" style="fill:none;fill-rule:nonzero;stroke:black;stroke-width:3.08px;"/>
    </g>
    <g transform="matrix(0.350843,-0.467791,0.467791,0.350843,-1764.87,2930.22)">
        <path d="M6259,996L6264,996" style="fill:none;fill-rule:nonzero;stroke:black;stroke-width:3.08px;"/>
    </g>
    <g transform="matrix(0.324355,-0.486532,0.486532,0.324355,-1615.32,3074.26)">
        <path d="M6262.2,992.5L6265.8,992.5" style="fill:none;fill-rule:nonzero;stroke:black;stroke-width:3.08px;"/>
    </g>
    <g transform="matrix(0.542917,-0.217167,0.217167,0.542917,-2716.36,1170.69)">
        <path d="M6264.81,990L6270.19,990" style="fill:none;fill-rule:nonzero;stroke:black;stroke-width:3.08px;"/>
    </g>
    <g transform="matrix(0.584739,0,0,-0.584739,-2763.48,924.803)">
        <path d="M6270,989L6277,989" style="fill:none;fill-rule:nonzero;stroke:black;stroke-width:3.08px;"/>
    </g>
    <g transform="matrix(0.542917,0.217167,-0.217167,0.542917,-2285.87,-1554.1)">
        <path d="M6276.81,990L6282.19,990" style="fill:none;fill-rule:nonzero;stroke:black;stroke-width:3.08px;"/>
    </g>
    <g transform="matrix(0.324355,0.486532,-0.486532,0.324355,-644.608,-3030.26)">
        <path d="M6281.2,992.5L6284.8,992.5" style="fill:none;fill-rule:nonzero;stroke:black;stroke-width:3.08px;"/>
    </g>
    <g transform="matrix(0.261503,0.523006,-0.523006,0.261503,-211.034,-3196.96)">
        <path d="M6282.76,996L6287.24,996" style="fill:none;fill-rule:nonzero;stroke:black;stroke-width:3.08px;"/>
    </g>
    <g transform="matrix(0,0.584739,-0.584739,0,1500.14,-3319.52)">
        <path d="M6278.5,1005.5L6293.5,1005.5" style="fill:none;fill-rule:nonzero;stroke:black;stroke-width:3.08px;"/>
    </g>
    <g transform="matrix(-0.261503,0.523006,-0.523006,-0.261503,3086,-2659.97)">
        <path d="M6282.76,1015L6287.24,1015" style="fill:none;fill-rule:nonzero;stroke:black;stroke-width:3.08px;"/>
    </g>
    <g transform="matrix(-0.324355,0.486532,-0.486532,-0.324355,3443.88,-2362.78)">
        <path d="M6281.2,1018.5L6284.8,1018.5" style="fill:none;fill-rule:nonzero;stroke:black;stroke-width:3.08px;"/>
    </g>
    <g transform="matrix(-0.542917,0.217167,-0.217167,-0.542917,4539.36,-444.172)">
        <path d="M6276.81,1021L6282.19,1021" style="fill:none;fill-rule:nonzero;stroke:black;stroke-width:3.08px;"/>
    </g>
    <g transform="matrix(-0.584739,0,0,-0.584739,4573.24,963.396)">
        <path d="M6270,1022L6277,1022" style="fill:none;fill-rule:nonzero;stroke:black;stroke-width:3.08px;"/>
    </g>
    <g transform="matrix(0,0.584739,-0.584739,0,1525.28,-3344.67)">
        <path d="M6312.5,1005.5L6345.5,1005.5" style="fill:none;fill-rule:nonzero;stroke:black;stroke-width:3.08px;"/>
    </g>
    <g transform="matrix(0,0.584739,-0.584739,0,1510.96,-3334.44)">
        <path d="M6295,1002L6321,1002" style="fill:none;fill-rule:nonzero;stroke:black;stroke-width:3.08px;"/>
    </g>
    <g transform="matrix(0.217167,0.542917,-0.542917,0.217167,107.947,-3283.07)">
        <path d="M6306.31,1017.5L6311.69,1017.5" style="fill:none;fill-rule:nonzero;stroke:black;stroke-width:3.08px;"/>
    </g>
    <g transform="matrix(0.542917,0.217167,-0.217167,0.542917,-2277.75,-1559.97)">
        <path d="M6309.81,1021L6315.19,1021" style="fill:none;fill-rule:nonzero;stroke:black;stroke-width:3.08px;"/>
    </g>
    <g transform="matrix(0.584739,0,0,-0.584739,-2763.48,963.396)">
        <path d="M6315,1022L6322,1022" style="fill:none;fill-rule:nonzero;stroke:black;stroke-width:3.08px;"/>
    </g>
    <g transform="matrix(0.542917,-0.217167,0.217167,0.542917,-2720.71,1184.36)">
        <path d="M6321.81,1021L6327.19,1021" style="fill:none;fill-rule:nonzero;stroke:black;stroke-width:3.08px;"/>
    </g>
    <g transform="matrix(0.324355,-0.486532,0.486532,0.324355,-1611.31,3112.17)">
        <path d="M6326.2,1018.5L6329.8,1018.5" style="fill:none;fill-rule:nonzero;stroke:black;stroke-width:3.08px;"/>
    </g>
    <g transform="matrix(0.584739,0,0,-0.584739,-2763.48,924.803)">
        <path d="M6346,989L6365,989" style="fill:none;fill-rule:nonzero;stroke:black;stroke-width:3.08px;"/>
    </g>
    <g transform="matrix(0,0.584739,-0.584739,0,1532.3,-3365.72)">
        <path d="M6331.5,993.5L6374.5,993.5" style="fill:none;fill-rule:nonzero;stroke:black;stroke-width:3.08px;"/>
    </g>
    <g transform="matrix(0.217167,0.542917,-0.542917,0.217167,124.488,-3307.5)">
        <path d="M6351.31,1017.5L6356.69,1017.5" style="fill:none;fill-rule:nonzero;stroke:black;stroke-width:3.08px;"/>
    </g>
    <g transform="matrix(0.542917,0.217167,-0.217167,0.542917,-2275.87,-1569.75)">
        <path d="M6354.81,1021L6360.19,1021" style="fill:none;fill-rule:nonzero;stroke:black;stroke-width:3.08px;"/>
    </g>
    <g transform="matrix(0.584739,0,0,-0.584739,-2763.48,963.396)">
        <path d="M6360,1022L6365,1022" style="fill:none;fill-rule:nonzero;stroke:black;stroke-width:3.08px;"/>
    </g>
    <g transform="matrix(0.584739,0,0,-0.584739,-2763.48,969.243)">
        <path d="M6370,1027L6408,1027" style="fill:none;fill-rule:nonzero;stroke:black;stroke-width:3.08px;"/>
    </g>
    <g transform="matrix(0,-0.584739,0.584739,0,412.817,4124.5)">
        <path d="M6428,1009L6454,1009" style="fill:none;fill-rule:nonzero;stroke:black;stroke-width:3.08px;"/>
    </g>
    <g transform="matrix(-0.217167,-0.542917,0.542917,-0.217167,1861.4,4061.27)">
        <path d="M6437.31,993.5L6442.69,993.5" style="fill:none;fill-rule:nonzero;stroke:black;stroke-width:3.08px;"/>
    </g>
    <g transform="matrix(-0.542917,-0.217167,0.217167,-0.542917,4279.68,2282.36)">
        <path d="M6433.81,990L6439.19,990" style="fill:none;fill-rule:nonzero;stroke:black;stroke-width:3.08px;"/>
    </g>
    <g transform="matrix(-0.584739,0,0,-0.584739,4755.09,924.803)">
        <path d="M6424,989L6434,989" style="fill:none;fill-rule:nonzero;stroke:black;stroke-width:3.08px;"/>
    </g>
    <g transform="matrix(-0.523006,0.261503,-0.261503,-0.523006,4609.34,-814.516)">
        <path d="M6419.76,990L6424.24,990" style="fill:none;fill-rule:nonzero;stroke:black;stroke-width:3.08px;"/>
    </g>
    <g transform="matrix(-0.542917,0.217167,-0.217167,-0.542917,4718.65,-478.701)">
        <path d="M6435.81,1021L6441.19,1021" style="fill:none;fill-rule:nonzero;stroke:black;stroke-width:3.08px;"/>
    </g>
    <g transform="matrix(-0.584739,0,0,-0.584739,4756.26,963.396)">
        <path d="M6424,1022L6436,1022" style="fill:none;fill-rule:nonzero;stroke:black;stroke-width:3.08px;"/>
    </g>
    <g transform="matrix(-0.523006,-0.261503,0.261503,-0.523006,4083.46,2578.57)">
        <path d="M6419.76,1021L6424.24,1021" style="fill:none;fill-rule:nonzero;stroke:black;stroke-width:3.08px;"/>
    </g>
    <g transform="matrix(-0.300846,-0.50141,0.50141,-0.300846,2410.46,3887.57)">
        <path d="M6415.59,1017.5L6421.41,1017.5" style="fill:none;fill-rule:nonzero;stroke:black;stroke-width:3.08px;"/>
    </g>
    <g transform="matrix(0,-0.584739,0.584739,0,396.737,4112.51)">
        <path d="M6414.5,1012.5L6419.5,1012.5" style="fill:none;fill-rule:nonzero;stroke:black;stroke-width:3.08px;"/>
    </g>
    <g transform="matrix(0.300846,-0.50141,0.50141,0.300846,-1446.49,3272.51)">
        <path d="M6415.59,1007.5L6421.41,1007.5" style="fill:none;fill-rule:nonzero;stroke:black;stroke-width:3.08px;"/>
    </g>
    <g transform="matrix(0.523006,-0.261503,0.261503,0.523006,-2629.59,1509.54)">
        <path d="M6419.76,1004L6424.24,1004" style="fill:none;fill-rule:nonzero;stroke:black;stroke-width:3.08px;"/>
    </g>
    <g transform="matrix(0.584739,0,0,-0.584739,-2763.48,941.176)">
        <path d="M6424,1003L6436,1003" style="fill:none;fill-rule:nonzero;stroke:black;stroke-width:3.08px;"/>
    </g>
    <g transform="matrix(0.542917,-0.217167,0.217167,0.542917,-2711.81,1208.32)">
        <path d="M6435.81,1002L6441.19,1002" style="fill:none;fill-rule:nonzero;stroke:black;stroke-width:3.08px;"/>
    </g>
    <g transform="matrix(-0.413473,-0.413473,0.413473,-0.413473,2755.09,3208.92)">
        <path d="M5919.82,987.5L5955.18,987.5" style="fill:none;fill-rule:nonzero;stroke:black;stroke-width:3.08px;"/>
    </g>
    <g transform="matrix(-0.584739,0,0,-0.584739,4151.05,908.431)">
        <path d="M5900,975L5925,975" style="fill:none;fill-rule:nonzero;stroke:black;stroke-width:3.08px;"/>
    </g>
    <g transform="matrix(0,0.584739,-0.584739,0,1271.21,-3097.03)">
        <path d="M5875,1000L5925,1000" style="fill:none;fill-rule:nonzero;stroke:black;stroke-width:3.08px;"/>
    </g>
    <g transform="matrix(0.584739,0,0,-0.584739,-2763.48,966.904)">
        <path d="M5900,1025L5925,1025" style="fill:none;fill-rule:nonzero;stroke:black;stroke-width:3.08px;"/>
    </g>
    <g transform="matrix(0.413473,-0.413473,0.413473,0.413473,-2165.23,2396.59)">
        <path d="M5919.82,1012.5L5955.18,1012.5" style="fill:none;fill-rule:nonzero;stroke:black;stroke-width:3.08px;"/>
    </g>
    <g transform="matrix(0.542917,0.217167,-0.217167,0.542917,-2259.31,-1480.3)">
        <path d="M5971.81,1171L5977.19,1171" style="fill:none;fill-rule:nonzero;stroke:black;stroke-width:3.08px;"/>
    </g>
    <g transform="matrix(0.584739,0,0,-0.584739,-2763.48,1138.82)">
        <path d="M5977,1172L5986,1172" style="fill:none;fill-rule:nonzero;stroke:black;stroke-width:3.08px;"/>
    </g>
    <g transform="matrix(0.542917,-0.217167,0.217167,0.542917,-2767.33,1117.67)">
        <path d="M5985.81,1171L5991.19,1171" style="fill:none;fill-rule:nonzero;stroke:black;stroke-width:3.08px;"/>
    </g>
    <g transform="matrix(0.217167,-0.542917,0.542917,0.217167,-1194.85,3450.49)">
        <path d="M5989.31,1167.5L5994.69,1167.5" style="fill:none;fill-rule:nonzero;stroke:black;stroke-width:3.08px;"/>
    </g>
    <g transform="matrix(0,-0.584739,0.584739,0,60.2198,3953.17)">
        <path d="M5992,1164L5994,1164" style="fill:none;fill-rule:nonzero;stroke:black;stroke-width:3.08px;"/>
    </g>
    <g transform="matrix(-0.217167,-0.542917,0.542917,-0.217167,1411.48,3951.96)">
        <path d="M5989.31,1160.5L5994.69,1160.5" style="fill:none;fill-rule:nonzero;stroke:black;stroke-width:3.08px;"/>
    </g>
    <g transform="matrix(-0.50141,-0.300846,0.300846,-0.50141,3392.99,2825.93)">
        <path d="M5985.59,1156.5L5991.41,1156.5" style="fill:none;fill-rule:nonzero;stroke:black;stroke-width:3.08px;"/>
    </g>
    <g transform="matrix(-0.584739,0,0,-0.584739,4232.92,1118.94)">
        <path d="M5979,1155L5986,1155" style="fill:none;fill-rule:nonzero;stroke:black;stroke-width:3.08px;"/>
    </g>
    <g transform="matrix(-0.542917,-0.217167,0.217167,-0.542917,3725.34,2367.4)">
        <path d="M5973.81,1154L5979.19,1154" style="fill:none;fill-rule:nonzero;stroke:black;stroke-width:3.08px;"/>
    </g>
    <g transform="matrix(-0.217167,-0.542917,0.542917,-0.217167,1401.67,3933.62)">
        <path d="M5970.31,1150.5L5975.69,1150.5" style="fill:none;fill-rule:nonzero;stroke:black;stroke-width:3.08px;"/>
    </g>
    <g transform="matrix(0,-0.584739,0.584739,0,57.8808,3930.95)">
        <path d="M5971,1147L5973,1147" style="fill:none;fill-rule:nonzero;stroke:black;stroke-width:3.08px;"/>
    </g>
    <g transform="matrix(0.217167,-0.542917,0.542917,0.217167,-1188.8,3431.35)">
        <path d="M5970.31,1143.5L5975.69,1143.5" style="fill:none;fill-rule:nonzero;stroke:black;stroke-width:3.08px;"/>
    </g>
    <g transform="matrix(0.542917,-0.217167,0.217167,0.542917,-2761.1,1113.76)">
        <path d="M5973.81,1140L5979.19,1140" style="fill:none;fill-rule:nonzero;stroke:black;stroke-width:3.08px;"/>
    </g>
    <g transform="matrix(0.584739,0,0,-0.584739,-2763.48,1100.22)">
        <path d="M5979,1139L5986,1139" style="fill:none;fill-rule:nonzero;stroke:black;stroke-width:3.08px;"/>
    </g>
    <g transform="matrix(0.542917,0.217167,-0.217167,0.542917,-2265.46,-1484.64)">
        <path d="M5985.81,1140L5991.19,1140" style="fill:none;fill-rule:nonzero;stroke:black;stroke-width:3.08px;"/>
    </g>
    <g transform="matrix(0,0.584739,-0.584739,0,1446.64,-3080.66)">
        <path d="M6011,1164L6061,1164" style="fill:none;fill-rule:nonzero;stroke:black;stroke-width:3.08px;"/>
    </g>
    <g transform="matrix(-0.523006,0.261503,-0.261503,-0.523006,4226.87,-512.551)">
        <path d="M6031.76,1171L6036.24,1171" style="fill:none;fill-rule:nonzero;stroke:black;stroke-width:3.08px;"/>
    </g>
    <g transform="matrix(-0.584739,0,0,-0.584739,4284.96,1138.82)">
        <path d="M6022,1172L6032,1172" style="fill:none;fill-rule:nonzero;stroke:black;stroke-width:3.08px;"/>
    </g>
    <g transform="matrix(-0.542917,-0.217167,0.217167,-0.542917,3770.14,2395.91)">
        <path d="M6016.81,1171L6022.19,1171" style="fill:none;fill-rule:nonzero;stroke:black;stroke-width:3.08px;"/>
    </g>
    <g transform="matrix(-0.324355,-0.486532,0.486532,-0.324355,2137.11,3757.44)">
        <path d="M6014.2,1168.5L6017.8,1168.5" style="fill:none;fill-rule:nonzero;stroke:black;stroke-width:3.08px;"/>
    </g>
    <g transform="matrix(-0.261503,-0.523006,0.523006,-0.261503,1716.51,3899.42)">
        <path d="M6011.76,1165L6016.24,1165" style="fill:none;fill-rule:nonzero;stroke:black;stroke-width:3.08px;"/>
    </g>
    <g transform="matrix(0,-0.584739,0.584739,0,76.8849,3959.89)">
        <path d="M6005.5,1155.5L6020.5,1155.5" style="fill:none;fill-rule:nonzero;stroke:black;stroke-width:3.08px;"/>
    </g>
    <g transform="matrix(0.261503,-0.523006,0.523006,0.261503,-1418.91,3283.98)">
        <path d="M6011.76,1146L6016.24,1146" style="fill:none;fill-rule:nonzero;stroke:black;stroke-width:3.08px;"/>
    </g>
    <g transform="matrix(0.324355,-0.486532,0.486532,0.324355,-1752.88,2992.66)">
        <path d="M6014.2,1142.5L6017.8,1142.5" style="fill:none;fill-rule:nonzero;stroke:black;stroke-width:3.08px;"/>
    </g>
    <g transform="matrix(0.542917,-0.217167,0.217167,0.542917,-2759.3,1123.1)">
        <path d="M6016.81,1140L6022.19,1140" style="fill:none;fill-rule:nonzero;stroke:black;stroke-width:3.08px;"/>
    </g>
    <g transform="matrix(0.584739,0,0,-0.584739,-2763.48,1100.22)">
        <path d="M6022,1139L6032,1139" style="fill:none;fill-rule:nonzero;stroke:black;stroke-width:3.08px;"/>
    </g>
    <g transform="matrix(0.523006,0.261503,-0.261503,0.523006,-2092.88,-1739.35)">
        <path d="M6031.76,1140L6036.24,1140" style="fill:none;fill-rule:nonzero;stroke:black;stroke-width:3.08px;"/>
    </g>
    <g transform="matrix(0,0.584739,-0.584739,0,1468.56,-3112.53)">
        <path d="M6065.5,1155.5L6098.5,1155.5" style="fill:none;fill-rule:nonzero;stroke:black;stroke-width:3.08px;"/>
    </g>
    <g transform="matrix(0,0.584739,-0.584739,0,1453.65,-3101.71)">
        <path d="M6047,1152L6073,1152" style="fill:none;fill-rule:nonzero;stroke:black;stroke-width:3.08px;"/>
    </g>
    <g transform="matrix(0.300846,0.50141,-0.50141,0.300846,-457.27,-2939.66)">
        <path d="M6058.59,1167.5L6064.41,1167.5" style="fill:none;fill-rule:nonzero;stroke:black;stroke-width:3.08px;"/>
    </g>
    <g transform="matrix(0.523006,0.261503,-0.261503,0.523006,-2082.86,-1745.54)">
        <path d="M6062.76,1171L6067.24,1171" style="fill:none;fill-rule:nonzero;stroke:black;stroke-width:3.08px;"/>
    </g>
    <g transform="matrix(0.584739,0,0,-0.584739,-2763.48,1138.82)">
        <path d="M6067,1172L6074,1172" style="fill:none;fill-rule:nonzero;stroke:black;stroke-width:3.08px;"/>
    </g>
    <g transform="matrix(0.542917,-0.217167,0.217167,0.542917,-2763.65,1136.78)">
        <path d="M6073.81,1171L6079.19,1171" style="fill:none;fill-rule:nonzero;stroke:black;stroke-width:3.08px;"/>
    </g>
    <g transform="matrix(0.413473,-0.413473,0.413473,0.413473,-2205.24,2482.44)">
        <path d="M6078.38,1168.5L6082.62,1168.5" style="fill:none;fill-rule:nonzero;stroke:black;stroke-width:3.08px;"/>
    </g>
    <g transform="matrix(0,-0.584739,0.584739,0,141.499,4028.6)">
        <path d="M6114,1159L6140,1159" style="fill:none;fill-rule:nonzero;stroke:black;stroke-width:3.08px;"/>
    </g>
    <g transform="matrix(-0.300846,-0.50141,0.50141,-0.300846,2087.8,3852.24)">
        <path d="M6122.59,1143.5L6128.41,1143.5" style="fill:none;fill-rule:nonzero;stroke:black;stroke-width:3.08px;"/>
    </g>
    <g transform="matrix(-0.523006,-0.261503,0.261503,-0.523006,3720.02,2631.94)">
        <path d="M6119.76,1140L6124.24,1140" style="fill:none;fill-rule:nonzero;stroke:black;stroke-width:3.08px;"/>
    </g>
    <g transform="matrix(-0.584739,0,0,-0.584739,4387.87,1100.22)">
        <path d="M6110,1139L6120,1139" style="fill:none;fill-rule:nonzero;stroke:black;stroke-width:3.08px;"/>
    </g>
    <g transform="matrix(-0.542917,0.217167,-0.217167,-0.542917,4371.24,-272.628)">
        <path d="M6104.81,1140L6110.19,1140" style="fill:none;fill-rule:nonzero;stroke:black;stroke-width:3.08px;"/>
    </g>
    <g transform="matrix(-0.542917,0.217167,-0.217167,-0.542917,4397.14,-241.363)">
        <path d="M6121.81,1171L6127.19,1171" style="fill:none;fill-rule:nonzero;stroke:black;stroke-width:3.08px;"/>
    </g>
    <g transform="matrix(-0.584739,0,0,-0.584739,4389.04,1138.82)">
        <path d="M6110,1172L6122,1172" style="fill:none;fill-rule:nonzero;stroke:black;stroke-width:3.08px;"/>
    </g>
    <g transform="matrix(-0.542917,-0.217167,0.217167,-0.542917,3869.37,2415.02)">
        <path d="M6104.81,1171L6110.19,1171" style="fill:none;fill-rule:nonzero;stroke:black;stroke-width:3.08px;"/>
    </g>
    <g transform="matrix(-0.217167,-0.542917,0.542917,-0.217167,1497.49,4018.38)">
        <path d="M6101.31,1167.5L6106.69,1167.5" style="fill:none;fill-rule:nonzero;stroke:black;stroke-width:3.08px;"/>
    </g>
    <g transform="matrix(0,-0.584739,0.584739,0,125.418,4016.61)">
        <path d="M6100.5,1162.5L6105.5,1162.5" style="fill:none;fill-rule:nonzero;stroke:black;stroke-width:3.08px;"/>
    </g>
    <g transform="matrix(0.217167,-0.542917,0.542917,0.217167,-1148.25,3507.62)">
        <path d="M6101.31,1157.5L6106.69,1157.5" style="fill:none;fill-rule:nonzero;stroke:black;stroke-width:3.08px;"/>
    </g>
    <g transform="matrix(0.542917,-0.217167,0.217167,0.542917,-2758.66,1142.8)">
        <path d="M6104.81,1154L6110.19,1154" style="fill:none;fill-rule:nonzero;stroke:black;stroke-width:3.08px;"/>
    </g>
    <g transform="matrix(0.584739,0,0,-0.584739,-2763.48,1116.6)">
        <path d="M6110,1153L6122,1153" style="fill:none;fill-rule:nonzero;stroke:black;stroke-width:3.08px;"/>
    </g>
    <g transform="matrix(0.542917,-0.217167,0.217167,0.542917,-2757.52,1146.41)">
        <path d="M6121.81,1152L6127.19,1152" style="fill:none;fill-rule:nonzero;stroke:black;stroke-width:3.08px;"/>
    </g>
    <g transform="matrix(0,-0.584739,0.584739,0,157.579,4040.59)">
        <path d="M6134.5,1155.5L6167.5,1155.5" style="fill:none;fill-rule:nonzero;stroke:black;stroke-width:3.08px;"/>
    </g>
    <g transform="matrix(0.261503,-0.523006,0.523006,0.261503,-1374.3,3356.15)">
        <path d="M6149.76,1146L6154.24,1146" style="fill:none;fill-rule:nonzero;stroke:black;stroke-width:3.08px;"/>
    </g>
    <g transform="matrix(0.324355,-0.486532,0.486532,0.324355,-1716.94,3059.8)">
        <path d="M6152.2,1142.5L6155.8,1142.5" style="fill:none;fill-rule:nonzero;stroke:black;stroke-width:3.08px;"/>
    </g>
    <g transform="matrix(0.542917,-0.217167,0.217167,0.542917,-2753.53,1153.07)">
        <path d="M6154.81,1140L6160.19,1140" style="fill:none;fill-rule:nonzero;stroke:black;stroke-width:3.08px;"/>
    </g>
    <g transform="matrix(0.584739,0,0,-0.584739,-2763.48,1100.22)">
        <path d="M6160,1139L6165,1139" style="fill:none;fill-rule:nonzero;stroke:black;stroke-width:3.08px;"/>
    </g>
    <g transform="matrix(-0.542917,0.217167,-0.217167,-0.542917,4480.59,-257.433)">
        <path d="M6195.81,1171L6201.19,1171" style="fill:none;fill-rule:nonzero;stroke:black;stroke-width:3.08px;"/>
    </g>
    <g transform="matrix(-0.584739,0,0,-0.584739,4476.75,1138.82)">
        <path d="M6186,1172L6196,1172" style="fill:none;fill-rule:nonzero;stroke:black;stroke-width:3.08px;"/>
    </g>
    <g transform="matrix(-0.523006,-0.261503,0.261503,-0.523006,3780.59,2682.5)">
        <path d="M6181.76,1171L6186.24,1171" style="fill:none;fill-rule:nonzero;stroke:black;stroke-width:3.08px;"/>
    </g>
    <g transform="matrix(-0.300846,-0.50141,0.50141,-0.300846,2124.48,3901.07)">
        <path d="M6177.59,1167.5L6183.41,1167.5" style="fill:none;fill-rule:nonzero;stroke:black;stroke-width:3.08px;"/>
    </g>
    <g transform="matrix(0,-0.584739,0.584739,0,173.952,4056.96)">
        <path d="M6169.5,1155.5L6188.5,1155.5" style="fill:none;fill-rule:nonzero;stroke:black;stroke-width:3.08px;"/>
    </g>
    <g transform="matrix(0.300846,-0.50141,0.50141,0.300846,-1582.24,3191.78)">
        <path d="M6177.59,1143.5L6183.41,1143.5" style="fill:none;fill-rule:nonzero;stroke:black;stroke-width:3.08px;"/>
    </g>
    <g transform="matrix(0.523006,-0.261503,0.261503,0.523006,-2679.84,1455.7)">
        <path d="M6181.76,1140L6186.24,1140" style="fill:none;fill-rule:nonzero;stroke:black;stroke-width:3.08px;"/>
    </g>
    <g transform="matrix(0.584739,0,0,-0.584739,-2763.48,1100.22)">
        <path d="M6186,1139L6196,1139" style="fill:none;fill-rule:nonzero;stroke:black;stroke-width:3.08px;"/>
    </g>
    <g transform="matrix(0.542917,0.217167,-0.217167,0.542917,-2256.68,-1530.24)">
        <path d="M6195.81,1140L6201.19,1140" style="fill:none;fill-rule:nonzero;stroke:black;stroke-width:3.08px;"/>
    </g>
    <g transform="matrix(0.217167,0.542917,-0.542917,0.217167,137.024,-3178.66)">
        <path d="M6199.31,1143.5L6204.69,1143.5" style="fill:none;fill-rule:nonzero;stroke:black;stroke-width:3.08px;"/>
    </g>
    <g transform="matrix(0,0.584739,-0.584739,0,1535.22,-3187.37)">
        <path d="M6200.5,1148.5L6205.5,1148.5" style="fill:none;fill-rule:nonzero;stroke:black;stroke-width:3.08px;"/>
    </g>
    <g transform="matrix(-0.576783,0.0961305,-0.0961305,-0.576783,4538.34,512.28)">
        <path d="M6178.83,1153L6203.17,1153" style="fill:none;fill-rule:nonzero;stroke:black;stroke-width:3.08px;"/>
    </g>
    <g transform="matrix(0.584739,0,0,-0.584739,-2763.48,1144.67)">
        <path d="M6213,1177L6251,1177" style="fill:none;fill-rule:nonzero;stroke:black;stroke-width:3.08px;"/>
    </g>
    <g transform="matrix(-0.542917,-0.217167,0.217167,-0.542917,4049.79,2449.77)">
        <path d="M6264.81,1171L6270.19,1171" style="fill:none;fill-rule:nonzero;stroke:black;stroke-width:3.08px;"/>
    </g>
    <g transform="matrix(-0.324355,-0.486532,0.486532,-0.324355,2362.57,3878.1)">
        <path d="M6262.2,1168.5L6265.8,1168.5" style="fill:none;fill-rule:nonzero;stroke:black;stroke-width:3.08px;"/>
    </g>
    <g transform="matrix(-0.350843,-0.467791,0.467791,-0.350843,2549.69,3787.22)">
        <path d="M6259,1165L6264,1165" style="fill:none;fill-rule:nonzero;stroke:black;stroke-width:3.08px;"/>
    </g>
    <g transform="matrix(0,-0.584739,0.584739,0,221.315,4104.32)">
        <path d="M6252.5,1155.5L6267.5,1155.5" style="fill:none;fill-rule:nonzero;stroke:black;stroke-width:3.08px;"/>
    </g>
    <g transform="matrix(0.350843,-0.467791,0.467791,0.350843,-1835.04,2965.31)">
        <path d="M6259,1146L6264,1146" style="fill:none;fill-rule:nonzero;stroke:black;stroke-width:3.08px;"/>
    </g>
    <g transform="matrix(0.324355,-0.486532,0.486532,0.324355,-1688.3,3113.32)">
        <path d="M6262.2,1142.5L6265.8,1142.5" style="fill:none;fill-rule:nonzero;stroke:black;stroke-width:3.08px;"/>
    </g>
    <g transform="matrix(0.542917,-0.217167,0.217167,0.542917,-2748.93,1176.96)">
        <path d="M6264.81,1140L6270.19,1140" style="fill:none;fill-rule:nonzero;stroke:black;stroke-width:3.08px;"/>
    </g>
    <g transform="matrix(0.584739,0,0,-0.584739,-2763.48,1100.22)">
        <path d="M6270,1139L6277,1139" style="fill:none;fill-rule:nonzero;stroke:black;stroke-width:3.08px;"/>
    </g>
    <g transform="matrix(0.542917,0.217167,-0.217167,0.542917,-2253.29,-1547.83)">
        <path d="M6276.81,1140L6282.19,1140" style="fill:none;fill-rule:nonzero;stroke:black;stroke-width:3.08px;"/>
    </g>
    <g transform="matrix(0.324355,0.486532,-0.486532,0.324355,-571.628,-2991.2)">
        <path d="M6281.2,1142.5L6284.8,1142.5" style="fill:none;fill-rule:nonzero;stroke:black;stroke-width:3.08px;"/>
    </g>
    <g transform="matrix(0.261503,0.523006,-0.523006,0.261503,-132.583,-3148.48)">
        <path d="M6282.76,1146L6287.24,1146" style="fill:none;fill-rule:nonzero;stroke:black;stroke-width:3.08px;"/>
    </g>
    <g transform="matrix(0,0.584739,-0.584739,0,1587.85,-3231.81)">
        <path d="M6278.5,1155.5L6293.5,1155.5" style="fill:none;fill-rule:nonzero;stroke:black;stroke-width:3.08px;"/>
    </g>
    <g transform="matrix(-0.261503,0.523006,-0.523006,-0.261503,3164.45,-2533.03)">
        <path d="M6282.76,1165L6287.24,1165" style="fill:none;fill-rule:nonzero;stroke:black;stroke-width:3.08px;"/>
    </g>
    <g transform="matrix(-0.324355,0.486532,-0.486532,-0.324355,3516.86,-2226.42)">
        <path d="M6281.2,1168.5L6284.8,1168.5" style="fill:none;fill-rule:nonzero;stroke:black;stroke-width:3.08px;"/>
    </g>
    <g transform="matrix(-0.542917,0.217167,-0.217167,-0.542917,4571.93,-275.024)">
        <path d="M6276.81,1171L6282.19,1171" style="fill:none;fill-rule:nonzero;stroke:black;stroke-width:3.08px;"/>
    </g>
    <g transform="matrix(-0.584739,0,0,-0.584739,4573.24,1138.82)">
        <path d="M6270,1172L6277,1172" style="fill:none;fill-rule:nonzero;stroke:black;stroke-width:3.08px;"/>
    </g>
    <g transform="matrix(0,0.584739,-0.584739,0,1612.99,-3256.96)">
        <path d="M6312.5,1155.5L6345.5,1155.5" style="fill:none;fill-rule:nonzero;stroke:black;stroke-width:3.08px;"/>
    </g>
    <g transform="matrix(0,0.584739,-0.584739,0,1598.67,-3246.72)">
        <path d="M6295,1152L6321,1152" style="fill:none;fill-rule:nonzero;stroke:black;stroke-width:3.08px;"/>
    </g>
    <g transform="matrix(0.217167,0.542917,-0.542917,0.217167,189.384,-3227.93)">
        <path d="M6306.31,1167.5L6311.69,1167.5" style="fill:none;fill-rule:nonzero;stroke:black;stroke-width:3.08px;"/>
    </g>
    <g transform="matrix(0.542917,0.217167,-0.217167,0.542917,-2245.18,-1553.7)">
        <path d="M6309.81,1171L6315.19,1171" style="fill:none;fill-rule:nonzero;stroke:black;stroke-width:3.08px;"/>
    </g>
    <g transform="matrix(0.584739,0,0,-0.584739,-2763.48,1138.82)">
        <path d="M6315,1172L6322,1172" style="fill:none;fill-rule:nonzero;stroke:black;stroke-width:3.08px;"/>
    </g>
    <g transform="matrix(0.542917,-0.217167,0.217167,0.542917,-2753.28,1190.63)">
        <path d="M6321.81,1171L6327.19,1171" style="fill:none;fill-rule:nonzero;stroke:black;stroke-width:3.08px;"/>
    </g>
    <g transform="matrix(0.324355,-0.486532,0.486532,0.324355,-1684.29,3151.22)">
        <path d="M6326.2,1168.5L6329.8,1168.5" style="fill:none;fill-rule:nonzero;stroke:black;stroke-width:3.08px;"/>
    </g>
    <g transform="matrix(0.584739,0,0,-0.584739,-2763.48,1100.22)">
        <path d="M6346,1139L6365,1139" style="fill:none;fill-rule:nonzero;stroke:black;stroke-width:3.08px;"/>
    </g>
    <g transform="matrix(0,0.584739,-0.584739,0,1620.01,-3278.01)">
        <path d="M6331.5,1143.5L6374.5,1143.5" style="fill:none;fill-rule:nonzero;stroke:black;stroke-width:3.08px;"/>
    </g>
    <g transform="matrix(0.217167,0.542917,-0.542917,0.217167,205.925,-3252.36)">
        <path d="M6351.31,1167.5L6356.69,1167.5" style="fill:none;fill-rule:nonzero;stroke:black;stroke-width:3.08px;"/>
    </g>
    <g transform="matrix(0.542917,0.217167,-0.217167,0.542917,-2243.3,-1563.47)">
        <path d="M6354.81,1171L6360.19,1171" style="fill:none;fill-rule:nonzero;stroke:black;stroke-width:3.08px;"/>
    </g>
    <g transform="matrix(0.584739,0,0,-0.584739,-2763.48,1138.82)">
        <path d="M6360,1172L6365,1172" style="fill:none;fill-rule:nonzero;stroke:black;stroke-width:3.08px;"/>
    </g>
    <g transform="matrix(0.584739,0,0,-0.584739,-2763.48,1144.67)">
        <path d="M6370,1177L6408,1177" style="fill:none;fill-rule:nonzero;stroke:black;stroke-width:3.08px;"/>
    </g>
    <g transform="matrix(0,-0.584739,0.584739,0,319.844,4192.91)">
        <path d="M6395,1147L6445,1147" style="fill:none;fill-rule:nonzero;stroke:black;stroke-width:3.08px;"/>
    </g>
    <g transform="matrix(0.523006,-0.261503,0.261503,0.523006,-2665.15,1517.94)">
        <path d="M6419.76,1140L6424.24,1140" style="fill:none;fill-rule:nonzero;stroke:black;stroke-width:3.08px;"/>
    </g>
    <g transform="matrix(0.584739,0,0,-0.584739,-2763.48,1100.22)">
        <path d="M6424,1139L6434,1139" style="fill:none;fill-rule:nonzero;stroke:black;stroke-width:3.08px;"/>
    </g>
    <g transform="matrix(0.542917,0.217167,-0.217167,0.542917,-2246.72,-1581.93)">
        <path d="M6433.81,1140L6439.19,1140" style="fill:none;fill-rule:nonzero;stroke:black;stroke-width:3.08px;"/>
    </g>
    <g transform="matrix(0.324355,0.486532,-0.486532,0.324355,-530.748,-3067.59)">
        <path d="M6438.2,1142.5L6441.8,1142.5" style="fill:none;fill-rule:nonzero;stroke:black;stroke-width:3.08px;"/>
    </g>
    <g transform="matrix(0.261503,0.523006,-0.523006,0.261503,-81.8346,-3230.59)">
        <path d="M6439.76,1146L6444.24,1146" style="fill:none;fill-rule:nonzero;stroke:black;stroke-width:3.08px;"/>
    </g>
    <g transform="matrix(0,0.584739,-0.584739,0,1679.65,-3323.62)">
        <path d="M6435.5,1155.5L6450.5,1155.5" style="fill:none;fill-rule:nonzero;stroke:black;stroke-width:3.08px;"/>
    </g>
    <g transform="matrix(-0.261503,0.523006,-0.523006,-0.261503,3297.31,-2615.15)">
        <path d="M6439.76,1165L6444.24,1165" style="fill:none;fill-rule:nonzero;stroke:black;stroke-width:3.08px;"/>
    </g>
    <g transform="matrix(-0.324355,0.486532,-0.486532,-0.324355,3659.59,-2302.8)">
        <path d="M6438.2,1168.5L6441.8,1168.5" style="fill:none;fill-rule:nonzero;stroke:black;stroke-width:3.08px;"/>
    </g>
    <g transform="matrix(-0.542917,0.217167,-0.217167,-0.542917,4748.97,-309.119)">
        <path d="M6433.81,1171L6439.19,1171" style="fill:none;fill-rule:nonzero;stroke:black;stroke-width:3.08px;"/>
    </g>
    <g transform="matrix(-0.584739,0,0,-0.584739,4755.09,1138.82)">
        <path d="M6424,1172L6434,1172" style="fill:none;fill-rule:nonzero;stroke:black;stroke-width:3.08px;"/>
    </g>
    <g transform="matrix(-0.523006,-0.261503,0.261503,-0.523006,4044.24,2744.73)">
        <path d="M6419.76,1171L6424.24,1171" style="fill:none;fill-rule:nonzero;stroke:black;stroke-width:3.08px;"/>
    </g>
    <g transform="matrix(-0.413473,-0.413473,0.413473,-0.413473,2693.07,3358.65)">
        <path d="M5919.82,1137.5L5955.18,1137.5" style="fill:none;fill-rule:nonzero;stroke:black;stroke-width:3.08px;"/>
    </g>
    <g transform="matrix(-0.584739,0,0,-0.584739,4151.05,1083.85)">
        <path d="M5900,1125L5925,1125" style="fill:none;fill-rule:nonzero;stroke:black;stroke-width:3.08px;"/>
    </g>
    <g transform="matrix(0,0.584739,-0.584739,0,1358.93,-3009.32)">
        <path d="M5875,1150L5925,1150" style="fill:none;fill-rule:nonzero;stroke:black;stroke-width:3.08px;"/>
    </g>
    <g transform="matrix(0.584739,0,0,-0.584739,-2763.48,1142.33)">
        <path d="M5900,1175L5925,1175" style="fill:none;fill-rule:nonzero;stroke:black;stroke-width:3.08px;"/>
    </g>
    <g transform="matrix(0.413473,-0.413473,0.413473,0.413473,-2227.25,2422.28)">
        <path d="M5919.82,1162.5L5955.18,1162.5" style="fill:none;fill-rule:nonzero;stroke:black;stroke-width:3.08px;"/>
    </g>
    <g transform="matrix(0.584739,0,0,-0.584739,-2769.31,885.041)">
        <path d="M5208,937L5237,937" style="fill:none;fill-rule:nonzero;stroke:black;stroke-width:3.08px;"/>
    </g>
    <g transform="matrix(0,-0.584739,0.584739,0,-277.736,3405.85)">
        <path d="M5198,962L5248,962" style="fill:none;fill-rule:nonzero;stroke:black;stroke-width:3.08px;"/>
    </g>
    <g transform="matrix(-0.324355,0.486532,-0.486532,-0.324355,2510.12,-1886.04)">
        <path d="M5279.2,983.5L5282.8,983.5" style="fill:none;fill-rule:nonzero;stroke:black;stroke-width:3.08px;"/>
    </g>
    <g transform="matrix(-0.562241,0.16064,-0.16064,-0.562241,3441.12,72.5442)">
        <path d="M5272.86,986L5280.14,986" style="fill:none;fill-rule:nonzero;stroke:black;stroke-width:3.08px;"/>
    </g>
    <g transform="matrix(-0.584739,0,0,-0.584739,3394.42,943.515)">
        <path d="M5268,987L5273,987" style="fill:none;fill-rule:nonzero;stroke:black;stroke-width:3.08px;"/>
    </g>
    <g transform="matrix(-0.562241,-0.16064,0.16064,-0.562241,3110.57,1765.85)">
        <path d="M5260.86,986L5268.14,986" style="fill:none;fill-rule:nonzero;stroke:black;stroke-width:3.08px;"/>
    </g>
    <g transform="matrix(-0.413473,-0.413473,0.413473,-0.413473,2073.55,2944.23)">
        <path d="M5254.96,982.5L5262.04,982.5" style="fill:none;fill-rule:nonzero;stroke:black;stroke-width:3.08px;"/>
    </g>
    <g transform="matrix(-0.217167,-0.542917,0.542917,-0.217167,914.004,3426.13)">
        <path d="M5252.31,977.5L5257.69,977.5" style="fill:none;fill-rule:nonzero;stroke:black;stroke-width:3.08px;"/>
    </g>
    <g transform="matrix(-0.184911,-0.554732,0.554732,-0.184911,734.908,3449.92)">
        <path d="M5247.76,970.5L5257.24,970.5" style="fill:none;fill-rule:nonzero;stroke:black;stroke-width:3.08px;"/>
    </g>
    <g transform="matrix(0,-0.584739,0.584739,0,-261.656,3422.52)">
        <path d="M5247.5,962.5L5254.5,962.5" style="fill:none;fill-rule:nonzero;stroke:black;stroke-width:3.08px;"/>
    </g>
    <g transform="matrix(0.168024,-0.560078,0.560078,0.168024,-1114.83,3128.6)">
        <path d="M5247.28,954L5257.72,954" style="fill:none;fill-rule:nonzero;stroke:black;stroke-width:3.08px;"/>
    </g>
    <g transform="matrix(0.217167,-0.542917,0.542917,0.217167,-1351.59,2990.17)">
        <path d="M5252.31,946.5L5257.69,946.5" style="fill:none;fill-rule:nonzero;stroke:black;stroke-width:3.08px;"/>
    </g>
    <g transform="matrix(0.456604,-0.365284,0.365284,0.456604,-2439.61,1830.79)">
        <path d="M5255.3,942L5261.7,942" style="fill:none;fill-rule:nonzero;stroke:black;stroke-width:3.08px;"/>
    </g>
    <g transform="matrix(0.53746,-0.23034,0.23034,0.53746,-2736.58,1046.24)">
        <path d="M5260.69,938.5L5268.31,938.5" style="fill:none;fill-rule:nonzero;stroke:black;stroke-width:3.08px;"/>
    </g>
    <g transform="matrix(0.584739,0,0,-0.584739,-2769.31,885.041)">
        <path d="M5268,937L5273,937" style="fill:none;fill-rule:nonzero;stroke:black;stroke-width:3.08px;"/>
    </g>
    <g transform="matrix(0.53746,0.23034,-0.23034,0.53746,-2303.67,-1381.78)">
        <path d="M5272.69,938.5L5280.31,938.5" style="fill:none;fill-rule:nonzero;stroke:black;stroke-width:3.08px;"/>
    </g>
    <g transform="matrix(0.413473,0.413473,-0.413473,0.413473,-1475.78,-2233.15)">
        <path d="M5279.59,941L5282.41,941" style="fill:none;fill-rule:nonzero;stroke:black;stroke-width:3.08px;"/>
    </g>
    <g transform="matrix(-0.324355,0.486532,-0.486532,-0.324355,2555.57,-1910.37)">
        <path d="M5329.2,983.5L5332.8,983.5" style="fill:none;fill-rule:nonzero;stroke:black;stroke-width:3.08px;"/>
    </g>
    <g transform="matrix(-0.562241,0.16064,-0.16064,-0.562241,3498.47,64.5122)">
        <path d="M5322.86,986L5330.14,986" style="fill:none;fill-rule:nonzero;stroke:black;stroke-width:3.08px;"/>
    </g>
    <g transform="matrix(-0.584739,0,0,-0.584739,3452.9,943.515)">
        <path d="M5318,987L5323,987" style="fill:none;fill-rule:nonzero;stroke:black;stroke-width:3.08px;"/>
    </g>
    <g transform="matrix(-0.562241,-0.16064,0.16064,-0.562241,3167.92,1773.88)">
        <path d="M5310.86,986L5318.14,986" style="fill:none;fill-rule:nonzero;stroke:black;stroke-width:3.08px;"/>
    </g>
    <g transform="matrix(-0.413473,-0.413473,0.413473,-0.413473,2123.46,2964.9)">
        <path d="M5304.96,982.5L5312.04,982.5" style="fill:none;fill-rule:nonzero;stroke:black;stroke-width:3.08px;"/>
    </g>
    <g transform="matrix(-0.217167,-0.542917,0.542917,-0.217167,954.099,3453.28)">
        <path d="M5302.31,977.5L5307.69,977.5" style="fill:none;fill-rule:nonzero;stroke:black;stroke-width:3.08px;"/>
    </g>
    <g transform="matrix(-0.184911,-0.554732,0.554732,-0.184911,773.391,3477.65)">
        <path d="M5297.76,970.5L5307.24,970.5" style="fill:none;fill-rule:nonzero;stroke:black;stroke-width:3.08px;"/>
    </g>
    <g transform="matrix(0,-0.584739,0.584739,0,-232.419,3451.75)">
        <path d="M5297.5,962.5L5304.5,962.5" style="fill:none;fill-rule:nonzero;stroke:black;stroke-width:3.08px;"/>
    </g>
    <g transform="matrix(0.168024,-0.560078,0.560078,0.168024,-1093.99,3156.6)">
        <path d="M5297.28,954L5307.72,954" style="fill:none;fill-rule:nonzero;stroke:black;stroke-width:3.08px;"/>
    </g>
    <g transform="matrix(0.217167,-0.542917,0.542917,0.217167,-1333.21,3017.32)">
        <path d="M5302.31,946.5L5307.69,946.5" style="fill:none;fill-rule:nonzero;stroke:black;stroke-width:3.08px;"/>
    </g>
    <g transform="matrix(0.456604,-0.365284,0.365284,0.456604,-2433.2,1849.05)">
        <path d="M5305.3,942L5311.7,942" style="fill:none;fill-rule:nonzero;stroke:black;stroke-width:3.08px;"/>
    </g>
    <g transform="matrix(0.53746,-0.23034,0.23034,0.53746,-2734.22,1057.75)">
        <path d="M5310.69,938.5L5318.31,938.5" style="fill:none;fill-rule:nonzero;stroke:black;stroke-width:3.08px;"/>
    </g>
    <g transform="matrix(0.584739,0,0,-0.584739,-2769.31,885.041)">
        <path d="M5318,937L5323,937" style="fill:none;fill-rule:nonzero;stroke:black;stroke-width:3.08px;"/>
    </g>
    <g transform="matrix(0.53746,0.23034,-0.23034,0.53746,-2301.3,-1393.29)">
        <path d="M5322.69,938.5L5330.31,938.5" style="fill:none;fill-rule:nonzero;stroke:black;stroke-width:3.08px;"/>
    </g>
    <g transform="matrix(0.413473,0.413473,-0.413473,0.413473,-1467.21,-2253.82)">
        <path d="M5329.59,941L5332.41,941" style="fill:none;fill-rule:nonzero;stroke:black;stroke-width:3.08px;"/>
    </g>
    <g transform="matrix(0.584739,0,0,-0.584739,-2769.31,885.041)">
        <path d="M5363,937L5368,937" style="fill:none;fill-rule:nonzero;stroke:black;stroke-width:3.08px;"/>
    </g>
    <g transform="matrix(0.50141,0.300846,-0.300846,0.50141,-2039.44,-1748.25)">
        <path d="M5367.59,938.5L5373.41,938.5" style="fill:none;fill-rule:nonzero;stroke:black;stroke-width:3.08px;"/>
    </g>
    <g transform="matrix(0.413473,0.413473,-0.413473,0.413473,-1459.85,-2271.6)">
        <path d="M5372.59,941L5375.41,941" style="fill:none;fill-rule:nonzero;stroke:black;stroke-width:3.08px;"/>
    </g>
    <g transform="matrix(0.217167,0.542917,-0.542917,0.217167,-280.455,-2782.31)">
        <path d="M5373.31,944.5L5378.69,944.5" style="fill:none;fill-rule:nonzero;stroke:black;stroke-width:3.08px;"/>
    </g>
    <g transform="matrix(0.184911,0.554732,-0.554732,0.184911,-91.0052,-2813.95)">
        <path d="M5373.76,951.5L5383.24,951.5" style="fill:none;fill-rule:nonzero;stroke:black;stroke-width:3.08px;"/>
    </g>
    <g transform="matrix(0,0.584739,-0.584739,0,939.105,-2794.14)">
        <path d="M5374,962L5386,962" style="fill:none;fill-rule:nonzero;stroke:black;stroke-width:3.08px;"/>
    </g>
    <g transform="matrix(-0.168024,0.560078,-0.560078,-0.168024,1824.38,-2490.7)">
        <path d="M5373.28,973L5383.72,973" style="fill:none;fill-rule:nonzero;stroke:black;stroke-width:3.08px;"/>
    </g>
    <g transform="matrix(-0.261503,0.523006,-0.523006,-0.261503,2292.64,-2193.13)">
        <path d="M5373.76,980L5378.24,980" style="fill:none;fill-rule:nonzero;stroke:black;stroke-width:3.08px;"/>
    </g>
    <g transform="matrix(-0.324355,0.486532,-0.486532,-0.324355,2594.67,-1931.29)">
        <path d="M5372.2,983.5L5375.8,983.5" style="fill:none;fill-rule:nonzero;stroke:black;stroke-width:3.08px;"/>
    </g>
    <g transform="matrix(-0.542917,0.217167,-0.217167,-0.542917,3500.89,-265.185)">
        <path d="M5367.81,986L5373.19,986" style="fill:none;fill-rule:nonzero;stroke:black;stroke-width:3.08px;"/>
    </g>
    <g transform="matrix(-0.584739,0,0,-0.584739,3505.52,943.515)">
        <path d="M5363,987L5368,987" style="fill:none;fill-rule:nonzero;stroke:black;stroke-width:3.08px;"/>
    </g>
    <g transform="matrix(-0.542917,-0.217167,0.217167,-0.542917,3061.36,2065.23)">
        <path d="M5357.81,986L5363.19,986" style="fill:none;fill-rule:nonzero;stroke:black;stroke-width:3.08px;"/>
    </g>
    <g transform="matrix(-0.324355,-0.486532,0.486532,-0.324355,1622.2,3289.69)">
        <path d="M5355.2,983.5L5358.8,983.5" style="fill:none;fill-rule:nonzero;stroke:black;stroke-width:3.08px;"/>
    </g>
    <g transform="matrix(-0.261503,-0.523006,0.523006,-0.261503,1249.77,3419.26)">
        <path d="M5352.76,980L5357.24,980" style="fill:none;fill-rule:nonzero;stroke:black;stroke-width:3.08px;"/>
    </g>
    <g transform="matrix(-0.168024,-0.560078,0.560078,-0.168024,714.896,3519.5)">
        <path d="M5347.28,973L5357.72,973" style="fill:none;fill-rule:nonzero;stroke:black;stroke-width:3.08px;"/>
    </g>
    <g transform="matrix(0,-0.584739,0.584739,0,-202.89,3480.7)">
        <path d="M5345,962L5357,962" style="fill:none;fill-rule:nonzero;stroke:black;stroke-width:3.08px;"/>
    </g>
    <g transform="matrix(0.184911,-0.554732,0.554732,0.184911,-1157.06,3138.88)">
        <path d="M5347.76,951.5L5357.24,951.5" style="fill:none;fill-rule:nonzero;stroke:black;stroke-width:3.08px;"/>
    </g>
    <g transform="matrix(0.217167,-0.542917,0.542917,0.217167,-1313.74,3043.73)">
        <path d="M5352.31,944.5L5357.69,944.5" style="fill:none;fill-rule:nonzero;stroke:black;stroke-width:3.08px;"/>
    </g>
    <g transform="matrix(0.413473,-0.413473,0.413473,0.413473,-2240.91,2165.38)">
        <path d="M5355.59,941L5358.41,941" style="fill:none;fill-rule:nonzero;stroke:black;stroke-width:3.08px;"/>
    </g>
    <g transform="matrix(0.50141,-0.300846,0.300846,0.50141,-2604.97,1480.13)">
        <path d="M5357.59,938.5L5363.41,938.5" style="fill:none;fill-rule:nonzero;stroke:black;stroke-width:3.08px;"/>
    </g>
    <g transform="matrix(0.125638,0.571082,-0.571082,0.125638,260.365,-2854.38)">
        <path d="M5376.9,962L5428.1,962" style="fill:none;fill-rule:nonzero;stroke:black;stroke-width:3.08px;"/>
    </g>
    <g transform="matrix(0.156502,-0.563407,0.563407,0.156502,-997.202,3253.92)">
        <path d="M5394.32,969L5431.68,969" style="fill:none;fill-rule:nonzero;stroke:black;stroke-width:3.08px;"/>
    </g>
    <g transform="matrix(0.14182,0.56728,-0.56728,0.14182,182.113,-2857.65)">
        <path d="M5403.95,969L5441.05,969" style="fill:none;fill-rule:nonzero;stroke:black;stroke-width:3.08px;"/>
    </g>
    <g transform="matrix(0.136462,-0.568593,0.568593,0.136462,-880.808,3309.65)">
        <path d="M5407.29,962L5458.71,962" style="fill:none;fill-rule:nonzero;stroke:black;stroke-width:3.08px;"/>
    </g>
    <g transform="matrix(0.584739,0,0,-0.584739,-2769.31,885.041)">
        <path d="M5468,937L5477,937" style="fill:none;fill-rule:nonzero;stroke:black;stroke-width:3.08px;"/>
    </g>
    <g transform="matrix(0.50141,0.300846,-0.300846,0.50141,-2030.36,-1781.04)">
        <path d="M5476.59,938.5L5482.41,938.5" style="fill:none;fill-rule:nonzero;stroke:black;stroke-width:3.08px;"/>
    </g>
    <g transform="matrix(0.456604,0.365284,-0.365284,0.456604,-1722.46,-2093.45)">
        <path d="M5481.3,942L5487.7,942" style="fill:none;fill-rule:nonzero;stroke:black;stroke-width:3.08px;"/>
    </g>
    <g transform="matrix(0.114677,0.573384,-0.573384,0.114677,354.534,-2911.4)">
        <path d="M5482.9,949L5493.1,949" style="fill:none;fill-rule:nonzero;stroke:black;stroke-width:3.08px;"/>
    </g>
    <g transform="matrix(0,0.584739,-0.584739,0,1002.84,-2857.87)">
        <path d="M5481,962L5497,962" style="fill:none;fill-rule:nonzero;stroke:black;stroke-width:3.08px;"/>
    </g>
    <g transform="matrix(-0.114677,0.573384,-0.573384,-0.114677,1628.13,-2675.56)">
        <path d="M5482.9,975L5493.1,975" style="fill:none;fill-rule:nonzero;stroke:black;stroke-width:3.08px;"/>
    </g>
    <g transform="matrix(-0.413473,0.413473,-0.413473,-0.413473,3111.62,-1497.71)">
        <path d="M5480.96,982.5L5488.04,982.5" style="fill:none;fill-rule:nonzero;stroke:black;stroke-width:3.08px;"/>
    </g>
    <g transform="matrix(-0.542917,0.217167,-0.217167,-0.542917,3623.81,-288.856)">
        <path d="M5476.81,986L5482.19,986" style="fill:none;fill-rule:nonzero;stroke:black;stroke-width:3.08px;"/>
    </g>
    <g transform="matrix(-0.584739,0,0,-0.584739,3630.66,943.515)">
        <path d="M5468,987L5477,987" style="fill:none;fill-rule:nonzero;stroke:black;stroke-width:3.08px;"/>
    </g>
    <g transform="matrix(-0.542917,-0.217167,0.217167,-0.542917,3179.77,2088.03)">
        <path d="M5462.81,986L5468.19,986" style="fill:none;fill-rule:nonzero;stroke:black;stroke-width:3.08px;"/>
    </g>
    <g transform="matrix(-0.413473,-0.413473,0.413473,-0.413473,2275.19,3027.75)">
        <path d="M5456.96,982.5L5464.04,982.5" style="fill:none;fill-rule:nonzero;stroke:black;stroke-width:3.08px;"/>
    </g>
    <g transform="matrix(-0.114677,-0.573384,0.573384,-0.114677,488.353,3600.13)">
        <path d="M5451.9,975L5462.1,975" style="fill:none;fill-rule:nonzero;stroke:black;stroke-width:3.08px;"/>
    </g>
    <g transform="matrix(0,-0.584739,0.584739,0,-141.492,3542.1)">
        <path d="M5448,962L5464,962" style="fill:none;fill-rule:nonzero;stroke:black;stroke-width:3.08px;"/>
    </g>
    <g transform="matrix(0.114677,-0.573384,0.573384,0.114677,-748.321,3364.28)">
        <path d="M5451.9,949L5462.1,949" style="fill:none;fill-rule:nonzero;stroke:black;stroke-width:3.08px;"/>
    </g>
    <g transform="matrix(0.456604,-0.365284,0.365284,0.456604,-2413.73,1904.57)">
        <path d="M5457.3,942L5463.7,942" style="fill:none;fill-rule:nonzero;stroke:black;stroke-width:3.08px;"/>
    </g>
    <g transform="matrix(0.50141,-0.300846,0.300846,0.50141,-2596.22,1511.72)">
        <path d="M5462.59,938.5L5468.41,938.5" style="fill:none;fill-rule:nonzero;stroke:black;stroke-width:3.08px;"/>
    </g>
    <g transform="matrix(0.584739,0,0,-0.584739,-2769.31,885.041)">
        <path d="M5506,937L5539,937" style="fill:none;fill-rule:nonzero;stroke:black;stroke-width:3.08px;"/>
    </g>
    <g transform="matrix(-0.22643,0.539119,-0.539119,-0.22643,2233.87,-2410.93)">
        <path d="M5501.39,962L5555.61,962" style="fill:none;fill-rule:nonzero;stroke:black;stroke-width:3.08px;"/>
    </g>
    <g transform="matrix(0.584739,0,0,-0.584739,-2769.31,1060.46)">
        <path d="M5208,1087L5237,1087" style="fill:none;fill-rule:nonzero;stroke:black;stroke-width:3.08px;"/>
    </g>
    <g transform="matrix(0,-0.584739,0.584739,0,-365.447,3493.56)">
        <path d="M5198,1112L5248,1112" style="fill:none;fill-rule:nonzero;stroke:black;stroke-width:3.08px;"/>
    </g>
    <g transform="matrix(-0.324355,0.486532,-0.486532,-0.324355,2583.1,-1749.68)">
        <path d="M5279.2,1133.5L5282.8,1133.5" style="fill:none;fill-rule:nonzero;stroke:black;stroke-width:3.08px;"/>
    </g>
    <g transform="matrix(-0.562241,0.16064,-0.16064,-0.562241,3465.22,244.591)">
        <path d="M5272.86,1136L5280.14,1136" style="fill:none;fill-rule:nonzero;stroke:black;stroke-width:3.08px;"/>
    </g>
    <g transform="matrix(-0.584739,0,0,-0.584739,3394.42,1118.94)">
        <path d="M5268,1137L5273,1137" style="fill:none;fill-rule:nonzero;stroke:black;stroke-width:3.08px;"/>
    </g>
    <g transform="matrix(-0.562241,-0.16064,0.16064,-0.562241,3086.48,1937.9)">
        <path d="M5260.86,1136L5268.14,1136" style="fill:none;fill-rule:nonzero;stroke:black;stroke-width:3.08px;"/>
    </g>
    <g transform="matrix(-0.413473,-0.413473,0.413473,-0.413473,2011.53,3093.96)">
        <path d="M5254.96,1132.5L5262.04,1132.5" style="fill:none;fill-rule:nonzero;stroke:black;stroke-width:3.08px;"/>
    </g>
    <g transform="matrix(-0.217167,-0.542917,0.542917,-0.217167,832.566,3546.42)">
        <path d="M5252.31,1127.5L5257.69,1127.5" style="fill:none;fill-rule:nonzero;stroke:black;stroke-width:3.08px;"/>
    </g>
    <g transform="matrix(-0.184911,-0.554732,0.554732,-0.184911,651.698,3565.36)">
        <path d="M5247.76,1120.5L5257.24,1120.5" style="fill:none;fill-rule:nonzero;stroke:black;stroke-width:3.08px;"/>
    </g>
    <g transform="matrix(0,-0.584739,0.584739,0,-349.367,3510.23)">
        <path d="M5247.5,1112.5L5254.5,1112.5" style="fill:none;fill-rule:nonzero;stroke:black;stroke-width:3.08px;"/>
    </g>
    <g transform="matrix(0.168024,-0.560078,0.560078,0.168024,-1198.84,3191.11)">
        <path d="M5247.28,1104L5257.72,1104" style="fill:none;fill-rule:nonzero;stroke:black;stroke-width:3.08px;"/>
    </g>
    <g transform="matrix(0.217167,-0.542917,0.542917,0.217167,-1433.02,3045.31)">
        <path d="M5252.31,1096.5L5257.69,1096.5" style="fill:none;fill-rule:nonzero;stroke:black;stroke-width:3.08px;"/>
    </g>
    <g transform="matrix(0.456604,-0.365284,0.365284,0.456604,-2494.4,1850.01)">
        <path d="M5255.3,1092L5261.7,1092" style="fill:none;fill-rule:nonzero;stroke:black;stroke-width:3.08px;"/>
    </g>
    <g transform="matrix(0.53746,-0.23034,0.23034,0.53746,-2771.13,1053.33)">
        <path d="M5260.69,1088.5L5268.31,1088.5" style="fill:none;fill-rule:nonzero;stroke:black;stroke-width:3.08px;"/>
    </g>
    <g transform="matrix(0.584739,0,0,-0.584739,-2769.31,1060.46)">
        <path d="M5268,1087L5273,1087" style="fill:none;fill-rule:nonzero;stroke:black;stroke-width:3.08px;"/>
    </g>
    <g transform="matrix(0.53746,0.23034,-0.23034,0.53746,-2269.12,-1374.69)">
        <path d="M5272.69,1088.5L5280.31,1088.5" style="fill:none;fill-rule:nonzero;stroke:black;stroke-width:3.08px;"/>
    </g>
    <g transform="matrix(0.413473,0.413473,-0.413473,0.413473,-1413.75,-2207.46)">
        <path d="M5279.59,1091L5282.41,1091" style="fill:none;fill-rule:nonzero;stroke:black;stroke-width:3.08px;"/>
    </g>
    <g transform="matrix(-0.324355,0.486532,-0.486532,-0.324355,2628.55,-1774.01)">
        <path d="M5329.2,1133.5L5332.8,1133.5" style="fill:none;fill-rule:nonzero;stroke:black;stroke-width:3.08px;"/>
    </g>
    <g transform="matrix(-0.562241,0.16064,-0.16064,-0.562241,3522.56,236.559)">
        <path d="M5322.86,1136L5330.14,1136" style="fill:none;fill-rule:nonzero;stroke:black;stroke-width:3.08px;"/>
    </g>
    <g transform="matrix(-0.584739,0,0,-0.584739,3452.9,1118.94)">
        <path d="M5318,1137L5323,1137" style="fill:none;fill-rule:nonzero;stroke:black;stroke-width:3.08px;"/>
    </g>
    <g transform="matrix(-0.562241,-0.16064,0.16064,-0.562241,3143.83,1945.93)">
        <path d="M5310.86,1136L5318.14,1136" style="fill:none;fill-rule:nonzero;stroke:black;stroke-width:3.08px;"/>
    </g>
    <g transform="matrix(-0.413473,-0.413473,0.413473,-0.413473,2061.44,3114.64)">
        <path d="M5304.96,1132.5L5312.04,1132.5" style="fill:none;fill-rule:nonzero;stroke:black;stroke-width:3.08px;"/>
    </g>
    <g transform="matrix(-0.217167,-0.542917,0.542917,-0.217167,872.662,3573.56)">
        <path d="M5302.31,1127.5L5307.69,1127.5" style="fill:none;fill-rule:nonzero;stroke:black;stroke-width:3.08px;"/>
    </g>
    <g transform="matrix(-0.184911,-0.554732,0.554732,-0.184911,690.181,3593.1)">
        <path d="M5297.76,1120.5L5307.24,1120.5" style="fill:none;fill-rule:nonzero;stroke:black;stroke-width:3.08px;"/>
    </g>
    <g transform="matrix(0,-0.584739,0.584739,0,-320.13,3539.46)">
        <path d="M5297.5,1112.5L5304.5,1112.5" style="fill:none;fill-rule:nonzero;stroke:black;stroke-width:3.08px;"/>
    </g>
    <g transform="matrix(0.168024,-0.560078,0.560078,0.168024,-1178,3219.11)">
        <path d="M5297.28,1104L5307.72,1104" style="fill:none;fill-rule:nonzero;stroke:black;stroke-width:3.08px;"/>
    </g>
    <g transform="matrix(0.217167,-0.542917,0.542917,0.217167,-1414.65,3072.46)">
        <path d="M5302.31,1096.5L5307.69,1096.5" style="fill:none;fill-rule:nonzero;stroke:black;stroke-width:3.08px;"/>
    </g>
    <g transform="matrix(0.456604,-0.365284,0.365284,0.456604,-2488,1868.27)">
        <path d="M5305.3,1092L5311.7,1092" style="fill:none;fill-rule:nonzero;stroke:black;stroke-width:3.08px;"/>
    </g>
    <g transform="matrix(0.53746,-0.23034,0.23034,0.53746,-2768.77,1064.85)">
        <path d="M5310.69,1088.5L5318.31,1088.5" style="fill:none;fill-rule:nonzero;stroke:black;stroke-width:3.08px;"/>
    </g>
    <g transform="matrix(0.584739,0,0,-0.584739,-2769.31,1060.46)">
        <path d="M5318,1087L5323,1087" style="fill:none;fill-rule:nonzero;stroke:black;stroke-width:3.08px;"/>
    </g>
    <g transform="matrix(0.53746,0.23034,-0.23034,0.53746,-2266.75,-1386.2)">
        <path d="M5322.69,1088.5L5330.31,1088.5" style="fill:none;fill-rule:nonzero;stroke:black;stroke-width:3.08px;"/>
    </g>
    <g transform="matrix(0.413473,0.413473,-0.413473,0.413473,-1405.19,-2228.13)">
        <path d="M5329.59,1091L5332.41,1091" style="fill:none;fill-rule:nonzero;stroke:black;stroke-width:3.08px;"/>
    </g>
    <g transform="matrix(-0.584739,0,0,-0.584739,3505.52,1118.94)">
        <path d="M5351,1137L5380,1137" style="fill:none;fill-rule:nonzero;stroke:black;stroke-width:3.08px;"/>
    </g>
    <g transform="matrix(0,-0.584739,0.584739,0,-281.83,3577.18)">
        <path d="M5341,1112L5391,1112" style="fill:none;fill-rule:nonzero;stroke:black;stroke-width:3.08px;"/>
    </g>
    <g transform="matrix(-0.339873,0.475822,-0.475822,-0.339873,2708.73,-1754.54)">
        <path d="M5359.2,1090.5L5367.8,1090.5" style="fill:none;fill-rule:nonzero;stroke:black;stroke-width:3.08px;"/>
    </g>
    <g transform="matrix(-0.413473,0.413473,-0.413473,-0.413473,3032.98,-1331.82)">
        <path d="M5354.96,1096.5L5362.04,1096.5" style="fill:none;fill-rule:nonzero;stroke:black;stroke-width:3.08px;"/>
    </g>
    <g transform="matrix(-0.542917,0.217167,-0.217167,-0.542917,3506.48,-132.94)">
        <path d="M5350.81,1100L5356.19,1100" style="fill:none;fill-rule:nonzero;stroke:black;stroke-width:3.08px;"/>
    </g>
    <g transform="matrix(0.125638,0.571082,-0.571082,0.125638,346.027,-2785.51)">
        <path d="M5376.9,1112L5428.1,1112" style="fill:none;fill-rule:nonzero;stroke:black;stroke-width:3.08px;"/>
    </g>
    <g transform="matrix(0.156502,-0.563407,0.563407,0.156502,-1081.71,3318.16)">
        <path d="M5394.32,1119L5431.68,1119" style="fill:none;fill-rule:nonzero;stroke:black;stroke-width:3.08px;"/>
    </g>
    <g transform="matrix(0.14182,0.56728,-0.56728,0.14182,267.205,-2791.21)">
        <path d="M5403.95,1119L5441.05,1119" style="fill:none;fill-rule:nonzero;stroke:black;stroke-width:3.08px;"/>
    </g>
    <g transform="matrix(0.136462,-0.568593,0.568593,0.136462,-966.097,3376.89)">
        <path d="M5407.29,1112L5458.71,1112" style="fill:none;fill-rule:nonzero;stroke:black;stroke-width:3.08px;"/>
    </g>
    <g transform="matrix(0.584739,0,0,-0.584739,-2769.31,1060.46)">
        <path d="M5468,1087L5477,1087" style="fill:none;fill-rule:nonzero;stroke:black;stroke-width:3.08px;"/>
    </g>
    <g transform="matrix(0.50141,0.300846,-0.300846,0.50141,-1985.23,-1768.54)">
        <path d="M5476.59,1088.5L5482.41,1088.5" style="fill:none;fill-rule:nonzero;stroke:black;stroke-width:3.08px;"/>
    </g>
    <g transform="matrix(0.456604,0.365284,-0.365284,0.456604,-1667.67,-2074.23)">
        <path d="M5481.3,1092L5487.7,1092" style="fill:none;fill-rule:nonzero;stroke:black;stroke-width:3.08px;"/>
    </g>
    <g transform="matrix(0.114677,0.573384,-0.573384,0.114677,440.541,-2840.89)">
        <path d="M5482.9,1099L5493.1,1099" style="fill:none;fill-rule:nonzero;stroke:black;stroke-width:3.08px;"/>
    </g>
    <g transform="matrix(0,0.584739,-0.584739,0,1090.55,-2770.16)">
        <path d="M5481,1112L5497,1112" style="fill:none;fill-rule:nonzero;stroke:black;stroke-width:3.08px;"/>
    </g>
    <g transform="matrix(-0.114677,0.573384,-0.573384,-0.114677,1714.14,-2570.65)">
        <path d="M5482.9,1125L5493.1,1125" style="fill:none;fill-rule:nonzero;stroke:black;stroke-width:3.08px;"/>
    </g>
    <g transform="matrix(-0.413473,0.413473,-0.413473,-0.413473,3173.64,-1347.98)">
        <path d="M5480.96,1132.5L5488.04,1132.5" style="fill:none;fill-rule:nonzero;stroke:black;stroke-width:3.08px;"/>
    </g>
    <g transform="matrix(-0.542917,0.217167,-0.217167,-0.542917,3656.38,-119.708)">
        <path d="M5476.81,1136L5482.19,1136" style="fill:none;fill-rule:nonzero;stroke:black;stroke-width:3.08px;"/>
    </g>
    <g transform="matrix(-0.584739,0,0,-0.584739,3630.66,1118.94)">
        <path d="M5468,1137L5477,1137" style="fill:none;fill-rule:nonzero;stroke:black;stroke-width:3.08px;"/>
    </g>
    <g transform="matrix(-0.542917,-0.217167,0.217167,-0.542917,3147.19,2257.18)">
        <path d="M5462.81,1136L5468.19,1136" style="fill:none;fill-rule:nonzero;stroke:black;stroke-width:3.08px;"/>
    </g>
    <g transform="matrix(-0.413473,-0.413473,0.413473,-0.413473,2213.17,3177.48)">
        <path d="M5456.96,1132.5L5464.04,1132.5" style="fill:none;fill-rule:nonzero;stroke:black;stroke-width:3.08px;"/>
    </g>
    <g transform="matrix(-0.114677,-0.573384,0.573384,-0.114677,402.346,3705.04)">
        <path d="M5451.9,1125L5462.1,1125" style="fill:none;fill-rule:nonzero;stroke:black;stroke-width:3.08px;"/>
    </g>
    <g transform="matrix(0,-0.584739,0.584739,0,-229.203,3629.81)">
        <path d="M5448,1112L5464,1112" style="fill:none;fill-rule:nonzero;stroke:black;stroke-width:3.08px;"/>
    </g>
    <g transform="matrix(0.114677,-0.573384,0.573384,0.114677,-834.328,3434.79)">
        <path d="M5451.9,1099L5462.1,1099" style="fill:none;fill-rule:nonzero;stroke:black;stroke-width:3.08px;"/>
    </g>
    <g transform="matrix(0.456604,-0.365284,0.365284,0.456604,-2468.52,1923.79)">
        <path d="M5457.3,1092L5463.7,1092" style="fill:none;fill-rule:nonzero;stroke:black;stroke-width:3.08px;"/>
    </g>
    <g transform="matrix(0.50141,-0.300846,0.300846,0.50141,-2641.34,1524.22)">
        <path d="M5462.59,1088.5L5468.41,1088.5" style="fill:none;fill-rule:nonzero;stroke:black;stroke-width:3.08px;"/>
    </g>
    <g transform="matrix(-0.584739,0,0,-0.584739,3689.13,1118.94)">
        <path d="M5508,1137L5537,1137" style="fill:none;fill-rule:nonzero;stroke:black;stroke-width:3.08px;"/>
    </g>
    <g transform="matrix(0,-0.584739,0.584739,0,-190.026,3668.98)">
        <path d="M5498,1112L5548,1112" style="fill:none;fill-rule:nonzero;stroke:black;stroke-width:3.08px;"/>
    </g>
    <g transform="matrix(-0.339873,0.475822,-0.475822,-0.339873,2853.89,-1829.24)">
        <path d="M5516.2,1090.5L5524.8,1090.5" style="fill:none;fill-rule:nonzero;stroke:black;stroke-width:3.08px;"/>
    </g>
    <g transform="matrix(-0.413473,0.413473,-0.413473,-0.413473,3189.7,-1396.73)">
        <path d="M5511.96,1096.5L5519.04,1096.5" style="fill:none;fill-rule:nonzero;stroke:black;stroke-width:3.08px;"/>
    </g>
    <g transform="matrix(-0.542917,0.217167,-0.217167,-0.542917,3683.52,-167.035)">
        <path d="M5507.81,1100L5513.19,1100" style="fill:none;fill-rule:nonzero;stroke:black;stroke-width:3.08px;"/>
    </g>
</svg>
