<svg version="1.1" viewBox="0.0 0.0 1127.0 697.0" fill="none" stroke="none" stroke-linecap="square" stroke-miterlimit="10" width="1127" height="697" xmlns:xlink="http://www.w3.org/1999/xlink" xmlns="http://www.w3.org/2000/svg"><path fill="#ffffff" d="M0 0L1127.0 0L1127.0 697.0L0 697.0L0 0Z" fill-rule="nonzero"/><path stroke="#333333" stroke-width="1.0" stroke-linecap="butt" d="M93.5 89.5L93.5 610.5" fill-rule="nonzero"/><path stroke="#cccccc" stroke-width="1.0" stroke-linecap="butt" d="M399.5 89.5L399.5 610.5" fill-rule="nonzero"/><path stroke="#cccccc" stroke-width="1.0" stroke-linecap="butt" d="M704.5 89.5L704.5 610.5" fill-rule="nonzero"/><path stroke="#cccccc" stroke-width="1.0" stroke-linecap="butt" d="M1010.5 89.5L1010.5 610.5" fill-rule="nonzero"/><path stroke="#cccccc" stroke-width="1.0" stroke-linecap="butt" d="M93.5 610.5L1092.5 610.5" fill-rule="nonzero"/><path stroke="#cccccc" stroke-width="1.0" stroke-linecap="butt" d="M93.5 545.5L1092.5 545.5" fill-rule="nonzero"/><path stroke="#cccccc" stroke-width="1.0" stroke-linecap="butt" d="M93.5 479.5L1092.5 479.5" fill-rule="nonzero"/><path stroke="#cccccc" stroke-width="1.0" stroke-linecap="butt" d="M93.5 414.5L1092.5 414.5" fill-rule="nonzero"/><path stroke="#333333" stroke-width="1.0" stroke-linecap="butt" d="M93.5 349.5L1092.5 349.5" fill-rule="nonzero"/><path stroke="#cccccc" stroke-width="1.0" stroke-linecap="butt" d="M93.5 284.5L1092.5 284.5" fill-rule="nonzero"/><path stroke="#cccccc" stroke-width="1.0" stroke-linecap="butt" d="M93.5 219.5L1092.5 219.5" fill-rule="nonzero"/><path stroke="#cccccc" stroke-width="1.0" stroke-linecap="butt" d="M93.5 154.5L1092.5 154.5" fill-rule="nonzero"/><path stroke="#cccccc" stroke-width="1.0" stroke-linecap="butt" d="M93.5 89.5L1092.5 89.5" fill-rule="nonzero"/><path stroke="#e6e6e6" stroke-width="1.0" stroke-linecap="butt" d="M93.5 588.5L1092.5 588.5" fill-rule="nonzero"/><path stroke="#e6e6e6" stroke-width="1.0" stroke-linecap="butt" d="M93.5 566.5L1092.5 566.5" fill-rule="nonzero"/><path stroke="#e6e6e6" stroke-width="1.0" stroke-linecap="butt" d="M93.5 523.5L1092.5 523.5" fill-rule="nonzero"/><path stroke="#e6e6e6" stroke-width="1.0" stroke-linecap="butt" d="M93.5 501.5L1092.5 501.5" fill-rule="nonzero"/><path stroke="#e6e6e6" stroke-width="1.0" stroke-linecap="butt" d="M93.5 458.5L1092.5 458.5" fill-rule="nonzero"/><path stroke="#e6e6e6" stroke-width="1.0" stroke-linecap="butt" d="M93.5 436.5L1092.5 436.5" fill-rule="nonzero"/><path stroke="#e6e6e6" stroke-width="1.0" stroke-linecap="butt" d="M93.5 393.5L1092.5 393.5" fill-rule="nonzero"/><path stroke="#e6e6e6" stroke-width="1.0" stroke-linecap="butt" d="M93.5 371.5L1092.5 371.5" fill-rule="nonzero"/><path stroke="#e6e6e6" stroke-width="1.0" stroke-linecap="butt" d="M93.5 327.5L1092.5 327.5" fill-rule="nonzero"/><path stroke="#e6e6e6" stroke-width="1.0" stroke-linecap="butt" d="M93.5 306.5L1092.5 306.5" fill-rule="nonzero"/><path stroke="#e6e6e6" stroke-width="1.0" stroke-linecap="butt" d="M93.5 262.5L1092.5 262.5" fill-rule="nonzero"/><path stroke="#e6e6e6" stroke-width="1.0" stroke-linecap="butt" d="M93.5 241.5L1092.5 241.5" fill-rule="nonzero"/><path stroke="#e6e6e6" stroke-width="1.0" stroke-linecap="butt" d="M93.5 197.5L1092.5 197.5" fill-rule="nonzero"/><path stroke="#e6e6e6" stroke-width="1.0" stroke-linecap="butt" d="M93.5 175.5L1092.5 175.5" fill-rule="nonzero"/><path stroke="#e6e6e6" stroke-width="1.0" stroke-linecap="butt" d="M93.5 132.5L1092.5 132.5" fill-rule="nonzero"/><path stroke="#e6e6e6" stroke-width="1.0" stroke-linecap="butt" d="M93.5 110.5L1092.5 110.5" fill-rule="nonzero"/><clipPath id="id_0"><path d="M93.85 89.083336L1092.15 89.083336L1092.15 610.15L93.85 610.15L93.85 89.083336Z" clip-rule="nonzero"/></clipPath><path stroke="#cc0000" stroke-width="2.0" stroke-linecap="butt" clip-path="url(#id_0)" d="M93.85 261.4001L103.93384 303.39804L114.01768 307.61868L124.10149 311.78723L134.18535 307.61868L144.2692 311.78723L154.35303 316.00787L164.43687 316.00787L174.5207 311.78723L184.60454 320.22852L194.68839 316.00787L204.77222 320.22852L214.85606 320.22852L224.9399 324.39703L235.02374 324.39703L245.10757 328.61768L255.19142 324.39703L265.27524 324.39703L275.3591 328.61768L285.44293 328.61768L295.52676 332.83832L305.6106 337.00687L315.69446 341.2275L325.7783 341.2275L335.86212 353.8373L345.94595 358.00583L356.0298 358.00583L366.11365 358.00583L376.19748 362.22647L386.2813 362.22647L396.36514 366.39502L406.449 362.22647L416.53284 362.22647L426.61667 358.00583L436.7005 362.22647L446.78433 362.22647L456.8682 358.00583L466.95203 362.22647L477.03586 353.8373L487.1197 353.8373L497.20352 353.8373L507.28738 353.8373L517.3712 353.8373L527.4551 353.8373L537.5389 353.8373L547.62274 353.8373L557.70654 358.00583L567.7904 353.8373L577.87427 349.61667L587.95807 353.8373L598.04193 353.8373L608.12573 353.8373L618.2096 358.00583L628.29346 358.00583L638.37726 358.00583L648.4611 358.00583L658.5449 358.00583L668.6288 358.00583L678.71265 358.00583L688.79645 358.00583L698.8803 358.00583L708.9641 358.00583L719.048 353.8373L729.13184 345.39603L739.21564 345.39603L749.2995 345.39603L759.38336 345.39603L769.46716 345.39603L779.551 345.39603L789.6348 345.39603L799.7187 345.39603L809.80255 345.39603L819.88635 345.39603L829.9702 345.39603L840.054 345.39603L850.1379 345.39603L860.22174 349.61667L870.30554 353.8373L880.3894 345.39603L890.4732 345.39603L900.55707 349.61667L910.6409 349.61667L920.72473 349.61667L930.8086 349.61667L940.8924 349.61667L950.97626 349.61667L961.0601 349.61667L971.1439 349.61667L981.2278 353.8373L991.31165 353.8373L1001.39545 358.00583L1011.4793 349.61667L1021.5631 353.8373L1031.647 353.8373L1041.7308 353.8373L1051.8147 353.8373L1061.8984 358.00583L1071.9823 358.00583L1082.0662 362.22647L1092.15 370.61566" fill-rule="nonzero"/><path fill="#000000" fill-opacity="0.0" clip-path="url(#id_0)" d="M96.85 261.4001C96.85 263.05695 95.50685 264.4001 93.85 264.4001C92.193146 264.4001 90.85 263.05695 90.85 261.4001C90.85 259.74323 92.193146 258.4001 93.85 258.4001C95.50685 258.4001 96.85 259.74323 96.85 261.4001Z" fill-rule="nonzero"/><path fill="#000000" fill-opacity="0.0" clip-path="url(#id_0)" d="M106.93384 303.39804C106.93384 305.0549 105.59069 306.39804 103.93384 306.39804C102.276985 306.39804 100.93384 305.0549 100.93384 303.39804C100.93384 301.7412 102.276985 300.39804 103.93384 300.39804C105.59069 300.39804 106.93384 301.7412 106.93384 303.39804Z" fill-rule="nonzero"/><path fill="#000000" fill-opacity="0.0" clip-path="url(#id_0)" d="M117.01768 307.61868C117.01768 309.27554 115.67453 310.61868 114.01768 310.61868C112.360825 310.61868 111.01768 309.27554 111.01768 307.61868C111.01768 305.96185 112.360825 304.61868 114.01768 304.61868C115.67453 304.61868 117.01768 305.96185 117.01768 307.61868Z" fill-rule="nonzero"/><path fill="#000000" fill-opacity="0.0" clip-path="url(#id_0)" d="M127.10149 311.78723C127.10149 313.4441 125.75834 314.78723 124.10149 314.78723C122.44463 314.78723 121.10149 313.4441 121.10149 311.78723C121.10149 310.13037 122.44463 308.78723 124.10149 308.78723C125.75834 308.78723 127.10149 310.13037 127.10149 311.78723Z" fill-rule="nonzero"/><path fill="#000000" fill-opacity="0.0" clip-path="url(#id_0)" d="M137.18535 307.61868C137.18535 309.27554 135.84221 310.61868 134.18535 310.61868C132.5285 310.61868 131.18535 309.27554 131.18535 307.61868C131.18535 305.96185 132.5285 304.61868 134.18535 304.61868C135.84221 304.61868 137.18535 305.96185 137.18535 307.61868Z" fill-rule="nonzero"/><path fill="#000000" fill-opacity="0.0" clip-path="url(#id_0)" d="M147.2692 311.78723C147.2692 313.4441 145.92604 314.78723 144.2692 314.78723C142.61234 314.78723 141.2692 313.4441 141.2692 311.78723C141.2692 310.13037 142.61234 308.78723 144.2692 308.78723C145.92604 308.78723 147.2692 310.13037 147.2692 311.78723Z" fill-rule="nonzero"/><path fill="#000000" fill-opacity="0.0" clip-path="url(#id_0)" d="M157.35303 316.00787C157.35303 317.66473 156.00989 319.00787 154.35303 319.00787C152.69618 319.00787 151.35303 317.66473 151.35303 316.00787C151.35303 314.351 152.69618 313.00787 154.35303 313.00787C156.00989 313.00787 157.35303 314.351 157.35303 316.00787Z" fill-rule="nonzero"/><path fill="#000000" fill-opacity="0.0" clip-path="url(#id_0)" d="M167.43687 316.00787C167.43687 317.66473 166.09372 319.00787 164.43687 319.00787C162.78001 319.00787 161.43687 317.66473 161.43687 316.00787C161.43687 314.351 162.78001 313.00787 164.43687 313.00787C166.09372 313.00787 167.43687 314.351 167.43687 316.00787Z" fill-rule="nonzero"/><path fill="#000000" fill-opacity="0.0" clip-path="url(#id_0)" d="M177.5207 311.78723C177.5207 313.4441 176.17757 314.78723 174.5207 314.78723C172.86385 314.78723 171.5207 313.4441 171.5207 311.78723C171.5207 310.13037 172.86385 308.78723 174.5207 308.78723C176.17757 308.78723 177.5207 310.13037 177.5207 311.78723Z" fill-rule="nonzero"/><path fill="#000000" fill-opacity="0.0" clip-path="url(#id_0)" d="M187.60454 320.22852C187.60454 321.88538 186.2614 323.22852 184.60454 323.22852C182.9477 323.22852 181.60454 321.88538 181.60454 320.22852C181.60454 318.57166 182.9477 317.22852 184.60454 317.22852C186.2614 317.22852 187.60454 318.57166 187.60454 320.22852Z" fill-rule="nonzero"/><path fill="#000000" fill-opacity="0.0" clip-path="url(#id_0)" d="M197.68839 316.00787C197.68839 317.66473 196.34525 319.00787 194.68839 319.00787C193.03152 319.00787 191.68839 317.66473 191.68839 316.00787C191.68839 314.351 193.03152 313.00787 194.68839 313.00787C196.34525 313.00787 197.68839 314.351 197.68839 316.00787Z" fill-rule="nonzero"/><path fill="#000000" fill-opacity="0.0" clip-path="url(#id_0)" d="M207.77222 320.22852C207.77222 321.88538 206.42908 323.22852 204.77222 323.22852C203.11537 323.22852 201.77222 321.88538 201.77222 320.22852C201.77222 318.57166 203.11537 317.22852 204.77222 317.22852C206.42908 317.22852 207.77222 318.57166 207.77222 320.22852Z" fill-rule="nonzero"/><path fill="#000000" fill-opacity="0.0" clip-path="url(#id_0)" d="M217.85606 320.22852C217.85606 321.88538 216.51291 323.22852 214.85606 323.22852C213.1992 323.22852 211.85606 321.88538 211.85606 320.22852C211.85606 318.57166 213.1992 317.22852 214.85606 317.22852C216.51291 317.22852 217.85606 318.57166 217.85606 320.22852Z" fill-rule="nonzero"/><path fill="#000000" fill-opacity="0.0" clip-path="url(#id_0)" d="M227.9399 324.39703C227.9399 326.0539 226.59676 327.39703 224.9399 327.39703C223.28305 327.39703 221.9399 326.0539 221.9399 324.39703C221.9399 322.74017 223.28305 321.39703 224.9399 321.39703C226.59676 321.39703 227.9399 322.74017 227.9399 324.39703Z" fill-rule="nonzero"/><path fill="#000000" fill-opacity="0.0" clip-path="url(#id_0)" d="M238.02374 324.39703C238.02374 326.0539 236.68059 327.39703 235.02374 327.39703C233.36688 327.39703 232.02374 326.0539 232.02374 324.39703C232.02374 322.74017 233.36688 321.39703 235.02374 321.39703C236.68059 321.39703 238.02374 322.74017 238.02374 324.39703Z" fill-rule="nonzero"/><path fill="#000000" fill-opacity="0.0" clip-path="url(#id_0)" d="M248.10757 328.61768C248.10757 330.27454 246.76443 331.61768 245.10757 331.61768C243.45071 331.61768 242.10757 330.27454 242.10757 328.61768C242.10757 326.96082 243.45071 325.61768 245.10757 325.61768C246.76443 325.61768 248.10757 326.96082 248.10757 328.61768Z" fill-rule="nonzero"/><path fill="#000000" fill-opacity="0.0" clip-path="url(#id_0)" d="M258.1914 324.39703C258.1914 326.0539 256.84827 327.39703 255.19142 327.39703C253.53456 327.39703 252.19142 326.0539 252.19142 324.39703C252.19142 322.74017 253.53456 321.39703 255.19142 321.39703C256.84827 321.39703 258.1914 322.74017 258.1914 324.39703Z" fill-rule="nonzero"/><path fill="#000000" fill-opacity="0.0" clip-path="url(#id_0)" d="M268.27524 324.39703C268.27524 326.0539 266.9321 327.39703 265.27524 327.39703C263.6184 327.39703 262.27524 326.0539 262.27524 324.39703C262.27524 322.74017 263.6184 321.39703 265.27524 321.39703C266.9321 321.39703 268.27524 322.74017 268.27524 324.39703Z" fill-rule="nonzero"/><path fill="#000000" fill-opacity="0.0" clip-path="url(#id_0)" d="M278.3591 328.61768C278.3591 330.27454 277.01593 331.61768 275.3591 331.61768C273.70224 331.61768 272.3591 330.27454 272.3591 328.61768C272.3591 326.96082 273.70224 325.61768 275.3591 325.61768C277.01593 325.61768 278.3591 326.96082 278.3591 328.61768Z" fill-rule="nonzero"/><path fill="#000000" fill-opacity="0.0" clip-path="url(#id_0)" d="M288.44293 328.61768C288.44293 330.27454 287.0998 331.61768 285.44293 331.61768C283.78607 331.61768 282.44293 330.27454 282.44293 328.61768C282.44293 326.96082 283.78607 325.61768 285.44293 325.61768C287.0998 325.61768 288.44293 326.96082 288.44293 328.61768Z" fill-rule="nonzero"/><path fill="#000000" fill-opacity="0.0" clip-path="url(#id_0)" d="M298.52676 332.83832C298.52676 334.49518 297.18362 335.83832 295.52676 335.83832C293.8699 335.83832 292.52676 334.49518 292.52676 332.83832C292.52676 331.18146 293.8699 329.83832 295.52676 329.83832C297.18362 329.83832 298.52676 331.18146 298.52676 332.83832Z" fill-rule="nonzero"/><path fill="#000000" fill-opacity="0.0" clip-path="url(#id_0)" d="M308.6106 337.00687C308.6106 338.6637 307.26746 340.00687 305.6106 340.00687C303.95377 340.00687 302.6106 338.6637 302.6106 337.00687C302.6106 335.35 303.95377 334.00687 305.6106 334.00687C307.26746 334.00687 308.6106 335.35 308.6106 337.00687Z" fill-rule="nonzero"/><path fill="#000000" fill-opacity="0.0" clip-path="url(#id_0)" d="M318.69446 341.2275C318.69446 342.88434 317.3513 344.2275 315.69446 344.2275C314.0376 344.2275 312.69446 342.88434 312.69446 341.2275C312.69446 339.57065 314.0376 338.2275 315.69446 338.2275C317.3513 338.2275 318.69446 339.57065 318.69446 341.2275Z" fill-rule="nonzero"/><path fill="#000000" fill-opacity="0.0" clip-path="url(#id_0)" d="M328.7783 341.2275C328.7783 342.88434 327.43515 344.2275 325.7783 344.2275C324.12143 344.2275 322.7783 342.88434 322.7783 341.2275C322.7783 339.57065 324.12143 338.2275 325.7783 338.2275C327.43515 338.2275 328.7783 339.57065 328.7783 341.2275Z" fill-rule="nonzero"/><path fill="#000000" fill-opacity="0.0" clip-path="url(#id_0)" d="M338.86212 353.8373C338.86212 355.49417 337.51898 356.8373 335.86212 356.8373C334.20526 356.8373 332.86212 355.49417 332.86212 353.8373C332.86212 352.18045 334.20526 350.8373 335.86212 350.8373C337.51898 350.8373 338.86212 352.18045 338.86212 353.8373Z" fill-rule="nonzero"/><path fill="#000000" fill-opacity="0.0" clip-path="url(#id_0)" d="M348.94595 358.00583C348.94595 359.6627 347.6028 361.00583 345.94595 361.00583C344.2891 361.00583 342.94595 359.6627 342.94595 358.00583C342.94595 356.349 344.2891 355.00583 345.94595 355.00583C347.6028 355.00583 348.94595 356.349 348.94595 358.00583Z" fill-rule="nonzero"/><path fill="#000000" fill-opacity="0.0" clip-path="url(#id_0)" d="M359.0298 358.00583C359.0298 359.6627 357.68665 361.00583 356.0298 361.00583C354.37296 361.00583 353.0298 359.6627 353.0298 358.00583C353.0298 356.349 354.37296 355.00583 356.0298 355.00583C357.68665 355.00583 359.0298 356.349 359.0298 358.00583Z" fill-rule="nonzero"/><path fill="#000000" fill-opacity="0.0" clip-path="url(#id_0)" d="M369.11365 358.00583C369.11365 359.6627 367.77048 361.00583 366.11365 361.00583C364.4568 361.00583 363.11365 359.6627 363.11365 358.00583C363.11365 356.349 364.4568 355.00583 366.11365 355.00583C367.77048 355.00583 369.11365 356.349 369.11365 358.00583Z" fill-rule="nonzero"/><path fill="#000000" fill-opacity="0.0" clip-path="url(#id_0)" d="M379.19748 362.22647C379.19748 363.88333 377.85434 365.22647 376.19748 365.22647C374.54062 365.22647 373.19748 363.88333 373.19748 362.22647C373.19748 360.5696 374.54062 359.22647 376.19748 359.22647C377.85434 359.22647 379.19748 360.5696 379.19748 362.22647Z" fill-rule="nonzero"/><path fill="#000000" fill-opacity="0.0" clip-path="url(#id_0)" d="M389.2813 362.22647C389.2813 363.88333 387.93817 365.22647 386.2813 365.22647C384.62445 365.22647 383.2813 363.88333 383.2813 362.22647C383.2813 360.5696 384.62445 359.22647 386.2813 359.22647C387.93817 359.22647 389.2813 360.5696 389.2813 362.22647Z" fill-rule="nonzero"/><path fill="#000000" fill-opacity="0.0" clip-path="url(#id_0)" d="M399.36514 366.39502C399.36514 368.05188 398.022 369.39502 396.36514 369.39502C394.70828 369.39502 393.36514 368.05188 393.36514 366.39502C393.36514 364.73816 394.70828 363.39502 396.36514 363.39502C398.022 363.39502 399.36514 364.73816 399.36514 366.39502Z" fill-rule="nonzero"/><path fill="#000000" fill-opacity="0.0" clip-path="url(#id_0)" d="M409.449 362.22647C409.449 363.88333 408.10583 365.22647 406.449 365.22647C404.79214 365.22647 403.449 363.88333 403.449 362.22647C403.449 360.5696 404.79214 359.22647 406.449 359.22647C408.10583 359.22647 409.449 360.5696 409.449 362.22647Z" fill-rule="nonzero"/><path fill="#000000" fill-opacity="0.0" clip-path="url(#id_0)" d="M419.53284 362.22647C419.53284 363.88333 418.1897 365.22647 416.53284 365.22647C414.87598 365.22647 413.53284 363.88333 413.53284 362.22647C413.53284 360.5696 414.87598 359.22647 416.53284 359.22647C418.1897 359.22647 419.53284 360.5696 419.53284 362.22647Z" fill-rule="nonzero"/><path fill="#000000" fill-opacity="0.0" clip-path="url(#id_0)" d="M429.61667 358.00583C429.61667 359.6627 428.27353 361.00583 426.61667 361.00583C424.9598 361.00583 423.61667 359.6627 423.61667 358.00583C423.61667 356.349 424.9598 355.00583 426.61667 355.00583C428.27353 355.00583 429.61667 356.349 429.61667 358.00583Z" fill-rule="nonzero"/><path fill="#000000" fill-opacity="0.0" clip-path="url(#id_0)" d="M439.7005 362.22647C439.7005 363.88333 438.35736 365.22647 436.7005 365.22647C435.04364 365.22647 433.7005 363.88333 433.7005 362.22647C433.7005 360.5696 435.04364 359.22647 436.7005 359.22647C438.35736 359.22647 439.7005 360.5696 439.7005 362.22647Z" fill-rule="nonzero"/><path fill="#000000" fill-opacity="0.0" clip-path="url(#id_0)" d="M449.78433 362.22647C449.78433 363.88333 448.4412 365.22647 446.78433 365.22647C445.1275 365.22647 443.78433 363.88333 443.78433 362.22647C443.78433 360.5696 445.1275 359.22647 446.78433 359.22647C448.4412 359.22647 449.78433 360.5696 449.78433 362.22647Z" fill-rule="nonzero"/><path fill="#000000" fill-opacity="0.0" clip-path="url(#id_0)" d="M459.8682 358.00583C459.8682 359.6627 458.52502 361.00583 456.8682 361.00583C455.21133 361.00583 453.8682 359.6627 453.8682 358.00583C453.8682 356.349 455.21133 355.00583 456.8682 355.00583C458.52502 355.00583 459.8682 356.349 459.8682 358.00583Z" fill-rule="nonzero"/><path fill="#000000" fill-opacity="0.0" clip-path="url(#id_0)" d="M469.95203 362.22647C469.95203 363.88333 468.6089 365.22647 466.95203 365.22647C465.29517 365.22647 463.95203 363.88333 463.95203 362.22647C463.95203 360.5696 465.29517 359.22647 466.95203 359.22647C468.6089 359.22647 469.95203 360.5696 469.95203 362.22647Z" fill-rule="nonzero"/><path fill="#000000" fill-opacity="0.0" clip-path="url(#id_0)" d="M480.03586 353.8373C480.03586 355.49417 478.69272 356.8373 477.03586 356.8373C475.379 356.8373 474.03586 355.49417 474.03586 353.8373C474.03586 352.18045 475.379 350.8373 477.03586 350.8373C478.69272 350.8373 480.03586 352.18045 480.03586 353.8373Z" fill-rule="nonzero"/><path fill="#000000" fill-opacity="0.0" clip-path="url(#id_0)" d="M490.1197 353.8373C490.1197 355.49417 488.77655 356.8373 487.1197 356.8373C485.46283 356.8373 484.1197 355.49417 484.1197 353.8373C484.1197 352.18045 485.46283 350.8373 487.1197 350.8373C488.77655 350.8373 490.1197 352.18045 490.1197 353.8373Z" fill-rule="nonzero"/><path fill="#000000" fill-opacity="0.0" clip-path="url(#id_0)" d="M500.20352 353.8373C500.20352 355.49417 498.86038 356.8373 497.20352 356.8373C495.5467 356.8373 494.20352 355.49417 494.20352 353.8373C494.20352 352.18045 495.5467 350.8373 497.20352 350.8373C498.86038 350.8373 500.20352 352.18045 500.20352 353.8373Z" fill-rule="nonzero"/><path fill="#000000" fill-opacity="0.0" clip-path="url(#id_0)" d="M510.28738 353.8373C510.28738 355.49417 508.9442 356.8373 507.28738 356.8373C505.63052 356.8373 504.28738 355.49417 504.28738 353.8373C504.28738 352.18045 505.63052 350.8373 507.28738 350.8373C508.9442 350.8373 510.28738 352.18045 510.28738 353.8373Z" fill-rule="nonzero"/><path fill="#000000" fill-opacity="0.0" clip-path="url(#id_0)" d="M520.3712 353.8373C520.3712 355.49417 519.0281 356.8373 517.3712 356.8373C515.71436 356.8373 514.3712 355.49417 514.3712 353.8373C514.3712 352.18045 515.71436 350.8373 517.3712 350.8373C519.0281 350.8373 520.3712 352.18045 520.3712 353.8373Z" fill-rule="nonzero"/><path fill="#000000" fill-opacity="0.0" clip-path="url(#id_0)" d="M530.4551 353.8373C530.4551 355.49417 529.1119 356.8373 527.4551 356.8373C525.7982 356.8373 524.4551 355.49417 524.4551 353.8373C524.4551 352.18045 525.7982 350.8373 527.4551 350.8373C529.1119 350.8373 530.4551 352.18045 530.4551 353.8373Z" fill-rule="nonzero"/><path fill="#000000" fill-opacity="0.0" clip-path="url(#id_0)" d="M540.5389 353.8373C540.5389 355.49417 539.19574 356.8373 537.5389 356.8373C535.882 356.8373 534.5389 355.49417 534.5389 353.8373C534.5389 352.18045 535.882 350.8373 537.5389 350.8373C539.19574 350.8373 540.5389 352.18045 540.5389 353.8373Z" fill-rule="nonzero"/><path fill="#000000" fill-opacity="0.0" clip-path="url(#id_0)" d="M550.62274 353.8373C550.62274 355.49417 549.2796 356.8373 547.62274 356.8373C545.9659 356.8373 544.62274 355.49417 544.62274 353.8373C544.62274 352.18045 545.9659 350.8373 547.62274 350.8373C549.2796 350.8373 550.62274 352.18045 550.62274 353.8373Z" fill-rule="nonzero"/><path fill="#000000" fill-opacity="0.0" clip-path="url(#id_0)" d="M560.70654 358.00583C560.70654 359.6627 559.3634 361.00583 557.70654 361.00583C556.0497 361.00583 554.70654 359.6627 554.70654 358.00583C554.70654 356.349 556.0497 355.00583 557.70654 355.00583C559.3634 355.00583 560.70654 356.349 560.70654 358.00583Z" fill-rule="nonzero"/><path fill="#000000" fill-opacity="0.0" clip-path="url(#id_0)" d="M570.7904 353.8373C570.7904 355.49417 569.44727 356.8373 567.7904 356.8373C566.13354 356.8373 564.7904 355.49417 564.7904 353.8373C564.7904 352.18045 566.13354 350.8373 567.7904 350.8373C569.44727 350.8373 570.7904 352.18045 570.7904 353.8373Z" fill-rule="nonzero"/><path fill="#000000" fill-opacity="0.0" clip-path="url(#id_0)" d="M580.87427 349.61667C580.87427 351.27353 579.53107 352.61667 577.87427 352.61667C576.2174 352.61667 574.87427 351.27353 574.87427 349.61667C574.87427 347.9598 576.2174 346.61667 577.87427 346.61667C579.53107 346.61667 580.87427 347.9598 580.87427 349.61667Z" fill-rule="nonzero"/><path fill="#000000" fill-opacity="0.0" clip-path="url(#id_0)" d="M590.95807 353.8373C590.95807 355.49417 589.6149 356.8373 587.95807 356.8373C586.3012 356.8373 584.95807 355.49417 584.95807 353.8373C584.95807 352.18045 586.3012 350.8373 587.95807 350.8373C589.6149 350.8373 590.95807 352.18045 590.95807 353.8373Z" fill-rule="nonzero"/><path fill="#000000" fill-opacity="0.0" clip-path="url(#id_0)" d="M601.04193 353.8373C601.04193 355.49417 599.6988 356.8373 598.04193 356.8373C596.3851 356.8373 595.04193 355.49417 595.04193 353.8373C595.04193 352.18045 596.3851 350.8373 598.04193 350.8373C599.6988 350.8373 601.04193 352.18045 601.04193 353.8373Z" fill-rule="nonzero"/><path fill="#000000" fill-opacity="0.0" clip-path="url(#id_0)" d="M611.12573 353.8373C611.12573 355.49417 609.7826 356.8373 608.12573 356.8373C606.46893 356.8373 605.12573 355.49417 605.12573 353.8373C605.12573 352.18045 606.46893 350.8373 608.12573 350.8373C609.7826 350.8373 611.12573 352.18045 611.12573 353.8373Z" fill-rule="nonzero"/><path fill="#000000" fill-opacity="0.0" clip-path="url(#id_0)" d="M621.2096 358.00583C621.2096 359.6627 619.86646 361.00583 618.2096 361.00583C616.55273 361.00583 615.2096 359.6627 615.2096 358.00583C615.2096 356.349 616.55273 355.00583 618.2096 355.00583C619.86646 355.00583 621.2096 356.349 621.2096 358.00583Z" fill-rule="nonzero"/><path fill="#000000" fill-opacity="0.0" clip-path="url(#id_0)" d="M631.29346 358.00583C631.29346 359.6627 629.9503 361.00583 628.29346 361.00583C626.6366 361.00583 625.29346 359.6627 625.29346 358.00583C625.29346 356.349 626.6366 355.00583 628.29346 355.00583C629.9503 355.00583 631.29346 356.349 631.29346 358.00583Z" fill-rule="nonzero"/><path fill="#000000" fill-opacity="0.0" clip-path="url(#id_0)" d="M641.37726 358.00583C641.37726 359.6627 640.0341 361.00583 638.37726 361.00583C636.7204 361.00583 635.37726 359.6627 635.37726 358.00583C635.37726 356.349 636.7204 355.00583 638.37726 355.00583C640.0341 355.00583 641.37726 356.349 641.37726 358.00583Z" fill-rule="nonzero"/><path fill="#000000" fill-opacity="0.0" clip-path="url(#id_0)" d="M651.4611 358.00583C651.4611 359.6627 650.118 361.00583 648.4611 361.00583C646.80426 361.00583 645.4611 359.6627 645.4611 358.00583C645.4611 356.349 646.80426 355.00583 648.4611 355.00583C650.118 355.00583 651.4611 356.349 651.4611 358.00583Z" fill-rule="nonzero"/><path fill="#000000" fill-opacity="0.0" clip-path="url(#id_0)" d="M661.5449 358.00583C661.5449 359.6627 660.2018 361.00583 658.5449 361.00583C656.8881 361.00583 655.5449 359.6627 655.5449 358.00583C655.5449 356.349 656.8881 355.00583 658.5449 355.00583C660.2018 355.00583 661.5449 356.349 661.5449 358.00583Z" fill-rule="nonzero"/><path fill="#000000" fill-opacity="0.0" clip-path="url(#id_0)" d="M671.6288 358.00583C671.6288 359.6627 670.28564 361.00583 668.6288 361.00583C666.9719 361.00583 665.6288 359.6627 665.6288 358.00583C665.6288 356.349 666.9719 355.00583 668.6288 355.00583C670.28564 355.00583 671.6288 356.349 671.6288 358.00583Z" fill-rule="nonzero"/><path fill="#000000" fill-opacity="0.0" clip-path="url(#id_0)" d="M681.71265 358.00583C681.71265 359.6627 680.3695 361.00583 678.71265 361.00583C677.0558 361.00583 675.71265 359.6627 675.71265 358.00583C675.71265 356.349 677.0558 355.00583 678.71265 355.00583C680.3695 355.00583 681.71265 356.349 681.71265 358.00583Z" fill-rule="nonzero"/><path fill="#000000" fill-opacity="0.0" clip-path="url(#id_0)" d="M691.79645 358.00583C691.79645 359.6627 690.4533 361.00583 688.79645 361.00583C687.1396 361.00583 685.79645 359.6627 685.79645 358.00583C685.79645 356.349 687.1396 355.00583 688.79645 355.00583C690.4533 355.00583 691.79645 356.349 691.79645 358.00583Z" fill-rule="nonzero"/><path fill="#000000" fill-opacity="0.0" clip-path="url(#id_0)" d="M701.8803 358.00583C701.8803 359.6627 700.5372 361.00583 698.8803 361.00583C697.22345 361.00583 695.8803 359.6627 695.8803 358.00583C695.8803 356.349 697.22345 355.00583 698.8803 355.00583C700.5372 355.00583 701.8803 356.349 701.8803 358.00583Z" fill-rule="nonzero"/><path fill="#000000" fill-opacity="0.0" clip-path="url(#id_0)" d="M711.9641 358.00583C711.9641 359.6627 710.621 361.00583 708.9641 361.00583C707.3073 361.00583 705.9641 359.6627 705.9641 358.00583C705.9641 356.349 707.3073 355.00583 708.9641 355.00583C710.621 355.00583 711.9641 356.349 711.9641 358.00583Z" fill-rule="nonzero"/><path fill="#000000" fill-opacity="0.0" clip-path="url(#id_0)" d="M722.048 353.8373C722.048 355.49417 720.70483 356.8373 719.048 356.8373C717.3911 356.8373 716.048 355.49417 716.048 353.8373C716.048 352.18045 717.3911 350.8373 719.048 350.8373C720.70483 350.8373 722.048 352.18045 722.048 353.8373Z" fill-rule="nonzero"/><path fill="#000000" fill-opacity="0.0" clip-path="url(#id_0)" d="M732.13184 345.39603C732.13184 347.0529 730.7887 348.39603 729.13184 348.39603C727.475 348.39603 726.13184 347.0529 726.13184 345.39603C726.13184 343.73917 727.475 342.39603 729.13184 342.39603C730.7887 342.39603 732.13184 343.73917 732.13184 345.39603Z" fill-rule="nonzero"/><path fill="#000000" fill-opacity="0.0" clip-path="url(#id_0)" d="M742.21564 345.39603C742.21564 347.0529 740.8725 348.39603 739.21564 348.39603C737.5588 348.39603 736.21564 347.0529 736.21564 345.39603C736.21564 343.73917 737.5588 342.39603 739.21564 342.39603C740.8725 342.39603 742.21564 343.73917 742.21564 345.39603Z" fill-rule="nonzero"/><path fill="#000000" fill-opacity="0.0" clip-path="url(#id_0)" d="M752.2995 345.39603C752.2995 347.0529 750.95636 348.39603 749.2995 348.39603C747.64264 348.39603 746.2995 347.0529 746.2995 345.39603C746.2995 343.73917 747.64264 342.39603 749.2995 342.39603C750.95636 342.39603 752.2995 343.73917 752.2995 345.39603Z" fill-rule="nonzero"/><path fill="#000000" fill-opacity="0.0" clip-path="url(#id_0)" d="M762.38336 345.39603C762.38336 347.0529 761.04016 348.39603 759.38336 348.39603C757.7265 348.39603 756.38336 347.0529 756.38336 345.39603C756.38336 343.73917 757.7265 342.39603 759.38336 342.39603C761.04016 342.39603 762.38336 343.73917 762.38336 345.39603Z" fill-rule="nonzero"/><path fill="#000000" fill-opacity="0.0" clip-path="url(#id_0)" d="M772.46716 345.39603C772.46716 347.0529 771.124 348.39603 769.46716 348.39603C767.8103 348.39603 766.46716 347.0529 766.46716 345.39603C766.46716 343.73917 767.8103 342.39603 769.46716 342.39603C771.124 342.39603 772.46716 343.73917 772.46716 345.39603Z" fill-rule="nonzero"/><path fill="#000000" fill-opacity="0.0" clip-path="url(#id_0)" d="M782.551 345.39603C782.551 347.0529 781.2079 348.39603 779.551 348.39603C777.89417 348.39603 776.551 347.0529 776.551 345.39603C776.551 343.73917 777.89417 342.39603 779.551 342.39603C781.2079 342.39603 782.551 343.73917 782.551 345.39603Z" fill-rule="nonzero"/><path fill="#000000" fill-opacity="0.0" clip-path="url(#id_0)" d="M792.6348 345.39603C792.6348 347.0529 791.2917 348.39603 789.6348 348.39603C787.97797 348.39603 786.6348 347.0529 786.6348 345.39603C786.6348 343.73917 787.97797 342.39603 789.6348 342.39603C791.2917 342.39603 792.6348 343.73917 792.6348 345.39603Z" fill-rule="nonzero"/><path fill="#000000" fill-opacity="0.0" clip-path="url(#id_0)" d="M802.7187 345.39603C802.7187 347.0529 801.37555 348.39603 799.7187 348.39603C798.0618 348.39603 796.7187 347.0529 796.7187 345.39603C796.7187 343.73917 798.0618 342.39603 799.7187 342.39603C801.37555 342.39603 802.7187 343.73917 802.7187 345.39603Z" fill-rule="nonzero"/><path fill="#000000" fill-opacity="0.0" clip-path="url(#id_0)" d="M812.80255 345.39603C812.80255 347.0529 811.45935 348.39603 809.80255 348.39603C808.1457 348.39603 806.80255 347.0529 806.80255 345.39603C806.80255 343.73917 808.1457 342.39603 809.80255 342.39603C811.45935 342.39603 812.80255 343.73917 812.80255 345.39603Z" fill-rule="nonzero"/><path fill="#000000" fill-opacity="0.0" clip-path="url(#id_0)" d="M822.88635 345.39603C822.88635 347.0529 821.5432 348.39603 819.88635 348.39603C818.2295 348.39603 816.88635 347.0529 816.88635 345.39603C816.88635 343.73917 818.2295 342.39603 819.88635 342.39603C821.5432 342.39603 822.88635 343.73917 822.88635 345.39603Z" fill-rule="nonzero"/><path fill="#000000" fill-opacity="0.0" clip-path="url(#id_0)" d="M832.9702 345.39603C832.9702 347.0529 831.6271 348.39603 829.9702 348.39603C828.31335 348.39603 826.9702 347.0529 826.9702 345.39603C826.9702 343.73917 828.31335 342.39603 829.9702 342.39603C831.6271 342.39603 832.9702 343.73917 832.9702 345.39603Z" fill-rule="nonzero"/><path fill="#000000" fill-opacity="0.0" clip-path="url(#id_0)" d="M843.054 345.39603C843.054 347.0529 841.7109 348.39603 840.054 348.39603C838.39716 348.39603 837.054 347.0529 837.054 345.39603C837.054 343.73917 838.39716 342.39603 840.054 342.39603C841.7109 342.39603 843.054 343.73917 843.054 345.39603Z" fill-rule="nonzero"/><path fill="#000000" fill-opacity="0.0" clip-path="url(#id_0)" d="M853.1379 345.39603C853.1379 347.0529 851.79474 348.39603 850.1379 348.39603C848.481 348.39603 847.1379 347.0529 847.1379 345.39603C847.1379 343.73917 848.481 342.39603 850.1379 342.39603C851.79474 342.39603 853.1379 343.73917 853.1379 345.39603Z" fill-rule="nonzero"/><path fill="#000000" fill-opacity="0.0" clip-path="url(#id_0)" d="M863.22174 349.61667C863.22174 351.27353 861.8786 352.61667 860.22174 352.61667C858.5649 352.61667 857.22174 351.27353 857.22174 349.61667C857.22174 347.9598 858.5649 346.61667 860.22174 346.61667C861.8786 346.61667 863.22174 347.9598 863.22174 349.61667Z" fill-rule="nonzero"/><path fill="#000000" fill-opacity="0.0" clip-path="url(#id_0)" d="M873.30554 353.8373C873.30554 355.49417 871.9624 356.8373 870.30554 356.8373C868.6487 356.8373 867.30554 355.49417 867.30554 353.8373C867.30554 352.18045 868.6487 350.8373 870.30554 350.8373C871.9624 350.8373 873.30554 352.18045 873.30554 353.8373Z" fill-rule="nonzero"/><path fill="#000000" fill-opacity="0.0" clip-path="url(#id_0)" d="M883.3894 345.39603C883.3894 347.0529 882.04626 348.39603 880.3894 348.39603C878.73254 348.39603 877.3894 347.0529 877.3894 345.39603C877.3894 343.73917 878.73254 342.39603 880.3894 342.39603C882.04626 342.39603 883.3894 343.73917 883.3894 345.39603Z" fill-rule="nonzero"/><path fill="#000000" fill-opacity="0.0" clip-path="url(#id_0)" d="M893.4732 345.39603C893.4732 347.0529 892.13007 348.39603 890.4732 348.39603C888.8164 348.39603 887.4732 347.0529 887.4732 345.39603C887.4732 343.73917 888.8164 342.39603 890.4732 342.39603C892.13007 342.39603 893.4732 343.73917 893.4732 345.39603Z" fill-rule="nonzero"/><path fill="#000000" fill-opacity="0.0" clip-path="url(#id_0)" d="M903.55707 349.61667C903.55707 351.27353 902.2139 352.61667 900.55707 352.61667C898.9002 352.61667 897.55707 351.27353 897.55707 349.61667C897.55707 347.9598 898.9002 346.61667 900.55707 346.61667C902.2139 346.61667 903.55707 347.9598 903.55707 349.61667Z" fill-rule="nonzero"/><path fill="#000000" fill-opacity="0.0" clip-path="url(#id_0)" d="M913.6409 349.61667C913.6409 351.27353 912.2978 352.61667 910.6409 352.61667C908.9841 352.61667 907.6409 351.27353 907.6409 349.61667C907.6409 347.9598 908.9841 346.61667 910.6409 346.61667C912.2978 346.61667 913.6409 347.9598 913.6409 349.61667Z" fill-rule="nonzero"/><path fill="#000000" fill-opacity="0.0" clip-path="url(#id_0)" d="M923.72473 349.61667C923.72473 351.27353 922.3816 352.61667 920.72473 352.61667C919.0679 352.61667 917.72473 351.27353 917.72473 349.61667C917.72473 347.9598 919.0679 346.61667 920.72473 346.61667C922.3816 346.61667 923.72473 347.9598 923.72473 349.61667Z" fill-rule="nonzero"/><path fill="#000000" fill-opacity="0.0" clip-path="url(#id_0)" d="M933.8086 349.61667C933.8086 351.27353 932.46545 352.61667 930.8086 352.61667C929.15173 352.61667 927.8086 351.27353 927.8086 349.61667C927.8086 347.9598 929.15173 346.61667 930.8086 346.61667C932.46545 346.61667 933.8086 347.9598 933.8086 349.61667Z" fill-rule="nonzero"/><path fill="#000000" fill-opacity="0.0" clip-path="url(#id_0)" d="M943.8924 349.61667C943.8924 351.27353 942.54926 352.61667 940.8924 352.61667C939.2356 352.61667 937.8924 351.27353 937.8924 349.61667C937.8924 347.9598 939.2356 346.61667 940.8924 346.61667C942.54926 346.61667 943.8924 347.9598 943.8924 349.61667Z" fill-rule="nonzero"/><path fill="#000000" fill-opacity="0.0" clip-path="url(#id_0)" d="M953.97626 349.61667C953.97626 351.27353 952.6331 352.61667 950.97626 352.61667C949.3194 352.61667 947.97626 351.27353 947.97626 349.61667C947.97626 347.9598 949.3194 346.61667 950.97626 346.61667C952.6331 346.61667 953.97626 347.9598 953.97626 349.61667Z" fill-rule="nonzero"/><path fill="#000000" fill-opacity="0.0" clip-path="url(#id_0)" d="M964.0601 349.61667C964.0601 351.27353 962.717 352.61667 961.0601 352.61667C959.40326 352.61667 958.0601 351.27353 958.0601 349.61667C958.0601 347.9598 959.40326 346.61667 961.0601 346.61667C962.717 346.61667 964.0601 347.9598 964.0601 349.61667Z" fill-rule="nonzero"/><path fill="#000000" fill-opacity="0.0" clip-path="url(#id_0)" d="M974.1439 349.61667C974.1439 351.27353 972.8008 352.61667 971.1439 352.61667C969.48706 352.61667 968.1439 351.27353 968.1439 349.61667C968.1439 347.9598 969.48706 346.61667 971.1439 346.61667C972.8008 346.61667 974.1439 347.9598 974.1439 349.61667Z" fill-rule="nonzero"/><path fill="#000000" fill-opacity="0.0" clip-path="url(#id_0)" d="M984.2278 353.8373C984.2278 355.49417 982.88464 356.8373 981.2278 356.8373C979.5709 356.8373 978.2278 355.49417 978.2278 353.8373C978.2278 352.18045 979.5709 350.8373 981.2278 350.8373C982.88464 350.8373 984.2278 352.18045 984.2278 353.8373Z" fill-rule="nonzero"/><path fill="#000000" fill-opacity="0.0" clip-path="url(#id_0)" d="M994.31165 353.8373C994.31165 355.49417 992.96844 356.8373 991.31165 356.8373C989.6548 356.8373 988.31165 355.49417 988.31165 353.8373C988.31165 352.18045 989.6548 350.8373 991.31165 350.8373C992.96844 350.8373 994.31165 352.18045 994.31165 353.8373Z" fill-rule="nonzero"/><path fill="#000000" fill-opacity="0.0" clip-path="url(#id_0)" d="M1004.39545 358.00583C1004.39545 359.6627 1003.0523 361.00583 1001.39545 361.00583C999.7386 361.00583 998.39545 359.6627 998.39545 358.00583C998.39545 356.349 999.7386 355.00583 1001.39545 355.00583C1003.0523 355.00583 1004.39545 356.349 1004.39545 358.00583Z" fill-rule="nonzero"/><path fill="#000000" fill-opacity="0.0" clip-path="url(#id_0)" d="M1014.4793 349.61667C1014.4793 351.27353 1013.13617 352.61667 1011.4793 352.61667C1009.82245 352.61667 1008.4793 351.27353 1008.4793 349.61667C1008.4793 347.9598 1009.82245 346.61667 1011.4793 346.61667C1013.13617 346.61667 1014.4793 347.9598 1014.4793 349.61667Z" fill-rule="nonzero"/><path fill="#000000" fill-opacity="0.0" clip-path="url(#id_0)" d="M1024.5631 353.8373C1024.5631 355.49417 1023.22 356.8373 1021.5631 356.8373C1019.90625 356.8373 1018.5631 355.49417 1018.5631 353.8373C1018.5631 352.18045 1019.90625 350.8373 1021.5631 350.8373C1023.22 350.8373 1024.5631 352.18045 1024.5631 353.8373Z" fill-rule="nonzero"/><path fill="#000000" fill-opacity="0.0" clip-path="url(#id_0)" d="M1034.647 353.8373C1034.647 355.49417 1033.3038 356.8373 1031.647 356.8373C1029.9901 356.8373 1028.647 355.49417 1028.647 353.8373C1028.647 352.18045 1029.9901 350.8373 1031.647 350.8373C1033.3038 350.8373 1034.647 352.18045 1034.647 353.8373Z" fill-rule="nonzero"/><path fill="#000000" fill-opacity="0.0" clip-path="url(#id_0)" d="M1044.7308 353.8373C1044.7308 355.49417 1043.3877 356.8373 1041.7308 356.8373C1040.074 356.8373 1038.7308 355.49417 1038.7308 353.8373C1038.7308 352.18045 1040.074 350.8373 1041.7308 350.8373C1043.3877 350.8373 1044.7308 352.18045 1044.7308 353.8373Z" fill-rule="nonzero"/><path fill="#000000" fill-opacity="0.0" clip-path="url(#id_0)" d="M1054.8147 353.8373C1054.8147 355.49417 1053.4716 356.8373 1051.8147 356.8373C1050.1578 356.8373 1048.8147 355.49417 1048.8147 353.8373C1048.8147 352.18045 1050.1578 350.8373 1051.8147 350.8373C1053.4716 350.8373 1054.8147 352.18045 1054.8147 353.8373Z" fill-rule="nonzero"/><path fill="#000000" fill-opacity="0.0" clip-path="url(#id_0)" d="M1064.8984 358.00583C1064.8984 359.6627 1063.5553 361.00583 1061.8984 361.00583C1060.2416 361.00583 1058.8984 359.6627 1058.8984 358.00583C1058.8984 356.349 1060.2416 355.00583 1061.8984 355.00583C1063.5553 355.00583 1064.8984 356.349 1064.8984 358.00583Z" fill-rule="nonzero"/><path fill="#000000" fill-opacity="0.0" clip-path="url(#id_0)" d="M1074.9823 358.00583C1074.9823 359.6627 1073.6392 361.00583 1071.9823 361.00583C1070.3254 361.00583 1068.9823 359.6627 1068.9823 358.00583C1068.9823 356.349 1070.3254 355.00583 1071.9823 355.00583C1073.6392 355.00583 1074.9823 356.349 1074.9823 358.00583Z" fill-rule="nonzero"/><path fill="#000000" fill-opacity="0.0" clip-path="url(#id_0)" d="M1085.0662 362.22647C1085.0662 363.88333 1083.723 365.22647 1082.0662 365.22647C1080.4093 365.22647 1079.0662 363.88333 1079.0662 362.22647C1079.0662 360.5696 1080.4093 359.22647 1082.0662 359.22647C1083.723 359.22647 1085.0662 360.5696 1085.0662 362.22647Z" fill-rule="nonzero"/><path fill="#000000" fill-opacity="0.0" clip-path="url(#id_0)" d="M1095.15 370.61566C1095.15 372.27252 1093.8069 373.61566 1092.15 373.61566C1090.4932 373.61566 1089.15 372.27252 1089.15 370.61566C1089.15 368.9588 1090.4932 367.61566 1092.15 367.61566C1093.8069 367.61566 1095.15 368.9588 1095.15 370.61566Z" fill-rule="nonzero"/><path fill="#000000" d="M575.375 659.15L572.0469 650.5563L573.28125 650.5563L575.5156 656.8063Q575.78125 657.5563 575.96875 658.2125Q576.1719 657.5094 576.4375 656.8063L578.75 650.5563L579.90625 650.5563L576.5469 659.15L575.375 659.15ZM580.40625 656.04065Q580.40625 654.3063 581.3594 653.47815Q582.15625 652.79065 583.3125 652.79065Q584.59375 652.79065 585.40625 653.6344Q586.2344 654.4625 586.2344 655.9469Q586.2344 657.15 585.875 657.8375Q585.5156 658.525 584.8125 658.91565Q584.125 659.29065 583.3125 659.29065Q582.0156 659.29065 581.2031 658.4625Q580.40625 657.6188 580.40625 656.04065ZM581.4844 656.04065Q581.4844 657.22815 582.0 657.8219Q582.53125 658.41565 583.3125 658.41565Q584.1094 658.41565 584.625 657.8219Q585.1406 657.22815 585.1406 656.0094Q585.1406 654.85315 584.6094 654.2594Q584.09375 653.66565 583.3125 653.66565Q582.53125 653.66565 582.0 654.2594Q581.4844 654.8375 581.4844 656.04065ZM587.7656 659.15L587.7656 650.5563L588.8281 650.5563L588.8281 659.15L587.7656 659.15ZM593.09375 658.2125L593.25 659.1344Q592.7969 659.22815 592.4531 659.22815Q591.875 659.22815 591.5625 659.0563Q591.25 658.8688 591.1094 658.5719Q590.9844 658.275 590.9844 657.3219L590.9844 653.7438L590.21875 653.7438L590.21875 652.9313L590.9844 652.9313L590.9844 651.3844L592.03125 650.7594L592.03125 652.9313L593.09375 652.9313L593.09375 653.7438L592.03125 653.7438L592.03125 657.3844Q592.03125 657.8375 592.0781 657.9625Q592.1406 658.0875 592.2656 658.16565Q592.3906 658.2438 592.625 658.2438Q592.8125 658.2438 593.09375 658.2125ZM597.8594 658.3844Q597.2656 658.8844 596.71875 659.0875Q596.1875 659.29065 595.5625 659.29065Q594.53125 659.29065 593.9844 658.79065Q593.4375 658.29065 593.4375 657.5094Q593.4375 657.0563 593.6406 656.6813Q593.84375 656.29065 594.1875 656.0719Q594.53125 655.8375 594.9531 655.72815Q595.25 655.6344 595.8906 655.5563Q597.15625 655.41565 597.7656 655.1969Q597.7656 654.97815 597.7656 654.9313Q597.7656 654.275 597.46875 654.0094Q597.0625 653.66565 596.2656 653.66565Q595.53125 653.66565 595.1719 653.9313Q594.8125 654.1813 594.6406 654.8375L593.6094 654.6969Q593.75 654.04065 594.0781 653.6344Q594.40625 653.22815 595.0156 653.0094Q595.625 652.79065 596.4219 652.79065Q597.21875 652.79065 597.71875 652.97815Q598.21875 653.16565 598.4531 653.4469Q598.6875 653.72815 598.78125 654.16565Q598.8281 654.4313 598.8281 655.1344L598.8281 656.54065Q598.8281 658.0094 598.8906 658.4Q598.96875 658.79065 599.1719 659.15L598.0625 659.15Q597.90625 658.8219 597.8594 658.3844ZM597.7656 656.025Q597.1875 656.2594 596.0469 656.4313Q595.3906 656.525 595.125 656.65Q594.8594 656.7594 594.7031 656.97815Q594.5625 657.1969 594.5625 657.47815Q594.5625 657.9 594.875 658.1813Q595.2031 658.4625 595.8125 658.4625Q596.4219 658.4625 596.8906 658.1969Q597.375 657.9313 597.59375 657.4625Q597.7656 657.10315 597.7656 656.41565L597.7656 656.025ZM600.59375 659.66565L601.625 659.8219Q601.6875 660.29065 601.9844 660.5094Q602.375 660.8063 603.0469 660.8063Q603.78125 660.8063 604.1719 660.5094Q604.5781 660.2125 604.71875 659.6969Q604.8125 659.3688 604.7969 658.3375Q604.1094 659.15 603.0781 659.15Q601.7969 659.15 601.09375 658.22815Q600.3906 657.29065 600.3906 656.0094Q600.3906 655.1188 600.7031 654.3688Q601.03125 653.60315 601.6406 653.1969Q602.25 652.79065 603.0781 652.79065Q604.1875 652.79065 604.90625 653.6813L604.90625 652.9313L605.875 652.9313L605.875 658.3063Q605.875 659.7594 605.5781 660.3688Q605.28125 660.97815 604.6406 661.3219Q604.0 661.6813 603.0625 661.6813Q601.9531 661.6813 601.2656 661.1813Q600.5781 660.6813 600.59375 659.66565ZM601.46875 655.9313Q601.46875 657.15 601.9531 657.7125Q602.4375 658.275 603.1719 658.275Q603.90625 658.275 604.3906 657.7125Q604.8906 657.15 604.8906 655.9625Q604.8906 654.8219 604.375 654.2438Q603.875 653.66565 603.15625 653.66565Q602.4531 653.66565 601.9531 654.2438Q601.46875 654.8063 601.46875 655.9313ZM612.0469 657.15L613.1406 657.275Q612.8906 658.22815 612.1875 658.7594Q611.4844 659.29065 610.40625 659.29065Q609.0469 659.29065 608.2344 658.4469Q607.4375 657.60315 607.4375 656.0875Q607.4375 654.525 608.25 653.66565Q609.0625 652.79065 610.34375 652.79065Q611.59375 652.79065 612.375 653.6344Q613.1719 654.47815 613.1719 656.025Q613.1719 656.1188 613.1719 656.3063L608.53125 656.3063Q608.59375 657.3375 609.1094 657.8844Q609.625 658.41565 610.40625 658.41565Q610.9844 658.41565 611.3906 658.1188Q611.8125 657.8063 612.0469 657.15ZM608.59375 655.4469L612.0625 655.4469Q612.0 654.65 611.6719 654.2594Q611.15625 653.65 610.3594 653.65Q609.625 653.65 609.125 654.1344Q608.6406 654.6188 608.59375 655.4469Z" fill-rule="nonzero"/><path fill="#000000" d="M45.850025 364.3198L39.631275 364.3198L39.631275 363.3823L40.506275 363.3823Q40.037525 363.08542 39.7719 362.60104Q39.49065 362.11667 39.49065 361.49167Q39.49065 360.80417 39.7719 360.36667Q40.05315 359.91354 40.568775 359.74167Q39.49065 358.99167 39.49065 357.8198Q39.49065 356.8823 40.006275 356.39792Q40.506275 355.89792 41.5844 355.89792L45.850025 355.89792L45.850025 356.9448L41.92815 356.9448Q41.30315 356.9448 41.0219 357.05417Q40.74065 357.14792 40.568775 357.41354Q40.3969 357.67917 40.3969 358.05417Q40.3969 358.71042 40.8344 359.14792Q41.2719 359.5698 42.24065 359.5698L45.850025 359.5698L45.850025 360.6323L41.80315 360.6323Q41.100025 360.6323 40.756275 360.89792Q40.3969 361.14792 40.3969 361.72604Q40.3969 362.17917 40.631275 362.55417Q40.86565 362.92917 41.318775 363.10104Q41.7719 363.27292 42.61565 363.27292L45.850025 363.27292L45.850025 364.3198ZM45.850025 351.74167L37.256275 355.0698L37.256275 353.83542L43.506275 351.60104Q44.256275 351.33542 44.912525 351.14792Q44.2094 350.9448 43.506275 350.67917L37.256275 348.36667L37.256275 347.21042L45.850025 350.5698L45.850025 351.74167Z" fill-rule="nonzero"/><path fill="#000000" d="M70.225 611.5719L70.225 610.5094L73.475 610.5094L73.475 611.5719L70.225 611.5719ZM74.35 611.9L75.45937 611.8063Q75.58437 612.6188 76.02187 613.025Q76.475 613.4313 77.11562 613.4313Q77.86562 613.4313 78.39687 612.85315Q78.92812 612.275 78.92812 611.3375Q78.92812 610.4313 78.4125 609.91565Q77.9125 609.3844 77.08437 609.3844Q76.58437 609.3844 76.1625 609.6188Q75.75625 609.85315 75.52187 610.2125L74.5375 610.0875L75.36562 605.6813L79.64687 605.6813L79.64687 606.6813L76.20937 606.6813L75.75625 608.9938Q76.52187 608.4469 77.36562 608.4469Q78.49062 608.4469 79.25625 609.22815Q80.0375 610.0094 80.0375 611.2438Q80.0375 612.4 79.36562 613.2594Q78.5375 614.29065 77.11562 614.29065Q75.94375 614.29065 75.19375 613.6344Q74.45937 612.97815 74.35 611.9ZM81.35 609.91565Q81.35 608.3844 81.6625 607.4625Q81.975 606.525 82.58437 606.025Q83.20937 605.525 84.14687 605.525Q84.83437 605.525 85.35 605.8063Q85.88125 606.0875 86.225 606.6188Q86.56875 607.1344 86.75625 607.8844Q86.94375 608.6344 86.94375 609.91565Q86.94375 611.4313 86.63125 612.35315Q86.33437 613.275 85.70937 613.79065Q85.1 614.29065 84.14687 614.29065Q82.9125 614.29065 82.19375 613.4Q81.35 612.3375 81.35 609.91565ZM82.42812 609.91565Q82.42812 612.025 82.92812 612.72815Q83.42812 613.4313 84.14687 613.4313Q84.88125 613.4313 85.36562 612.72815Q85.86562 612.025 85.86562 609.91565Q85.86562 607.79065 85.36562 607.10315Q84.88125 606.4 84.13125 606.4Q83.4125 606.4 82.975 607.0094Q82.42812 607.79065 82.42812 609.91565Z" fill-rule="nonzero"/><path fill="#000000" d="M70.225 546.43854L70.225 545.37604L73.475 545.37604L73.475 546.43854L70.225 546.43854ZM74.35 546.75104L75.4125 546.6104Q75.58437 547.50104 76.02187 547.9073Q76.45937 548.2979 77.08437 548.2979Q77.83437 548.2979 78.35 547.7823Q78.86562 547.26666 78.86562 546.50104Q78.86562 545.7823 78.38125 545.31354Q77.9125 544.82916 77.17812 544.82916Q76.88125 544.82916 76.42812 544.95416L76.55312 544.01666Q76.6625 544.0323 76.725 544.0323Q77.39687 544.0323 77.92812 543.68854Q78.475 543.32916 78.475 542.5948Q78.475 542.01666 78.08437 541.64166Q77.69375 541.25104 77.06875 541.25104Q76.45937 541.25104 76.0375 541.64166Q75.63125 542.0323 75.52187 542.7979L74.45937 542.6104Q74.64687 541.56354 75.33437 540.9854Q76.02187 540.39166 77.0375 540.39166Q77.74062 540.39166 78.33437 540.70416Q78.92812 541.00104 79.24062 541.51666Q79.55312 542.0323 79.55312 542.62604Q79.55312 543.1729 79.25625 543.64166Q78.95937 544.0948 78.38125 544.3604Q79.13125 544.5323 79.55312 545.0948Q79.975 545.64166 79.975 546.4854Q79.975 547.6104 79.14687 548.39166Q78.33437 549.1729 77.08437 549.1729Q75.95937 549.1729 75.20937 548.50104Q74.45937 547.81354 74.35 546.75104ZM82.975 544.3604Q82.31875 544.1104 81.99062 543.6729Q81.67812 543.2198 81.67812 542.6104Q81.67812 541.6729 82.35 541.0323Q83.0375 540.39166 84.14687 540.39166Q85.27187 540.39166 85.95937 541.0479Q86.64687 541.70416 86.64687 542.64166Q86.64687 543.2354 86.33437 543.6729Q86.02187 544.1104 85.38125 544.3604Q86.17812 544.6104 86.58437 545.18854Q86.99062 545.76666 86.99062 546.56354Q86.99062 547.6573 86.20937 548.4073Q85.44375 549.1573 84.1625 549.1573Q82.89687 549.1573 82.11562 548.4073Q81.33437 547.6573 81.33437 546.5323Q81.33437 545.68854 81.75625 545.12604Q82.19375 544.56354 82.975 544.3604ZM82.75625 542.56354Q82.75625 543.1729 83.14687 543.56354Q83.55312 543.95416 84.17812 543.95416Q84.7875 543.95416 85.17812 543.57916Q85.56875 543.18854 85.56875 542.62604Q85.56875 542.0479 85.1625 541.6573Q84.75625 541.25104 84.1625 541.25104Q83.55312 541.25104 83.14687 541.64166Q82.75625 542.0323 82.75625 542.56354ZM82.42812 546.5323Q82.42812 546.9854 82.63125 547.4073Q82.85 547.82916 83.27187 548.06354Q83.69375 548.2979 84.17812 548.2979Q84.92812 548.2979 85.4125 547.81354Q85.9125 547.32916 85.9125 546.57916Q85.9125 545.81354 85.4125 545.31354Q84.9125 544.81354 84.14687 544.81354Q83.39687 544.81354 82.9125 545.31354Q82.42812 545.7979 82.42812 546.5323Z" fill-rule="nonzero"/><path fill="#000000" d="M70.225 481.3052L70.225 480.2427L73.475 480.2427L73.475 481.3052L70.225 481.3052ZM79.89687 482.8677L79.89687 483.88333L74.20937 483.88333Q74.20937 483.50833 74.33437 483.14896Q74.55312 482.57083 75.02187 482.00833Q75.50625 481.44583 76.4125 480.71146Q77.81875 479.5552 78.30312 478.88333Q78.80312 478.21146 78.80312 477.6177Q78.80312 476.9927 78.35 476.57083Q77.89687 476.13333 77.17812 476.13333Q76.4125 476.13333 75.95937 476.58646Q75.50625 477.03958 75.49062 477.85208L74.4125 477.7427Q74.52187 476.52396 75.24062 475.89896Q75.975 475.25833 77.20937 475.25833Q78.44375 475.25833 79.1625 475.94583Q79.88125 476.63333 79.88125 477.64896Q79.88125 478.16458 79.6625 478.66458Q79.45937 479.14896 78.95937 479.71146Q78.475 480.25833 77.35 481.21146Q76.39687 482.00833 76.11562 482.3052Q75.85 482.58646 75.67812 482.8677L79.89687 482.8677ZM81.35 481.63333L82.45937 481.53958Q82.58437 482.35208 83.02187 482.75833Q83.475 483.16458 84.11562 483.16458Q84.86562 483.16458 85.39687 482.58646Q85.92812 482.00833 85.92812 481.07083Q85.92812 480.16458 85.4125 479.64896Q84.9125 479.1177 84.08437 479.1177Q83.58437 479.1177 83.1625 479.35208Q82.75625 479.58646 82.52187 479.94583L81.5375 479.82083L82.36562 475.41458L86.64687 475.41458L86.64687 476.41458L83.20937 476.41458L82.75625 478.72708Q83.52187 478.1802 84.36562 478.1802Q85.49062 478.1802 86.25625 478.96146Q87.0375 479.7427 87.0375 480.97708Q87.0375 482.13333 86.36562 482.9927Q85.5375 484.02396 84.11562 484.02396Q82.94375 484.02396 82.19375 483.3677Q81.45937 482.71146 81.35 481.63333Z" fill-rule="nonzero"/><path fill="#000000" d="M70.225 416.17188L70.225 415.10938L73.475 415.10938L73.475 416.17188L70.225 416.17188ZM78.31875 418.75L77.27187 418.75L77.27187 412.03125Q76.88125 412.39062 76.25625 412.76562Q75.64687 413.125 75.1625 413.29688L75.1625 412.28125Q76.0375 411.85938 76.69375 411.28125Q77.36562 410.6875 77.64687 410.125L78.31875 410.125L78.31875 418.75ZM81.35 416.48438L82.4125 416.34375Q82.58437 417.23438 83.02187 417.64062Q83.45937 418.03125 84.08437 418.03125Q84.83437 418.03125 85.35 417.51562Q85.86562 417.0 85.86562 416.23438Q85.86562 415.51562 85.38125 415.04688Q84.9125 414.5625 84.17812 414.5625Q83.88125 414.5625 83.42812 414.6875L83.55312 413.75Q83.6625 413.76562 83.725 413.76562Q84.39687 413.76562 84.92812 413.42188Q85.475 413.0625 85.475 412.32812Q85.475 411.75 85.08437 411.375Q84.69375 410.98438 84.06875 410.98438Q83.45937 410.98438 83.0375 411.375Q82.63125 411.76562 82.52187 412.53125L81.45937 412.34375Q81.64687 411.29688 82.33437 410.71875Q83.02187 410.125 84.0375 410.125Q84.74062 410.125 85.33437 410.4375Q85.92812 410.73438 86.24062 411.25Q86.55312 411.76562 86.55312 412.35938Q86.55312 412.90625 86.25625 413.375Q85.95937 413.82812 85.38125 414.09375Q86.13125 414.26562 86.55312 414.82812Q86.975 415.375 86.975 416.21875Q86.975 417.34375 86.14687 418.125Q85.33437 418.90625 84.08437 418.90625Q82.95937 418.90625 82.20937 418.23438Q81.45937 417.54688 81.35 416.48438Z" fill-rule="nonzero"/><path fill="#000000" d="M81.35 349.3823Q81.35 347.85104 81.6625 346.92917Q81.975 345.99167 82.58437 345.49167Q83.20937 344.99167 84.14687 344.99167Q84.83437 344.99167 85.35 345.27292Q85.88125 345.55417 86.225 346.08542Q86.56875 346.60104 86.75625 347.35104Q86.94375 348.10104 86.94375 349.3823Q86.94375 350.89792 86.63125 351.8198Q86.33437 352.74167 85.70937 353.2573Q85.1 353.7573 84.14687 353.7573Q82.9125 353.7573 82.19375 352.86667Q81.35 351.80417 81.35 349.3823ZM82.42812 349.3823Q82.42812 351.49167 82.92812 352.1948Q83.42812 352.89792 84.14687 352.89792Q84.88125 352.89792 85.36562 352.1948Q85.86562 351.49167 85.86562 349.3823Q85.86562 347.2573 85.36562 346.5698Q84.88125 345.86667 84.13125 345.86667Q83.4125 345.86667 82.975 346.47604Q82.42812 347.2573 82.42812 349.3823Z" fill-rule="nonzero"/><path fill="#000000" d="M78.31875 288.48334L77.27187 288.48334L77.27187 281.7646Q76.88125 282.12396 76.25625 282.49896Q75.64687 282.85834 75.1625 283.0302L75.1625 282.0146Q76.0375 281.5927 76.69375 281.0146Q77.36562 280.42084 77.64687 279.85834L78.31875 279.85834L78.31875 288.48334ZM81.35 286.2177L82.4125 286.0771Q82.58437 286.9677 83.02187 287.37396Q83.45937 287.7646 84.08437 287.7646Q84.83437 287.7646 85.35 287.24896Q85.86562 286.73334 85.86562 285.9677Q85.86562 285.24896 85.38125 284.7802Q84.9125 284.29584 84.17812 284.29584Q83.88125 284.29584 83.42812 284.42084L83.55312 283.48334Q83.6625 283.49896 83.725 283.49896Q84.39687 283.49896 84.92812 283.1552Q85.475 282.79584 85.475 282.06146Q85.475 281.48334 85.08437 281.10834Q84.69375 280.7177 84.06875 280.7177Q83.45937 280.7177 83.0375 281.10834Q82.63125 281.49896 82.52187 282.2646L81.45937 282.0771Q81.64687 281.0302 82.33437 280.4521Q83.02187 279.85834 84.0375 279.85834Q84.74062 279.85834 85.33437 280.17084Q85.92812 280.4677 86.24062 280.98334Q86.55312 281.49896 86.55312 282.0927Q86.55312 282.6396 86.25625 283.10834Q85.95937 283.56146 85.38125 283.8271Q86.13125 283.99896 86.55312 284.56146Q86.975 285.10834 86.975 285.9521Q86.975 287.0771 86.14687 287.85834Q85.33437 288.6396 84.08437 288.6396Q82.95937 288.6396 82.20937 287.9677Q81.45937 287.2802 81.35 286.2177Z" fill-rule="nonzero"/><path fill="#000000" d="M79.89687 222.33438L79.89687 223.35L74.20937 223.35Q74.20937 222.975 74.33437 222.61563Q74.55312 222.0375 75.02187 221.475Q75.50625 220.9125 76.4125 220.17813Q77.81875 219.02188 78.30312 218.35Q78.80312 217.67813 78.80312 217.08438Q78.80312 216.45938 78.35 216.0375Q77.89687 215.6 77.17812 215.6Q76.4125 215.6 75.95937 216.05313Q75.50625 216.50626 75.49062 217.31876L74.4125 217.20938Q74.52187 215.99063 75.24062 215.36563Q75.975 214.725 77.20937 214.725Q78.44375 214.725 79.1625 215.4125Q79.88125 216.1 79.88125 217.11563Q79.88125 217.63126 79.6625 218.13126Q79.45937 218.61563 78.95937 219.17813Q78.475 219.725 77.35 220.67813Q76.39687 221.475 76.11562 221.77188Q75.85 222.05313 75.67812 222.33438L79.89687 222.33438ZM81.35 221.1L82.45937 221.00626Q82.58437 221.81876 83.02187 222.225Q83.475 222.63126 84.11562 222.63126Q84.86562 222.63126 85.39687 222.05313Q85.92812 221.475 85.92812 220.5375Q85.92812 219.63126 85.4125 219.11563Q84.9125 218.58438 84.08437 218.58438Q83.58437 218.58438 83.1625 218.81876Q82.75625 219.05313 82.52187 219.4125L81.5375 219.2875L82.36562 214.88126L86.64687 214.88126L86.64687 215.88126L83.20937 215.88126L82.75625 218.19376Q83.52187 217.64688 84.36562 217.64688Q85.49062 217.64688 86.25625 218.42813Q87.0375 219.20938 87.0375 220.44376Q87.0375 221.6 86.36562 222.45938Q85.5375 223.49063 84.11562 223.49063Q82.94375 223.49063 82.19375 222.83438Q81.45937 222.17813 81.35 221.1Z" fill-rule="nonzero"/><path fill="#000000" d="M74.35 155.95103L75.4125 155.81041Q75.58437 156.70103 76.02187 157.10728Q76.45937 157.49791 77.08437 157.49791Q77.83437 157.49791 78.35 156.98228Q78.86562 156.46666 78.86562 155.70103Q78.86562 154.98228 78.38125 154.51353Q77.9125 154.02916 77.17812 154.02916Q76.88125 154.02916 76.42812 154.15416L76.55312 153.21666Q76.6625 153.23228 76.725 153.23228Q77.39687 153.23228 77.92812 152.88853Q78.475 152.52916 78.475 151.79478Q78.475 151.21666 78.08437 150.84166Q77.69375 150.45103 77.06875 150.45103Q76.45937 150.45103 76.0375 150.84166Q75.63125 151.23228 75.52187 151.99791L74.45937 151.81041Q74.64687 150.76353 75.33437 150.18541Q76.02187 149.59166 77.0375 149.59166Q77.74062 149.59166 78.33437 149.90416Q78.92812 150.20103 79.24062 150.71666Q79.55312 151.23228 79.55312 151.82603Q79.55312 152.37291 79.25625 152.84166Q78.95937 153.29478 78.38125 153.56041Q79.13125 153.73228 79.55312 154.29478Q79.975 154.84166 79.975 155.68541Q79.975 156.81041 79.14687 157.59166Q78.33437 158.37291 77.08437 158.37291Q75.95937 158.37291 75.20937 157.70103Q74.45937 157.01353 74.35 155.95103ZM82.975 153.56041Q82.31875 153.31041 81.99062 152.87291Q81.67812 152.41978 81.67812 151.81041Q81.67812 150.87291 82.35 150.23228Q83.0375 149.59166 84.14687 149.59166Q85.27187 149.59166 85.95937 150.24791Q86.64687 150.90416 86.64687 151.84166Q86.64687 152.43541 86.33437 152.87291Q86.02187 153.31041 85.38125 153.56041Q86.17812 153.81041 86.58437 154.38853Q86.99062 154.96666 86.99062 155.76353Q86.99062 156.85728 86.20937 157.60728Q85.44375 158.35728 84.1625 158.35728Q82.89687 158.35728 82.11562 157.60728Q81.33437 156.85728 81.33437 155.73228Q81.33437 154.88853 81.75625 154.32603Q82.19375 153.76353 82.975 153.56041ZM82.75625 151.76353Q82.75625 152.37291 83.14687 152.76353Q83.55312 153.15416 84.17812 153.15416Q84.7875 153.15416 85.17812 152.77916Q85.56875 152.38853 85.56875 151.82603Q85.56875 151.24791 85.1625 150.85728Q84.75625 150.45103 84.1625 150.45103Q83.55312 150.45103 83.14687 150.84166Q82.75625 151.23228 82.75625 151.76353ZM82.42812 155.73228Q82.42812 156.18541 82.63125 156.60728Q82.85 157.02916 83.27187 157.26353Q83.69375 157.49791 84.17812 157.49791Q84.92812 157.49791 85.4125 157.01353Q85.9125 156.52916 85.9125 155.77916Q85.9125 155.01353 85.4125 154.51353Q84.9125 154.01353 84.14687 154.01353Q83.39687 154.01353 82.9125 154.51353Q82.42812 154.99791 82.42812 155.73228Z" fill-rule="nonzero"/><path fill="#000000" d="M74.35 90.833336L75.45937 90.739586Q75.58437 91.552086 76.02187 91.958336Q76.475 92.364586 77.11562 92.364586Q77.86562 92.364586 78.39687 91.78646Q78.92812 91.208336 78.92812 90.270836Q78.92812 89.364586 78.4125 88.84896Q77.9125 88.31771 77.08437 88.31771Q76.58437 88.31771 76.1625 88.552086Q75.75625 88.78646 75.52187 89.145836L74.5375 89.020836L75.36562 84.614586L79.64687 84.614586L79.64687 85.614586L76.20937 85.614586L75.75625 87.927086Q76.52187 87.38021 77.36562 87.38021Q78.49062 87.38021 79.25625 88.16146Q80.0375 88.94271 80.0375 90.177086Q80.0375 91.333336 79.36562 92.19271Q78.5375 93.22396 77.11562 93.22396Q75.94375 93.22396 75.19375 92.56771Q74.45937 91.91146 74.35 90.833336ZM81.35 88.84896Q81.35 87.31771 81.6625 86.395836Q81.975 85.458336 82.58437 84.958336Q83.20937 84.458336 84.14687 84.458336Q84.83437 84.458336 85.35 84.739586Q85.88125 85.020836 86.225 85.552086Q86.56875 86.06771 86.75625 86.81771Q86.94375 87.56771 86.94375 88.84896Q86.94375 90.364586 86.63125 91.28646Q86.33437 92.208336 85.70937 92.72396Q85.1 93.22396 84.14687 93.22396Q82.9125 93.22396 82.19375 92.333336Q81.35 91.270836 81.35 88.84896ZM82.42812 88.84896Q82.42812 90.958336 82.92812 91.66146Q83.42812 92.364586 84.14687 92.364586Q84.88125 92.364586 85.36562 91.66146Q85.86562 90.958336 85.86562 88.84896Q85.86562 86.72396 85.36562 86.03646Q84.88125 85.333336 84.13125 85.333336Q83.4125 85.333336 82.975 85.94271Q82.42812 86.72396 82.42812 88.84896Z" fill-rule="nonzero"/><path fill="#000000" d="M90.85 622.91565Q90.85 621.3844 91.1625 620.4625Q91.475 619.525 92.08437 619.025Q92.70937 618.525 93.64687 618.525Q94.33437 618.525 94.85 618.8063Q95.38125 619.0875 95.725 619.6188Q96.06875 620.1344 96.25625 620.8844Q96.44375 621.6344 96.44375 622.91565Q96.44375 624.4313 96.13125 625.35315Q95.83437 626.275 95.20937 626.79065Q94.6 627.29065 93.64687 627.29065Q92.4125 627.29065 91.69375 626.4Q90.85 625.3375 90.85 622.91565ZM91.92812 622.91565Q91.92812 625.025 92.42812 625.72815Q92.92812 626.4313 93.64687 626.4313Q94.38125 626.4313 94.86562 625.72815Q95.36562 625.025 95.36562 622.91565Q95.36562 620.79065 94.86562 620.10315Q94.38125 619.4 93.63125 619.4Q92.9125 619.4 92.475 620.0094Q91.92812 620.79065 91.92812 622.91565Z" fill-rule="nonzero"/><path fill="#000000" d="M400.38962 627.15L399.34274 627.15L399.34274 620.4313Q398.95212 620.79065 398.32712 621.16565Q397.71774 621.525 397.23337 621.6969L397.23337 620.6813Q398.10837 620.2594 398.76462 619.6813Q399.4365 619.0875 399.71774 618.525L400.38962 618.525L400.38962 627.15Z" fill-rule="nonzero"/><path fill="#000000" d="M707.5386 626.1344L707.5386 627.15L701.8511 627.15Q701.8511 626.775 701.9761 626.41565Q702.1948 625.8375 702.6636 625.275Q703.14795 624.7125 704.0542 623.97815Q705.46045 622.8219 705.9448 622.15Q706.4448 621.47815 706.4448 620.8844Q706.4448 620.2594 705.9917 619.8375Q705.5386 619.4 704.8198 619.4Q704.0542 619.4 703.6011 619.85315Q703.14795 620.3063 703.1323 621.1188L702.0542 621.0094Q702.1636 619.79065 702.8823 619.16565Q703.6167 618.525 704.8511 618.525Q706.08545 618.525 706.8042 619.2125Q707.52295 619.9 707.52295 620.91565Q707.52295 621.4313 707.3042 621.9313Q707.1011 622.41565 706.6011 622.97815Q706.1167 623.525 704.9917 624.47815Q704.0386 625.275 703.7573 625.5719Q703.4917 625.85315 703.3198 626.1344L707.5386 626.1344Z" fill-rule="nonzero"/><path fill="#000000" d="M1007.56256 624.8844L1008.62506 624.7438Q1008.79694 625.6344 1009.23444 626.04065Q1009.67194 626.4313 1010.29694 626.4313Q1011.04694 626.4313 1011.56256 625.91565Q1012.0782 625.4 1012.0782 624.6344Q1012.0782 623.91565 1011.5938 623.4469Q1011.12506 622.9625 1010.3907 622.9625Q1010.0938 622.9625 1009.6407 623.0875L1009.7657 622.15Q1009.87506 622.16565 1009.93756 622.16565Q1010.60944 622.16565 1011.1407 621.8219Q1011.68756 621.4625 1011.68756 620.72815Q1011.68756 620.15 1011.29694 619.775Q1010.9063 619.3844 1010.2813 619.3844Q1009.67194 619.3844 1009.25006 619.775Q1008.8438 620.16565 1008.73444 620.9313L1007.67194 620.7438Q1007.85944 619.6969 1008.54694 619.1188Q1009.23444 618.525 1010.25006 618.525Q1010.9532 618.525 1011.54694 618.8375Q1012.1407 619.1344 1012.4532 619.65Q1012.7657 620.16565 1012.7657 620.7594Q1012.7657 621.3063 1012.4688 621.775Q1012.17194 622.22815 1011.5938 622.4938Q1012.3438 622.66565 1012.7657 623.22815Q1013.18756 623.775 1013.18756 624.6188Q1013.18756 625.7438 1012.35944 626.525Q1011.54694 627.3063 1010.29694 627.3063Q1009.17194 627.3063 1008.42194 626.6344Q1007.67194 625.9469 1007.56256 624.8844Z" fill-rule="nonzero"/><path fill="#757575" d="M36.428123 53.85L36.428123 39.5375L46.7875 39.5375L46.7875 41.225L38.334373 41.225L38.334373 45.6L46.240623 45.6L46.240623 47.2875L38.334373 47.2875L38.334373 52.1625L47.115623 52.1625L47.115623 53.85L36.428123 53.85ZM49.146873 53.85L49.146873 43.475L50.725 43.475L50.725 45.053123Q51.334373 43.94375 51.85 43.6Q52.365623 43.240623 52.975 43.240623Q53.865623 43.240623 54.7875 43.803123L54.178123 45.44375Q53.5375 45.053123 52.896873 45.053123Q52.31875 45.053123 51.85 45.4125Q51.396873 45.75625 51.19375 46.365623Q50.9125 47.303123 50.9125 48.4125L50.9125 53.85L49.146873 53.85ZM56.146873 53.85L56.146873 43.475L57.725 43.475L57.725 45.053123Q58.334373 43.94375 58.85 43.6Q59.365623 43.240623 59.975 43.240623Q60.865623 43.240623 61.7875 43.803123L61.178123 45.44375Q60.5375 45.053123 59.896873 45.053123Q59.31875 45.053123 58.85 45.4125Q58.396873 45.75625 58.19375 46.365623Q57.9125 47.303123 57.9125 48.4125L57.9125 53.85L56.146873 53.85ZM62.521873 48.6625Q62.521873 45.7875 64.11562 44.396873Q65.45937 43.240623 67.38125 43.240623Q69.52187 43.240623 70.86562 44.646873Q72.225 46.053123 72.225 48.521873Q72.225 50.521873 71.63125 51.678123Q71.0375 52.81875 69.88125 53.459373Q68.74062 54.084373 67.38125 54.084373Q65.19375 54.084373 63.85 52.69375Q62.521873 51.2875 62.521873 48.6625ZM64.31875 48.6625Q64.31875 50.6625 65.17812 51.646873Q66.05312 52.63125 67.38125 52.63125Q68.69375 52.63125 69.55312 51.646873Q70.42812 50.646873 70.42812 48.6Q70.42812 46.678123 69.55312 45.69375Q68.67812 44.69375 67.38125 44.69375Q66.05312 44.69375 65.17812 45.69375Q64.31875 46.678123 64.31875 48.6625ZM74.14687 53.85L74.14687 43.475L75.725 43.475L75.725 45.053123Q76.33437 43.94375 76.85 43.6Q77.36562 43.240623 77.975 43.240623Q78.86562 43.240623 79.7875 43.803123L79.17812 45.44375Q78.5375 45.053123 77.89687 45.053123Q77.31875 45.053123 76.85 45.4125Q76.39687 45.75625 76.19375 46.365623Q75.9125 47.303123 75.9125 48.4125L75.9125 53.85L74.14687 53.85Z" fill-rule="nonzero"/></svg>